%TF.GenerationSoftware,KiCad,Pcbnew,8.0.1*%
%TF.CreationDate,2024-06-06T10:40:47+02:00*%
%TF.ProjectId,led_strip_stand_lamp,6c65645f-7374-4726-9970-5f7374616e64,rev?*%
%TF.SameCoordinates,Original*%
%TF.FileFunction,Drillmap*%
%TF.FilePolarity,Positive*%
%FSLAX45Y45*%
G04 Gerber Fmt 4.5, Leading zero omitted, Abs format (unit mm)*
G04 Created by KiCad (PCBNEW 8.0.1) date 2024-06-06 10:40:48*
%MOMM*%
%LPD*%
G01*
G04 APERTURE LIST*
%ADD10C,0.050000*%
%ADD11C,0.200000*%
%ADD12C,0.100000*%
%ADD13C,0.320000*%
G04 APERTURE END LIST*
D10*
X-2006968Y2624230D02*
X-2148389Y2765651D01*
X2627321Y-2010476D02*
X2768743Y-2151898D01*
X-2714257Y-2151634D02*
G75*
G02*
X-2714075Y2200000I2741590J2175702D01*
G01*
X2061844Y2624021D02*
X2203266Y2765443D01*
X-2572862Y-2010268D02*
X-2714257Y-2151668D01*
X-2572654Y2058544D02*
X-2714075Y2199965D01*
X2203057Y-2717583D02*
G75*
G02*
X-2148619Y-2717401I-2175723J2741617D01*
G01*
X2061636Y-2576162D02*
X2203057Y-2717583D01*
X-2007176Y-2575954D02*
X-2148598Y-2717375D01*
X2768925Y2199736D02*
G75*
G02*
X2768743Y-2151898I-2741591J-2175702D01*
G01*
X2061636Y-2576162D02*
G75*
G02*
X2627321Y-2010476I282843J282842D01*
G01*
X-2572862Y-2010268D02*
G75*
G02*
X-2007176Y-2575953I282843J-282843D01*
G01*
X-2006968Y2624230D02*
G75*
G02*
X-2572654Y2058544I-282843J-282843D01*
G01*
X-2148389Y2765651D02*
G75*
G02*
X2203286Y2765469I2175723J-2741617D01*
G01*
X2627531Y2058334D02*
G75*
G02*
X2061844Y2624021I-282851J282836D01*
G01*
X2627530Y2058336D02*
X2768925Y2199736D01*
D11*
D12*
X-3060000Y316203D02*
X-2980000Y236203D01*
X-2980000Y316203D02*
X-3060000Y236203D01*
X-3060000Y-183797D02*
X-2980000Y-263797D01*
X-2980000Y-183797D02*
X-3060000Y-263797D01*
D13*
X-1362666Y-1525966D02*
G75*
G02*
X-1682666Y-1525966I-160000J0D01*
G01*
X-1682666Y-1525966D02*
G75*
G02*
X-1362666Y-1525966I160000J0D01*
G01*
X1737334Y1574034D02*
G75*
G02*
X1417334Y1574034I-160000J0D01*
G01*
X1417334Y1574034D02*
G75*
G02*
X1737334Y1574034I160000J0D01*
G01*
D11*
X-3214389Y-3789983D02*
X-3214389Y-3589983D01*
X-3214389Y-3589983D02*
X-3166770Y-3589983D01*
X-3166770Y-3589983D02*
X-3138199Y-3599507D01*
X-3138199Y-3599507D02*
X-3119151Y-3618555D01*
X-3119151Y-3618555D02*
X-3109627Y-3637602D01*
X-3109627Y-3637602D02*
X-3100103Y-3675697D01*
X-3100103Y-3675697D02*
X-3100103Y-3704269D01*
X-3100103Y-3704269D02*
X-3109627Y-3742364D01*
X-3109627Y-3742364D02*
X-3119151Y-3761412D01*
X-3119151Y-3761412D02*
X-3138199Y-3780459D01*
X-3138199Y-3780459D02*
X-3166770Y-3789983D01*
X-3166770Y-3789983D02*
X-3214389Y-3789983D01*
X-3014389Y-3789983D02*
X-3014389Y-3656650D01*
X-3014389Y-3694745D02*
X-3004865Y-3675697D01*
X-3004865Y-3675697D02*
X-2995341Y-3666174D01*
X-2995341Y-3666174D02*
X-2976294Y-3656650D01*
X-2976294Y-3656650D02*
X-2957246Y-3656650D01*
X-2890580Y-3789983D02*
X-2890580Y-3656650D01*
X-2890580Y-3589983D02*
X-2900103Y-3599507D01*
X-2900103Y-3599507D02*
X-2890580Y-3609031D01*
X-2890580Y-3609031D02*
X-2881056Y-3599507D01*
X-2881056Y-3599507D02*
X-2890580Y-3589983D01*
X-2890580Y-3589983D02*
X-2890580Y-3609031D01*
X-2766770Y-3789983D02*
X-2785818Y-3780459D01*
X-2785818Y-3780459D02*
X-2795342Y-3761412D01*
X-2795342Y-3761412D02*
X-2795342Y-3589983D01*
X-2662008Y-3789983D02*
X-2681056Y-3780459D01*
X-2681056Y-3780459D02*
X-2690580Y-3761412D01*
X-2690580Y-3761412D02*
X-2690580Y-3589983D01*
X-2433437Y-3789983D02*
X-2433437Y-3589983D01*
X-2433437Y-3589983D02*
X-2366770Y-3732840D01*
X-2366770Y-3732840D02*
X-2300103Y-3589983D01*
X-2300103Y-3589983D02*
X-2300103Y-3789983D01*
X-2119151Y-3789983D02*
X-2119151Y-3685221D01*
X-2119151Y-3685221D02*
X-2128675Y-3666174D01*
X-2128675Y-3666174D02*
X-2147722Y-3656650D01*
X-2147722Y-3656650D02*
X-2185818Y-3656650D01*
X-2185818Y-3656650D02*
X-2204865Y-3666174D01*
X-2119151Y-3780459D02*
X-2138199Y-3789983D01*
X-2138199Y-3789983D02*
X-2185818Y-3789983D01*
X-2185818Y-3789983D02*
X-2204865Y-3780459D01*
X-2204865Y-3780459D02*
X-2214389Y-3761412D01*
X-2214389Y-3761412D02*
X-2214389Y-3742364D01*
X-2214389Y-3742364D02*
X-2204865Y-3723317D01*
X-2204865Y-3723317D02*
X-2185818Y-3713793D01*
X-2185818Y-3713793D02*
X-2138199Y-3713793D01*
X-2138199Y-3713793D02*
X-2119151Y-3704269D01*
X-2023913Y-3656650D02*
X-2023913Y-3856650D01*
X-2023913Y-3666174D02*
X-2004865Y-3656650D01*
X-2004865Y-3656650D02*
X-1966770Y-3656650D01*
X-1966770Y-3656650D02*
X-1947722Y-3666174D01*
X-1947722Y-3666174D02*
X-1938199Y-3675697D01*
X-1938199Y-3675697D02*
X-1928675Y-3694745D01*
X-1928675Y-3694745D02*
X-1928675Y-3751888D01*
X-1928675Y-3751888D02*
X-1938199Y-3770936D01*
X-1938199Y-3770936D02*
X-1947722Y-3780459D01*
X-1947722Y-3780459D02*
X-1966770Y-3789983D01*
X-1966770Y-3789983D02*
X-2004865Y-3789983D01*
X-2004865Y-3789983D02*
X-2023913Y-3780459D01*
X-1842960Y-3770936D02*
X-1833437Y-3780459D01*
X-1833437Y-3780459D02*
X-1842960Y-3789983D01*
X-1842960Y-3789983D02*
X-1852484Y-3780459D01*
X-1852484Y-3780459D02*
X-1842960Y-3770936D01*
X-1842960Y-3770936D02*
X-1842960Y-3789983D01*
X-1842960Y-3666174D02*
X-1833437Y-3675697D01*
X-1833437Y-3675697D02*
X-1842960Y-3685221D01*
X-1842960Y-3685221D02*
X-1852484Y-3675697D01*
X-1852484Y-3675697D02*
X-1842960Y-3666174D01*
X-1842960Y-3666174D02*
X-1842960Y-3685221D01*
D12*
X-3555166Y-4078499D02*
X-3475166Y-4158499D01*
X-3475166Y-4078499D02*
X-3555166Y-4158499D01*
D11*
X-3176294Y-4009983D02*
X-3157246Y-4009983D01*
X-3157246Y-4009983D02*
X-3138199Y-4019507D01*
X-3138199Y-4019507D02*
X-3128675Y-4029031D01*
X-3128675Y-4029031D02*
X-3119151Y-4048078D01*
X-3119151Y-4048078D02*
X-3109627Y-4086174D01*
X-3109627Y-4086174D02*
X-3109627Y-4133793D01*
X-3109627Y-4133793D02*
X-3119151Y-4171888D01*
X-3119151Y-4171888D02*
X-3128675Y-4190936D01*
X-3128675Y-4190936D02*
X-3138199Y-4200460D01*
X-3138199Y-4200460D02*
X-3157246Y-4209983D01*
X-3157246Y-4209983D02*
X-3176294Y-4209983D01*
X-3176294Y-4209983D02*
X-3195341Y-4200460D01*
X-3195341Y-4200460D02*
X-3204865Y-4190936D01*
X-3204865Y-4190936D02*
X-3214389Y-4171888D01*
X-3214389Y-4171888D02*
X-3223913Y-4133793D01*
X-3223913Y-4133793D02*
X-3223913Y-4086174D01*
X-3223913Y-4086174D02*
X-3214389Y-4048078D01*
X-3214389Y-4048078D02*
X-3204865Y-4029031D01*
X-3204865Y-4029031D02*
X-3195341Y-4019507D01*
X-3195341Y-4019507D02*
X-3176294Y-4009983D01*
X-3023913Y-4190936D02*
X-3014389Y-4200460D01*
X-3014389Y-4200460D02*
X-3023913Y-4209983D01*
X-3023913Y-4209983D02*
X-3033437Y-4200460D01*
X-3033437Y-4200460D02*
X-3023913Y-4190936D01*
X-3023913Y-4190936D02*
X-3023913Y-4209983D01*
X-2900103Y-4095697D02*
X-2919151Y-4086174D01*
X-2919151Y-4086174D02*
X-2928675Y-4076650D01*
X-2928675Y-4076650D02*
X-2938199Y-4057602D01*
X-2938199Y-4057602D02*
X-2938199Y-4048078D01*
X-2938199Y-4048078D02*
X-2928675Y-4029031D01*
X-2928675Y-4029031D02*
X-2919151Y-4019507D01*
X-2919151Y-4019507D02*
X-2900103Y-4009983D01*
X-2900103Y-4009983D02*
X-2862008Y-4009983D01*
X-2862008Y-4009983D02*
X-2842960Y-4019507D01*
X-2842960Y-4019507D02*
X-2833437Y-4029031D01*
X-2833437Y-4029031D02*
X-2823913Y-4048078D01*
X-2823913Y-4048078D02*
X-2823913Y-4057602D01*
X-2823913Y-4057602D02*
X-2833437Y-4076650D01*
X-2833437Y-4076650D02*
X-2842960Y-4086174D01*
X-2842960Y-4086174D02*
X-2862008Y-4095697D01*
X-2862008Y-4095697D02*
X-2900103Y-4095697D01*
X-2900103Y-4095697D02*
X-2919151Y-4105221D01*
X-2919151Y-4105221D02*
X-2928675Y-4114745D01*
X-2928675Y-4114745D02*
X-2938199Y-4133793D01*
X-2938199Y-4133793D02*
X-2938199Y-4171888D01*
X-2938199Y-4171888D02*
X-2928675Y-4190936D01*
X-2928675Y-4190936D02*
X-2919151Y-4200460D01*
X-2919151Y-4200460D02*
X-2900103Y-4209983D01*
X-2900103Y-4209983D02*
X-2862008Y-4209983D01*
X-2862008Y-4209983D02*
X-2842960Y-4200460D01*
X-2842960Y-4200460D02*
X-2833437Y-4190936D01*
X-2833437Y-4190936D02*
X-2823913Y-4171888D01*
X-2823913Y-4171888D02*
X-2823913Y-4133793D01*
X-2823913Y-4133793D02*
X-2833437Y-4114745D01*
X-2833437Y-4114745D02*
X-2842960Y-4105221D01*
X-2842960Y-4105221D02*
X-2862008Y-4095697D01*
X-2700103Y-4009983D02*
X-2681056Y-4009983D01*
X-2681056Y-4009983D02*
X-2662008Y-4019507D01*
X-2662008Y-4019507D02*
X-2652484Y-4029031D01*
X-2652484Y-4029031D02*
X-2642961Y-4048078D01*
X-2642961Y-4048078D02*
X-2633437Y-4086174D01*
X-2633437Y-4086174D02*
X-2633437Y-4133793D01*
X-2633437Y-4133793D02*
X-2642961Y-4171888D01*
X-2642961Y-4171888D02*
X-2652484Y-4190936D01*
X-2652484Y-4190936D02*
X-2662008Y-4200460D01*
X-2662008Y-4200460D02*
X-2681056Y-4209983D01*
X-2681056Y-4209983D02*
X-2700103Y-4209983D01*
X-2700103Y-4209983D02*
X-2719151Y-4200460D01*
X-2719151Y-4200460D02*
X-2728675Y-4190936D01*
X-2728675Y-4190936D02*
X-2738199Y-4171888D01*
X-2738199Y-4171888D02*
X-2747722Y-4133793D01*
X-2747722Y-4133793D02*
X-2747722Y-4086174D01*
X-2747722Y-4086174D02*
X-2738199Y-4048078D01*
X-2738199Y-4048078D02*
X-2728675Y-4029031D01*
X-2728675Y-4029031D02*
X-2719151Y-4019507D01*
X-2719151Y-4019507D02*
X-2700103Y-4009983D01*
X-2509627Y-4009983D02*
X-2490580Y-4009983D01*
X-2490580Y-4009983D02*
X-2471532Y-4019507D01*
X-2471532Y-4019507D02*
X-2462008Y-4029031D01*
X-2462008Y-4029031D02*
X-2452484Y-4048078D01*
X-2452484Y-4048078D02*
X-2442961Y-4086174D01*
X-2442961Y-4086174D02*
X-2442961Y-4133793D01*
X-2442961Y-4133793D02*
X-2452484Y-4171888D01*
X-2452484Y-4171888D02*
X-2462008Y-4190936D01*
X-2462008Y-4190936D02*
X-2471532Y-4200460D01*
X-2471532Y-4200460D02*
X-2490580Y-4209983D01*
X-2490580Y-4209983D02*
X-2509627Y-4209983D01*
X-2509627Y-4209983D02*
X-2528675Y-4200460D01*
X-2528675Y-4200460D02*
X-2538199Y-4190936D01*
X-2538199Y-4190936D02*
X-2547722Y-4171888D01*
X-2547722Y-4171888D02*
X-2557246Y-4133793D01*
X-2557246Y-4133793D02*
X-2557246Y-4086174D01*
X-2557246Y-4086174D02*
X-2547722Y-4048078D01*
X-2547722Y-4048078D02*
X-2538199Y-4029031D01*
X-2538199Y-4029031D02*
X-2528675Y-4019507D01*
X-2528675Y-4019507D02*
X-2509627Y-4009983D01*
X-2357246Y-4209983D02*
X-2357246Y-4076650D01*
X-2357246Y-4095697D02*
X-2347722Y-4086174D01*
X-2347722Y-4086174D02*
X-2328675Y-4076650D01*
X-2328675Y-4076650D02*
X-2300103Y-4076650D01*
X-2300103Y-4076650D02*
X-2281056Y-4086174D01*
X-2281056Y-4086174D02*
X-2271532Y-4105221D01*
X-2271532Y-4105221D02*
X-2271532Y-4209983D01*
X-2271532Y-4105221D02*
X-2262008Y-4086174D01*
X-2262008Y-4086174D02*
X-2242961Y-4076650D01*
X-2242961Y-4076650D02*
X-2214389Y-4076650D01*
X-2214389Y-4076650D02*
X-2195341Y-4086174D01*
X-2195341Y-4086174D02*
X-2185818Y-4105221D01*
X-2185818Y-4105221D02*
X-2185818Y-4209983D01*
X-2090579Y-4209983D02*
X-2090579Y-4076650D01*
X-2090579Y-4095697D02*
X-2081056Y-4086174D01*
X-2081056Y-4086174D02*
X-2062008Y-4076650D01*
X-2062008Y-4076650D02*
X-2033437Y-4076650D01*
X-2033437Y-4076650D02*
X-2014389Y-4086174D01*
X-2014389Y-4086174D02*
X-2004865Y-4105221D01*
X-2004865Y-4105221D02*
X-2004865Y-4209983D01*
X-2004865Y-4105221D02*
X-1995341Y-4086174D01*
X-1995341Y-4086174D02*
X-1976294Y-4076650D01*
X-1976294Y-4076650D02*
X-1947722Y-4076650D01*
X-1947722Y-4076650D02*
X-1928675Y-4086174D01*
X-1928675Y-4086174D02*
X-1919151Y-4105221D01*
X-1919151Y-4105221D02*
X-1919151Y-4209983D01*
X-1528675Y-4000459D02*
X-1700103Y-4257602D01*
X-1271532Y-4009983D02*
X-1252484Y-4009983D01*
X-1252484Y-4009983D02*
X-1233437Y-4019507D01*
X-1233437Y-4019507D02*
X-1223913Y-4029031D01*
X-1223913Y-4029031D02*
X-1214389Y-4048078D01*
X-1214389Y-4048078D02*
X-1204865Y-4086174D01*
X-1204865Y-4086174D02*
X-1204865Y-4133793D01*
X-1204865Y-4133793D02*
X-1214389Y-4171888D01*
X-1214389Y-4171888D02*
X-1223913Y-4190936D01*
X-1223913Y-4190936D02*
X-1233437Y-4200460D01*
X-1233437Y-4200460D02*
X-1252484Y-4209983D01*
X-1252484Y-4209983D02*
X-1271532Y-4209983D01*
X-1271532Y-4209983D02*
X-1290579Y-4200460D01*
X-1290579Y-4200460D02*
X-1300103Y-4190936D01*
X-1300103Y-4190936D02*
X-1309627Y-4171888D01*
X-1309627Y-4171888D02*
X-1319151Y-4133793D01*
X-1319151Y-4133793D02*
X-1319151Y-4086174D01*
X-1319151Y-4086174D02*
X-1309627Y-4048078D01*
X-1309627Y-4048078D02*
X-1300103Y-4029031D01*
X-1300103Y-4029031D02*
X-1290579Y-4019507D01*
X-1290579Y-4019507D02*
X-1271532Y-4009983D01*
X-1119151Y-4190936D02*
X-1109627Y-4200460D01*
X-1109627Y-4200460D02*
X-1119151Y-4209983D01*
X-1119151Y-4209983D02*
X-1128675Y-4200460D01*
X-1128675Y-4200460D02*
X-1119151Y-4190936D01*
X-1119151Y-4190936D02*
X-1119151Y-4209983D01*
X-985817Y-4009983D02*
X-966770Y-4009983D01*
X-966770Y-4009983D02*
X-947722Y-4019507D01*
X-947722Y-4019507D02*
X-938198Y-4029031D01*
X-938198Y-4029031D02*
X-928675Y-4048078D01*
X-928675Y-4048078D02*
X-919151Y-4086174D01*
X-919151Y-4086174D02*
X-919151Y-4133793D01*
X-919151Y-4133793D02*
X-928675Y-4171888D01*
X-928675Y-4171888D02*
X-938198Y-4190936D01*
X-938198Y-4190936D02*
X-947722Y-4200460D01*
X-947722Y-4200460D02*
X-966770Y-4209983D01*
X-966770Y-4209983D02*
X-985817Y-4209983D01*
X-985817Y-4209983D02*
X-1004865Y-4200460D01*
X-1004865Y-4200460D02*
X-1014389Y-4190936D01*
X-1014389Y-4190936D02*
X-1023913Y-4171888D01*
X-1023913Y-4171888D02*
X-1033436Y-4133793D01*
X-1033436Y-4133793D02*
X-1033436Y-4086174D01*
X-1033436Y-4086174D02*
X-1023913Y-4048078D01*
X-1023913Y-4048078D02*
X-1014389Y-4029031D01*
X-1014389Y-4029031D02*
X-1004865Y-4019507D01*
X-1004865Y-4019507D02*
X-985817Y-4009983D01*
X-852484Y-4009983D02*
X-728675Y-4009983D01*
X-728675Y-4009983D02*
X-795341Y-4086174D01*
X-795341Y-4086174D02*
X-766770Y-4086174D01*
X-766770Y-4086174D02*
X-747722Y-4095697D01*
X-747722Y-4095697D02*
X-738198Y-4105221D01*
X-738198Y-4105221D02*
X-728675Y-4124269D01*
X-728675Y-4124269D02*
X-728675Y-4171888D01*
X-728675Y-4171888D02*
X-738198Y-4190936D01*
X-738198Y-4190936D02*
X-747722Y-4200460D01*
X-747722Y-4200460D02*
X-766770Y-4209983D01*
X-766770Y-4209983D02*
X-823913Y-4209983D01*
X-823913Y-4209983D02*
X-842960Y-4200460D01*
X-842960Y-4200460D02*
X-852484Y-4190936D01*
X-538198Y-4209983D02*
X-652484Y-4209983D01*
X-595341Y-4209983D02*
X-595341Y-4009983D01*
X-595341Y-4009983D02*
X-614389Y-4038555D01*
X-614389Y-4038555D02*
X-633437Y-4057602D01*
X-633437Y-4057602D02*
X-652484Y-4067126D01*
X-357246Y-4009983D02*
X-452484Y-4009983D01*
X-452484Y-4009983D02*
X-462008Y-4105221D01*
X-462008Y-4105221D02*
X-452484Y-4095697D01*
X-452484Y-4095697D02*
X-433436Y-4086174D01*
X-433436Y-4086174D02*
X-385817Y-4086174D01*
X-385817Y-4086174D02*
X-366770Y-4095697D01*
X-366770Y-4095697D02*
X-357246Y-4105221D01*
X-357246Y-4105221D02*
X-347722Y-4124269D01*
X-347722Y-4124269D02*
X-347722Y-4171888D01*
X-347722Y-4171888D02*
X-357246Y-4190936D01*
X-357246Y-4190936D02*
X-366770Y-4200460D01*
X-366770Y-4200460D02*
X-385817Y-4209983D01*
X-385817Y-4209983D02*
X-433436Y-4209983D01*
X-433436Y-4209983D02*
X-452484Y-4200460D01*
X-452484Y-4200460D02*
X-462008Y-4190936D01*
X-271532Y-4009983D02*
X-271532Y-4048078D01*
X-195341Y-4009983D02*
X-195341Y-4048078D01*
X99897Y-4286174D02*
X90373Y-4276650D01*
X90373Y-4276650D02*
X71325Y-4248079D01*
X71325Y-4248079D02*
X61802Y-4229031D01*
X61802Y-4229031D02*
X52278Y-4200460D01*
X52278Y-4200460D02*
X42754Y-4152840D01*
X42754Y-4152840D02*
X42754Y-4114745D01*
X42754Y-4114745D02*
X52278Y-4067126D01*
X52278Y-4067126D02*
X61802Y-4038555D01*
X61802Y-4038555D02*
X71325Y-4019507D01*
X71325Y-4019507D02*
X90373Y-3990936D01*
X90373Y-3990936D02*
X99897Y-3981412D01*
X166564Y-4029031D02*
X176087Y-4019507D01*
X176087Y-4019507D02*
X195135Y-4009983D01*
X195135Y-4009983D02*
X242754Y-4009983D01*
X242754Y-4009983D02*
X261802Y-4019507D01*
X261802Y-4019507D02*
X271325Y-4029031D01*
X271325Y-4029031D02*
X280849Y-4048078D01*
X280849Y-4048078D02*
X280849Y-4067126D01*
X280849Y-4067126D02*
X271325Y-4095697D01*
X271325Y-4095697D02*
X157040Y-4209983D01*
X157040Y-4209983D02*
X280849Y-4209983D01*
X518944Y-4209983D02*
X518944Y-4009983D01*
X604659Y-4209983D02*
X604659Y-4105221D01*
X604659Y-4105221D02*
X595135Y-4086174D01*
X595135Y-4086174D02*
X576087Y-4076650D01*
X576087Y-4076650D02*
X547516Y-4076650D01*
X547516Y-4076650D02*
X528468Y-4086174D01*
X528468Y-4086174D02*
X518944Y-4095697D01*
X728468Y-4209983D02*
X709421Y-4200460D01*
X709421Y-4200460D02*
X699897Y-4190936D01*
X699897Y-4190936D02*
X690373Y-4171888D01*
X690373Y-4171888D02*
X690373Y-4114745D01*
X690373Y-4114745D02*
X699897Y-4095697D01*
X699897Y-4095697D02*
X709421Y-4086174D01*
X709421Y-4086174D02*
X728468Y-4076650D01*
X728468Y-4076650D02*
X757040Y-4076650D01*
X757040Y-4076650D02*
X776087Y-4086174D01*
X776087Y-4086174D02*
X785611Y-4095697D01*
X785611Y-4095697D02*
X795135Y-4114745D01*
X795135Y-4114745D02*
X795135Y-4171888D01*
X795135Y-4171888D02*
X785611Y-4190936D01*
X785611Y-4190936D02*
X776087Y-4200460D01*
X776087Y-4200460D02*
X757040Y-4209983D01*
X757040Y-4209983D02*
X728468Y-4209983D01*
X909421Y-4209983D02*
X890373Y-4200460D01*
X890373Y-4200460D02*
X880849Y-4181412D01*
X880849Y-4181412D02*
X880849Y-4009983D01*
X1061802Y-4200460D02*
X1042754Y-4209983D01*
X1042754Y-4209983D02*
X1004659Y-4209983D01*
X1004659Y-4209983D02*
X985611Y-4200460D01*
X985611Y-4200460D02*
X976087Y-4181412D01*
X976087Y-4181412D02*
X976087Y-4105221D01*
X976087Y-4105221D02*
X985611Y-4086174D01*
X985611Y-4086174D02*
X1004659Y-4076650D01*
X1004659Y-4076650D02*
X1042754Y-4076650D01*
X1042754Y-4076650D02*
X1061802Y-4086174D01*
X1061802Y-4086174D02*
X1071326Y-4105221D01*
X1071326Y-4105221D02*
X1071326Y-4124269D01*
X1071326Y-4124269D02*
X976087Y-4143317D01*
X1147516Y-4200460D02*
X1166564Y-4209983D01*
X1166564Y-4209983D02*
X1204659Y-4209983D01*
X1204659Y-4209983D02*
X1223707Y-4200460D01*
X1223707Y-4200460D02*
X1233230Y-4181412D01*
X1233230Y-4181412D02*
X1233230Y-4171888D01*
X1233230Y-4171888D02*
X1223707Y-4152840D01*
X1223707Y-4152840D02*
X1204659Y-4143317D01*
X1204659Y-4143317D02*
X1176087Y-4143317D01*
X1176087Y-4143317D02*
X1157040Y-4133793D01*
X1157040Y-4133793D02*
X1147516Y-4114745D01*
X1147516Y-4114745D02*
X1147516Y-4105221D01*
X1147516Y-4105221D02*
X1157040Y-4086174D01*
X1157040Y-4086174D02*
X1176087Y-4076650D01*
X1176087Y-4076650D02*
X1204659Y-4076650D01*
X1204659Y-4076650D02*
X1223707Y-4086174D01*
X1299897Y-4286174D02*
X1309421Y-4276650D01*
X1309421Y-4276650D02*
X1328468Y-4248079D01*
X1328468Y-4248079D02*
X1337992Y-4229031D01*
X1337992Y-4229031D02*
X1347516Y-4200460D01*
X1347516Y-4200460D02*
X1357040Y-4152840D01*
X1357040Y-4152840D02*
X1357040Y-4114745D01*
X1357040Y-4114745D02*
X1347516Y-4067126D01*
X1347516Y-4067126D02*
X1337992Y-4038555D01*
X1337992Y-4038555D02*
X1328468Y-4019507D01*
X1328468Y-4019507D02*
X1309421Y-3990936D01*
X1309421Y-3990936D02*
X1299897Y-3981412D01*
X1661802Y-4286174D02*
X1652278Y-4276650D01*
X1652278Y-4276650D02*
X1633230Y-4248079D01*
X1633230Y-4248079D02*
X1623706Y-4229031D01*
X1623706Y-4229031D02*
X1614183Y-4200460D01*
X1614183Y-4200460D02*
X1604659Y-4152840D01*
X1604659Y-4152840D02*
X1604659Y-4114745D01*
X1604659Y-4114745D02*
X1614183Y-4067126D01*
X1614183Y-4067126D02*
X1623706Y-4038555D01*
X1623706Y-4038555D02*
X1633230Y-4019507D01*
X1633230Y-4019507D02*
X1652278Y-3990936D01*
X1652278Y-3990936D02*
X1661802Y-3981412D01*
X1737992Y-4076650D02*
X1737992Y-4209983D01*
X1737992Y-4095697D02*
X1747516Y-4086174D01*
X1747516Y-4086174D02*
X1766564Y-4076650D01*
X1766564Y-4076650D02*
X1795135Y-4076650D01*
X1795135Y-4076650D02*
X1814183Y-4086174D01*
X1814183Y-4086174D02*
X1823706Y-4105221D01*
X1823706Y-4105221D02*
X1823706Y-4209983D01*
X1947516Y-4209983D02*
X1928468Y-4200460D01*
X1928468Y-4200460D02*
X1918945Y-4190936D01*
X1918945Y-4190936D02*
X1909421Y-4171888D01*
X1909421Y-4171888D02*
X1909421Y-4114745D01*
X1909421Y-4114745D02*
X1918945Y-4095697D01*
X1918945Y-4095697D02*
X1928468Y-4086174D01*
X1928468Y-4086174D02*
X1947516Y-4076650D01*
X1947516Y-4076650D02*
X1976087Y-4076650D01*
X1976087Y-4076650D02*
X1995135Y-4086174D01*
X1995135Y-4086174D02*
X2004659Y-4095697D01*
X2004659Y-4095697D02*
X2014183Y-4114745D01*
X2014183Y-4114745D02*
X2014183Y-4171888D01*
X2014183Y-4171888D02*
X2004659Y-4190936D01*
X2004659Y-4190936D02*
X1995135Y-4200460D01*
X1995135Y-4200460D02*
X1976087Y-4209983D01*
X1976087Y-4209983D02*
X1947516Y-4209983D01*
X2071326Y-4076650D02*
X2147516Y-4076650D01*
X2099897Y-4009983D02*
X2099897Y-4181412D01*
X2099897Y-4181412D02*
X2109421Y-4200460D01*
X2109421Y-4200460D02*
X2128468Y-4209983D01*
X2128468Y-4209983D02*
X2147516Y-4209983D01*
X2366564Y-4076650D02*
X2366564Y-4276650D01*
X2366564Y-4086174D02*
X2385611Y-4076650D01*
X2385611Y-4076650D02*
X2423707Y-4076650D01*
X2423707Y-4076650D02*
X2442754Y-4086174D01*
X2442754Y-4086174D02*
X2452278Y-4095697D01*
X2452278Y-4095697D02*
X2461802Y-4114745D01*
X2461802Y-4114745D02*
X2461802Y-4171888D01*
X2461802Y-4171888D02*
X2452278Y-4190936D01*
X2452278Y-4190936D02*
X2442754Y-4200460D01*
X2442754Y-4200460D02*
X2423707Y-4209983D01*
X2423707Y-4209983D02*
X2385611Y-4209983D01*
X2385611Y-4209983D02*
X2366564Y-4200460D01*
X2576088Y-4209983D02*
X2557040Y-4200460D01*
X2557040Y-4200460D02*
X2547516Y-4181412D01*
X2547516Y-4181412D02*
X2547516Y-4009983D01*
X2737992Y-4209983D02*
X2737992Y-4105221D01*
X2737992Y-4105221D02*
X2728469Y-4086174D01*
X2728469Y-4086174D02*
X2709421Y-4076650D01*
X2709421Y-4076650D02*
X2671326Y-4076650D01*
X2671326Y-4076650D02*
X2652278Y-4086174D01*
X2737992Y-4200460D02*
X2718945Y-4209983D01*
X2718945Y-4209983D02*
X2671326Y-4209983D01*
X2671326Y-4209983D02*
X2652278Y-4200460D01*
X2652278Y-4200460D02*
X2642754Y-4181412D01*
X2642754Y-4181412D02*
X2642754Y-4162364D01*
X2642754Y-4162364D02*
X2652278Y-4143317D01*
X2652278Y-4143317D02*
X2671326Y-4133793D01*
X2671326Y-4133793D02*
X2718945Y-4133793D01*
X2718945Y-4133793D02*
X2737992Y-4124269D01*
X2804659Y-4076650D02*
X2880849Y-4076650D01*
X2833230Y-4009983D02*
X2833230Y-4181412D01*
X2833230Y-4181412D02*
X2842754Y-4200460D01*
X2842754Y-4200460D02*
X2861802Y-4209983D01*
X2861802Y-4209983D02*
X2880849Y-4209983D01*
X3023707Y-4200460D02*
X3004659Y-4209983D01*
X3004659Y-4209983D02*
X2966564Y-4209983D01*
X2966564Y-4209983D02*
X2947516Y-4200460D01*
X2947516Y-4200460D02*
X2937992Y-4181412D01*
X2937992Y-4181412D02*
X2937992Y-4105221D01*
X2937992Y-4105221D02*
X2947516Y-4086174D01*
X2947516Y-4086174D02*
X2966564Y-4076650D01*
X2966564Y-4076650D02*
X3004659Y-4076650D01*
X3004659Y-4076650D02*
X3023707Y-4086174D01*
X3023707Y-4086174D02*
X3033230Y-4105221D01*
X3033230Y-4105221D02*
X3033230Y-4124269D01*
X3033230Y-4124269D02*
X2937992Y-4143317D01*
X3204659Y-4209983D02*
X3204659Y-4009983D01*
X3204659Y-4200460D02*
X3185611Y-4209983D01*
X3185611Y-4209983D02*
X3147516Y-4209983D01*
X3147516Y-4209983D02*
X3128468Y-4200460D01*
X3128468Y-4200460D02*
X3118945Y-4190936D01*
X3118945Y-4190936D02*
X3109421Y-4171888D01*
X3109421Y-4171888D02*
X3109421Y-4114745D01*
X3109421Y-4114745D02*
X3118945Y-4095697D01*
X3118945Y-4095697D02*
X3128468Y-4086174D01*
X3128468Y-4086174D02*
X3147516Y-4076650D01*
X3147516Y-4076650D02*
X3185611Y-4076650D01*
X3185611Y-4076650D02*
X3204659Y-4086174D01*
X3280849Y-4286174D02*
X3290373Y-4276650D01*
X3290373Y-4276650D02*
X3309421Y-4248079D01*
X3309421Y-4248079D02*
X3318945Y-4229031D01*
X3318945Y-4229031D02*
X3328468Y-4200460D01*
X3328468Y-4200460D02*
X3337992Y-4152840D01*
X3337992Y-4152840D02*
X3337992Y-4114745D01*
X3337992Y-4114745D02*
X3328468Y-4067126D01*
X3328468Y-4067126D02*
X3318945Y-4038555D01*
X3318945Y-4038555D02*
X3309421Y-4019507D01*
X3309421Y-4019507D02*
X3290373Y-3990936D01*
X3290373Y-3990936D02*
X3280849Y-3981412D01*
X-3475166Y-4382500D02*
G75*
G02*
X-3675166Y-4382500I-100000J0D01*
G01*
X-3675166Y-4382500D02*
G75*
G02*
X-3475166Y-4382500I100000J0D01*
G01*
X-3233437Y-4273983D02*
X-3109627Y-4273983D01*
X-3109627Y-4273983D02*
X-3176294Y-4350174D01*
X-3176294Y-4350174D02*
X-3147722Y-4350174D01*
X-3147722Y-4350174D02*
X-3128675Y-4359698D01*
X-3128675Y-4359698D02*
X-3119151Y-4369221D01*
X-3119151Y-4369221D02*
X-3109627Y-4388269D01*
X-3109627Y-4388269D02*
X-3109627Y-4435888D01*
X-3109627Y-4435888D02*
X-3119151Y-4454936D01*
X-3119151Y-4454936D02*
X-3128675Y-4464460D01*
X-3128675Y-4464460D02*
X-3147722Y-4473983D01*
X-3147722Y-4473983D02*
X-3204865Y-4473983D01*
X-3204865Y-4473983D02*
X-3223913Y-4464460D01*
X-3223913Y-4464460D02*
X-3233437Y-4454936D01*
X-3023913Y-4454936D02*
X-3014389Y-4464460D01*
X-3014389Y-4464460D02*
X-3023913Y-4473983D01*
X-3023913Y-4473983D02*
X-3033437Y-4464460D01*
X-3033437Y-4464460D02*
X-3023913Y-4454936D01*
X-3023913Y-4454936D02*
X-3023913Y-4473983D01*
X-2938199Y-4293031D02*
X-2928675Y-4283507D01*
X-2928675Y-4283507D02*
X-2909627Y-4273983D01*
X-2909627Y-4273983D02*
X-2862008Y-4273983D01*
X-2862008Y-4273983D02*
X-2842960Y-4283507D01*
X-2842960Y-4283507D02*
X-2833437Y-4293031D01*
X-2833437Y-4293031D02*
X-2823913Y-4312079D01*
X-2823913Y-4312079D02*
X-2823913Y-4331126D01*
X-2823913Y-4331126D02*
X-2833437Y-4359698D01*
X-2833437Y-4359698D02*
X-2947722Y-4473983D01*
X-2947722Y-4473983D02*
X-2823913Y-4473983D01*
X-2700103Y-4273983D02*
X-2681056Y-4273983D01*
X-2681056Y-4273983D02*
X-2662008Y-4283507D01*
X-2662008Y-4283507D02*
X-2652484Y-4293031D01*
X-2652484Y-4293031D02*
X-2642961Y-4312079D01*
X-2642961Y-4312079D02*
X-2633437Y-4350174D01*
X-2633437Y-4350174D02*
X-2633437Y-4397793D01*
X-2633437Y-4397793D02*
X-2642961Y-4435888D01*
X-2642961Y-4435888D02*
X-2652484Y-4454936D01*
X-2652484Y-4454936D02*
X-2662008Y-4464460D01*
X-2662008Y-4464460D02*
X-2681056Y-4473983D01*
X-2681056Y-4473983D02*
X-2700103Y-4473983D01*
X-2700103Y-4473983D02*
X-2719151Y-4464460D01*
X-2719151Y-4464460D02*
X-2728675Y-4454936D01*
X-2728675Y-4454936D02*
X-2738199Y-4435888D01*
X-2738199Y-4435888D02*
X-2747722Y-4397793D01*
X-2747722Y-4397793D02*
X-2747722Y-4350174D01*
X-2747722Y-4350174D02*
X-2738199Y-4312079D01*
X-2738199Y-4312079D02*
X-2728675Y-4293031D01*
X-2728675Y-4293031D02*
X-2719151Y-4283507D01*
X-2719151Y-4283507D02*
X-2700103Y-4273983D01*
X-2509627Y-4273983D02*
X-2490580Y-4273983D01*
X-2490580Y-4273983D02*
X-2471532Y-4283507D01*
X-2471532Y-4283507D02*
X-2462008Y-4293031D01*
X-2462008Y-4293031D02*
X-2452484Y-4312079D01*
X-2452484Y-4312079D02*
X-2442961Y-4350174D01*
X-2442961Y-4350174D02*
X-2442961Y-4397793D01*
X-2442961Y-4397793D02*
X-2452484Y-4435888D01*
X-2452484Y-4435888D02*
X-2462008Y-4454936D01*
X-2462008Y-4454936D02*
X-2471532Y-4464460D01*
X-2471532Y-4464460D02*
X-2490580Y-4473983D01*
X-2490580Y-4473983D02*
X-2509627Y-4473983D01*
X-2509627Y-4473983D02*
X-2528675Y-4464460D01*
X-2528675Y-4464460D02*
X-2538199Y-4454936D01*
X-2538199Y-4454936D02*
X-2547722Y-4435888D01*
X-2547722Y-4435888D02*
X-2557246Y-4397793D01*
X-2557246Y-4397793D02*
X-2557246Y-4350174D01*
X-2557246Y-4350174D02*
X-2547722Y-4312079D01*
X-2547722Y-4312079D02*
X-2538199Y-4293031D01*
X-2538199Y-4293031D02*
X-2528675Y-4283507D01*
X-2528675Y-4283507D02*
X-2509627Y-4273983D01*
X-2357246Y-4473983D02*
X-2357246Y-4340650D01*
X-2357246Y-4359698D02*
X-2347722Y-4350174D01*
X-2347722Y-4350174D02*
X-2328675Y-4340650D01*
X-2328675Y-4340650D02*
X-2300103Y-4340650D01*
X-2300103Y-4340650D02*
X-2281056Y-4350174D01*
X-2281056Y-4350174D02*
X-2271532Y-4369221D01*
X-2271532Y-4369221D02*
X-2271532Y-4473983D01*
X-2271532Y-4369221D02*
X-2262008Y-4350174D01*
X-2262008Y-4350174D02*
X-2242961Y-4340650D01*
X-2242961Y-4340650D02*
X-2214389Y-4340650D01*
X-2214389Y-4340650D02*
X-2195341Y-4350174D01*
X-2195341Y-4350174D02*
X-2185818Y-4369221D01*
X-2185818Y-4369221D02*
X-2185818Y-4473983D01*
X-2090579Y-4473983D02*
X-2090579Y-4340650D01*
X-2090579Y-4359698D02*
X-2081056Y-4350174D01*
X-2081056Y-4350174D02*
X-2062008Y-4340650D01*
X-2062008Y-4340650D02*
X-2033437Y-4340650D01*
X-2033437Y-4340650D02*
X-2014389Y-4350174D01*
X-2014389Y-4350174D02*
X-2004865Y-4369221D01*
X-2004865Y-4369221D02*
X-2004865Y-4473983D01*
X-2004865Y-4369221D02*
X-1995341Y-4350174D01*
X-1995341Y-4350174D02*
X-1976294Y-4340650D01*
X-1976294Y-4340650D02*
X-1947722Y-4340650D01*
X-1947722Y-4340650D02*
X-1928675Y-4350174D01*
X-1928675Y-4350174D02*
X-1919151Y-4369221D01*
X-1919151Y-4369221D02*
X-1919151Y-4473983D01*
X-1528675Y-4264460D02*
X-1700103Y-4521602D01*
X-1271532Y-4273983D02*
X-1252484Y-4273983D01*
X-1252484Y-4273983D02*
X-1233437Y-4283507D01*
X-1233437Y-4283507D02*
X-1223913Y-4293031D01*
X-1223913Y-4293031D02*
X-1214389Y-4312079D01*
X-1214389Y-4312079D02*
X-1204865Y-4350174D01*
X-1204865Y-4350174D02*
X-1204865Y-4397793D01*
X-1204865Y-4397793D02*
X-1214389Y-4435888D01*
X-1214389Y-4435888D02*
X-1223913Y-4454936D01*
X-1223913Y-4454936D02*
X-1233437Y-4464460D01*
X-1233437Y-4464460D02*
X-1252484Y-4473983D01*
X-1252484Y-4473983D02*
X-1271532Y-4473983D01*
X-1271532Y-4473983D02*
X-1290579Y-4464460D01*
X-1290579Y-4464460D02*
X-1300103Y-4454936D01*
X-1300103Y-4454936D02*
X-1309627Y-4435888D01*
X-1309627Y-4435888D02*
X-1319151Y-4397793D01*
X-1319151Y-4397793D02*
X-1319151Y-4350174D01*
X-1319151Y-4350174D02*
X-1309627Y-4312079D01*
X-1309627Y-4312079D02*
X-1300103Y-4293031D01*
X-1300103Y-4293031D02*
X-1290579Y-4283507D01*
X-1290579Y-4283507D02*
X-1271532Y-4273983D01*
X-1119151Y-4454936D02*
X-1109627Y-4464460D01*
X-1109627Y-4464460D02*
X-1119151Y-4473983D01*
X-1119151Y-4473983D02*
X-1128675Y-4464460D01*
X-1128675Y-4464460D02*
X-1119151Y-4454936D01*
X-1119151Y-4454936D02*
X-1119151Y-4473983D01*
X-919151Y-4473983D02*
X-1033436Y-4473983D01*
X-976294Y-4473983D02*
X-976294Y-4273983D01*
X-976294Y-4273983D02*
X-995341Y-4302555D01*
X-995341Y-4302555D02*
X-1014389Y-4321602D01*
X-1014389Y-4321602D02*
X-1033436Y-4331126D01*
X-842960Y-4293031D02*
X-833436Y-4283507D01*
X-833436Y-4283507D02*
X-814389Y-4273983D01*
X-814389Y-4273983D02*
X-766770Y-4273983D01*
X-766770Y-4273983D02*
X-747722Y-4283507D01*
X-747722Y-4283507D02*
X-738198Y-4293031D01*
X-738198Y-4293031D02*
X-728675Y-4312079D01*
X-728675Y-4312079D02*
X-728675Y-4331126D01*
X-728675Y-4331126D02*
X-738198Y-4359698D01*
X-738198Y-4359698D02*
X-852484Y-4473983D01*
X-852484Y-4473983D02*
X-728675Y-4473983D01*
X-557246Y-4273983D02*
X-595341Y-4273983D01*
X-595341Y-4273983D02*
X-614389Y-4283507D01*
X-614389Y-4283507D02*
X-623913Y-4293031D01*
X-623913Y-4293031D02*
X-642960Y-4321602D01*
X-642960Y-4321602D02*
X-652484Y-4359698D01*
X-652484Y-4359698D02*
X-652484Y-4435888D01*
X-652484Y-4435888D02*
X-642960Y-4454936D01*
X-642960Y-4454936D02*
X-633437Y-4464460D01*
X-633437Y-4464460D02*
X-614389Y-4473983D01*
X-614389Y-4473983D02*
X-576294Y-4473983D01*
X-576294Y-4473983D02*
X-557246Y-4464460D01*
X-557246Y-4464460D02*
X-547722Y-4454936D01*
X-547722Y-4454936D02*
X-538198Y-4435888D01*
X-538198Y-4435888D02*
X-538198Y-4388269D01*
X-538198Y-4388269D02*
X-547722Y-4369221D01*
X-547722Y-4369221D02*
X-557246Y-4359698D01*
X-557246Y-4359698D02*
X-576294Y-4350174D01*
X-576294Y-4350174D02*
X-614389Y-4350174D01*
X-614389Y-4350174D02*
X-633437Y-4359698D01*
X-633437Y-4359698D02*
X-642960Y-4369221D01*
X-642960Y-4369221D02*
X-652484Y-4388269D01*
X-414389Y-4273983D02*
X-395341Y-4273983D01*
X-395341Y-4273983D02*
X-376294Y-4283507D01*
X-376294Y-4283507D02*
X-366770Y-4293031D01*
X-366770Y-4293031D02*
X-357246Y-4312079D01*
X-357246Y-4312079D02*
X-347722Y-4350174D01*
X-347722Y-4350174D02*
X-347722Y-4397793D01*
X-347722Y-4397793D02*
X-357246Y-4435888D01*
X-357246Y-4435888D02*
X-366770Y-4454936D01*
X-366770Y-4454936D02*
X-376294Y-4464460D01*
X-376294Y-4464460D02*
X-395341Y-4473983D01*
X-395341Y-4473983D02*
X-414389Y-4473983D01*
X-414389Y-4473983D02*
X-433436Y-4464460D01*
X-433436Y-4464460D02*
X-442960Y-4454936D01*
X-442960Y-4454936D02*
X-452484Y-4435888D01*
X-452484Y-4435888D02*
X-462008Y-4397793D01*
X-462008Y-4397793D02*
X-462008Y-4350174D01*
X-462008Y-4350174D02*
X-452484Y-4312079D01*
X-452484Y-4312079D02*
X-442960Y-4293031D01*
X-442960Y-4293031D02*
X-433436Y-4283507D01*
X-433436Y-4283507D02*
X-414389Y-4273983D01*
X-271532Y-4273983D02*
X-271532Y-4312079D01*
X-195341Y-4273983D02*
X-195341Y-4312079D01*
X99897Y-4550174D02*
X90373Y-4540650D01*
X90373Y-4540650D02*
X71325Y-4512079D01*
X71325Y-4512079D02*
X61802Y-4493031D01*
X61802Y-4493031D02*
X52278Y-4464460D01*
X52278Y-4464460D02*
X42754Y-4416840D01*
X42754Y-4416840D02*
X42754Y-4378745D01*
X42754Y-4378745D02*
X52278Y-4331126D01*
X52278Y-4331126D02*
X61802Y-4302555D01*
X61802Y-4302555D02*
X71325Y-4283507D01*
X71325Y-4283507D02*
X90373Y-4254936D01*
X90373Y-4254936D02*
X99897Y-4245412D01*
X166564Y-4293031D02*
X176087Y-4283507D01*
X176087Y-4283507D02*
X195135Y-4273983D01*
X195135Y-4273983D02*
X242754Y-4273983D01*
X242754Y-4273983D02*
X261802Y-4283507D01*
X261802Y-4283507D02*
X271325Y-4293031D01*
X271325Y-4293031D02*
X280849Y-4312079D01*
X280849Y-4312079D02*
X280849Y-4331126D01*
X280849Y-4331126D02*
X271325Y-4359698D01*
X271325Y-4359698D02*
X157040Y-4473983D01*
X157040Y-4473983D02*
X280849Y-4473983D01*
X518944Y-4473983D02*
X518944Y-4273983D01*
X604659Y-4473983D02*
X604659Y-4369221D01*
X604659Y-4369221D02*
X595135Y-4350174D01*
X595135Y-4350174D02*
X576087Y-4340650D01*
X576087Y-4340650D02*
X547516Y-4340650D01*
X547516Y-4340650D02*
X528468Y-4350174D01*
X528468Y-4350174D02*
X518944Y-4359698D01*
X728468Y-4473983D02*
X709421Y-4464460D01*
X709421Y-4464460D02*
X699897Y-4454936D01*
X699897Y-4454936D02*
X690373Y-4435888D01*
X690373Y-4435888D02*
X690373Y-4378745D01*
X690373Y-4378745D02*
X699897Y-4359698D01*
X699897Y-4359698D02*
X709421Y-4350174D01*
X709421Y-4350174D02*
X728468Y-4340650D01*
X728468Y-4340650D02*
X757040Y-4340650D01*
X757040Y-4340650D02*
X776087Y-4350174D01*
X776087Y-4350174D02*
X785611Y-4359698D01*
X785611Y-4359698D02*
X795135Y-4378745D01*
X795135Y-4378745D02*
X795135Y-4435888D01*
X795135Y-4435888D02*
X785611Y-4454936D01*
X785611Y-4454936D02*
X776087Y-4464460D01*
X776087Y-4464460D02*
X757040Y-4473983D01*
X757040Y-4473983D02*
X728468Y-4473983D01*
X909421Y-4473983D02*
X890373Y-4464460D01*
X890373Y-4464460D02*
X880849Y-4445412D01*
X880849Y-4445412D02*
X880849Y-4273983D01*
X1061802Y-4464460D02*
X1042754Y-4473983D01*
X1042754Y-4473983D02*
X1004659Y-4473983D01*
X1004659Y-4473983D02*
X985611Y-4464460D01*
X985611Y-4464460D02*
X976087Y-4445412D01*
X976087Y-4445412D02*
X976087Y-4369221D01*
X976087Y-4369221D02*
X985611Y-4350174D01*
X985611Y-4350174D02*
X1004659Y-4340650D01*
X1004659Y-4340650D02*
X1042754Y-4340650D01*
X1042754Y-4340650D02*
X1061802Y-4350174D01*
X1061802Y-4350174D02*
X1071326Y-4369221D01*
X1071326Y-4369221D02*
X1071326Y-4388269D01*
X1071326Y-4388269D02*
X976087Y-4407317D01*
X1147516Y-4464460D02*
X1166564Y-4473983D01*
X1166564Y-4473983D02*
X1204659Y-4473983D01*
X1204659Y-4473983D02*
X1223707Y-4464460D01*
X1223707Y-4464460D02*
X1233230Y-4445412D01*
X1233230Y-4445412D02*
X1233230Y-4435888D01*
X1233230Y-4435888D02*
X1223707Y-4416840D01*
X1223707Y-4416840D02*
X1204659Y-4407317D01*
X1204659Y-4407317D02*
X1176087Y-4407317D01*
X1176087Y-4407317D02*
X1157040Y-4397793D01*
X1157040Y-4397793D02*
X1147516Y-4378745D01*
X1147516Y-4378745D02*
X1147516Y-4369221D01*
X1147516Y-4369221D02*
X1157040Y-4350174D01*
X1157040Y-4350174D02*
X1176087Y-4340650D01*
X1176087Y-4340650D02*
X1204659Y-4340650D01*
X1204659Y-4340650D02*
X1223707Y-4350174D01*
X1299897Y-4550174D02*
X1309421Y-4540650D01*
X1309421Y-4540650D02*
X1328468Y-4512079D01*
X1328468Y-4512079D02*
X1337992Y-4493031D01*
X1337992Y-4493031D02*
X1347516Y-4464460D01*
X1347516Y-4464460D02*
X1357040Y-4416840D01*
X1357040Y-4416840D02*
X1357040Y-4378745D01*
X1357040Y-4378745D02*
X1347516Y-4331126D01*
X1347516Y-4331126D02*
X1337992Y-4302555D01*
X1337992Y-4302555D02*
X1328468Y-4283507D01*
X1328468Y-4283507D02*
X1309421Y-4254936D01*
X1309421Y-4254936D02*
X1299897Y-4245412D01*
X1661802Y-4550174D02*
X1652278Y-4540650D01*
X1652278Y-4540650D02*
X1633230Y-4512079D01*
X1633230Y-4512079D02*
X1623706Y-4493031D01*
X1623706Y-4493031D02*
X1614183Y-4464460D01*
X1614183Y-4464460D02*
X1604659Y-4416840D01*
X1604659Y-4416840D02*
X1604659Y-4378745D01*
X1604659Y-4378745D02*
X1614183Y-4331126D01*
X1614183Y-4331126D02*
X1623706Y-4302555D01*
X1623706Y-4302555D02*
X1633230Y-4283507D01*
X1633230Y-4283507D02*
X1652278Y-4254936D01*
X1652278Y-4254936D02*
X1661802Y-4245412D01*
X1737992Y-4340650D02*
X1737992Y-4473983D01*
X1737992Y-4359698D02*
X1747516Y-4350174D01*
X1747516Y-4350174D02*
X1766564Y-4340650D01*
X1766564Y-4340650D02*
X1795135Y-4340650D01*
X1795135Y-4340650D02*
X1814183Y-4350174D01*
X1814183Y-4350174D02*
X1823706Y-4369221D01*
X1823706Y-4369221D02*
X1823706Y-4473983D01*
X1947516Y-4473983D02*
X1928468Y-4464460D01*
X1928468Y-4464460D02*
X1918945Y-4454936D01*
X1918945Y-4454936D02*
X1909421Y-4435888D01*
X1909421Y-4435888D02*
X1909421Y-4378745D01*
X1909421Y-4378745D02*
X1918945Y-4359698D01*
X1918945Y-4359698D02*
X1928468Y-4350174D01*
X1928468Y-4350174D02*
X1947516Y-4340650D01*
X1947516Y-4340650D02*
X1976087Y-4340650D01*
X1976087Y-4340650D02*
X1995135Y-4350174D01*
X1995135Y-4350174D02*
X2004659Y-4359698D01*
X2004659Y-4359698D02*
X2014183Y-4378745D01*
X2014183Y-4378745D02*
X2014183Y-4435888D01*
X2014183Y-4435888D02*
X2004659Y-4454936D01*
X2004659Y-4454936D02*
X1995135Y-4464460D01*
X1995135Y-4464460D02*
X1976087Y-4473983D01*
X1976087Y-4473983D02*
X1947516Y-4473983D01*
X2071326Y-4340650D02*
X2147516Y-4340650D01*
X2099897Y-4273983D02*
X2099897Y-4445412D01*
X2099897Y-4445412D02*
X2109421Y-4464460D01*
X2109421Y-4464460D02*
X2128468Y-4473983D01*
X2128468Y-4473983D02*
X2147516Y-4473983D01*
X2366564Y-4340650D02*
X2366564Y-4540650D01*
X2366564Y-4350174D02*
X2385611Y-4340650D01*
X2385611Y-4340650D02*
X2423707Y-4340650D01*
X2423707Y-4340650D02*
X2442754Y-4350174D01*
X2442754Y-4350174D02*
X2452278Y-4359698D01*
X2452278Y-4359698D02*
X2461802Y-4378745D01*
X2461802Y-4378745D02*
X2461802Y-4435888D01*
X2461802Y-4435888D02*
X2452278Y-4454936D01*
X2452278Y-4454936D02*
X2442754Y-4464460D01*
X2442754Y-4464460D02*
X2423707Y-4473983D01*
X2423707Y-4473983D02*
X2385611Y-4473983D01*
X2385611Y-4473983D02*
X2366564Y-4464460D01*
X2576088Y-4473983D02*
X2557040Y-4464460D01*
X2557040Y-4464460D02*
X2547516Y-4445412D01*
X2547516Y-4445412D02*
X2547516Y-4273983D01*
X2737992Y-4473983D02*
X2737992Y-4369221D01*
X2737992Y-4369221D02*
X2728469Y-4350174D01*
X2728469Y-4350174D02*
X2709421Y-4340650D01*
X2709421Y-4340650D02*
X2671326Y-4340650D01*
X2671326Y-4340650D02*
X2652278Y-4350174D01*
X2737992Y-4464460D02*
X2718945Y-4473983D01*
X2718945Y-4473983D02*
X2671326Y-4473983D01*
X2671326Y-4473983D02*
X2652278Y-4464460D01*
X2652278Y-4464460D02*
X2642754Y-4445412D01*
X2642754Y-4445412D02*
X2642754Y-4426364D01*
X2642754Y-4426364D02*
X2652278Y-4407317D01*
X2652278Y-4407317D02*
X2671326Y-4397793D01*
X2671326Y-4397793D02*
X2718945Y-4397793D01*
X2718945Y-4397793D02*
X2737992Y-4388269D01*
X2804659Y-4340650D02*
X2880849Y-4340650D01*
X2833230Y-4273983D02*
X2833230Y-4445412D01*
X2833230Y-4445412D02*
X2842754Y-4464460D01*
X2842754Y-4464460D02*
X2861802Y-4473983D01*
X2861802Y-4473983D02*
X2880849Y-4473983D01*
X3023707Y-4464460D02*
X3004659Y-4473983D01*
X3004659Y-4473983D02*
X2966564Y-4473983D01*
X2966564Y-4473983D02*
X2947516Y-4464460D01*
X2947516Y-4464460D02*
X2937992Y-4445412D01*
X2937992Y-4445412D02*
X2937992Y-4369221D01*
X2937992Y-4369221D02*
X2947516Y-4350174D01*
X2947516Y-4350174D02*
X2966564Y-4340650D01*
X2966564Y-4340650D02*
X3004659Y-4340650D01*
X3004659Y-4340650D02*
X3023707Y-4350174D01*
X3023707Y-4350174D02*
X3033230Y-4369221D01*
X3033230Y-4369221D02*
X3033230Y-4388269D01*
X3033230Y-4388269D02*
X2937992Y-4407317D01*
X3204659Y-4473983D02*
X3204659Y-4273983D01*
X3204659Y-4464460D02*
X3185611Y-4473983D01*
X3185611Y-4473983D02*
X3147516Y-4473983D01*
X3147516Y-4473983D02*
X3128468Y-4464460D01*
X3128468Y-4464460D02*
X3118945Y-4454936D01*
X3118945Y-4454936D02*
X3109421Y-4435888D01*
X3109421Y-4435888D02*
X3109421Y-4378745D01*
X3109421Y-4378745D02*
X3118945Y-4359698D01*
X3118945Y-4359698D02*
X3128468Y-4350174D01*
X3128468Y-4350174D02*
X3147516Y-4340650D01*
X3147516Y-4340650D02*
X3185611Y-4340650D01*
X3185611Y-4340650D02*
X3204659Y-4350174D01*
X3280849Y-4550174D02*
X3290373Y-4540650D01*
X3290373Y-4540650D02*
X3309421Y-4512079D01*
X3309421Y-4512079D02*
X3318945Y-4493031D01*
X3318945Y-4493031D02*
X3328468Y-4464460D01*
X3328468Y-4464460D02*
X3337992Y-4416840D01*
X3337992Y-4416840D02*
X3337992Y-4378745D01*
X3337992Y-4378745D02*
X3328468Y-4331126D01*
X3328468Y-4331126D02*
X3318945Y-4302555D01*
X3318945Y-4302555D02*
X3309421Y-4283507D01*
X3309421Y-4283507D02*
X3290373Y-4254936D01*
X3290373Y-4254936D02*
X3280849Y-4245412D01*
M02*
