M48
; DRILL file {KiCad 8.0.1} date 2024-06-06T10:40:46+0200
; FORMAT={-:-/ absolute / metric / decimal}
; #@! TF.CreationDate,2024-06-06T10:40:46+02:00
; #@! TF.GenerationSoftware,Kicad,Pcbnew,8.0.1
; #@! TF.FileFunction,Plated,1,2,PTH
FMAT,2
METRIC
; #@! TA.AperFunction,Plated,PTH,ViaDrill
T1C0.300
; #@! TA.AperFunction,Plated,PTH,ComponentDrill
T2C0.550
; #@! TA.AperFunction,Plated,PTH,ComponentDrill
T3C0.850
; #@! TA.AperFunction,Plated,PTH,ComponentDrill
T4C0.950
; #@! TA.AperFunction,Plated,PTH,ComponentDrill
T5C0.990
; #@! TA.AperFunction,Plated,PTH,ComponentDrill
T6C1.000
; #@! TA.AperFunction,Plated,PTH,ComponentDrill
T7C1.300
%
G90
G05
T1
X-32.0Y-5.5
X-30.5Y0.5
X-30.5Y-1.0
X-30.5Y-5.5
X-29.8Y-14.983
X-29.5Y15.5
X-29.5Y13.5
X-29.5Y11.0
X-29.5Y-5.5
X-28.5Y15.5
X-28.5Y13.5
X-28.5Y11.0
X-28.5Y9.5
X-28.5Y-5.0
X-28.5Y-7.5
X-28.0Y-1.5
X-27.5Y2.0
X-27.5Y-5.0
X-27.5Y-7.5
X-27.0Y19.5
X-27.0Y8.5
X-26.5Y6.5
X-26.5Y5.0
X-26.5Y3.5
X-26.5Y0.5
X-26.5Y-9.5
X-26.5Y-13.5
X-26.0Y-17.0
X-25.5Y9.5
X-25.5Y4.0
X-25.5Y-18.0
X-25.0Y-9.5
X-25.0Y-13.5
X-25.0Y-16.5
X-24.5Y5.0
X-24.5Y0.5
X-24.5Y-2.0
X-24.5Y-17.5
X-24.0Y10.0
X-23.0Y4.5
X-23.0Y2.5
X-22.467Y-1.155
X-22.0Y1.0
X-21.745Y12.059
X-21.5Y5.0
X-21.5Y2.0
X-21.5Y-3.5
X-21.5Y-5.5
X-20.5Y4.0
X-20.0Y-15.5
X-19.625Y-2.5
X-19.625Y-7.311
X-19.5Y-13.5
X-19.098Y1.371
X-19.0Y-9.0
X-18.97Y-0.175
X-18.454Y13.546
X-18.304Y-3.005
X-18.261Y0.628
X-17.5Y17.0
X-17.5Y-9.0
X-17.5Y-23.5
X-17.5Y-25.5
X-17.475Y-0.243
X-17.449Y1.38
X-17.0Y8.5
X-16.0Y25.0
X-16.0Y-9.0
X-16.0Y-10.5
X-15.246Y0.942
X-15.157Y-0.875
X-15.0Y9.0
X-15.0Y-5.5
X-14.5Y24.0
X-14.5Y-21.0
X-14.0Y23.0
X-14.0Y7.5
X-13.5Y-5.5
X-12.5Y-5.0
X-12.494Y-7.337
X-12.0Y9.5
X-12.0Y8.5
X-12.0Y7.0
X-11.5Y-12.0
X-11.0Y18.5
X-10.813Y-25.782
X-10.5Y-24.0
X-9.86Y-9.247
X-7.281Y12.619
X-7.274Y15.825
X-7.227Y17.491
X-7.218Y19.256
X-7.126Y14.432
X-6.5Y-25.5
X-5.98Y-20.692
X-5.612Y-2.792
X-4.5Y-25.5
X-4.5Y-21.962
X-3.5Y30.5
X-3.5Y10.0
X-3.5Y-9.5
X-3.5Y-14.0
X-3.5Y-16.0
X-3.5Y-19.5
X-3.325Y18.065
X-2.659Y2.92
X-2.5Y27.5
X-2.5Y26.0
X-2.5Y-12.5
X-2.5Y-25.5
X-2.0Y-9.5
X-1.681Y-5.75
X-1.5Y-25.5
X-1.387Y13.296
X-1.387Y13.296
X-1.386Y2.887
X-0.799Y15.909
X-0.5Y32.5
X-0.5Y14.0
X-0.202Y10.328
X0.0Y-11.5
X0.0Y-25.5
X0.141Y0.233
X0.5Y-9.5
X0.5Y-17.0
X0.5Y-19.0
X0.5Y-22.0
X1.0Y-14.5
X1.0Y-18.0
X1.5Y-11.5
X2.0Y-17.0
X2.0Y-18.0
X2.0Y-19.0
X2.0Y-25.5
X2.5Y-14.5
X2.5Y-22.0
X2.652Y15.982
X2.716Y14.064
X2.767Y15.074
X3.0Y27.0
X3.0Y-9.5
X3.0Y-17.0
X3.0Y-18.0
X3.0Y-19.0
X3.5Y30.0
X3.5Y-11.5
X3.5Y-25.5
X3.714Y15.995
X3.791Y15.087
X3.842Y14.026
X4.5Y-11.0
X4.5Y-14.5
X4.5Y-22.0
X4.582Y6.493
X4.699Y14.0
X4.737Y15.982
X4.801Y15.049
X5.0Y-24.0
X5.0Y-25.5
X5.5Y10.0
X5.5Y-9.5
X5.5Y-22.0
X6.0Y24.0
X6.0Y-16.0
X6.0Y-18.0
X6.0Y-25.5
X6.5Y-11.5
X6.5Y-14.0
X7.5Y-8.5
X7.5Y-10.0
X7.5Y-16.5
X7.5Y-18.0
X7.5Y-19.5
X7.5Y-25.5
X8.0Y12.5
X8.215Y14.599
X8.776Y2.062
X9.5Y16.5
X9.5Y-0.5
X10.287Y2.355
X10.329Y9.591
X11.0Y-0.5
X11.0Y-12.0
X11.332Y11.847
X11.434Y7.566
X11.567Y9.113
X12.0Y7.0
X12.274Y10.274
X12.5Y18.5
X13.385Y-16.529
X13.494Y-2.52
X13.5Y-21.5
X14.0Y20.0
X15.0Y-17.0
X15.0Y-21.5
X15.352Y0.977
X15.5Y-12.0
X15.5Y-26.0
X16.0Y3.393
X16.0Y-17.0
X16.434Y-22.949
X16.5Y-21.0
X16.5Y-26.0
X17.0Y-17.0
X17.5Y-7.5
X17.5Y-21.0
X18.0Y12.0
X18.0Y8.5
X18.0Y7.5
X18.0Y4.5
X18.0Y3.0
X18.0Y2.0
X18.0Y-11.5
X18.0Y-26.0
X19.0Y13.5
X19.5Y4.0
X20.0Y-11.5
X20.5Y0.0
X21.5Y-1.5
X21.5Y-2.5
X21.5Y-3.5
X22.0Y-11.5
X24.0Y-11.5
X26.0Y-11.5
X28.5Y-14.0
X30.0Y-14.0
T4
X21.334Y9.668
X21.334Y7.168
X21.334Y4.668
X21.334Y2.168
T5
X31.886Y2.476
X31.886Y-2.024
T6
X12.0Y28.632
X12.0Y23.632
X23.5Y-15.5
T7
X29.396Y3.726
X29.396Y-3.284
T2
X-32.625Y4.137G85X-33.275Y4.137
G05
X-32.625Y-3.613G85X-33.275Y-3.613
G05
T3
X-28.875Y3.987G85X-29.425Y3.987
G05
X-28.875Y-3.463G85X-29.425Y-3.463
G05
T6
X-4.8Y25.5G85X-4.8Y27.7
G05
X1.1Y30.0G85X-1.1Y30.0
G05
X1.3Y23.7G85X-1.3Y23.7
G05
M30
