%TF.GenerationSoftware,KiCad,Pcbnew,8.0.1*%
%TF.CreationDate,2024-06-06T10:40:12+02:00*%
%TF.ProjectId,led_strip_stand_lamp,6c65645f-7374-4726-9970-5f7374616e64,rev?*%
%TF.SameCoordinates,Original*%
%TF.FileFunction,Copper,L2,Bot*%
%TF.FilePolarity,Positive*%
%FSLAX46Y46*%
G04 Gerber Fmt 4.6, Leading zero omitted, Abs format (unit mm)*
G04 Created by KiCad (PCBNEW 8.0.1) date 2024-06-06 10:40:12*
%MOMM*%
%LPD*%
G01*
G04 APERTURE LIST*
G04 Aperture macros list*
%AMRoundRect*
0 Rectangle with rounded corners*
0 $1 Rounding radius*
0 $2 $3 $4 $5 $6 $7 $8 $9 X,Y pos of 4 corners*
0 Add a 4 corners polygon primitive as box body*
4,1,4,$2,$3,$4,$5,$6,$7,$8,$9,$2,$3,0*
0 Add four circle primitives for the rounded corners*
1,1,$1+$1,$2,$3*
1,1,$1+$1,$4,$5*
1,1,$1+$1,$6,$7*
1,1,$1+$1,$8,$9*
0 Add four rect primitives between the rounded corners*
20,1,$1+$1,$2,$3,$4,$5,0*
20,1,$1+$1,$4,$5,$6,$7,0*
20,1,$1+$1,$6,$7,$8,$9,0*
20,1,$1+$1,$8,$9,$2,$3,0*%
G04 Aperture macros list end*
%TA.AperFunction,ComponentPad*%
%ADD10RoundRect,0.250000X0.725000X-0.600000X0.725000X0.600000X-0.725000X0.600000X-0.725000X-0.600000X0*%
%TD*%
%TA.AperFunction,ComponentPad*%
%ADD11O,1.950000X1.700000*%
%TD*%
%TA.AperFunction,ComponentPad*%
%ADD12C,2.000000*%
%TD*%
%TA.AperFunction,ComponentPad*%
%ADD13C,2.100000*%
%TD*%
%TA.AperFunction,ComponentPad*%
%ADD14C,1.750000*%
%TD*%
%TA.AperFunction,ComponentPad*%
%ADD15R,2.000000X2.000000*%
%TD*%
%TA.AperFunction,ComponentPad*%
%ADD16R,4.600000X2.000000*%
%TD*%
%TA.AperFunction,ComponentPad*%
%ADD17O,4.200000X2.000000*%
%TD*%
%TA.AperFunction,ComponentPad*%
%ADD18O,2.000000X4.200000*%
%TD*%
%TA.AperFunction,ComponentPad*%
%ADD19O,1.800000X1.150000*%
%TD*%
%TA.AperFunction,ComponentPad*%
%ADD20O,2.000000X1.450000*%
%TD*%
%TA.AperFunction,ViaPad*%
%ADD21C,0.600000*%
%TD*%
%TA.AperFunction,ViaPad*%
%ADD22C,0.700000*%
%TD*%
%TA.AperFunction,Conductor*%
%ADD23C,0.250000*%
%TD*%
%TA.AperFunction,Conductor*%
%ADD24C,0.400000*%
%TD*%
G04 APERTURE END LIST*
D10*
%TO.P,J3,1,Pin_1*%
%TO.N,GND*%
X21333826Y2167652D03*
D11*
%TO.P,J3,2,Pin_2*%
%TO.N,BACKUP*%
X21333826Y4667652D03*
%TO.P,J3,3,Pin_3*%
%TO.N,Net-(J3-Pin_3)*%
X21333826Y7167652D03*
%TO.P,J3,4,Pin_4*%
%TO.N,+12V*%
X21333826Y9667652D03*
%TD*%
D12*
%TO.P,TP5,1,1*%
%TO.N,GND*%
X23500000Y-15500000D03*
%TD*%
D13*
%TO.P,SW3,*%
%TO.N,*%
X29396465Y3725887D03*
X29396465Y-3284113D03*
D14*
%TO.P,SW3,1,1*%
%TO.N,GND*%
X31886465Y2475887D03*
%TO.P,SW3,2,2*%
%TO.N,Net-(R31-Pad1)*%
X31886465Y-2024113D03*
%TD*%
D15*
%TO.P,C21,1*%
%TO.N,+12V*%
X12000000Y23632323D03*
D12*
%TO.P,C21,2*%
%TO.N,GND*%
X12000000Y28632323D03*
%TD*%
D16*
%TO.P,J2,1*%
%TO.N,VIN*%
X0Y23700000D03*
D17*
%TO.P,J2,2*%
%TO.N,GND*%
X0Y30000000D03*
D18*
%TO.P,J2,3*%
X-4800000Y26600000D03*
%TD*%
D19*
%TO.P,J1,6,Shield*%
%TO.N,GND*%
X-32950000Y4137034D03*
D20*
X-29150000Y3987034D03*
X-29150000Y-3462966D03*
D19*
X-32950000Y-3612966D03*
%TD*%
D21*
%TO.N,+3V3*%
X-17500000Y-25500000D03*
X-12500000Y-5000000D03*
X-2500000Y-12500000D03*
X-19625000Y-2500000D03*
X18000000Y12000000D03*
X16434173Y-22948929D03*
X-12493963Y-7337026D03*
X18000000Y-11500000D03*
X-19624745Y-7310870D03*
%TO.N,GND*%
X-17449433Y1379742D03*
X3500000Y-11500000D03*
X24000000Y-11500000D03*
X8000000Y12500000D03*
X-13500000Y-5500000D03*
X-18260846Y628117D03*
X2500000Y-22000000D03*
X-26500000Y5000000D03*
D22*
X3000000Y-18000000D03*
X2000000Y-17000000D03*
D21*
X-14000000Y23000000D03*
X-4500000Y-25500000D03*
X9500000Y-500000D03*
X14000000Y20000000D03*
X5500000Y-9500000D03*
X-28500000Y-5000000D03*
X-27500000Y-5000000D03*
X-21745200Y12059077D03*
X-20500000Y4000000D03*
X-24500000Y500000D03*
X7500000Y-19500000D03*
X15000000Y-21500000D03*
X-26500000Y500000D03*
X19500000Y4000000D03*
X18000000Y7500000D03*
X16500000Y-21000000D03*
X-500000Y32500000D03*
D22*
X500000Y-19000000D03*
D21*
X-5612188Y-2791917D03*
X-12000000Y9500000D03*
X-30500000Y-1000000D03*
X-26000000Y-17000000D03*
X-6500000Y-25500000D03*
X17500000Y-21000000D03*
X-28000000Y-1500000D03*
X6000000Y-25500000D03*
X-32000000Y-5500000D03*
X18000000Y2000000D03*
X-3500000Y-16000000D03*
X7500000Y-8500000D03*
X21500000Y-3500000D03*
D22*
X3000000Y-17000000D03*
D21*
X28500000Y-14000000D03*
X4500000Y-22000000D03*
X-19000000Y-9000000D03*
X7500000Y-25500000D03*
X-3500000Y30500000D03*
X11331910Y11847385D03*
X11567235Y9113124D03*
X-7273511Y15824962D03*
X11000000Y-500000D03*
X3000000Y-9500000D03*
X-27000000Y8500000D03*
X3500000Y30000000D03*
X-11000000Y18500000D03*
X-29500000Y11000000D03*
D22*
X2000000Y-19000000D03*
D21*
X-3500000Y-14000000D03*
X18000000Y-26000000D03*
X-17475057Y-243083D03*
X-18969765Y-174753D03*
X15000000Y-17000000D03*
X-18303806Y-3004980D03*
X2000000Y-25500000D03*
X-28500000Y13500000D03*
X18000000Y3000000D03*
D22*
X500000Y-17000000D03*
D21*
X500000Y-9500000D03*
X-25500000Y9500000D03*
X1000000Y-14500000D03*
X3500000Y-25500000D03*
X2500000Y-14500000D03*
X6000000Y24000000D03*
X21500000Y-2500000D03*
X0Y-11500000D03*
X-25000000Y-16500000D03*
X5000000Y-25500000D03*
X-28500000Y-7500000D03*
X-25000000Y-9500000D03*
X3000000Y27000000D03*
X22000000Y-11500000D03*
X-16000000Y-10500000D03*
X-2500000Y27500000D03*
X-25500000Y-18000000D03*
X1500000Y-11500000D03*
X-15157303Y-875182D03*
X-21500000Y-5500000D03*
X-17500000Y-9000000D03*
X26000000Y-11500000D03*
X500000Y-22000000D03*
X-19097883Y1371201D03*
D22*
X2000000Y-18000000D03*
D21*
X6000000Y-18000000D03*
X-16000000Y25000000D03*
X-29500000Y13500000D03*
X-15000000Y-5500000D03*
X-2500000Y-25500000D03*
X16500000Y-26000000D03*
X15500000Y-26000000D03*
X18000000Y4500000D03*
X-3500000Y-9500000D03*
X-7281375Y12619371D03*
X-21500000Y2000000D03*
X-24500000Y-17500000D03*
X-26500000Y3500000D03*
X21500000Y-1500000D03*
X7500000Y-18000000D03*
X5500000Y-22000000D03*
X-10500000Y-24000000D03*
X-26500000Y-13500000D03*
X30000000Y-14000000D03*
X-25500000Y4000000D03*
X15500000Y-12000000D03*
X-12000000Y7000000D03*
X-28500000Y15500000D03*
X-24500000Y5000000D03*
X20500000Y0D03*
X-12000000Y8500000D03*
X-3324955Y18064991D03*
D22*
X1000000Y-18000000D03*
D21*
X-29500000Y-5500000D03*
X-14500000Y24000000D03*
X-28500000Y11000000D03*
X141213Y233282D03*
X-29500000Y15500000D03*
X20000000Y-11500000D03*
X17000000Y-17000000D03*
X-21500000Y5000000D03*
X-27500000Y-7500000D03*
X-2000000Y-9500000D03*
X-15000000Y9000000D03*
D22*
X3000000Y-19000000D03*
D21*
X-3500000Y-19500000D03*
X-26500000Y-9500000D03*
X-30500000Y-5500000D03*
X16000000Y-17000000D03*
X-28500000Y9500000D03*
X6000000Y-16000000D03*
X-30500000Y500000D03*
X-1500000Y-25500000D03*
X-2500000Y26000000D03*
X0Y-25500000D03*
X7500000Y-16500000D03*
X7500000Y-10000000D03*
X19000000Y13500000D03*
X18000000Y8500000D03*
X-25000000Y-13500000D03*
%TO.N,Net-(D7-A)*%
X-14500000Y-21000000D03*
X-20000000Y-15500000D03*
%TO.N,Net-(R31-Pad1)*%
X17500000Y-7500000D03*
%TO.N,Net-(U1-EN)*%
X5000000Y-24000000D03*
X-10812751Y-25781542D03*
%TO.N,Net-(U1-IO0)*%
X-16000000Y-9000000D03*
X-9859656Y-9246531D03*
%TO.N,ESP_EN*%
X-17500000Y-23500000D03*
X-29800000Y-14983295D03*
%TO.N,ESP_IO0*%
X-19500000Y-13500000D03*
X-11500000Y-12000000D03*
%TO.N,Net-(J1-VBUS)*%
X-27500000Y2000000D03*
X-22000000Y1000000D03*
X-24500000Y-2000000D03*
%TO.N,VBUS*%
X-21500000Y-3500000D03*
X-23000000Y4500000D03*
%TO.N,USB_D-*%
X-23000000Y2500000D03*
X-22467495Y-1155222D03*
%TO.N,Net-(U2-~{SUSPEND})*%
X-15245803Y942115D03*
X-26500000Y6500000D03*
%TO.N,RXD0*%
X-17000000Y8500000D03*
X-5980101Y-20691836D03*
%TO.N,TXD0*%
X-4499999Y-21961905D03*
X-14000000Y7500000D03*
%TO.N,Net-(U4-EN)*%
X-17500000Y17000000D03*
X-27000000Y19500000D03*
X-18454200Y13545801D03*
%TO.N,LVL_GATE*%
X16000000Y3393364D03*
X11000000Y-12000000D03*
%TO.N,DATA_ESP*%
X13494243Y-2520394D03*
X15351952Y977223D03*
%TO.N,RTN*%
X2716229Y14063949D03*
X2767388Y15074344D03*
X3841733Y14025579D03*
X3713835Y15995211D03*
X-201707Y10327640D03*
X2652280Y15982421D03*
X3790574Y15087134D03*
X-3500000Y10000000D03*
X4737020Y15982421D03*
X4698651Y14000000D03*
X4800969Y15048765D03*
X4581643Y6493063D03*
%TO.N,Net-(U6-dVdT)*%
X8214518Y14598528D03*
X-7126319Y14431787D03*
%TO.N,I_SNS*%
X6500000Y-14000000D03*
X10329469Y9590725D03*
X6500000Y-11500000D03*
X13385374Y-16528687D03*
X10286836Y2355048D03*
%TO.N,+12V_SNS*%
X13500000Y-21500000D03*
X4500000Y-14500000D03*
X4500000Y-11000000D03*
X12000000Y7000000D03*
%TO.N,Net-(JP1-A)*%
X11434313Y7565687D03*
X-500000Y14000000D03*
%TO.N,Net-(Q1-D)*%
X-1386760Y13295586D03*
X-1386312Y2886536D03*
X-1386760Y13295586D03*
%TO.N,Net-(U6-UVLO)*%
X-7218136Y19255796D03*
X-799376Y15909050D03*
X-7226663Y17490801D03*
%TO.N,Net-(U6-ILIM)*%
X12274002Y10274002D03*
X8776294Y2062459D03*
%TO.N,eFuse_FAULT*%
X9500000Y16500000D03*
X-1680779Y-5749887D03*
X5500000Y10000000D03*
X-2658938Y2920418D03*
%TO.N,Vin_Buck*%
X12500000Y18500000D03*
X-24000000Y10000000D03*
%TD*%
D23*
%TO.N,+3V3*%
X-19625000Y-7310615D02*
X-19624745Y-7310870D01*
D24*
X16800000Y-12700000D02*
X-2300000Y-12700000D01*
X-2300000Y-12700000D02*
X-2500000Y-12500000D01*
X-2500000Y-12500000D02*
X-2500000Y-21000000D01*
X-12500000Y-5000000D02*
X-12500000Y-7330989D01*
X-2500000Y-22948929D02*
X-14948929Y-22948929D01*
D23*
X-19625000Y-2500000D02*
X-19625000Y-7310615D01*
D24*
X-2500000Y-21000000D02*
X-2500000Y-22948929D01*
D23*
X16875000Y-10375000D02*
X16875000Y10875000D01*
X18000000Y-11500000D02*
X16875000Y-10375000D01*
D24*
X18000000Y-11500000D02*
X16800000Y-12700000D01*
D23*
X16875000Y10875000D02*
X18000000Y12000000D01*
D24*
X16434173Y-22948929D02*
X-2500000Y-22948929D01*
X-12500000Y-7330989D02*
X-12493963Y-7337026D01*
X-14948929Y-22948929D02*
X-17500000Y-25500000D01*
D23*
%TO.N,Net-(D7-A)*%
X-20000000Y-17000000D02*
X-16000000Y-21000000D01*
X-20000000Y-15500000D02*
X-20000000Y-17000000D01*
X-16000000Y-21000000D02*
X-14500000Y-21000000D01*
%TO.N,Net-(R31-Pad1)*%
X17500000Y-7500000D02*
X27648014Y-7500000D01*
X27648014Y-7500000D02*
X31886465Y-3261549D01*
X31886465Y-3261549D02*
X31886465Y-2024113D01*
%TO.N,Net-(U1-EN)*%
X-9031209Y-24000000D02*
X5000000Y-24000000D01*
X-10812751Y-25781542D02*
X-9031209Y-24000000D01*
%TO.N,Net-(U1-IO0)*%
X-9859656Y-9246531D02*
X-15753469Y-9246531D01*
X-15753469Y-9246531D02*
X-16000000Y-9000000D01*
%TO.N,ESP_EN*%
X-29800000Y-14983295D02*
X-29783295Y-15000000D01*
X-17500000Y-21920312D02*
X-17500000Y-23500000D01*
X-29783295Y-15000000D02*
X-24420312Y-15000000D01*
X-24420312Y-15000000D02*
X-17500000Y-21920312D01*
%TO.N,ESP_IO0*%
X-17125000Y-11125000D02*
X-19500000Y-13500000D01*
X-11500000Y-12000000D02*
X-12500000Y-11000000D01*
X-11500000Y-12000000D02*
X-12375000Y-11125000D01*
X-12375000Y-11125000D02*
X-17125000Y-11125000D01*
%TO.N,Net-(J1-VBUS)*%
X-24500000Y-2000000D02*
X-24883884Y-2000000D01*
X-22000000Y1000000D02*
X-21375940Y375940D01*
X-24883884Y-2000000D02*
X-27500000Y616116D01*
X-22091116Y-2000000D02*
X-24500000Y-2000000D01*
X-27500000Y616116D02*
X-27500000Y2000000D01*
X-21375940Y375940D02*
X-21375940Y-1284824D01*
X-21375940Y-1284824D02*
X-22091116Y-2000000D01*
%TO.N,VBUS*%
X-21500000Y-3500000D02*
X-20750000Y-2750000D01*
X-20750000Y2250000D02*
X-23000000Y4500000D01*
X-20750000Y-2750000D02*
X-20750000Y2250000D01*
%TO.N,USB_D-*%
X-23000000Y-500000D02*
X-22467495Y-1032505D01*
X-23000000Y2500000D02*
X-23000000Y-500000D01*
X-22467495Y-1032505D02*
X-22467495Y-1155222D01*
%TO.N,Net-(U2-~{SUSPEND})*%
X-26500000Y6500000D02*
X-20803688Y6500000D01*
X-20803688Y6500000D02*
X-15245803Y942115D01*
%TO.N,RXD0*%
X-17000000Y8500000D02*
X-17000000Y7712011D01*
X-5980101Y-3307888D02*
X-5980101Y-20691836D01*
X-17000000Y7712011D02*
X-5980101Y-3307888D01*
%TO.N,TXD0*%
X-4499999Y-2000001D02*
X-4499999Y-21961905D01*
X-14000000Y7500000D02*
X-4499999Y-2000001D01*
%TO.N,Net-(U4-EN)*%
X-24500000Y17000000D02*
X-17500000Y17000000D01*
X-27000000Y19500000D02*
X-24500000Y17000000D01*
X-17500000Y14500001D02*
X-17500000Y17000000D01*
X-18454200Y13545801D02*
X-17500000Y14500001D01*
%TO.N,LVL_GATE*%
X16000000Y3393364D02*
X16000000Y-7000000D01*
X16000000Y-7000000D02*
X11000000Y-12000000D01*
%TO.N,DATA_ESP*%
X15351952Y-662685D02*
X13494243Y-2520394D01*
X15351952Y977223D02*
X15351952Y-662685D01*
%TO.N,Net-(U6-dVdT)*%
X8214518Y14598528D02*
X6192835Y16620211D01*
X1120211Y16620211D02*
X-1068213Y14431787D01*
X6192835Y16620211D02*
X1120211Y16620211D01*
X-1068213Y14431787D02*
X-7126319Y14431787D01*
%TO.N,I_SNS*%
X13075000Y5143212D02*
X10286836Y2355048D01*
X12532886Y10899002D02*
X13075000Y10356888D01*
X9028687Y-16528687D02*
X6500000Y-14000000D01*
X11637746Y10899002D02*
X12532886Y10899002D01*
X10329469Y9590725D02*
X11637746Y10899002D01*
X6500000Y-1431788D02*
X6500000Y-11500000D01*
X13385374Y-16528687D02*
X9028687Y-16528687D01*
X13075000Y10356888D02*
X13075000Y5143212D01*
X10286836Y2355048D02*
X6500000Y-1431788D01*
%TO.N,+12V_SNS*%
X7331756Y-21331756D02*
X4500000Y-18500000D01*
X4500000Y-11000000D02*
X4500000Y-500000D01*
X13331756Y-21331756D02*
X7331756Y-21331756D01*
X4500000Y-500000D02*
X12000000Y7000000D01*
X13500000Y-21500000D02*
X13331756Y-21331756D01*
X4500000Y-18500000D02*
X4500000Y-14500000D01*
%TO.N,Net-(JP1-A)*%
X5500000Y8000000D02*
X-500000Y14000000D01*
X11434313Y7565687D02*
X11000000Y8000000D01*
X11000000Y8000000D02*
X5500000Y8000000D01*
%TO.N,Net-(Q1-D)*%
X-1386312Y2886536D02*
X-1386312Y13295138D01*
X-1386312Y13295138D02*
X-1386760Y13295586D01*
%TO.N,Net-(U6-UVLO)*%
X-7226663Y17490801D02*
X-5644912Y15909050D01*
X-7218136Y17499328D02*
X-7226663Y17490801D01*
X-7218136Y19255796D02*
X-7218136Y17499328D01*
X-5644912Y15909050D02*
X-799376Y15909050D01*
%TO.N,Net-(U6-ILIM)*%
X12274002Y10274002D02*
X12625000Y9923004D01*
X12625000Y5911165D02*
X8776294Y2062459D01*
X12625000Y9923004D02*
X12625000Y5911165D01*
%TO.N,eFuse_FAULT*%
X11000000Y14500000D02*
X11000000Y13000000D01*
X11000000Y13000000D02*
X8000000Y10000000D01*
X9500000Y16000000D02*
X11000000Y14500000D01*
X-2658938Y2920418D02*
X-1680779Y1942259D01*
X9500000Y16500000D02*
X9500000Y16000000D01*
X-1680779Y1942259D02*
X-1680779Y-5749887D01*
X8000000Y10000000D02*
X5500000Y10000000D01*
D24*
%TO.N,Vin_Buck*%
X12500000Y18500000D02*
X10800000Y20200000D01*
X-21010050Y10000000D02*
X-24000000Y10000000D01*
X-10810050Y20200000D02*
X-21010050Y10000000D01*
X10800000Y20200000D02*
X-10810050Y20200000D01*
%TD*%
%TA.AperFunction,Conductor*%
%TO.N,GND*%
G36*
X16418834Y-7214717D02*
G01*
X16474767Y-7256589D01*
X16499184Y-7322053D01*
X16499500Y-7330899D01*
X16499500Y-10424435D01*
X16525090Y-10519938D01*
X16536700Y-10540047D01*
X16574526Y-10605563D01*
X16574528Y-10605565D01*
X17328249Y-11359286D01*
X17361734Y-11420609D01*
X17356750Y-11490301D01*
X17328249Y-11534648D01*
X16649716Y-12213181D01*
X16588393Y-12246666D01*
X16562035Y-12249500D01*
X11663797Y-12249500D01*
X11596758Y-12229815D01*
X11551003Y-12177011D01*
X11540858Y-12109314D01*
X11541051Y-12107853D01*
X11553427Y-12013844D01*
X11581694Y-11949949D01*
X11588673Y-11942362D01*
X16287821Y-7243216D01*
X16349142Y-7209733D01*
X16418834Y-7214717D01*
G37*
%TD.AperFunction*%
%TA.AperFunction,Conductor*%
G36*
X276889Y34840139D02*
G01*
X1433056Y34820698D01*
X1437213Y34820559D01*
X2592138Y34762352D01*
X2596287Y34762073D01*
X3748593Y34665168D01*
X3752731Y34664750D01*
X4901150Y34529253D01*
X4905272Y34528696D01*
X6048463Y34354766D01*
X6052564Y34354072D01*
X7189332Y34141892D01*
X7193407Y34141060D01*
X8322386Y33890882D01*
X8326431Y33889914D01*
X9446362Y33602021D01*
X9450372Y33600919D01*
X10560077Y33275612D01*
X10564048Y33274375D01*
X11662196Y32912042D01*
X11666124Y32910672D01*
X12751480Y32511722D01*
X12755359Y32510222D01*
X13826730Y32075096D01*
X13830557Y32073467D01*
X14886772Y31602638D01*
X14890541Y31600881D01*
X15930321Y31094919D01*
X15934030Y31093037D01*
X16956291Y30552470D01*
X16959935Y30550464D01*
X17963487Y29975921D01*
X17967061Y29973794D01*
X18950756Y29365934D01*
X18954257Y29363689D01*
X19917043Y28723160D01*
X19920467Y28720798D01*
X20861206Y28048358D01*
X20864549Y28045883D01*
X21314447Y27700924D01*
X21355670Y27644511D01*
X21359850Y27574767D01*
X21326677Y27514841D01*
X20786838Y26975000D01*
X20347475Y26535636D01*
X20347472Y26535634D01*
X20335257Y26523419D01*
X20335254Y26523416D01*
X20193471Y26381640D01*
X20191387Y26379556D01*
X20191385Y26379554D01*
X19931428Y26066517D01*
X19701469Y25730835D01*
X19701465Y25730828D01*
X19676748Y25686454D01*
X19504618Y25377435D01*
X19503457Y25375351D01*
X19339098Y25003137D01*
X19339091Y25003119D01*
X19209778Y24617328D01*
X19117103Y24223327D01*
X19116610Y24221229D01*
X19060387Y23818229D01*
X19060387Y23818224D01*
X19041589Y23411760D01*
X19060376Y23005289D01*
X19060378Y23005272D01*
X19106401Y22675326D01*
X19116292Y22604409D01*
X19116588Y22602291D01*
X19116589Y22602281D01*
X19209746Y22206184D01*
X19339046Y21820395D01*
X19339048Y21820389D01*
X19503412Y21448137D01*
X19701405Y21092671D01*
X19701412Y21092659D01*
X19931354Y20756982D01*
X19931358Y20756976D01*
X20191311Y20443926D01*
X20479033Y20156206D01*
X20479042Y20156198D01*
X20792062Y19896269D01*
X20792071Y19896262D01*
X21010457Y19746666D01*
X21127682Y19666365D01*
X21127769Y19666306D01*
X21127770Y19666305D01*
X21483243Y19468308D01*
X21483246Y19468307D01*
X21855481Y19303953D01*
X21855495Y19303947D01*
X22241286Y19174646D01*
X22637397Y19081486D01*
X23040371Y19025278D01*
X23040388Y19025276D01*
X23446859Y19006489D01*
X23446860Y19006489D01*
X23853328Y19025287D01*
X24256328Y19081510D01*
X24265541Y19083677D01*
X24652427Y19174678D01*
X25038218Y19303991D01*
X25038236Y19303998D01*
X25410458Y19468359D01*
X25410462Y19468361D01*
X25765928Y19666365D01*
X25765935Y19666369D01*
X26101616Y19896329D01*
X26101626Y19896336D01*
X26414648Y20156280D01*
X26414672Y20156302D01*
X26499930Y20241564D01*
X26499932Y20241565D01*
X26558516Y20300153D01*
X26599232Y20340872D01*
X26599232Y20340873D01*
X26605433Y20347074D01*
X26605628Y20347299D01*
X27549389Y21291098D01*
X27610711Y21324585D01*
X27680403Y21319602D01*
X27735482Y21278861D01*
X28080342Y20829012D01*
X28082816Y20825670D01*
X28429289Y20340872D01*
X28749643Y19892620D01*
X28755148Y19884918D01*
X28757510Y19881493D01*
X29397970Y18918635D01*
X29400215Y18915134D01*
X30007992Y17931390D01*
X30010118Y17927816D01*
X30584572Y16924225D01*
X30586577Y16920581D01*
X31127029Y15898331D01*
X31128912Y15894622D01*
X31634811Y14854750D01*
X31636567Y14850980D01*
X32107287Y13794772D01*
X32108916Y13790945D01*
X32543948Y12719549D01*
X32545448Y12715670D01*
X32944312Y11630265D01*
X32945681Y11626338D01*
X33307919Y10528169D01*
X33309155Y10524197D01*
X33634350Y9414532D01*
X33635453Y9410522D01*
X33923264Y8290520D01*
X33924231Y8286475D01*
X34174306Y7157516D01*
X34175138Y7153441D01*
X34387221Y6016666D01*
X34387915Y6012565D01*
X34561752Y4869342D01*
X34562308Y4865220D01*
X34697704Y3716830D01*
X34698122Y3712692D01*
X34794932Y2560360D01*
X34795210Y2556210D01*
X34853318Y1401349D01*
X34853458Y1397192D01*
X34872803Y240947D01*
X34872802Y236788D01*
X34853362Y-919364D01*
X34853223Y-923521D01*
X34795015Y-2078440D01*
X34794736Y-2082589D01*
X34697832Y-3234881D01*
X34697414Y-3239019D01*
X34561918Y-4387427D01*
X34561361Y-4391549D01*
X34387434Y-5534728D01*
X34386740Y-5538829D01*
X34174561Y-6675586D01*
X34173729Y-6679661D01*
X33923554Y-7808628D01*
X33922586Y-7812673D01*
X33634695Y-8932594D01*
X33633593Y-8936604D01*
X33308290Y-10046299D01*
X33307053Y-10050270D01*
X32944723Y-11148407D01*
X32943353Y-11152335D01*
X32544408Y-12237680D01*
X32542908Y-12241559D01*
X32107786Y-13312918D01*
X32106157Y-13316745D01*
X31635332Y-14372951D01*
X31633575Y-14376720D01*
X31127618Y-15416490D01*
X31125736Y-15420199D01*
X30585175Y-16442450D01*
X30583169Y-16446094D01*
X30008631Y-17449637D01*
X30006504Y-17453211D01*
X29398650Y-18436895D01*
X29396405Y-18440396D01*
X28755882Y-19403173D01*
X28753520Y-19406597D01*
X28081087Y-20347327D01*
X28078612Y-20350670D01*
X27733684Y-20800528D01*
X27677271Y-20841751D01*
X27607527Y-20845931D01*
X27547600Y-20812758D01*
X26519125Y-19784283D01*
X26412550Y-19677709D01*
X26391633Y-19660340D01*
X26099524Y-19417775D01*
X26099516Y-19417769D01*
X26099512Y-19417766D01*
X25763825Y-19187815D01*
X25763821Y-19187813D01*
X25763817Y-19187810D01*
X25408362Y-18989824D01*
X25408333Y-18989810D01*
X25036140Y-18825470D01*
X25036122Y-18825463D01*
X24650323Y-18696158D01*
X24254245Y-18603001D01*
X24254237Y-18602999D01*
X23851257Y-18546787D01*
X23851252Y-18546786D01*
X23851247Y-18546786D01*
X23444787Y-18527994D01*
X23038327Y-18546786D01*
X23038321Y-18546786D01*
X23038317Y-18546787D01*
X22635336Y-18603000D01*
X22635328Y-18603002D01*
X22239250Y-18696159D01*
X21853439Y-18825470D01*
X21853432Y-18825473D01*
X21481240Y-18989812D01*
X21481212Y-18989826D01*
X21125757Y-19187813D01*
X21125751Y-19187817D01*
X20790060Y-19417771D01*
X20790050Y-19417778D01*
X20477036Y-19677702D01*
X20477016Y-19677720D01*
X20189315Y-19965421D01*
X20189297Y-19965441D01*
X19929373Y-20278454D01*
X19929366Y-20278464D01*
X19699412Y-20614155D01*
X19699408Y-20614161D01*
X19501421Y-20969616D01*
X19501407Y-20969644D01*
X19337068Y-21341837D01*
X19337065Y-21341844D01*
X19207754Y-21727654D01*
X19114597Y-22123732D01*
X19114595Y-22123740D01*
X19058382Y-22526721D01*
X19058381Y-22526731D01*
X19039589Y-22933191D01*
X19058381Y-23339651D01*
X19058381Y-23339656D01*
X19058382Y-23339661D01*
X19114594Y-23742641D01*
X19114596Y-23742649D01*
X19207753Y-24138728D01*
X19337058Y-24524526D01*
X19337065Y-24524544D01*
X19501405Y-24896738D01*
X19501419Y-24896767D01*
X19699405Y-25252221D01*
X19699409Y-25252228D01*
X19929362Y-25587919D01*
X19929369Y-25587928D01*
X20182383Y-25892621D01*
X20189303Y-25900954D01*
X20189311Y-25900962D01*
X20291543Y-26003196D01*
X20291553Y-26003207D01*
X21136667Y-26848319D01*
X21170152Y-26909642D01*
X21165168Y-26979333D01*
X21123297Y-27035267D01*
X21057832Y-27059684D01*
X21048986Y-27060000D01*
X-20506474Y-27060000D01*
X-20573513Y-27040315D01*
X-20619268Y-26987511D01*
X-20629212Y-26918353D01*
X-20600187Y-26854797D01*
X-20594155Y-26848319D01*
X-19746320Y-26000484D01*
X-19746295Y-26000456D01*
X-19644718Y-25898879D01*
X-19644710Y-25898871D01*
X-19547281Y-25781542D01*
X-19384776Y-25585845D01*
X-19384769Y-25585835D01*
X-19384767Y-25585833D01*
X-19154816Y-25250146D01*
X-19154814Y-25250142D01*
X-19154811Y-25250138D01*
X-18956824Y-24894683D01*
X-18956823Y-24894682D01*
X-18956819Y-24894674D01*
X-18956815Y-24894665D01*
X-18956810Y-24894655D01*
X-18792471Y-24522462D01*
X-18792468Y-24522455D01*
X-18663157Y-24136645D01*
X-18570000Y-23740566D01*
X-18569998Y-23740558D01*
X-18513785Y-23337577D01*
X-18513784Y-23337574D01*
X-18513784Y-23337568D01*
X-18494992Y-22931108D01*
X-18513784Y-22524647D01*
X-18513785Y-22524637D01*
X-18569998Y-22121656D01*
X-18570000Y-22121648D01*
X-18663156Y-21725570D01*
X-18716110Y-21567577D01*
X-18718750Y-21497757D01*
X-18683224Y-21437593D01*
X-18620810Y-21406188D01*
X-18551326Y-21413511D01*
X-18510861Y-21440487D01*
X-17911817Y-22039531D01*
X-17878334Y-22100852D01*
X-17875500Y-22127210D01*
X-17875500Y-23042974D01*
X-17895185Y-23110013D01*
X-17901117Y-23118452D01*
X-17980861Y-23222375D01*
X-18036330Y-23356291D01*
X-18055250Y-23500000D01*
X-18036330Y-23643709D01*
X-17980861Y-23777625D01*
X-17892621Y-23892621D01*
X-17777625Y-23980861D01*
X-17643709Y-24036330D01*
X-17514977Y-24053278D01*
X-17500001Y-24055250D01*
X-17500000Y-24055250D01*
X-17499999Y-24055250D01*
X-17483280Y-24053048D01*
X-17356291Y-24036330D01*
X-17222375Y-23980861D01*
X-17107379Y-23892621D01*
X-17019139Y-23777625D01*
X-17019138Y-23777624D01*
X-17019137Y-23777622D01*
X-16963671Y-23643712D01*
X-16963670Y-23643708D01*
X-16963498Y-23642406D01*
X-16944750Y-23500000D01*
X-16947371Y-23480095D01*
X-16963670Y-23356291D01*
X-16963671Y-23356287D01*
X-17019137Y-23222377D01*
X-17055235Y-23175333D01*
X-17098876Y-23118459D01*
X-17124070Y-23053291D01*
X-17124500Y-23042974D01*
X-17124500Y-21870879D01*
X-17124499Y-21870879D01*
X-17150091Y-21775372D01*
X-17150091Y-21775371D01*
X-17199526Y-21689748D01*
X-23389274Y-15500000D01*
X-20555250Y-15500000D01*
X-20536330Y-15643709D01*
X-20480861Y-15777625D01*
X-20401123Y-15881540D01*
X-20375930Y-15946709D01*
X-20375500Y-15957026D01*
X-20375500Y-17049435D01*
X-20349910Y-17144938D01*
X-20300475Y-17230562D01*
X-20300474Y-17230563D01*
X-16300475Y-21230562D01*
X-16230562Y-21300475D01*
X-16144938Y-21349910D01*
X-16116451Y-21357543D01*
X-16049436Y-21375500D01*
X-16049435Y-21375500D01*
X-14957026Y-21375500D01*
X-14889987Y-21395185D01*
X-14881547Y-21401117D01*
X-14777625Y-21480861D01*
X-14643709Y-21536330D01*
X-14514977Y-21553278D01*
X-14500001Y-21555250D01*
X-14500000Y-21555250D01*
X-14499999Y-21555250D01*
X-14483280Y-21553048D01*
X-14356291Y-21536330D01*
X-14222375Y-21480861D01*
X-14107379Y-21392621D01*
X-14019139Y-21277625D01*
X-14019138Y-21277624D01*
X-14019137Y-21277622D01*
X-13963671Y-21143712D01*
X-13963670Y-21143708D01*
X-13944750Y-21000000D01*
X-13944750Y-20999999D01*
X-13963670Y-20856291D01*
X-13963671Y-20856287D01*
X-14019137Y-20722377D01*
X-14107379Y-20607379D01*
X-14222377Y-20519137D01*
X-14356287Y-20463671D01*
X-14356291Y-20463670D01*
X-14499999Y-20444750D01*
X-14500001Y-20444750D01*
X-14571854Y-20454210D01*
X-14643709Y-20463670D01*
X-14643710Y-20463670D01*
X-14643712Y-20463671D01*
X-14777622Y-20519137D01*
X-14777624Y-20519138D01*
X-14777625Y-20519139D01*
X-14881540Y-20598876D01*
X-14946709Y-20624070D01*
X-14957026Y-20624500D01*
X-15793101Y-20624500D01*
X-15860140Y-20604815D01*
X-15880782Y-20588181D01*
X-19588181Y-16880782D01*
X-19621666Y-16819459D01*
X-19624500Y-16793101D01*
X-19624500Y-15957026D01*
X-19604815Y-15889987D01*
X-19598882Y-15881547D01*
X-19519139Y-15777625D01*
X-19519138Y-15777624D01*
X-19519137Y-15777622D01*
X-19463671Y-15643712D01*
X-19463670Y-15643708D01*
X-19444750Y-15500000D01*
X-19444750Y-15499999D01*
X-19453751Y-15431630D01*
X-18727161Y-15431630D01*
X-18693450Y-15773911D01*
X-18626351Y-16111239D01*
X-18526511Y-16440366D01*
X-18394892Y-16758123D01*
X-18232761Y-17061448D01*
X-18041680Y-17347421D01*
X-17823489Y-17613288D01*
X-17580288Y-17856489D01*
X-17314421Y-18074680D01*
X-17028448Y-18265761D01*
X-16725123Y-18427892D01*
X-16407366Y-18559511D01*
X-16078239Y-18659351D01*
X-15740911Y-18726450D01*
X-15398630Y-18760161D01*
X-15398627Y-18760161D01*
X-15054695Y-18760161D01*
X-15054692Y-18760161D01*
X-14712411Y-18726450D01*
X-14375083Y-18659351D01*
X-14045956Y-18559511D01*
X-13728199Y-18427892D01*
X-13728193Y-18427888D01*
X-13728191Y-18427888D01*
X-13424885Y-18265767D01*
X-13424883Y-18265766D01*
X-13424874Y-18265761D01*
X-13138901Y-18074680D01*
X-12873034Y-17856489D01*
X-12873033Y-17856488D01*
X-12873028Y-17856484D01*
X-12629837Y-17613293D01*
X-12411646Y-17347426D01*
X-12411636Y-17347412D01*
X-12220565Y-17061454D01*
X-12220554Y-17061436D01*
X-12058433Y-16758130D01*
X-12058431Y-16758125D01*
X-11926811Y-16440367D01*
X-11826969Y-16111233D01*
X-11759871Y-15773910D01*
X-11734828Y-15519625D01*
X-11726161Y-15431630D01*
X-11726161Y-15087692D01*
X-11740239Y-14944750D01*
X-11759871Y-14745411D01*
X-11826969Y-14408088D01*
X-11926811Y-14078954D01*
X-12058431Y-13761196D01*
X-12058433Y-13761191D01*
X-12220554Y-13457885D01*
X-12220565Y-13457867D01*
X-12411636Y-13171909D01*
X-12411646Y-13171895D01*
X-12629837Y-12906028D01*
X-12873028Y-12662837D01*
X-13138895Y-12444646D01*
X-13138909Y-12444636D01*
X-13424867Y-12253565D01*
X-13424885Y-12253554D01*
X-13728191Y-12091433D01*
X-13728196Y-12091431D01*
X-14045954Y-11959811D01*
X-14375088Y-11859969D01*
X-14712412Y-11792871D01*
X-14712411Y-11792871D01*
X-14976627Y-11766849D01*
X-15054692Y-11759161D01*
X-15398630Y-11759161D01*
X-15483117Y-11767482D01*
X-15740910Y-11792871D01*
X-16078233Y-11859969D01*
X-16407367Y-11959811D01*
X-16607814Y-12042839D01*
X-16679670Y-12072603D01*
X-16725125Y-12091431D01*
X-16725130Y-12091433D01*
X-17028436Y-12253554D01*
X-17028443Y-12253558D01*
X-17028448Y-12253561D01*
X-17314421Y-12444642D01*
X-17314425Y-12444645D01*
X-17314426Y-12444646D01*
X-17580293Y-12662837D01*
X-17823484Y-12906028D01*
X-17823488Y-12906033D01*
X-17823489Y-12906034D01*
X-18041680Y-13171901D01*
X-18232761Y-13457874D01*
X-18394892Y-13761199D01*
X-18526511Y-14078956D01*
X-18626351Y-14408083D01*
X-18693450Y-14745411D01*
X-18727161Y-15087692D01*
X-18727161Y-15431630D01*
X-19453751Y-15431630D01*
X-19463670Y-15356291D01*
X-19463671Y-15356287D01*
X-19519137Y-15222377D01*
X-19607379Y-15107379D01*
X-19722377Y-15019137D01*
X-19856287Y-14963671D01*
X-19856291Y-14963670D01*
X-19999999Y-14944750D01*
X-20000001Y-14944750D01*
X-20071854Y-14954210D01*
X-20143709Y-14963670D01*
X-20143710Y-14963670D01*
X-20143712Y-14963671D01*
X-20277622Y-15019137D01*
X-20277624Y-15019138D01*
X-20277625Y-15019139D01*
X-20392621Y-15107379D01*
X-20480861Y-15222375D01*
X-20536330Y-15356291D01*
X-20555250Y-15500000D01*
X-23389274Y-15500000D01*
X-24189747Y-14699527D01*
X-24275374Y-14650089D01*
X-24323123Y-14637294D01*
X-24323124Y-14637295D01*
X-24370876Y-14624500D01*
X-24370877Y-14624500D01*
X-29322191Y-14624500D01*
X-29389230Y-14604815D01*
X-29400819Y-14595475D01*
X-29400932Y-14595622D01*
X-29407377Y-14590676D01*
X-29407379Y-14590674D01*
X-29484247Y-14531690D01*
X-29522377Y-14502432D01*
X-29656287Y-14446966D01*
X-29656291Y-14446965D01*
X-29799999Y-14428045D01*
X-29800001Y-14428045D01*
X-29871854Y-14437505D01*
X-29943709Y-14446965D01*
X-29943710Y-14446965D01*
X-29943712Y-14446966D01*
X-30077622Y-14502432D01*
X-30077624Y-14502433D01*
X-30077625Y-14502434D01*
X-30192621Y-14590674D01*
X-30280861Y-14705670D01*
X-30336330Y-14839586D01*
X-30355250Y-14983295D01*
X-30336330Y-15127004D01*
X-30280861Y-15260920D01*
X-30192621Y-15375916D01*
X-30077625Y-15464156D01*
X-29943709Y-15519625D01*
X-29814977Y-15536573D01*
X-29800001Y-15538545D01*
X-29800000Y-15538545D01*
X-29799999Y-15538545D01*
X-29783280Y-15536343D01*
X-29656291Y-15519625D01*
X-29522375Y-15464156D01*
X-29522374Y-15464155D01*
X-29522373Y-15464155D01*
X-29440232Y-15401125D01*
X-29375063Y-15375930D01*
X-29364745Y-15375500D01*
X-24627211Y-15375500D01*
X-24560172Y-15395185D01*
X-24539529Y-15411819D01*
X-21409572Y-18541775D01*
X-21376089Y-18603096D01*
X-21381073Y-18672788D01*
X-21422945Y-18728721D01*
X-21488409Y-18753138D01*
X-21536660Y-18747026D01*
X-21694650Y-18694074D01*
X-22090732Y-18600916D01*
X-22090737Y-18600915D01*
X-22493721Y-18544701D01*
X-22493723Y-18544700D01*
X-22493730Y-18544700D01*
X-22870367Y-18527286D01*
X-22900190Y-18525908D01*
X-22900191Y-18525908D01*
X-23306651Y-18544700D01*
X-23306657Y-18544700D01*
X-23306660Y-18544701D01*
X-23709641Y-18600914D01*
X-23709649Y-18600916D01*
X-24105728Y-18694073D01*
X-24491526Y-18823378D01*
X-24491544Y-18823385D01*
X-24863738Y-18987726D01*
X-24863767Y-18987740D01*
X-25219221Y-19185726D01*
X-25219225Y-19185729D01*
X-25219229Y-19185731D01*
X-25554916Y-19415682D01*
X-25554918Y-19415684D01*
X-25554928Y-19415691D01*
X-25867948Y-19675620D01*
X-25867954Y-19675626D01*
X-25970201Y-19777871D01*
X-25970235Y-19777902D01*
X-26013894Y-19821564D01*
X-26059593Y-19867263D01*
X-26059600Y-19867271D01*
X-27002560Y-20810269D01*
X-27063882Y-20843756D01*
X-27133574Y-20838773D01*
X-27188653Y-20798032D01*
X-27533664Y-20347987D01*
X-27536138Y-20344645D01*
X-28012778Y-19677712D01*
X-28208476Y-19403883D01*
X-28210832Y-19400468D01*
X-28851292Y-18437610D01*
X-28853537Y-18434109D01*
X-29461314Y-17450365D01*
X-29463440Y-17446791D01*
X-30037881Y-16443223D01*
X-30039887Y-16439579D01*
X-30580375Y-15417258D01*
X-30582256Y-15413549D01*
X-31088120Y-14373750D01*
X-31089877Y-14369980D01*
X-31477601Y-13500000D01*
X-20055250Y-13500000D01*
X-20036330Y-13643709D01*
X-19980861Y-13777625D01*
X-19892621Y-13892621D01*
X-19777625Y-13980861D01*
X-19643709Y-14036330D01*
X-19514977Y-14053278D01*
X-19500001Y-14055250D01*
X-19500000Y-14055250D01*
X-19499999Y-14055250D01*
X-19483280Y-14053048D01*
X-19356291Y-14036330D01*
X-19267013Y-13999350D01*
X-19222377Y-13980862D01*
X-19222376Y-13980861D01*
X-19222375Y-13980861D01*
X-19107379Y-13892621D01*
X-19019139Y-13777625D01*
X-19019138Y-13777624D01*
X-19019137Y-13777622D01*
X-18963671Y-13643712D01*
X-18963670Y-13643708D01*
X-18946572Y-13513845D01*
X-18918305Y-13449949D01*
X-18911314Y-13442351D01*
X-17005782Y-11536819D01*
X-16944459Y-11503334D01*
X-16918101Y-11500500D01*
X-12581899Y-11500500D01*
X-12514860Y-11520185D01*
X-12494218Y-11536819D01*
X-12088682Y-11942354D01*
X-12055199Y-12003675D01*
X-12053429Y-12013828D01*
X-12036330Y-12143709D01*
X-11980861Y-12277625D01*
X-11892621Y-12392621D01*
X-11777625Y-12480861D01*
X-11643709Y-12536330D01*
X-11514977Y-12553278D01*
X-11500001Y-12555250D01*
X-11500000Y-12555250D01*
X-11499999Y-12555250D01*
X-11483280Y-12553048D01*
X-11356291Y-12536330D01*
X-11222375Y-12480861D01*
X-11107379Y-12392621D01*
X-11019139Y-12277625D01*
X-11019138Y-12277624D01*
X-11019137Y-12277622D01*
X-10963671Y-12143712D01*
X-10963670Y-12143708D01*
X-10944750Y-12000000D01*
X-10944750Y-11999999D01*
X-10963670Y-11856291D01*
X-10963671Y-11856287D01*
X-11019137Y-11722377D01*
X-11107379Y-11607379D01*
X-11222377Y-11519137D01*
X-11356287Y-11463671D01*
X-11356290Y-11463670D01*
X-11356291Y-11463670D01*
X-11396907Y-11458322D01*
X-11486151Y-11446573D01*
X-11550047Y-11418306D01*
X-11557646Y-11411315D01*
X-12144437Y-10824526D01*
X-12269435Y-10699527D01*
X-12269440Y-10699523D01*
X-12355060Y-10650091D01*
X-12355061Y-10650090D01*
X-12402813Y-10637295D01*
X-12450564Y-10624500D01*
X-12549436Y-10624500D01*
X-12613103Y-10641560D01*
X-12644938Y-10650090D01*
X-12644939Y-10650091D01*
X-12730559Y-10699523D01*
X-12730564Y-10699527D01*
X-12744218Y-10713181D01*
X-12805541Y-10746666D01*
X-12831899Y-10749500D01*
X-17174436Y-10749500D01*
X-17222123Y-10762277D01*
X-17222173Y-10762291D01*
X-17222186Y-10762295D01*
X-17269938Y-10775090D01*
X-17355562Y-10824525D01*
X-17355563Y-10824526D01*
X-19442351Y-12911314D01*
X-19503674Y-12944799D01*
X-19513845Y-12946572D01*
X-19624590Y-12961152D01*
X-19643709Y-12963670D01*
X-19643710Y-12963670D01*
X-19643712Y-12963671D01*
X-19777622Y-13019137D01*
X-19777624Y-13019138D01*
X-19777625Y-13019139D01*
X-19892621Y-13107379D01*
X-19980861Y-13222375D01*
X-20036330Y-13356291D01*
X-20055250Y-13500000D01*
X-31477601Y-13500000D01*
X-31560608Y-13313748D01*
X-31562237Y-13309921D01*
X-31997270Y-12238524D01*
X-31998770Y-12234645D01*
X-32397630Y-11149249D01*
X-32398999Y-11145321D01*
X-32761242Y-10047135D01*
X-32762478Y-10043164D01*
X-33068185Y-9000000D01*
X-16555250Y-9000000D01*
X-16536330Y-9143709D01*
X-16480861Y-9277625D01*
X-16392621Y-9392621D01*
X-16277625Y-9480861D01*
X-16143709Y-9536330D01*
X-16000000Y-9555250D01*
X-15999999Y-9555249D01*
X-15991941Y-9556311D01*
X-15992182Y-9558142D01*
X-15940978Y-9571863D01*
X-15910437Y-9589494D01*
X-15898407Y-9596441D01*
X-15850655Y-9609236D01*
X-15850652Y-9609236D01*
X-15850652Y-9609237D01*
X-15842823Y-9611334D01*
X-15802905Y-9622031D01*
X-15802904Y-9622031D01*
X-10316682Y-9622031D01*
X-10249643Y-9641716D01*
X-10241203Y-9647648D01*
X-10137281Y-9727392D01*
X-10003365Y-9782861D01*
X-9874633Y-9799809D01*
X-9859657Y-9801781D01*
X-9859656Y-9801781D01*
X-9859655Y-9801781D01*
X-9842936Y-9799579D01*
X-9715947Y-9782861D01*
X-9582031Y-9727392D01*
X-9467035Y-9639152D01*
X-9378795Y-9524156D01*
X-9378794Y-9524155D01*
X-9378793Y-9524153D01*
X-9323327Y-9390243D01*
X-9323326Y-9390239D01*
X-9304406Y-9246531D01*
X-9304406Y-9246530D01*
X-9323326Y-9102822D01*
X-9323327Y-9102818D01*
X-9378793Y-8968908D01*
X-9467035Y-8853910D01*
X-9582033Y-8765668D01*
X-9715943Y-8710202D01*
X-9715947Y-8710201D01*
X-9859655Y-8691281D01*
X-9859657Y-8691281D01*
X-9931510Y-8700741D01*
X-10003365Y-8710201D01*
X-10003366Y-8710201D01*
X-10003368Y-8710202D01*
X-10137278Y-8765668D01*
X-10137280Y-8765669D01*
X-10137281Y-8765670D01*
X-10241196Y-8845407D01*
X-10306365Y-8870601D01*
X-10316682Y-8871031D01*
X-15374710Y-8871031D01*
X-15441749Y-8851346D01*
X-15487504Y-8798542D01*
X-15489271Y-8794483D01*
X-15519137Y-8722377D01*
X-15607379Y-8607379D01*
X-15722377Y-8519137D01*
X-15856287Y-8463671D01*
X-15856291Y-8463670D01*
X-15999999Y-8444750D01*
X-16000001Y-8444750D01*
X-16071854Y-8454210D01*
X-16143709Y-8463670D01*
X-16143710Y-8463670D01*
X-16143712Y-8463671D01*
X-16277622Y-8519137D01*
X-16277624Y-8519138D01*
X-16277625Y-8519139D01*
X-16392621Y-8607379D01*
X-16480861Y-8722375D01*
X-16536330Y-8856291D01*
X-16555250Y-9000000D01*
X-33068185Y-9000000D01*
X-33087671Y-8933507D01*
X-33088774Y-8929497D01*
X-33376586Y-7809496D01*
X-33377553Y-7805451D01*
X-33627627Y-6676491D01*
X-33628459Y-6672416D01*
X-33840542Y-5535641D01*
X-33841236Y-5531540D01*
X-33969854Y-4685693D01*
X-33960471Y-4616456D01*
X-33915145Y-4563283D01*
X-33848268Y-4543056D01*
X-33790968Y-4556567D01*
X-33687659Y-4609205D01*
X-33526726Y-4661496D01*
X-33359609Y-4687966D01*
X-33325000Y-4687966D01*
X-33325000Y-3987966D01*
X-32575000Y-3987966D01*
X-32575000Y-4687966D01*
X-32540391Y-4687966D01*
X-32373273Y-4661496D01*
X-32212340Y-4609205D01*
X-32061576Y-4532387D01*
X-31924683Y-4432927D01*
X-31924682Y-4432927D01*
X-31805038Y-4313283D01*
X-31805038Y-4313282D01*
X-31705576Y-4176387D01*
X-31628759Y-4025622D01*
X-31616524Y-3987966D01*
X-32575000Y-3987966D01*
X-33325000Y-3987966D01*
X-33325000Y-3887966D01*
X-32570299Y-3887966D01*
X-32469225Y-3846100D01*
X-32391866Y-3768741D01*
X-32350000Y-3667667D01*
X-32350000Y-3558265D01*
X-32391866Y-3457191D01*
X-32469225Y-3379832D01*
X-32570299Y-3337966D01*
X-33325000Y-3337966D01*
X-33325000Y-2537966D01*
X-32575000Y-2537966D01*
X-32575000Y-3237966D01*
X-31616524Y-3237966D01*
X-31628759Y-3200309D01*
X-31705576Y-3049544D01*
X-31805038Y-2912649D01*
X-31805038Y-2912648D01*
X-31924682Y-2793004D01*
X-32061576Y-2693544D01*
X-32212340Y-2616726D01*
X-32373273Y-2564435D01*
X-32540391Y-2537966D01*
X-32575000Y-2537966D01*
X-33325000Y-2537966D01*
X-33359609Y-2537966D01*
X-33526726Y-2564435D01*
X-33687659Y-2616726D01*
X-33838423Y-2693544D01*
X-33975316Y-2793004D01*
X-33975317Y-2793004D01*
X-33982906Y-2800593D01*
X-34044229Y-2834078D01*
X-34113921Y-2829094D01*
X-34169854Y-2787222D01*
X-34194152Y-2723293D01*
X-34228716Y-2311886D01*
X-30950500Y-2311886D01*
X-30941667Y-2356291D01*
X-30921658Y-2456879D01*
X-30865084Y-2593461D01*
X-30782951Y-2716382D01*
X-30678416Y-2820917D01*
X-30613508Y-2864286D01*
X-30568704Y-2917896D01*
X-30559995Y-2987221D01*
X-30564468Y-3005706D01*
X-30591195Y-3087965D01*
X-30591196Y-3087966D01*
X-29625481Y-3087966D01*
X-29685956Y-3122882D01*
X-29765084Y-3202010D01*
X-29821037Y-3298922D01*
X-29850000Y-3407014D01*
X-29850000Y-3518918D01*
X-29821037Y-3627010D01*
X-29765084Y-3723922D01*
X-29685956Y-3803050D01*
X-29625481Y-3837966D01*
X-30591196Y-3837966D01*
X-30560253Y-3933200D01*
X-30560252Y-3933203D01*
X-30472711Y-4105009D01*
X-30359383Y-4260993D01*
X-30359379Y-4260998D01*
X-30223032Y-4397345D01*
X-30223027Y-4397349D01*
X-30067043Y-4510677D01*
X-29895237Y-4598218D01*
X-29895234Y-4598219D01*
X-29711856Y-4657801D01*
X-29525000Y-4687396D01*
X-29525000Y-3876163D01*
X-29480952Y-3887966D01*
X-28819048Y-3887966D01*
X-28775000Y-3876163D01*
X-28775000Y-4687397D01*
X-28588143Y-4657801D01*
X-28404765Y-4598219D01*
X-28404762Y-4598218D01*
X-28232956Y-4510677D01*
X-28076972Y-4397349D01*
X-28076967Y-4397345D01*
X-27940620Y-4260998D01*
X-27940616Y-4260993D01*
X-27827288Y-4105009D01*
X-27739747Y-3933203D01*
X-27739746Y-3933200D01*
X-27708804Y-3837966D01*
X-28674519Y-3837966D01*
X-28614044Y-3803050D01*
X-28534916Y-3723922D01*
X-28478963Y-3627010D01*
X-28450000Y-3518918D01*
X-28450000Y-3407014D01*
X-28478963Y-3298922D01*
X-28534916Y-3202010D01*
X-28614044Y-3122882D01*
X-28674519Y-3087966D01*
X-27708804Y-3087966D01*
X-27708803Y-3087965D01*
X-27739746Y-2992731D01*
X-27739747Y-2992728D01*
X-27827288Y-2820922D01*
X-27940616Y-2664938D01*
X-27940620Y-2664933D01*
X-28076967Y-2528586D01*
X-28076972Y-2528582D01*
X-28232956Y-2415254D01*
X-28404762Y-2327713D01*
X-28404765Y-2327712D01*
X-28588141Y-2268130D01*
X-28775000Y-2238534D01*
X-28775000Y-3049768D01*
X-28819048Y-3037966D01*
X-29480952Y-3037966D01*
X-29525000Y-3049768D01*
X-29525000Y-2594186D01*
X-29515561Y-2546733D01*
X-29514056Y-2543101D01*
X-29478342Y-2456879D01*
X-29478340Y-2456873D01*
X-29449500Y-2311886D01*
X-29449500Y-2164045D01*
X-29449499Y-2164045D01*
X-29478340Y-2019058D01*
X-29478343Y-2019048D01*
X-29534912Y-1882477D01*
X-29534919Y-1882464D01*
X-29617048Y-1759550D01*
X-29617051Y-1759546D01*
X-29721580Y-1655017D01*
X-29721584Y-1655014D01*
X-29844498Y-1572885D01*
X-29844511Y-1572878D01*
X-29981082Y-1516309D01*
X-29981092Y-1516306D01*
X-30126080Y-1487466D01*
X-30126082Y-1487466D01*
X-30273918Y-1487466D01*
X-30273920Y-1487466D01*
X-30418907Y-1516306D01*
X-30418917Y-1516309D01*
X-30555488Y-1572878D01*
X-30555501Y-1572885D01*
X-30678415Y-1655014D01*
X-30678419Y-1655017D01*
X-30782948Y-1759546D01*
X-30782951Y-1759550D01*
X-30865080Y-1882464D01*
X-30865087Y-1882477D01*
X-30907165Y-1984064D01*
X-30921658Y-2019053D01*
X-30921658Y-2019057D01*
X-30921659Y-2019058D01*
X-30950500Y-2164045D01*
X-30950500Y-2311886D01*
X-34228716Y-2311886D01*
X-34248253Y-2079336D01*
X-34248531Y-2075186D01*
X-34306639Y-920325D01*
X-34306779Y-916168D01*
X-34326124Y240076D01*
X-34326123Y244235D01*
X-34306683Y1400389D01*
X-34306544Y1404546D01*
X-34276533Y1999999D01*
X-28055250Y1999999D01*
X-28053184Y1984309D01*
X-28036330Y1856291D01*
X-28013685Y1801620D01*
X-27981958Y1725022D01*
X-27980861Y1722375D01*
X-27901123Y1618459D01*
X-27875930Y1553291D01*
X-27875500Y1542974D01*
X-27875500Y665552D01*
X-27875500Y566680D01*
X-27863227Y520878D01*
X-27849910Y471178D01*
X-27800475Y385554D01*
X-27800474Y385553D01*
X-25114447Y-2300475D01*
X-25028821Y-2349911D01*
X-24933320Y-2375500D01*
X-24933319Y-2375500D01*
X-24933318Y-2375500D01*
X-24928895Y-2376685D01*
X-24885500Y-2398084D01*
X-24777625Y-2480861D01*
X-24643709Y-2536330D01*
X-24514977Y-2553278D01*
X-24500001Y-2555250D01*
X-24500000Y-2555250D01*
X-24499999Y-2555250D01*
X-24483280Y-2553048D01*
X-24356291Y-2536330D01*
X-24222375Y-2480861D01*
X-24118459Y-2401123D01*
X-24053291Y-2375930D01*
X-24042974Y-2375500D01*
X-22041681Y-2375500D01*
X-22041680Y-2375500D01*
X-21974665Y-2357543D01*
X-21946178Y-2349910D01*
X-21860554Y-2300475D01*
X-21790641Y-2230562D01*
X-21337181Y-1777102D01*
X-21275858Y-1743617D01*
X-21206166Y-1748601D01*
X-21150233Y-1790473D01*
X-21125816Y-1855937D01*
X-21125500Y-1864783D01*
X-21125500Y-2543101D01*
X-21145185Y-2610140D01*
X-21161819Y-2630782D01*
X-21442351Y-2911314D01*
X-21503674Y-2944799D01*
X-21513845Y-2946572D01*
X-21624590Y-2961152D01*
X-21643709Y-2963670D01*
X-21643710Y-2963670D01*
X-21643712Y-2963671D01*
X-21777622Y-3019137D01*
X-21777624Y-3019138D01*
X-21777625Y-3019139D01*
X-21892621Y-3107379D01*
X-21980861Y-3222375D01*
X-22036330Y-3356291D01*
X-22055250Y-3500000D01*
X-22036330Y-3643709D01*
X-21980861Y-3777625D01*
X-21892621Y-3892621D01*
X-21777625Y-3980861D01*
X-21643709Y-4036330D01*
X-21514977Y-4053278D01*
X-21500001Y-4055250D01*
X-21500000Y-4055250D01*
X-21499999Y-4055250D01*
X-21483280Y-4053048D01*
X-21356291Y-4036330D01*
X-21222375Y-3980861D01*
X-21107379Y-3892621D01*
X-21019139Y-3777625D01*
X-21019138Y-3777624D01*
X-21019137Y-3777622D01*
X-20963671Y-3643712D01*
X-20963670Y-3643708D01*
X-20961471Y-3627010D01*
X-20961152Y-3624590D01*
X-20946572Y-3513845D01*
X-20918305Y-3449949D01*
X-20911314Y-3442351D01*
X-20449528Y-2980566D01*
X-20449522Y-2980558D01*
X-20449364Y-2980285D01*
X-20400091Y-2894941D01*
X-20399469Y-2892621D01*
X-20374500Y-2799435D01*
X-20374500Y-2752461D01*
X-20354815Y-2685422D01*
X-20302011Y-2639667D01*
X-20232853Y-2629723D01*
X-20169297Y-2658748D01*
X-20135939Y-2705008D01*
X-20105861Y-2777625D01*
X-20026123Y-2881540D01*
X-20000930Y-2946709D01*
X-20000500Y-2957026D01*
X-20000500Y-6854176D01*
X-20020185Y-6921215D01*
X-20026124Y-6929662D01*
X-20048744Y-6959141D01*
X-20105606Y-7033245D01*
X-20161075Y-7167161D01*
X-20179995Y-7310870D01*
X-20161075Y-7454579D01*
X-20105606Y-7588495D01*
X-20017366Y-7703491D01*
X-19902370Y-7791731D01*
X-19768454Y-7847200D01*
X-19650676Y-7862706D01*
X-19624746Y-7866120D01*
X-19624745Y-7866120D01*
X-19624744Y-7866120D01*
X-19598814Y-7862706D01*
X-19481036Y-7847200D01*
X-19385178Y-7807495D01*
X-19347122Y-7791732D01*
X-19347121Y-7791731D01*
X-19347120Y-7791731D01*
X-19232124Y-7703491D01*
X-19143884Y-7588495D01*
X-19143883Y-7588494D01*
X-19143882Y-7588492D01*
X-19088416Y-7454582D01*
X-19088415Y-7454578D01*
X-19069495Y-7310870D01*
X-19069495Y-7310869D01*
X-19088415Y-7167161D01*
X-19088416Y-7167157D01*
X-19143883Y-7033246D01*
X-19143884Y-7033244D01*
X-19223876Y-6928997D01*
X-19249070Y-6863828D01*
X-19249500Y-6853511D01*
X-19249500Y-5000000D01*
X-13055250Y-5000000D01*
X-13036330Y-5143709D01*
X-12980861Y-5277625D01*
X-12976124Y-5283798D01*
X-12950930Y-5348965D01*
X-12950500Y-5359284D01*
X-12950500Y-6985608D01*
X-12970185Y-7052647D01*
X-12974323Y-7058533D01*
X-12974824Y-7059400D01*
X-13005158Y-7132636D01*
X-13030293Y-7193317D01*
X-13049213Y-7337026D01*
X-13030293Y-7480735D01*
X-12974824Y-7614651D01*
X-12886584Y-7729647D01*
X-12771588Y-7817887D01*
X-12637672Y-7873356D01*
X-12508940Y-7890304D01*
X-12493964Y-7892276D01*
X-12493963Y-7892276D01*
X-12493962Y-7892276D01*
X-12477243Y-7890074D01*
X-12350254Y-7873356D01*
X-12216338Y-7817887D01*
X-12101342Y-7729647D01*
X-12013102Y-7614651D01*
X-12013101Y-7614650D01*
X-12013100Y-7614648D01*
X-11957634Y-7480738D01*
X-11957633Y-7480734D01*
X-11954189Y-7454579D01*
X-11938713Y-7337026D01*
X-11942157Y-7310870D01*
X-11957633Y-7193317D01*
X-11957634Y-7193313D01*
X-12013101Y-7059401D01*
X-12023877Y-7045358D01*
X-12049070Y-6980188D01*
X-12049500Y-6969873D01*
X-12049500Y-5359284D01*
X-12029815Y-5292245D01*
X-12023883Y-5283808D01*
X-12019139Y-5277625D01*
X-12019138Y-5277624D01*
X-12019137Y-5277622D01*
X-11963671Y-5143712D01*
X-11963670Y-5143708D01*
X-11944750Y-5000000D01*
X-11944750Y-4999999D01*
X-11963670Y-4856291D01*
X-11963671Y-4856287D01*
X-12019137Y-4722377D01*
X-12107379Y-4607379D01*
X-12222377Y-4519137D01*
X-12356287Y-4463671D01*
X-12356291Y-4463670D01*
X-12499999Y-4444750D01*
X-12500001Y-4444750D01*
X-12571854Y-4454210D01*
X-12643709Y-4463670D01*
X-12643710Y-4463670D01*
X-12643712Y-4463671D01*
X-12777622Y-4519137D01*
X-12777624Y-4519138D01*
X-12777625Y-4519139D01*
X-12892621Y-4607379D01*
X-12980861Y-4722375D01*
X-13036330Y-4856291D01*
X-13055250Y-5000000D01*
X-19249500Y-5000000D01*
X-19249500Y-2957026D01*
X-19229815Y-2889987D01*
X-19223882Y-2881547D01*
X-19144139Y-2777625D01*
X-19144138Y-2777624D01*
X-19144137Y-2777622D01*
X-19088671Y-2643712D01*
X-19088670Y-2643708D01*
X-19084250Y-2610140D01*
X-19069750Y-2500000D01*
X-19072270Y-2480862D01*
X-19088670Y-2356291D01*
X-19088671Y-2356287D01*
X-19144137Y-2222377D01*
X-19232379Y-2107379D01*
X-19347377Y-2019137D01*
X-19481287Y-1963671D01*
X-19481291Y-1963670D01*
X-19624999Y-1944750D01*
X-19625001Y-1944750D01*
X-19669161Y-1950564D01*
X-19768709Y-1963670D01*
X-19768710Y-1963670D01*
X-19768712Y-1963671D01*
X-19902622Y-2019137D01*
X-19902624Y-2019138D01*
X-19902625Y-2019139D01*
X-20017621Y-2107379D01*
X-20105861Y-2222375D01*
X-20105861Y-2222376D01*
X-20105862Y-2222377D01*
X-20135939Y-2294990D01*
X-20179780Y-2349394D01*
X-20246074Y-2371459D01*
X-20313773Y-2354180D01*
X-20361384Y-2303043D01*
X-20374500Y-2247538D01*
X-20374500Y2299435D01*
X-20400089Y2394938D01*
X-20426252Y2440253D01*
X-20449525Y2480562D01*
X-22411314Y4442351D01*
X-22444799Y4503674D01*
X-22446572Y4513845D01*
X-22463670Y4643708D01*
X-22463671Y4643712D01*
X-22519137Y4777622D01*
X-22564969Y4837351D01*
X-22607379Y4892621D01*
X-22722375Y4980861D01*
X-22856291Y5036330D01*
X-22983280Y5053048D01*
X-22999999Y5055250D01*
X-23000001Y5055250D01*
X-23014977Y5053278D01*
X-23143709Y5036330D01*
X-23277625Y4980861D01*
X-23392621Y4892621D01*
X-23480861Y4777625D01*
X-23536330Y4643709D01*
X-23555250Y4500000D01*
X-23536330Y4356291D01*
X-23480861Y4222375D01*
X-23392621Y4107379D01*
X-23303895Y4039297D01*
X-23277622Y4019137D01*
X-23143712Y3963671D01*
X-23143710Y3963670D01*
X-23143709Y3963670D01*
X-23124590Y3961152D01*
X-23013845Y3946572D01*
X-22949949Y3918305D01*
X-22942351Y3911314D01*
X-21161819Y2130782D01*
X-21128334Y2069459D01*
X-21125500Y2043101D01*
X-21125500Y955899D01*
X-21145185Y888860D01*
X-21197989Y843105D01*
X-21267147Y833161D01*
X-21330703Y862186D01*
X-21337181Y868218D01*
X-21411314Y942351D01*
X-21444799Y1003674D01*
X-21446572Y1013845D01*
X-21463670Y1143708D01*
X-21463671Y1143712D01*
X-21519137Y1277622D01*
X-21519139Y1277625D01*
X-21607379Y1392621D01*
X-21722375Y1480861D01*
X-21856291Y1536330D01*
X-21985120Y1553291D01*
X-21999999Y1555250D01*
X-22000001Y1555250D01*
X-22014880Y1553291D01*
X-22143709Y1536330D01*
X-22277625Y1480861D01*
X-22392621Y1392621D01*
X-22402124Y1380236D01*
X-22458552Y1339033D01*
X-22528298Y1334878D01*
X-22589218Y1369090D01*
X-22621971Y1430807D01*
X-22624500Y1455722D01*
X-22624500Y2042974D01*
X-22604815Y2110013D01*
X-22598882Y2118452D01*
X-22519139Y2222375D01*
X-22519137Y2222377D01*
X-22463671Y2356287D01*
X-22463670Y2356291D01*
X-22444750Y2499999D01*
X-22444750Y2500000D01*
X-22463531Y2642652D01*
X-22463670Y2643709D01*
X-22466749Y2651143D01*
X-22519137Y2777622D01*
X-22519139Y2777625D01*
X-22607379Y2892621D01*
X-22722375Y2980861D01*
X-22722583Y2980947D01*
X-22770375Y3000743D01*
X-22856291Y3036330D01*
X-22983280Y3053048D01*
X-22999999Y3055250D01*
X-23000001Y3055250D01*
X-23014977Y3053278D01*
X-23143709Y3036330D01*
X-23277625Y2980861D01*
X-23392621Y2892621D01*
X-23480861Y2777625D01*
X-23536330Y2643709D01*
X-23549845Y2541055D01*
X-23555250Y2500000D01*
X-23555250Y2499999D01*
X-23555086Y2498757D01*
X-23536330Y2356291D01*
X-23480861Y2222375D01*
X-23401123Y2118459D01*
X-23375930Y2053291D01*
X-23375500Y2042974D01*
X-23375500Y-549435D01*
X-23349910Y-644938D01*
X-23300475Y-730562D01*
X-23300474Y-730563D01*
X-23048889Y-982147D01*
X-23015406Y-1043468D01*
X-23013633Y-1086012D01*
X-23021560Y-1146225D01*
X-23022745Y-1155222D01*
X-23003825Y-1298931D01*
X-22948356Y-1432847D01*
X-22948350Y-1432853D01*
X-22945093Y-1438498D01*
X-22928619Y-1506398D01*
X-22951470Y-1572425D01*
X-23006391Y-1615617D01*
X-23052479Y-1624500D01*
X-24042974Y-1624500D01*
X-24110013Y-1604815D01*
X-24118452Y-1598882D01*
X-24190643Y-1543488D01*
X-24222377Y-1519137D01*
X-24356287Y-1463671D01*
X-24356291Y-1463670D01*
X-24499999Y-1444750D01*
X-24500001Y-1444750D01*
X-24571854Y-1454210D01*
X-24643709Y-1463670D01*
X-24643710Y-1463670D01*
X-24643712Y-1463671D01*
X-24740733Y-1503858D01*
X-24810202Y-1511327D01*
X-24872681Y-1480052D01*
X-24875866Y-1476978D01*
X-27088181Y735334D01*
X-27121666Y796657D01*
X-27124500Y823015D01*
X-27124500Y1542974D01*
X-27104815Y1610013D01*
X-27098882Y1618452D01*
X-27019139Y1722375D01*
X-27019137Y1722377D01*
X-26963671Y1856287D01*
X-26963670Y1856291D01*
X-26944750Y1999999D01*
X-26944750Y2000000D01*
X-26957187Y2094463D01*
X-26963670Y2143709D01*
X-26970464Y2160111D01*
X-27019137Y2277622D01*
X-27024663Y2284824D01*
X-27107379Y2392621D01*
X-27222375Y2480861D01*
X-27253891Y2493915D01*
X-27268581Y2500000D01*
X-27356291Y2536330D01*
X-27483280Y2553048D01*
X-27499999Y2555250D01*
X-27500001Y2555250D01*
X-27514977Y2553278D01*
X-27643709Y2536330D01*
X-27777625Y2480861D01*
X-27892621Y2392621D01*
X-27980861Y2277625D01*
X-28036330Y2143709D01*
X-28051577Y2027895D01*
X-28055250Y2000000D01*
X-28055250Y1999999D01*
X-34276533Y1999999D01*
X-34248336Y2559464D01*
X-34248057Y2563613D01*
X-34237587Y2688113D01*
X-30950500Y2688113D01*
X-30921659Y2543126D01*
X-30921656Y2543116D01*
X-30865087Y2406545D01*
X-30865080Y2406532D01*
X-30782951Y2283618D01*
X-30782948Y2283614D01*
X-30678419Y2179085D01*
X-30678415Y2179082D01*
X-30555501Y2096953D01*
X-30555488Y2096946D01*
X-30418917Y2040377D01*
X-30418907Y2040374D01*
X-30273920Y2011534D01*
X-30273918Y2011534D01*
X-30126080Y2011534D01*
X-29981092Y2040374D01*
X-29981082Y2040377D01*
X-29844511Y2096946D01*
X-29844498Y2096953D01*
X-29721584Y2179082D01*
X-29721580Y2179085D01*
X-29617051Y2283614D01*
X-29617048Y2283618D01*
X-29534919Y2406532D01*
X-29534912Y2406545D01*
X-29478343Y2543116D01*
X-29478340Y2543126D01*
X-29449500Y2688113D01*
X-29449500Y2835954D01*
X-29449499Y2835954D01*
X-29478340Y2980941D01*
X-29478342Y2980947D01*
X-29497823Y3027978D01*
X-29515561Y3070802D01*
X-29525000Y3118254D01*
X-29525000Y3573836D01*
X-29480952Y3562034D01*
X-28819048Y3562034D01*
X-28775000Y3573836D01*
X-28775000Y2762602D01*
X-28588141Y2792198D01*
X-28588140Y2792198D01*
X-28404765Y2851780D01*
X-28404762Y2851781D01*
X-28232956Y2939322D01*
X-28076972Y3052650D01*
X-28076967Y3052654D01*
X-27940620Y3189001D01*
X-27940616Y3189006D01*
X-27827288Y3344990D01*
X-27739747Y3516796D01*
X-27739746Y3516799D01*
X-27708804Y3612034D01*
X-28674519Y3612034D01*
X-28614044Y3646950D01*
X-28534916Y3726078D01*
X-28478963Y3822990D01*
X-28450000Y3931082D01*
X-28450000Y4042986D01*
X-28478963Y4151078D01*
X-28534916Y4247990D01*
X-28614044Y4327118D01*
X-28674519Y4362034D01*
X-27708803Y4362034D01*
X-27739746Y4457268D01*
X-27739747Y4457271D01*
X-27827288Y4629077D01*
X-27940616Y4785061D01*
X-27940620Y4785066D01*
X-28076967Y4921413D01*
X-28076972Y4921417D01*
X-28232956Y5034745D01*
X-28404762Y5122286D01*
X-28404765Y5122287D01*
X-28588143Y5181869D01*
X-28775000Y5211465D01*
X-28775000Y4400231D01*
X-28819048Y4412034D01*
X-29480952Y4412034D01*
X-29525000Y4400231D01*
X-29525000Y5211464D01*
X-29711856Y5181869D01*
X-29895234Y5122287D01*
X-29895237Y5122286D01*
X-30067043Y5034745D01*
X-30223027Y4921417D01*
X-30223032Y4921413D01*
X-30359379Y4785066D01*
X-30359383Y4785061D01*
X-30472711Y4629077D01*
X-30560252Y4457271D01*
X-30560253Y4457268D01*
X-30591196Y4362034D01*
X-29625481Y4362034D01*
X-29685956Y4327118D01*
X-29765084Y4247990D01*
X-29821037Y4151078D01*
X-29850000Y4042986D01*
X-29850000Y3931082D01*
X-29821037Y3822990D01*
X-29765084Y3726078D01*
X-29685956Y3646950D01*
X-29625481Y3612034D01*
X-30591196Y3612034D01*
X-30564468Y3529774D01*
X-30562473Y3459933D01*
X-30598553Y3400100D01*
X-30613503Y3388357D01*
X-30678416Y3344985D01*
X-30782951Y3240450D01*
X-30865084Y3117529D01*
X-30865086Y3117522D01*
X-30865087Y3117522D01*
X-30877107Y3088503D01*
X-30921658Y2980947D01*
X-30921659Y2980941D01*
X-30950500Y2835954D01*
X-30950500Y2688113D01*
X-34237587Y2688113D01*
X-34190834Y3244054D01*
X-34165601Y3309208D01*
X-34109148Y3350377D01*
X-34039399Y3354490D01*
X-33979589Y3321344D01*
X-33975317Y3317072D01*
X-33838423Y3217612D01*
X-33687659Y3140794D01*
X-33526726Y3088503D01*
X-33359609Y3062034D01*
X-33325000Y3062034D01*
X-33325000Y3762034D01*
X-32575000Y3762034D01*
X-32575000Y3062034D01*
X-32540391Y3062034D01*
X-32373273Y3088503D01*
X-32212340Y3140794D01*
X-32061576Y3217612D01*
X-31924683Y3317072D01*
X-31924682Y3317072D01*
X-31805038Y3436716D01*
X-31805038Y3436717D01*
X-31705576Y3573612D01*
X-31628759Y3724377D01*
X-31616524Y3762034D01*
X-32575000Y3762034D01*
X-33325000Y3762034D01*
X-33325000Y3862034D01*
X-32570299Y3862034D01*
X-32469225Y3903900D01*
X-32391866Y3981259D01*
X-32350000Y4082333D01*
X-32350000Y4191735D01*
X-32391866Y4292809D01*
X-32469225Y4370168D01*
X-32570299Y4412034D01*
X-33325000Y4412034D01*
X-33325000Y5212034D01*
X-32575000Y5212034D01*
X-32575000Y4512034D01*
X-31616524Y4512034D01*
X-31628759Y4549690D01*
X-31705576Y4700455D01*
X-31805038Y4837350D01*
X-31805038Y4837351D01*
X-31924682Y4956995D01*
X-32061576Y5056455D01*
X-32212340Y5133273D01*
X-32373273Y5185564D01*
X-32540391Y5212034D01*
X-32575000Y5212034D01*
X-33325000Y5212034D01*
X-33359609Y5212034D01*
X-33526726Y5185564D01*
X-33687661Y5133273D01*
X-33783950Y5084211D01*
X-33852619Y5071314D01*
X-33917360Y5097590D01*
X-33957618Y5154696D01*
X-33962835Y5213346D01*
X-33840755Y6015752D01*
X-33840061Y6019853D01*
X-33750440Y6500000D01*
X-27055250Y6500000D01*
X-27036330Y6356291D01*
X-27036328Y6356287D01*
X-26982537Y6226420D01*
X-26980861Y6222375D01*
X-26892621Y6107379D01*
X-26819179Y6051025D01*
X-26777622Y6019137D01*
X-26643712Y5963671D01*
X-26643710Y5963670D01*
X-26643709Y5963670D01*
X-26571854Y5954210D01*
X-26500001Y5944750D01*
X-26500000Y5944750D01*
X-26499999Y5944750D01*
X-26356291Y5963670D01*
X-26356287Y5963671D01*
X-26222377Y6019137D01*
X-26159804Y6067152D01*
X-26118459Y6098876D01*
X-26053291Y6124070D01*
X-26042974Y6124500D01*
X-21010587Y6124500D01*
X-20943548Y6104815D01*
X-20922906Y6088181D01*
X-15834487Y999762D01*
X-15801002Y938439D01*
X-15799231Y928282D01*
X-15782133Y798406D01*
X-15756008Y735334D01*
X-15731604Y676415D01*
X-15726664Y664490D01*
X-15638424Y549494D01*
X-15523428Y461254D01*
X-15523425Y461252D01*
X-15389515Y405786D01*
X-15389513Y405785D01*
X-15389512Y405785D01*
X-15317657Y396325D01*
X-15245804Y386865D01*
X-15245803Y386865D01*
X-15245802Y386865D01*
X-15102094Y405785D01*
X-15102090Y405786D01*
X-14968180Y461252D01*
X-14853182Y549494D01*
X-14764940Y664492D01*
X-14709474Y798402D01*
X-14709473Y798406D01*
X-14690553Y942114D01*
X-14690553Y942115D01*
X-14709473Y1085823D01*
X-14709474Y1085827D01*
X-14764940Y1219737D01*
X-14764942Y1219740D01*
X-14853182Y1334736D01*
X-14968178Y1422976D01*
X-15004735Y1438118D01*
X-15047235Y1455722D01*
X-15102094Y1478445D01*
X-15231956Y1495542D01*
X-15295851Y1523807D01*
X-15303450Y1530799D01*
X-20573123Y6800472D01*
X-20573125Y6800474D01*
X-20573126Y6800475D01*
X-20658750Y6849910D01*
X-20706499Y6862705D01*
X-20706500Y6862705D01*
X-20716591Y6865408D01*
X-20754252Y6875500D01*
X-20754253Y6875500D01*
X-20754254Y6875500D01*
X-26042974Y6875500D01*
X-26110013Y6895185D01*
X-26118452Y6901117D01*
X-26222375Y6980861D01*
X-26356291Y7036330D01*
X-26483280Y7053048D01*
X-26499999Y7055250D01*
X-26500001Y7055250D01*
X-26514977Y7053278D01*
X-26643709Y7036330D01*
X-26777625Y6980861D01*
X-26892621Y6892621D01*
X-26980861Y6777625D01*
X-27036330Y6643709D01*
X-27055250Y6500000D01*
X-33750440Y6500000D01*
X-33627882Y7156610D01*
X-33627050Y7160685D01*
X-33376875Y8289652D01*
X-33375907Y8293697D01*
X-33322874Y8500000D01*
X-17555250Y8500000D01*
X-17536330Y8356291D01*
X-17480861Y8222375D01*
X-17401123Y8118459D01*
X-17375930Y8053291D01*
X-17375500Y8042974D01*
X-17375500Y7761447D01*
X-17375500Y7662575D01*
X-17371089Y7646114D01*
X-17370773Y7644933D01*
X-17370773Y7644932D01*
X-17349910Y7567074D01*
X-17349908Y7567069D01*
X-17311476Y7500502D01*
X-17300473Y7481446D01*
X-6391920Y-3427106D01*
X-6358435Y-3488429D01*
X-6355601Y-3514787D01*
X-6355601Y-20234810D01*
X-6375286Y-20301849D01*
X-6381218Y-20310288D01*
X-6460962Y-20414211D01*
X-6460962Y-20414212D01*
X-6460963Y-20414213D01*
X-6479451Y-20458849D01*
X-6516431Y-20548127D01*
X-6535351Y-20691836D01*
X-6516431Y-20835545D01*
X-6460962Y-20969461D01*
X-6372722Y-21084457D01*
X-6257726Y-21172697D01*
X-6123810Y-21228166D01*
X-5995078Y-21245114D01*
X-5980102Y-21247086D01*
X-5980101Y-21247086D01*
X-5980100Y-21247086D01*
X-5963381Y-21244884D01*
X-5836392Y-21228166D01*
X-5702476Y-21172697D01*
X-5587480Y-21084457D01*
X-5499240Y-20969461D01*
X-5499239Y-20969460D01*
X-5499238Y-20969458D01*
X-5443772Y-20835548D01*
X-5443771Y-20835544D01*
X-5424851Y-20691836D01*
X-5424851Y-20691835D01*
X-5443771Y-20548127D01*
X-5443772Y-20548123D01*
X-5499238Y-20414213D01*
X-5547997Y-20350670D01*
X-5578977Y-20310295D01*
X-5604171Y-20245127D01*
X-5604601Y-20234810D01*
X-5604601Y-3258452D01*
X-5630190Y-3162951D01*
X-5630191Y-3162948D01*
X-5679623Y-3077328D01*
X-5679627Y-3077323D01*
X-16588181Y7831229D01*
X-16621666Y7892552D01*
X-16624500Y7918910D01*
X-16624500Y8042974D01*
X-16604815Y8110013D01*
X-16598882Y8118452D01*
X-16519139Y8222375D01*
X-16519137Y8222377D01*
X-16463671Y8356287D01*
X-16463670Y8356291D01*
X-16444750Y8499999D01*
X-16444750Y8500000D01*
X-16457158Y8594249D01*
X-16463670Y8643709D01*
X-16465356Y8647780D01*
X-16519137Y8777622D01*
X-16557976Y8828238D01*
X-16607379Y8892621D01*
X-16722375Y8980861D01*
X-16856291Y9036330D01*
X-16983280Y9053048D01*
X-16999999Y9055250D01*
X-17000001Y9055250D01*
X-17014977Y9053278D01*
X-17143709Y9036330D01*
X-17277625Y8980861D01*
X-17392621Y8892621D01*
X-17480861Y8777625D01*
X-17536330Y8643709D01*
X-17555250Y8500000D01*
X-33322874Y8500000D01*
X-33088016Y9413618D01*
X-33086914Y9417628D01*
X-32761611Y10527322D01*
X-32760374Y10531293D01*
X-32398044Y11629430D01*
X-32396674Y11633358D01*
X-31997729Y12718703D01*
X-31996229Y12722582D01*
X-31561107Y13793942D01*
X-31559478Y13797769D01*
X-31088653Y14853973D01*
X-31086896Y14857742D01*
X-30580939Y15897513D01*
X-30579057Y15901222D01*
X-30038496Y16923474D01*
X-30036490Y16927118D01*
X-29461953Y17930660D01*
X-29459826Y17934234D01*
X-28851971Y18917919D01*
X-28849726Y18921420D01*
X-28464804Y19500000D01*
X-27555250Y19500000D01*
X-27536330Y19356291D01*
X-27480861Y19222375D01*
X-27392621Y19107379D01*
X-27277625Y19019139D01*
X-27277622Y19019137D01*
X-27143712Y18963671D01*
X-27143710Y18963670D01*
X-27143709Y18963670D01*
X-27124590Y18961152D01*
X-27013845Y18946572D01*
X-26949949Y18918305D01*
X-26942351Y18911314D01*
X-24800475Y16769438D01*
X-24730562Y16699525D01*
X-24703942Y16684156D01*
X-24644940Y16650091D01*
X-24644939Y16650090D01*
X-24630694Y16646273D01*
X-24616451Y16642457D01*
X-24616449Y16642456D01*
X-24573964Y16631072D01*
X-24549436Y16624500D01*
X-24549435Y16624500D01*
X-17999500Y16624500D01*
X-17932461Y16604815D01*
X-17886706Y16552011D01*
X-17875500Y16500500D01*
X-17875500Y14706899D01*
X-17895185Y14639860D01*
X-17911815Y14619222D01*
X-18396552Y14134484D01*
X-18457873Y14101001D01*
X-18468039Y14099228D01*
X-18597909Y14082131D01*
X-18731825Y14026662D01*
X-18846821Y13938422D01*
X-18935061Y13823426D01*
X-18990530Y13689510D01*
X-19009450Y13545801D01*
X-18990530Y13402092D01*
X-18935061Y13268176D01*
X-18846821Y13153180D01*
X-18846818Y13153178D01*
X-18759345Y13086056D01*
X-18718142Y13029628D01*
X-18713988Y12959882D01*
X-18747149Y12900002D01*
X-20627213Y11019940D01*
X-21160334Y10486819D01*
X-21221657Y10453334D01*
X-21248015Y10450500D01*
X-23640715Y10450500D01*
X-23707754Y10470185D01*
X-23716199Y10476123D01*
X-23722370Y10480858D01*
X-23722373Y10480859D01*
X-23722375Y10480861D01*
X-23856291Y10536330D01*
X-23983280Y10553048D01*
X-23999999Y10555250D01*
X-24000001Y10555250D01*
X-24014977Y10553278D01*
X-24143709Y10536330D01*
X-24277625Y10480861D01*
X-24392621Y10392621D01*
X-24480861Y10277625D01*
X-24536330Y10143709D01*
X-24555250Y10000000D01*
X-24536330Y9856291D01*
X-24480861Y9722375D01*
X-24392621Y9607379D01*
X-24277625Y9519139D01*
X-24277622Y9519137D01*
X-24143712Y9463671D01*
X-24143710Y9463670D01*
X-24143709Y9463670D01*
X-24071854Y9454210D01*
X-24000001Y9444750D01*
X-24000000Y9444750D01*
X-23999999Y9444750D01*
X-23856291Y9463670D01*
X-23856287Y9463671D01*
X-23722376Y9519138D01*
X-23722370Y9519141D01*
X-23716199Y9523877D01*
X-23651030Y9549070D01*
X-23640715Y9549500D01*
X-20950741Y9549500D01*
X-20860375Y9573713D01*
X-20860374Y9573712D01*
X-20836166Y9580199D01*
X-20836163Y9580200D01*
X-20733436Y9639511D01*
X-20733433Y9639513D01*
X-10659766Y19713181D01*
X-10598443Y19746666D01*
X-10572085Y19749500D01*
X-7784641Y19749500D01*
X-7717602Y19729815D01*
X-7671847Y19677011D01*
X-7661903Y19607853D01*
X-7686265Y19550014D01*
X-7698997Y19533421D01*
X-7754466Y19399505D01*
X-7773386Y19255796D01*
X-7754466Y19112087D01*
X-7741791Y19081486D01*
X-7711630Y19008669D01*
X-7698997Y18978171D01*
X-7619259Y18874255D01*
X-7594066Y18809087D01*
X-7593636Y18798770D01*
X-7593636Y17958939D01*
X-7613321Y17891900D01*
X-7619260Y17883452D01*
X-7619281Y17883423D01*
X-7619284Y17883422D01*
X-7707524Y17768426D01*
X-7762993Y17634510D01*
X-7775157Y17542114D01*
X-7781913Y17490801D01*
X-7781913Y17490800D01*
X-7780604Y17480861D01*
X-7762993Y17347092D01*
X-7707524Y17213176D01*
X-7619284Y17098180D01*
X-7538677Y17036328D01*
X-7504285Y17009938D01*
X-7370375Y16954472D01*
X-7370373Y16954471D01*
X-7370372Y16954471D01*
X-7353706Y16952276D01*
X-7240509Y16937373D01*
X-7176613Y16909106D01*
X-7169015Y16902115D01*
X-5875476Y15608576D01*
X-5875471Y15608572D01*
X-5789851Y15559140D01*
X-5789850Y15559139D01*
X-5764355Y15552308D01*
X-5733630Y15544075D01*
X-5673971Y15507711D01*
X-5643442Y15444864D01*
X-5641732Y15423009D01*
X-5646868Y14929995D01*
X-5667250Y14863165D01*
X-5720527Y14817962D01*
X-5770861Y14807287D01*
X-6669293Y14807287D01*
X-6736332Y14826972D01*
X-6744771Y14832904D01*
X-6848694Y14912648D01*
X-6982610Y14968117D01*
X-7109599Y14984835D01*
X-7126318Y14987037D01*
X-7126320Y14987037D01*
X-7141296Y14985065D01*
X-7270028Y14968117D01*
X-7403944Y14912648D01*
X-7518940Y14824408D01*
X-7607180Y14709412D01*
X-7662649Y14575496D01*
X-7681569Y14431787D01*
X-7662649Y14288078D01*
X-7607180Y14154162D01*
X-7518940Y14039166D01*
X-7446783Y13983798D01*
X-7403941Y13950924D01*
X-7270031Y13895458D01*
X-7270029Y13895457D01*
X-7270028Y13895457D01*
X-7198173Y13885997D01*
X-7126320Y13876537D01*
X-7126319Y13876537D01*
X-7126318Y13876537D01*
X-6982610Y13895457D01*
X-6982606Y13895458D01*
X-6848696Y13950924D01*
X-6801652Y13987022D01*
X-6744778Y14030663D01*
X-6679610Y14055857D01*
X-6669293Y14056287D01*
X-5781267Y14056287D01*
X-5714228Y14036602D01*
X-5668473Y13983798D01*
X-5657274Y13930995D01*
X-5753426Y4700455D01*
X-5754181Y4627953D01*
X-5748635Y4572282D01*
X-5737436Y4519479D01*
X-5729921Y4491803D01*
X-5729918Y4491796D01*
X-5680594Y4405177D01*
X-5680591Y4405174D01*
X-5680590Y4405172D01*
X-5650259Y4370168D01*
X-5634838Y4352371D01*
X-5602061Y4320743D01*
X-5513724Y4274534D01*
X-5513724Y4274533D01*
X-5446692Y4254851D01*
X-5446680Y4254848D01*
X-5374703Y4244500D01*
X-1885812Y4244500D01*
X-1818773Y4224815D01*
X-1773018Y4172011D01*
X-1761812Y4120500D01*
X-1761812Y3343562D01*
X-1781497Y3276523D01*
X-1787429Y3268083D01*
X-1867173Y3164161D01*
X-1901047Y3082380D01*
X-1944885Y3027978D01*
X-2011179Y3005912D01*
X-2078879Y3023190D01*
X-2126490Y3074327D01*
X-2130168Y3082380D01*
X-2178076Y3198041D01*
X-2178077Y3198043D01*
X-2266317Y3313039D01*
X-2381313Y3401279D01*
X-2515229Y3456748D01*
X-2642218Y3473466D01*
X-2658937Y3475668D01*
X-2658939Y3475668D01*
X-2673915Y3473696D01*
X-2802647Y3456748D01*
X-2936563Y3401279D01*
X-3051559Y3313039D01*
X-3139799Y3198043D01*
X-3195268Y3064127D01*
X-3214188Y2920418D01*
X-3195268Y2776709D01*
X-3181234Y2742827D01*
X-3140179Y2643709D01*
X-3139799Y2642793D01*
X-3051559Y2527797D01*
X-2937467Y2440251D01*
X-2936560Y2439555D01*
X-2802650Y2384089D01*
X-2802648Y2384088D01*
X-2802647Y2384088D01*
X-2785981Y2381893D01*
X-2672784Y2366990D01*
X-2608888Y2338723D01*
X-2601290Y2331732D01*
X-2092598Y1823040D01*
X-2059113Y1761717D01*
X-2056279Y1735359D01*
X-2056279Y-5292861D01*
X-2075964Y-5359900D01*
X-2081896Y-5368339D01*
X-2161640Y-5472262D01*
X-2217109Y-5606178D01*
X-2236029Y-5749887D01*
X-2217109Y-5893596D01*
X-2161640Y-6027512D01*
X-2073400Y-6142508D01*
X-1958404Y-6230748D01*
X-1824488Y-6286217D01*
X-1695756Y-6303165D01*
X-1680780Y-6305137D01*
X-1680779Y-6305137D01*
X-1680778Y-6305137D01*
X-1664059Y-6302935D01*
X-1537070Y-6286217D01*
X-1403154Y-6230748D01*
X-1288158Y-6142508D01*
X-1199918Y-6027512D01*
X-1199917Y-6027511D01*
X-1199916Y-6027509D01*
X-1144450Y-5893599D01*
X-1144449Y-5893595D01*
X-1125529Y-5749887D01*
X-1125529Y-5749886D01*
X-1144449Y-5606178D01*
X-1144450Y-5606174D01*
X-1199916Y-5472264D01*
X-1236014Y-5425220D01*
X-1279655Y-5368346D01*
X-1304849Y-5303178D01*
X-1305279Y-5292861D01*
X-1305279Y1991694D01*
X-1307504Y2000000D01*
X-1330868Y2087196D01*
X-1334935Y2094241D01*
X-1372965Y2160111D01*
X-1389438Y2228012D01*
X-1366585Y2294038D01*
X-1311664Y2337229D01*
X-1281765Y2345050D01*
X-1242603Y2350206D01*
X-1242599Y2350207D01*
X-1108689Y2405673D01*
X-993691Y2493915D01*
X-905449Y2608913D01*
X-849983Y2742823D01*
X-849982Y2742827D01*
X-831062Y2886535D01*
X-831062Y2886536D01*
X-843480Y2980861D01*
X-849982Y3030245D01*
X-849983Y3030248D01*
X-905449Y3164158D01*
X-924512Y3189001D01*
X-985188Y3268076D01*
X-1010382Y3333245D01*
X-1010812Y3343562D01*
X-1010812Y4120500D01*
X-991127Y4187539D01*
X-938323Y4233294D01*
X-886812Y4244500D01*
X8414100Y4244500D01*
X8481139Y4224815D01*
X8526894Y4172011D01*
X8536838Y4102853D01*
X8507813Y4039297D01*
X8501781Y4032819D01*
X4269438Y-199525D01*
X4199526Y-269436D01*
X4150091Y-355059D01*
X4150091Y-355060D01*
X4150090Y-355062D01*
X4124500Y-450565D01*
X4124500Y-450567D01*
X4124500Y-10542974D01*
X4104815Y-10610013D01*
X4098882Y-10618452D01*
X4094242Y-10624500D01*
X4019137Y-10722377D01*
X3963671Y-10856287D01*
X3963670Y-10856291D01*
X3944750Y-10999999D01*
X3944750Y-11000000D01*
X3963670Y-11143708D01*
X3963671Y-11143712D01*
X4019137Y-11277622D01*
X4019138Y-11277624D01*
X4019139Y-11277625D01*
X4107379Y-11392621D01*
X4222375Y-11480861D01*
X4222376Y-11480861D01*
X4222377Y-11480862D01*
X4267013Y-11499350D01*
X4356291Y-11536330D01*
X4483280Y-11553048D01*
X4499999Y-11555250D01*
X4500000Y-11555250D01*
X4500001Y-11555250D01*
X4514977Y-11553278D01*
X4643709Y-11536330D01*
X4777625Y-11480861D01*
X4892621Y-11392621D01*
X4980861Y-11277625D01*
X5036330Y-11143709D01*
X5055250Y-11000000D01*
X5036330Y-10856291D01*
X4980861Y-10722375D01*
X4901123Y-10618459D01*
X4875930Y-10553291D01*
X4875500Y-10542974D01*
X4875500Y-706899D01*
X4895185Y-639860D01*
X4911819Y-619218D01*
X9854313Y4323275D01*
X9915636Y4356760D01*
X9985328Y4351776D01*
X10028093Y4324829D01*
X10032325Y4320745D01*
X10120665Y4274534D01*
X10120670Y4274532D01*
X10180392Y4256995D01*
X10239169Y4219220D01*
X10268193Y4155664D01*
X10258248Y4086505D01*
X10233136Y4050338D01*
X8833941Y2651143D01*
X8772618Y2617658D01*
X8762461Y2615887D01*
X8632585Y2598789D01*
X8498669Y2543320D01*
X8383673Y2455080D01*
X8303201Y2350207D01*
X8295431Y2340081D01*
X8249913Y2230187D01*
X8239964Y2206168D01*
X8225228Y2094241D01*
X8221044Y2062459D01*
X8221044Y2062458D01*
X8239964Y1918750D01*
X8239965Y1918746D01*
X8295431Y1784836D01*
X8383673Y1669838D01*
X8498671Y1581596D01*
X8632581Y1526130D01*
X8632585Y1526129D01*
X8643349Y1524711D01*
X8707245Y1496444D01*
X8745715Y1438118D01*
X8746545Y1368254D01*
X8714842Y1314092D01*
X6269438Y-1131313D01*
X6199526Y-1201224D01*
X6150091Y-1286847D01*
X6150091Y-1286848D01*
X6150090Y-1286850D01*
X6124500Y-1382353D01*
X6124500Y-1382355D01*
X6124500Y-11042974D01*
X6104815Y-11110013D01*
X6098882Y-11118452D01*
X6081018Y-11141733D01*
X6019137Y-11222377D01*
X5963671Y-11356287D01*
X5963670Y-11356291D01*
X5944750Y-11499999D01*
X5944750Y-11500000D01*
X5963670Y-11643708D01*
X5963671Y-11643712D01*
X6019137Y-11777622D01*
X6019138Y-11777624D01*
X6019139Y-11777625D01*
X6107379Y-11892621D01*
X6222375Y-11980861D01*
X6222376Y-11980861D01*
X6222377Y-11980862D01*
X6294990Y-12010939D01*
X6349394Y-12054780D01*
X6371459Y-12121074D01*
X6354180Y-12188773D01*
X6303043Y-12236384D01*
X6247538Y-12249500D01*
X-1937175Y-12249500D01*
X-2004214Y-12229815D01*
X-2035550Y-12200987D01*
X-2107377Y-12107381D01*
X-2107378Y-12107380D01*
X-2107379Y-12107379D01*
X-2175927Y-12054780D01*
X-2222377Y-12019137D01*
X-2356287Y-11963671D01*
X-2356291Y-11963670D01*
X-2499999Y-11944750D01*
X-2500001Y-11944750D01*
X-2539490Y-11949949D01*
X-2643709Y-11963670D01*
X-2643710Y-11963670D01*
X-2643712Y-11963671D01*
X-2777622Y-12019137D01*
X-2777624Y-12019138D01*
X-2777625Y-12019139D01*
X-2892621Y-12107379D01*
X-2980861Y-12222375D01*
X-2980861Y-12222376D01*
X-2980862Y-12222377D01*
X-2993780Y-12253565D01*
X-3036330Y-12356291D01*
X-3055250Y-12500000D01*
X-3036330Y-12643709D01*
X-2980861Y-12777625D01*
X-2976124Y-12783798D01*
X-2950930Y-12848965D01*
X-2950500Y-12859284D01*
X-2950500Y-22374429D01*
X-2970185Y-22441468D01*
X-3022989Y-22487223D01*
X-3074500Y-22498429D01*
X-3966352Y-22498429D01*
X-4033391Y-22478744D01*
X-4079146Y-22425940D01*
X-4089090Y-22356782D01*
X-4064727Y-22298942D01*
X-4019138Y-22239531D01*
X-4019137Y-22239528D01*
X-3963670Y-22105617D01*
X-3963669Y-22105613D01*
X-3944749Y-21961905D01*
X-3944749Y-21961904D01*
X-3963669Y-21818196D01*
X-3963670Y-21818192D01*
X-4019136Y-21684282D01*
X-4068587Y-21619837D01*
X-4098875Y-21580364D01*
X-4124069Y-21515196D01*
X-4124499Y-21504879D01*
X-4124499Y-1950564D01*
X-4126724Y-1941134D01*
X-4127750Y-1938433D01*
X-4143628Y-1879174D01*
X-4143627Y-1879173D01*
X-4150087Y-1855066D01*
X-4150088Y-1855063D01*
X-4199526Y-1769436D01*
X-13411314Y7442351D01*
X-13444799Y7503674D01*
X-13446572Y7513845D01*
X-13463670Y7643708D01*
X-13463671Y7643712D01*
X-13519137Y7777622D01*
X-13519139Y7777625D01*
X-13607379Y7892621D01*
X-13722375Y7980861D01*
X-13856291Y8036330D01*
X-13985120Y8053291D01*
X-13999999Y8055250D01*
X-14000001Y8055250D01*
X-14014880Y8053291D01*
X-14143709Y8036330D01*
X-14277625Y7980861D01*
X-14392621Y7892621D01*
X-14480861Y7777625D01*
X-14536330Y7643709D01*
X-14555250Y7500000D01*
X-14536330Y7356291D01*
X-14480861Y7222375D01*
X-14392621Y7107379D01*
X-14300027Y7036329D01*
X-14277622Y7019137D01*
X-14143712Y6963671D01*
X-14143710Y6963670D01*
X-14143709Y6963670D01*
X-14124590Y6961152D01*
X-14013845Y6946572D01*
X-13949949Y6918305D01*
X-13942351Y6911314D01*
X-4911818Y-2119219D01*
X-4878333Y-2180542D01*
X-4875499Y-2206900D01*
X-4875499Y-21504879D01*
X-4895184Y-21571918D01*
X-4901116Y-21580357D01*
X-4980860Y-21684280D01*
X-5036329Y-21818196D01*
X-5055249Y-21961905D01*
X-5036329Y-22105614D01*
X-4980860Y-22239530D01*
X-4980859Y-22239531D01*
X-4935271Y-22298942D01*
X-4910076Y-22364111D01*
X-4924114Y-22432556D01*
X-4972927Y-22482546D01*
X-5033646Y-22498429D01*
X-15008238Y-22498429D01*
X-15040673Y-22507120D01*
X-15098559Y-22522630D01*
X-15098585Y-22522637D01*
X-15098602Y-22522642D01*
X-15106085Y-22524647D01*
X-15122817Y-22529130D01*
X-15169889Y-22556308D01*
X-15225543Y-22588440D01*
X-15225545Y-22588442D01*
X-17564499Y-24927396D01*
X-17625822Y-24960881D01*
X-17635987Y-24962653D01*
X-17640002Y-24963182D01*
X-17643710Y-24963670D01*
X-17777622Y-25019137D01*
X-17777624Y-25019138D01*
X-17777625Y-25019139D01*
X-17892621Y-25107379D01*
X-17980861Y-25222375D01*
X-17980861Y-25222376D01*
X-17980862Y-25222377D01*
X-17982504Y-25226341D01*
X-18036330Y-25356291D01*
X-18055250Y-25500000D01*
X-18036330Y-25643709D01*
X-17980861Y-25777625D01*
X-17892621Y-25892621D01*
X-17777625Y-25980861D01*
X-17643709Y-26036330D01*
X-17514977Y-26053278D01*
X-17500001Y-26055250D01*
X-17500000Y-26055250D01*
X-17499999Y-26055250D01*
X-17483280Y-26053048D01*
X-17356291Y-26036330D01*
X-17222375Y-25980861D01*
X-17107379Y-25892621D01*
X-17019139Y-25777625D01*
X-17019138Y-25777624D01*
X-17019137Y-25777622D01*
X-16963670Y-25643710D01*
X-16962654Y-25635991D01*
X-16934385Y-25572096D01*
X-16927396Y-25564499D01*
X-14798645Y-23435748D01*
X-14737322Y-23402263D01*
X-14710964Y-23399429D01*
X-9182540Y-23399429D01*
X-9115501Y-23419114D01*
X-9069746Y-23471918D01*
X-9059802Y-23541076D01*
X-9088827Y-23604632D01*
X-9147605Y-23642406D01*
X-9150407Y-23643193D01*
X-9167216Y-23647696D01*
X-9176148Y-23650090D01*
X-9176149Y-23650091D01*
X-9218959Y-23674807D01*
X-9235212Y-23684190D01*
X-9261768Y-23699522D01*
X-9261773Y-23699526D01*
X-10755103Y-25192856D01*
X-10816426Y-25226341D01*
X-10826597Y-25228114D01*
X-10939794Y-25243017D01*
X-10956460Y-25245212D01*
X-10956461Y-25245212D01*
X-10956463Y-25245213D01*
X-11090373Y-25300679D01*
X-11090375Y-25300680D01*
X-11090376Y-25300681D01*
X-11205372Y-25388921D01*
X-11293612Y-25503917D01*
X-11349081Y-25637833D01*
X-11368001Y-25781542D01*
X-11349081Y-25925251D01*
X-11293612Y-26059167D01*
X-11205372Y-26174163D01*
X-11090376Y-26262403D01*
X-10956460Y-26317872D01*
X-10827728Y-26334820D01*
X-10812752Y-26336792D01*
X-10812751Y-26336792D01*
X-10812750Y-26336792D01*
X-10796031Y-26334590D01*
X-10669042Y-26317872D01*
X-10535126Y-26262403D01*
X-10420130Y-26174163D01*
X-10331890Y-26059167D01*
X-10331889Y-26059166D01*
X-10331888Y-26059164D01*
X-10276422Y-25925254D01*
X-10276421Y-25925250D01*
X-10259323Y-25795388D01*
X-10231056Y-25731492D01*
X-10224065Y-25723894D01*
X-8911990Y-24411819D01*
X-8850667Y-24378334D01*
X-8824309Y-24375500D01*
X4542974Y-24375500D01*
X4610013Y-24395185D01*
X4618452Y-24401117D01*
X4722375Y-24480861D01*
X4856291Y-24536330D01*
X4983280Y-24553048D01*
X4999999Y-24555250D01*
X5000000Y-24555250D01*
X5000001Y-24555250D01*
X5014977Y-24553278D01*
X5143709Y-24536330D01*
X5277625Y-24480861D01*
X5392621Y-24392621D01*
X5480861Y-24277625D01*
X5536330Y-24143709D01*
X5555250Y-24000000D01*
X5536330Y-23856291D01*
X5480861Y-23722375D01*
X5392621Y-23607379D01*
X5392618Y-23607377D01*
X5387673Y-23600932D01*
X5389872Y-23599244D01*
X5362867Y-23549787D01*
X5367851Y-23480095D01*
X5409723Y-23424162D01*
X5475187Y-23399745D01*
X5484033Y-23399429D01*
X16074888Y-23399429D01*
X16141927Y-23419114D01*
X16150372Y-23425052D01*
X16156543Y-23429787D01*
X16156546Y-23429788D01*
X16156548Y-23429790D01*
X16290464Y-23485259D01*
X16417453Y-23501977D01*
X16434172Y-23504179D01*
X16434173Y-23504179D01*
X16434174Y-23504179D01*
X16449150Y-23502207D01*
X16577882Y-23485259D01*
X16711798Y-23429790D01*
X16826794Y-23341550D01*
X16915034Y-23226554D01*
X16970503Y-23092638D01*
X16989423Y-22948929D01*
X16970503Y-22805220D01*
X16915034Y-22671304D01*
X16826794Y-22556308D01*
X16711798Y-22468068D01*
X16711797Y-22468067D01*
X16711795Y-22468066D01*
X16577885Y-22412600D01*
X16577883Y-22412599D01*
X16577882Y-22412599D01*
X16506027Y-22403139D01*
X16434174Y-22393679D01*
X16434172Y-22393679D01*
X16290464Y-22412599D01*
X16290460Y-22412600D01*
X16156549Y-22468067D01*
X16156543Y-22468070D01*
X16150372Y-22472806D01*
X16085203Y-22497999D01*
X16074888Y-22498429D01*
X-1925500Y-22498429D01*
X-1992539Y-22478744D01*
X-2038294Y-22425940D01*
X-2049500Y-22374429D01*
X-2049500Y-14500000D01*
X3944750Y-14500000D01*
X3962825Y-14637294D01*
X3963670Y-14643708D01*
X3963671Y-14643712D01*
X4019137Y-14777622D01*
X4019138Y-14777624D01*
X4019139Y-14777625D01*
X4098876Y-14881540D01*
X4124070Y-14946709D01*
X4124500Y-14957026D01*
X4124500Y-18549435D01*
X4150090Y-18644938D01*
X4150091Y-18644939D01*
X4150091Y-18644940D01*
X4179661Y-18696158D01*
X4179663Y-18696160D01*
X4199526Y-18730563D01*
X7101193Y-21632231D01*
X7101194Y-21632232D01*
X7101196Y-21632233D01*
X7121079Y-21643712D01*
X7186819Y-21681667D01*
X7282320Y-21707256D01*
X7282321Y-21707256D01*
X12907137Y-21707256D01*
X12974176Y-21726941D01*
X13013023Y-21771773D01*
X13015076Y-21770588D01*
X13019138Y-21777625D01*
X13079274Y-21855994D01*
X13107379Y-21892621D01*
X13222375Y-21980861D01*
X13356291Y-22036330D01*
X13483280Y-22053048D01*
X13499999Y-22055250D01*
X13500000Y-22055250D01*
X13500001Y-22055250D01*
X13514977Y-22053278D01*
X13643709Y-22036330D01*
X13777625Y-21980861D01*
X13892621Y-21892621D01*
X13980861Y-21777625D01*
X14036330Y-21643709D01*
X14055250Y-21500000D01*
X14036330Y-21356291D01*
X13999350Y-21267013D01*
X13980862Y-21222377D01*
X13980861Y-21222376D01*
X13980861Y-21222375D01*
X13892621Y-21107379D01*
X13777625Y-21019139D01*
X13777624Y-21019138D01*
X13777622Y-21019137D01*
X13643712Y-20963671D01*
X13643710Y-20963670D01*
X13643709Y-20963670D01*
X13571854Y-20954210D01*
X13500001Y-20944750D01*
X13499997Y-20944750D01*
X13413081Y-20956192D01*
X13389319Y-20956193D01*
X13389319Y-20956256D01*
X7538656Y-20956256D01*
X7471617Y-20936571D01*
X7450975Y-20919937D01*
X4911819Y-18380781D01*
X4878334Y-18319458D01*
X4875500Y-18293100D01*
X4875500Y-14957026D01*
X4895185Y-14889987D01*
X4901117Y-14881547D01*
X4980861Y-14777625D01*
X5036330Y-14643709D01*
X5055250Y-14500000D01*
X5036330Y-14356291D01*
X4980861Y-14222375D01*
X4892621Y-14107379D01*
X4777625Y-14019139D01*
X4777624Y-14019138D01*
X4777622Y-14019137D01*
X4731420Y-14000000D01*
X5944750Y-14000000D01*
X5963670Y-14143708D01*
X5963671Y-14143712D01*
X6019137Y-14277622D01*
X6019138Y-14277624D01*
X6019139Y-14277625D01*
X6107379Y-14392621D01*
X6222375Y-14480861D01*
X6356291Y-14536330D01*
X6486153Y-14553427D01*
X6550048Y-14581692D01*
X6557647Y-14588684D01*
X8728212Y-16759249D01*
X8798125Y-16829162D01*
X8883351Y-16878367D01*
X8883749Y-16878597D01*
X8931498Y-16891392D01*
X8931499Y-16891392D01*
X8941590Y-16894095D01*
X8979251Y-16904187D01*
X8979252Y-16904187D01*
X12928348Y-16904187D01*
X12995387Y-16923872D01*
X13003826Y-16929804D01*
X13107749Y-17009548D01*
X13241665Y-17065017D01*
X13368654Y-17081735D01*
X13385373Y-17083937D01*
X13385374Y-17083937D01*
X13385375Y-17083937D01*
X13400351Y-17081965D01*
X13529083Y-17065017D01*
X13662999Y-17009548D01*
X13777995Y-16921308D01*
X13866235Y-16806312D01*
X13871795Y-16792888D01*
X22737440Y-16792888D01*
X22895390Y-16878367D01*
X22895396Y-16878369D01*
X23130506Y-16959083D01*
X23375707Y-17000000D01*
X23624293Y-17000000D01*
X23869493Y-16959083D01*
X24104600Y-16878370D01*
X24104608Y-16878367D01*
X24262558Y-16792888D01*
X23500000Y-16030330D01*
X22737440Y-16792888D01*
X13871795Y-16792888D01*
X13921704Y-16672396D01*
X13940624Y-16528687D01*
X13921704Y-16384978D01*
X13866235Y-16251062D01*
X13777995Y-16136066D01*
X13662999Y-16047826D01*
X13662998Y-16047825D01*
X13662996Y-16047824D01*
X13529086Y-15992358D01*
X13529084Y-15992357D01*
X13529083Y-15992357D01*
X13457228Y-15982897D01*
X13385375Y-15973437D01*
X13385373Y-15973437D01*
X13241665Y-15992357D01*
X13241661Y-15992358D01*
X13107751Y-16047824D01*
X13060707Y-16083922D01*
X13003833Y-16127563D01*
X12938665Y-16152757D01*
X12928348Y-16153187D01*
X9235586Y-16153187D01*
X9168547Y-16133502D01*
X9147905Y-16116868D01*
X8531042Y-15500005D01*
X21994859Y-15500005D01*
X22015385Y-15747729D01*
X22015387Y-15747738D01*
X22076411Y-15988717D01*
X22176267Y-16216365D01*
X22206708Y-16262960D01*
X22903844Y-15565826D01*
X23000000Y-15565826D01*
X23034075Y-15692993D01*
X23099901Y-15807007D01*
X23192993Y-15900099D01*
X23307007Y-15965925D01*
X23434174Y-16000000D01*
X23565826Y-16000000D01*
X23692993Y-15965925D01*
X23807007Y-15900099D01*
X23900099Y-15807007D01*
X23965925Y-15692993D01*
X24000000Y-15565826D01*
X24000000Y-15500000D01*
X24030330Y-15500000D01*
X24793290Y-16262961D01*
X24823731Y-16216369D01*
X24923587Y-15988717D01*
X24984612Y-15747738D01*
X24984614Y-15747729D01*
X25005141Y-15500005D01*
X25005141Y-15499994D01*
X24984614Y-15252270D01*
X24984612Y-15252261D01*
X24923587Y-15011282D01*
X24823732Y-14783632D01*
X24793290Y-14737037D01*
X24030330Y-15499999D01*
X24030330Y-15500000D01*
X24000000Y-15500000D01*
X24000000Y-15434174D01*
X23965925Y-15307007D01*
X23900099Y-15192993D01*
X23807007Y-15099901D01*
X23692993Y-15034075D01*
X23565826Y-15000000D01*
X23434174Y-15000000D01*
X23307007Y-15034075D01*
X23192993Y-15099901D01*
X23099901Y-15192993D01*
X23034075Y-15307007D01*
X23000000Y-15434174D01*
X23000000Y-15565826D01*
X22903844Y-15565826D01*
X22969670Y-15500000D01*
X22206708Y-14737038D01*
X22206707Y-14737038D01*
X22176272Y-14783624D01*
X22176267Y-14783634D01*
X22076411Y-15011282D01*
X22015387Y-15252261D01*
X22015385Y-15252270D01*
X21994859Y-15499994D01*
X21994859Y-15500005D01*
X8531042Y-15500005D01*
X7238147Y-14207110D01*
X22737439Y-14207110D01*
X23500000Y-14969670D01*
X23500001Y-14969670D01*
X24262559Y-14207110D01*
X24104614Y-14121635D01*
X24104603Y-14121630D01*
X23869493Y-14040916D01*
X23624293Y-14000000D01*
X23375707Y-14000000D01*
X23130506Y-14040916D01*
X22895400Y-14121629D01*
X22895386Y-14121635D01*
X22737439Y-14207110D01*
X7238147Y-14207110D01*
X7088684Y-14057647D01*
X7055199Y-13996324D01*
X7053428Y-13986167D01*
X7036330Y-13856291D01*
X6980861Y-13722375D01*
X6892621Y-13607379D01*
X6777625Y-13519139D01*
X6777624Y-13519138D01*
X6777622Y-13519137D01*
X6643712Y-13463671D01*
X6643710Y-13463670D01*
X6643709Y-13463670D01*
X6539490Y-13449949D01*
X6500001Y-13444750D01*
X6499999Y-13444750D01*
X6356291Y-13463670D01*
X6356287Y-13463671D01*
X6222377Y-13519137D01*
X6107379Y-13607379D01*
X6019137Y-13722377D01*
X5963671Y-13856287D01*
X5963670Y-13856291D01*
X5944750Y-13999999D01*
X5944750Y-14000000D01*
X4731420Y-14000000D01*
X4643712Y-13963671D01*
X4643710Y-13963670D01*
X4643709Y-13963670D01*
X4571854Y-13954210D01*
X4500001Y-13944750D01*
X4499999Y-13944750D01*
X4356291Y-13963670D01*
X4356287Y-13963671D01*
X4222377Y-14019137D01*
X4107379Y-14107379D01*
X4019137Y-14222377D01*
X3963671Y-14356287D01*
X3963670Y-14356291D01*
X3947270Y-14480862D01*
X3944750Y-14500000D01*
X-2049500Y-14500000D01*
X-2049500Y-13274500D01*
X-2029815Y-13207461D01*
X-1977011Y-13161706D01*
X-1925500Y-13150500D01*
X16859308Y-13150500D01*
X16859309Y-13150500D01*
X16949673Y-13126286D01*
X16973887Y-13119799D01*
X17076614Y-13060489D01*
X18064500Y-12072601D01*
X18125821Y-12039118D01*
X18135978Y-12037347D01*
X18143709Y-12036330D01*
X18277625Y-11980861D01*
X18392621Y-11892621D01*
X18480861Y-11777625D01*
X18536330Y-11643709D01*
X18555250Y-11500000D01*
X18536330Y-11356291D01*
X18480861Y-11222375D01*
X18392621Y-11107379D01*
X18277625Y-11019139D01*
X18277624Y-11019138D01*
X18277622Y-11019137D01*
X18143712Y-10963671D01*
X18143710Y-10963670D01*
X18143709Y-10963670D01*
X18124590Y-10961152D01*
X18013845Y-10946572D01*
X17949949Y-10918305D01*
X17942351Y-10911314D01*
X17286819Y-10255782D01*
X17253334Y-10194459D01*
X17250500Y-10168101D01*
X17250500Y-8163797D01*
X17270185Y-8096758D01*
X17322989Y-8051003D01*
X17390685Y-8040858D01*
X17464320Y-8050552D01*
X17499999Y-8055250D01*
X17500000Y-8055250D01*
X17500001Y-8055250D01*
X17514977Y-8053278D01*
X17643709Y-8036330D01*
X17777625Y-7980861D01*
X17881540Y-7901123D01*
X17946709Y-7875930D01*
X17957026Y-7875500D01*
X27697449Y-7875500D01*
X27697450Y-7875500D01*
X27745200Y-7862705D01*
X27792952Y-7849910D01*
X27878576Y-7800475D01*
X27948489Y-7730562D01*
X32186939Y-3492112D01*
X32186940Y-3492111D01*
X32236375Y-3406487D01*
X32261965Y-3310984D01*
X32261965Y-3170592D01*
X32281650Y-3103553D01*
X32334454Y-3057798D01*
X32341173Y-3054965D01*
X32390286Y-3035939D01*
X32390287Y-3035938D01*
X32390293Y-3035936D01*
X32567636Y-2926129D01*
X32721783Y-2785606D01*
X32847484Y-2619151D01*
X32940459Y-2432432D01*
X32997541Y-2231809D01*
X33016787Y-2024113D01*
X32997541Y-1816417D01*
X32940459Y-1615794D01*
X32847484Y-1429075D01*
X32721783Y-1262620D01*
X32567636Y-1122097D01*
X32390293Y-1012290D01*
X32390292Y-1012289D01*
X32216411Y-944928D01*
X32195792Y-936940D01*
X31990758Y-898613D01*
X31782172Y-898613D01*
X31577138Y-936940D01*
X31577135Y-936940D01*
X31577135Y-936941D01*
X31382637Y-1012289D01*
X31382636Y-1012290D01*
X31205292Y-1122098D01*
X31051148Y-1262618D01*
X30925446Y-1429074D01*
X30832472Y-1615790D01*
X30775388Y-1816421D01*
X30756143Y-2024112D01*
X30756143Y-2024113D01*
X30775388Y-2231804D01*
X30775388Y-2231806D01*
X30775389Y-2231809D01*
X30832471Y-2432432D01*
X30832472Y-2432435D01*
X30889386Y-2546733D01*
X30925446Y-2619151D01*
X31051147Y-2785606D01*
X31205294Y-2926129D01*
X31293212Y-2980566D01*
X31372071Y-3029394D01*
X31418706Y-3081423D01*
X31429810Y-3150404D01*
X31401856Y-3214438D01*
X31394474Y-3222502D01*
X30854109Y-3762867D01*
X30792786Y-3796352D01*
X30723094Y-3791368D01*
X30667161Y-3749496D01*
X30642744Y-3684032D01*
X30646652Y-3643097D01*
X30682100Y-3510805D01*
X30701933Y-3284113D01*
X30682100Y-3057421D01*
X30623204Y-2837617D01*
X30527033Y-2631379D01*
X30396512Y-2444974D01*
X30396510Y-2444971D01*
X30235606Y-2284067D01*
X30049199Y-2153545D01*
X30049197Y-2153544D01*
X29842962Y-2057374D01*
X29842953Y-2057371D01*
X29623162Y-1998479D01*
X29623158Y-1998478D01*
X29623157Y-1998478D01*
X29623156Y-1998477D01*
X29623151Y-1998477D01*
X29396467Y-1978645D01*
X29396463Y-1978645D01*
X29169778Y-1998477D01*
X29169767Y-1998479D01*
X28949976Y-2057371D01*
X28949967Y-2057374D01*
X28743732Y-2153544D01*
X28743730Y-2153545D01*
X28557323Y-2284067D01*
X28396419Y-2444971D01*
X28265897Y-2631378D01*
X28265896Y-2631380D01*
X28169726Y-2837615D01*
X28169723Y-2837624D01*
X28110831Y-3057415D01*
X28110829Y-3057426D01*
X28090997Y-3284111D01*
X28090997Y-3284114D01*
X28110829Y-3510799D01*
X28110831Y-3510810D01*
X28169723Y-3730601D01*
X28169726Y-3730610D01*
X28265896Y-3936845D01*
X28265897Y-3936847D01*
X28396419Y-4123254D01*
X28557323Y-4284158D01*
X28557326Y-4284160D01*
X28743731Y-4414681D01*
X28949969Y-4510852D01*
X28949974Y-4510853D01*
X28949976Y-4510854D01*
X29002880Y-4525029D01*
X29169773Y-4569748D01*
X29331695Y-4583914D01*
X29396463Y-4589581D01*
X29396465Y-4589581D01*
X29396467Y-4589581D01*
X29453138Y-4584622D01*
X29623157Y-4569748D01*
X29755447Y-4534301D01*
X29825294Y-4535964D01*
X29883157Y-4575126D01*
X29910661Y-4639354D01*
X29899075Y-4708257D01*
X29875219Y-4741757D01*
X27528796Y-7088181D01*
X27467473Y-7121666D01*
X27441115Y-7124500D01*
X17957026Y-7124500D01*
X17889987Y-7104815D01*
X17881547Y-7098882D01*
X17777625Y-7019139D01*
X17777624Y-7019138D01*
X17777622Y-7019137D01*
X17643712Y-6963671D01*
X17643710Y-6963670D01*
X17643709Y-6963670D01*
X17544161Y-6950564D01*
X17500001Y-6944750D01*
X17499998Y-6944750D01*
X17390685Y-6959141D01*
X17321650Y-6948375D01*
X17269394Y-6901995D01*
X17250500Y-6836202D01*
X17250500Y1792652D01*
X19858827Y1792652D01*
X19858827Y1517665D01*
X19869320Y1414954D01*
X19924467Y1248532D01*
X19924469Y1248527D01*
X20016510Y1099306D01*
X20140480Y975336D01*
X20289701Y883295D01*
X20289706Y883293D01*
X20456128Y828146D01*
X20456135Y828145D01*
X20558839Y817652D01*
X20958826Y817652D01*
X20958826Y1792652D01*
X19858827Y1792652D01*
X17250500Y1792652D01*
X17250500Y2542652D01*
X19858826Y2542652D01*
X21037074Y2542652D01*
X20953731Y2459309D01*
X20891196Y2350995D01*
X20858826Y2230187D01*
X20858826Y2105117D01*
X20891196Y1984309D01*
X20953731Y1875995D01*
X21042169Y1787557D01*
X21150483Y1725022D01*
X21271291Y1692652D01*
X21396361Y1692652D01*
X21517169Y1725022D01*
X21625483Y1787557D01*
X21630578Y1792652D01*
X21708826Y1792652D01*
X21708826Y817652D01*
X22108797Y817652D01*
X22108813Y817653D01*
X22211523Y828146D01*
X22377945Y883293D01*
X22377950Y883295D01*
X22527171Y975336D01*
X22651141Y1099306D01*
X22743182Y1248527D01*
X22743184Y1248532D01*
X22752028Y1275220D01*
X31216127Y1275220D01*
X31332235Y1212387D01*
X31332249Y1212381D01*
X31547763Y1138394D01*
X31772530Y1100887D01*
X32000400Y1100887D01*
X32225166Y1138394D01*
X32440684Y1212382D01*
X32440695Y1212387D01*
X32556801Y1275220D01*
X31886466Y1945557D01*
X31886465Y1945557D01*
X31216127Y1275220D01*
X22752028Y1275220D01*
X22798331Y1414954D01*
X22798332Y1414961D01*
X22808825Y1517665D01*
X22808826Y1517678D01*
X22808826Y1792652D01*
X21708826Y1792652D01*
X21630578Y1792652D01*
X21713921Y1875995D01*
X21776456Y1984309D01*
X21808826Y2105117D01*
X21808826Y2230187D01*
X21776456Y2350995D01*
X21713921Y2459309D01*
X21630578Y2542652D01*
X22808825Y2542652D01*
X22808825Y2817623D01*
X22808824Y2817638D01*
X22798331Y2920349D01*
X22743184Y3086771D01*
X22743182Y3086776D01*
X22651141Y3235997D01*
X22527171Y3359967D01*
X22377950Y3452008D01*
X22377945Y3452010D01*
X22211523Y3507157D01*
X22211515Y3507158D01*
X22115478Y3516970D01*
X22050786Y3543366D01*
X22010635Y3600547D01*
X22007771Y3670358D01*
X22040321Y3725885D01*
X28090997Y3725885D01*
X28110829Y3499200D01*
X28110831Y3499189D01*
X28169723Y3279398D01*
X28169726Y3279389D01*
X28265896Y3073154D01*
X28265897Y3073152D01*
X28396419Y2886745D01*
X28557323Y2725841D01*
X28743730Y2595319D01*
X28743732Y2595318D01*
X28949967Y2499148D01*
X28949976Y2499145D01*
X29169767Y2440253D01*
X29169778Y2440251D01*
X29396463Y2420419D01*
X29396465Y2420419D01*
X29396467Y2420419D01*
X29623151Y2440251D01*
X29623162Y2440253D01*
X29842953Y2499145D01*
X29842962Y2499148D01*
X30049197Y2595318D01*
X30049199Y2595319D01*
X30235606Y2725841D01*
X30314641Y2804876D01*
X30375964Y2838361D01*
X30445656Y2833377D01*
X30501589Y2791505D01*
X30526006Y2726041D01*
X30525899Y2706956D01*
X30506753Y2475882D01*
X30506753Y2475880D01*
X30525568Y2248801D01*
X30525570Y2248793D01*
X30581510Y2027893D01*
X30673042Y1819222D01*
X30673043Y1819220D01*
X30683485Y1803237D01*
X31290967Y2410719D01*
X31391465Y2410719D01*
X31425199Y2284824D01*
X31490367Y2171950D01*
X31582528Y2079789D01*
X31695402Y2014621D01*
X31821297Y1980887D01*
X31951633Y1980887D01*
X32077528Y2014621D01*
X32190402Y2079789D01*
X32282563Y2171950D01*
X32347731Y2284824D01*
X32381465Y2410719D01*
X32381465Y2475886D01*
X32416795Y2475886D01*
X33089442Y1803237D01*
X33089443Y1803237D01*
X33099884Y1819216D01*
X33191420Y2027895D01*
X33247359Y2248793D01*
X33247361Y2248801D01*
X33266177Y2475880D01*
X33266177Y2475893D01*
X33247361Y2702972D01*
X33247359Y2702980D01*
X33191419Y2923880D01*
X33099884Y3132558D01*
X33089444Y3148535D01*
X33089443Y3148535D01*
X32416795Y2475887D01*
X32416795Y2475886D01*
X32381465Y2475886D01*
X32381465Y2541055D01*
X32347731Y2666950D01*
X32282563Y2779824D01*
X32190402Y2871985D01*
X32077528Y2937153D01*
X31951633Y2970887D01*
X31821297Y2970887D01*
X31695402Y2937153D01*
X31582528Y2871985D01*
X31490367Y2779824D01*
X31425199Y2666950D01*
X31391465Y2541055D01*
X31391465Y2410719D01*
X31290967Y2410719D01*
X31356135Y2475887D01*
X30658913Y3173107D01*
X30625428Y3234430D01*
X30626819Y3292881D01*
X30682098Y3499189D01*
X30682100Y3499195D01*
X30697617Y3676552D01*
X31216128Y3676552D01*
X31886465Y3006217D01*
X31886466Y3006217D01*
X32556800Y3676552D01*
X32440689Y3739389D01*
X32440681Y3739392D01*
X32225166Y3813379D01*
X32000400Y3850887D01*
X31772530Y3850887D01*
X31547763Y3813379D01*
X31332248Y3739392D01*
X31332239Y3739389D01*
X31216128Y3676552D01*
X30697617Y3676552D01*
X30701933Y3725887D01*
X30700751Y3739392D01*
X30694278Y3813379D01*
X30682100Y3952579D01*
X30623204Y4172383D01*
X30527033Y4378621D01*
X30396512Y4565026D01*
X30235604Y4725934D01*
X30049199Y4856455D01*
X29842961Y4952626D01*
X29623157Y5011522D01*
X29453138Y5026396D01*
X29396467Y5031355D01*
X29396463Y5031355D01*
X29331695Y5025688D01*
X29169773Y5011522D01*
X28949969Y4952626D01*
X28743731Y4856455D01*
X28716446Y4837350D01*
X28557323Y4725932D01*
X28396419Y4565028D01*
X28265897Y4378621D01*
X28265896Y4378619D01*
X28169726Y4172384D01*
X28169723Y4172375D01*
X28110831Y3952584D01*
X28110829Y3952573D01*
X28090997Y3725888D01*
X28090997Y3725885D01*
X22040321Y3725885D01*
X22043105Y3730634D01*
X22055194Y3740646D01*
X22084632Y3762034D01*
X22175754Y3828238D01*
X22298240Y3950724D01*
X22400058Y4090864D01*
X22478699Y4245207D01*
X22532228Y4409951D01*
X22559326Y4581041D01*
X22559326Y4754263D01*
X22532228Y4925353D01*
X22478699Y5090097D01*
X22400058Y5244440D01*
X22298240Y5384580D01*
X22175754Y5507066D01*
X22035614Y5608884D01*
X21881271Y5687525D01*
X21716527Y5741054D01*
X21545437Y5768152D01*
X21122215Y5768152D01*
X20951125Y5741054D01*
X20786381Y5687525D01*
X20632038Y5608884D01*
X20491898Y5507066D01*
X20369412Y5384580D01*
X20267594Y5244440D01*
X20188953Y5090097D01*
X20135424Y4925353D01*
X20135423Y4925349D01*
X20108326Y4754262D01*
X20108326Y4581041D01*
X20135423Y4409954D01*
X20135424Y4409951D01*
X20187285Y4250339D01*
X20188954Y4245204D01*
X20267594Y4090863D01*
X20309766Y4032819D01*
X20369412Y3950724D01*
X20369414Y3950722D01*
X20369414Y3950721D01*
X20491895Y3828240D01*
X20491904Y3828233D01*
X20612458Y3740644D01*
X20655124Y3685314D01*
X20661102Y3615701D01*
X20628496Y3553906D01*
X20567657Y3519549D01*
X20552173Y3516969D01*
X20456129Y3507158D01*
X20289706Y3452010D01*
X20289701Y3452008D01*
X20140480Y3359967D01*
X20016510Y3235997D01*
X19924469Y3086776D01*
X19924467Y3086771D01*
X19869320Y2920349D01*
X19869319Y2920342D01*
X19858826Y2817638D01*
X19858826Y2542652D01*
X17250500Y2542652D01*
X17250500Y7081041D01*
X20108326Y7081041D01*
X20135423Y6909954D01*
X20188954Y6745204D01*
X20267594Y6590863D01*
X20325685Y6510908D01*
X20369412Y6450724D01*
X20369414Y6450722D01*
X20369414Y6450721D01*
X20491895Y6328240D01*
X20632037Y6226420D01*
X20786378Y6147780D01*
X20951128Y6094249D01*
X20951127Y6094249D01*
X21090018Y6072251D01*
X21122215Y6067152D01*
X21122216Y6067152D01*
X21545436Y6067152D01*
X21545437Y6067152D01*
X21597065Y6075329D01*
X21716523Y6094249D01*
X21716525Y6094249D01*
X21716527Y6094250D01*
X21881271Y6147779D01*
X22035614Y6226420D01*
X22175754Y6328238D01*
X22298240Y6450724D01*
X22400058Y6590864D01*
X22478699Y6745207D01*
X22532228Y6909951D01*
X22559326Y7081041D01*
X22559326Y7254263D01*
X22532228Y7425353D01*
X22478699Y7590097D01*
X22400058Y7744440D01*
X22298240Y7884580D01*
X22175754Y8007066D01*
X22035614Y8108884D01*
X21881271Y8187525D01*
X21716527Y8241054D01*
X21545437Y8268152D01*
X21122215Y8268152D01*
X20951125Y8241054D01*
X20786381Y8187525D01*
X20632038Y8108884D01*
X20491898Y8007066D01*
X20369412Y7884580D01*
X20267594Y7744440D01*
X20188953Y7590097D01*
X20159678Y7499999D01*
X20135423Y7425349D01*
X20108326Y7254262D01*
X20108326Y7081041D01*
X17250500Y7081041D01*
X17250500Y9581041D01*
X20108326Y9581041D01*
X20135423Y9409954D01*
X20188954Y9245204D01*
X20267594Y9090863D01*
X20325685Y9010908D01*
X20369412Y8950724D01*
X20369414Y8950722D01*
X20369414Y8950721D01*
X20491895Y8828240D01*
X20632037Y8726420D01*
X20786378Y8647780D01*
X20951128Y8594249D01*
X20951127Y8594249D01*
X21090018Y8572251D01*
X21122215Y8567152D01*
X21122216Y8567152D01*
X21545436Y8567152D01*
X21545437Y8567152D01*
X21597065Y8575329D01*
X21716523Y8594249D01*
X21716525Y8594249D01*
X21716527Y8594250D01*
X21881271Y8647779D01*
X22035614Y8726420D01*
X22175754Y8828238D01*
X22298240Y8950724D01*
X22400058Y9090864D01*
X22478699Y9245207D01*
X22532228Y9409951D01*
X22559326Y9581041D01*
X22559326Y9754263D01*
X22532228Y9925353D01*
X22478699Y10090097D01*
X22400058Y10244440D01*
X22298240Y10384580D01*
X22175754Y10507066D01*
X22035614Y10608884D01*
X21881271Y10687525D01*
X21716527Y10741054D01*
X21545437Y10768152D01*
X21122215Y10768152D01*
X20951125Y10741054D01*
X20786381Y10687525D01*
X20632038Y10608884D01*
X20491898Y10507066D01*
X20369412Y10384580D01*
X20267594Y10244440D01*
X20188953Y10090097D01*
X20154267Y9983345D01*
X20135423Y9925349D01*
X20108326Y9754262D01*
X20108326Y9581041D01*
X17250500Y9581041D01*
X17250500Y10668101D01*
X17270185Y10735140D01*
X17286819Y10755782D01*
X17942351Y11411314D01*
X18003674Y11444799D01*
X18013845Y11446572D01*
X18124590Y11461152D01*
X18143709Y11463670D01*
X18143710Y11463670D01*
X18143712Y11463671D01*
X18277622Y11519137D01*
X18277625Y11519139D01*
X18392621Y11607379D01*
X18480861Y11722375D01*
X18536330Y11856291D01*
X18555250Y12000000D01*
X18536330Y12143709D01*
X18480861Y12277625D01*
X18392621Y12392621D01*
X18277625Y12480861D01*
X18143709Y12536330D01*
X18014977Y12553278D01*
X18000001Y12555250D01*
X17999999Y12555250D01*
X17983280Y12553048D01*
X17856291Y12536330D01*
X17722375Y12480861D01*
X17607379Y12392621D01*
X17525087Y12285376D01*
X17519137Y12277622D01*
X17463671Y12143712D01*
X17463670Y12143708D01*
X17446572Y12013845D01*
X17418305Y11949949D01*
X17411314Y11942351D01*
X16644438Y11175475D01*
X16574525Y11105562D01*
X16525090Y11019938D01*
X16525090Y11019937D01*
X16505932Y10948438D01*
X16499500Y10924435D01*
X16499500Y10924434D01*
X16499500Y3955421D01*
X16479815Y3888382D01*
X16427011Y3842627D01*
X16357853Y3832683D01*
X16300013Y3857046D01*
X16299334Y3857566D01*
X16277625Y3874225D01*
X16143709Y3929694D01*
X16014977Y3946642D01*
X16000001Y3948614D01*
X15999999Y3948614D01*
X15984490Y3946572D01*
X15856291Y3929694D01*
X15794018Y3903900D01*
X15756554Y3888382D01*
X15722375Y3874225D01*
X15607379Y3785985D01*
X15530131Y3685314D01*
X15519137Y3670986D01*
X15463671Y3537076D01*
X15463670Y3537073D01*
X15458684Y3499200D01*
X15444750Y3393364D01*
X15444750Y3393363D01*
X15463670Y3249655D01*
X15463671Y3249651D01*
X15519137Y3115741D01*
X15519139Y3115739D01*
X15598876Y3011823D01*
X15624070Y2946655D01*
X15624500Y2936338D01*
X15624500Y1637985D01*
X15604815Y1570946D01*
X15552011Y1525191D01*
X15484317Y1515046D01*
X15363209Y1530991D01*
X15351953Y1532473D01*
X15351951Y1532473D01*
X15340695Y1530991D01*
X15208243Y1513553D01*
X15129319Y1480862D01*
X15079402Y1460186D01*
X15074327Y1458084D01*
X14959331Y1369844D01*
X14886723Y1275220D01*
X14871089Y1254845D01*
X14825056Y1143709D01*
X14815622Y1120932D01*
X14800184Y1003674D01*
X14796702Y977223D01*
X14796702Y977222D01*
X14815622Y833514D01*
X14815623Y833510D01*
X14871089Y699600D01*
X14898029Y664492D01*
X14950828Y595682D01*
X14976022Y530514D01*
X14976452Y520197D01*
X14976452Y-455785D01*
X14956767Y-522824D01*
X14940133Y-543466D01*
X13551890Y-1931708D01*
X13490567Y-1965193D01*
X13480396Y-1966966D01*
X13350534Y-1984064D01*
X13350530Y-1984065D01*
X13216620Y-2039531D01*
X13101622Y-2127773D01*
X13013380Y-2242771D01*
X12957914Y-2376681D01*
X12957913Y-2376685D01*
X12944198Y-2480862D01*
X12938993Y-2520394D01*
X12955228Y-2643712D01*
X12957913Y-2664102D01*
X12957914Y-2664106D01*
X13013380Y-2798016D01*
X13013381Y-2798018D01*
X13013382Y-2798019D01*
X13101622Y-2913015D01*
X13216618Y-3001255D01*
X13350534Y-3056724D01*
X13477523Y-3073442D01*
X13494242Y-3075644D01*
X13494243Y-3075644D01*
X13494244Y-3075644D01*
X13509220Y-3073672D01*
X13637952Y-3056724D01*
X13771868Y-3001255D01*
X13886864Y-2913015D01*
X13975104Y-2798019D01*
X14030573Y-2664103D01*
X14047670Y-2534238D01*
X14075937Y-2470343D01*
X14082916Y-2462756D01*
X15412820Y-1132852D01*
X15474142Y-1099369D01*
X15543834Y-1104353D01*
X15599767Y-1146225D01*
X15624184Y-1211689D01*
X15624500Y-1220535D01*
X15624500Y-6793100D01*
X15604815Y-6860139D01*
X15588181Y-6880781D01*
X11057647Y-11411314D01*
X10996324Y-11444799D01*
X10986153Y-11446572D01*
X10856291Y-11463670D01*
X10856287Y-11463671D01*
X10722377Y-11519137D01*
X10607379Y-11607379D01*
X10519137Y-11722377D01*
X10463671Y-11856287D01*
X10463670Y-11856291D01*
X10447270Y-11980862D01*
X10444750Y-12000000D01*
X10458949Y-12107853D01*
X10459142Y-12109314D01*
X10448377Y-12178349D01*
X10401997Y-12230605D01*
X10336203Y-12249500D01*
X6752462Y-12249500D01*
X6685423Y-12229815D01*
X6639668Y-12177011D01*
X6629724Y-12107853D01*
X6658749Y-12044297D01*
X6705010Y-12010939D01*
X6746783Y-11993635D01*
X6777625Y-11980861D01*
X6892621Y-11892621D01*
X6980861Y-11777625D01*
X7036330Y-11643709D01*
X7055250Y-11500000D01*
X7036330Y-11356291D01*
X6980861Y-11222375D01*
X6901123Y-11118459D01*
X6875930Y-11053291D01*
X6875500Y-11042974D01*
X6875500Y-1638687D01*
X6895185Y-1571648D01*
X6911819Y-1551006D01*
X10229188Y1766362D01*
X10290511Y1799847D01*
X10300682Y1801620D01*
X10413879Y1816523D01*
X10430545Y1818718D01*
X10430546Y1818718D01*
X10430548Y1818719D01*
X10564458Y1874185D01*
X10566817Y1875995D01*
X10679457Y1962427D01*
X10767697Y2077423D01*
X10775787Y2096953D01*
X10809806Y2179085D01*
X10823166Y2211339D01*
X10840263Y2341201D01*
X10868528Y2405096D01*
X10875520Y2412695D01*
X13375471Y4912646D01*
X13375474Y4912649D01*
X13402784Y4959951D01*
X13402785Y4959952D01*
X13402785Y4959953D01*
X13414857Y4980862D01*
X13424910Y4998274D01*
X13450500Y5093777D01*
X13450500Y10406323D01*
X13424910Y10501826D01*
X13375475Y10587450D01*
X13305562Y10657363D01*
X12763449Y11199476D01*
X12763448Y11199477D01*
X12677824Y11248912D01*
X12630072Y11261707D01*
X12630069Y11261707D01*
X12630069Y11261708D01*
X12622240Y11263805D01*
X12582322Y11274502D01*
X12582321Y11274502D01*
X11687182Y11274502D01*
X11588310Y11274502D01*
X11550649Y11264410D01*
X11540558Y11261707D01*
X11540557Y11261707D01*
X11508725Y11253177D01*
X11492808Y11248912D01*
X11407184Y11199477D01*
X11407183Y11199476D01*
X11407181Y11199474D01*
X10387116Y10179409D01*
X10325793Y10145924D01*
X10315636Y10144153D01*
X10185760Y10127055D01*
X10051844Y10071586D01*
X9936848Y9983346D01*
X9858607Y9881381D01*
X9848606Y9868347D01*
X9793140Y9734437D01*
X9793139Y9734433D01*
X9774219Y9590725D01*
X9774219Y9590724D01*
X9793139Y9447016D01*
X9793140Y9447012D01*
X9848606Y9313102D01*
X9936848Y9198104D01*
X10051846Y9109862D01*
X10185756Y9054396D01*
X10185760Y9054395D01*
X10329468Y9035475D01*
X10329469Y9035475D01*
X10329470Y9035475D01*
X10401323Y9044935D01*
X10473178Y9054395D01*
X10473179Y9054395D01*
X10473181Y9054396D01*
X10607091Y9109862D01*
X10607094Y9109864D01*
X10722090Y9198104D01*
X10810330Y9313100D01*
X10865799Y9447016D01*
X10882896Y9576878D01*
X10911161Y9640773D01*
X10918153Y9648372D01*
X11520597Y10250816D01*
X11581920Y10284301D01*
X11651612Y10279317D01*
X11707545Y10237445D01*
X11731217Y10179322D01*
X11737672Y10130293D01*
X11737673Y10130289D01*
X11793139Y9996379D01*
X11881381Y9881381D01*
X11996379Y9793139D01*
X12130291Y9737672D01*
X12137485Y9736724D01*
X12141687Y9736171D01*
X12205583Y9707905D01*
X12244053Y9649580D01*
X12249500Y9613233D01*
X12249500Y7663797D01*
X12229815Y7596758D01*
X12177011Y7551003D01*
X12109320Y7540857D01*
X12085108Y7544045D01*
X12021216Y7572309D01*
X11982744Y7630632D01*
X11978358Y7650792D01*
X11970643Y7709396D01*
X11915174Y7843312D01*
X11826934Y7958308D01*
X11711938Y8046548D01*
X11578022Y8102017D01*
X11448158Y8119114D01*
X11384263Y8147381D01*
X11376677Y8154358D01*
X11230563Y8300474D01*
X11230562Y8300475D01*
X11144938Y8349910D01*
X11097186Y8362705D01*
X11097183Y8362705D01*
X11097183Y8362706D01*
X11089354Y8364803D01*
X11049436Y8375500D01*
X11049435Y8375500D01*
X9672522Y8375500D01*
X9605483Y8395185D01*
X9559728Y8447989D01*
X9548951Y8489197D01*
X9389151Y10406790D01*
X9373395Y10476266D01*
X9349090Y10540278D01*
X9329963Y10579957D01*
X9304885Y10607875D01*
X9274732Y10670901D01*
X9283439Y10740226D01*
X9309454Y10778417D01*
X11300473Y12769435D01*
X11300477Y12769440D01*
X11349909Y12855060D01*
X11349911Y12855063D01*
X11375500Y12950564D01*
X11375500Y13049436D01*
X11375500Y14549435D01*
X11375500Y14549436D01*
X11373274Y14558866D01*
X11372249Y14561563D01*
X11356612Y14619924D01*
X11349910Y14644938D01*
X11349909Y14644940D01*
X11343422Y14656175D01*
X11300475Y14730562D01*
X11230562Y14800475D01*
X9982988Y16048047D01*
X9949505Y16109368D01*
X9954489Y16179059D01*
X9972293Y16211210D01*
X9980861Y16222375D01*
X10036330Y16356291D01*
X10055250Y16500000D01*
X10036330Y16643709D01*
X9980861Y16777625D01*
X9892621Y16892621D01*
X9777625Y16980861D01*
X9643709Y17036330D01*
X9514977Y17053278D01*
X9500001Y17055250D01*
X9499999Y17055250D01*
X9483280Y17053048D01*
X9356291Y17036330D01*
X9222375Y16980861D01*
X9107379Y16892621D01*
X9019139Y16777625D01*
X9019137Y16777622D01*
X8986789Y16699525D01*
X8963670Y16643709D01*
X8957157Y16594241D01*
X8944750Y16500000D01*
X8944750Y16499999D01*
X8963670Y16356291D01*
X8963671Y16356287D01*
X9019137Y16222377D01*
X9019139Y16222375D01*
X9098876Y16118459D01*
X9124070Y16053291D01*
X9124500Y16042974D01*
X9124500Y15950567D01*
X9124499Y15950567D01*
X9124500Y15950565D01*
X9149337Y15857871D01*
X9150091Y15855060D01*
X9150091Y15855059D01*
X9199526Y15769436D01*
X10588181Y14380782D01*
X10621666Y14319459D01*
X10624500Y14293101D01*
X10624500Y13206899D01*
X10604815Y13139860D01*
X10588181Y13119218D01*
X9441293Y11972331D01*
X9379970Y11938846D01*
X9310278Y11943830D01*
X9254345Y11985702D01*
X9243994Y12002048D01*
X9236485Y12016246D01*
X9198185Y12088679D01*
X9154102Y12142887D01*
X9122327Y12175525D01*
X9035477Y12224469D01*
X8969085Y12246237D01*
X8897463Y12258828D01*
X8190549Y12280919D01*
X8150165Y12278981D01*
X8111357Y12274019D01*
X8111344Y12274016D01*
X8111335Y12274015D01*
X8092625Y12270097D01*
X8071779Y12265733D01*
X8052333Y12260023D01*
X8017398Y12255000D01*
X7982600Y12255000D01*
X7947666Y12260022D01*
X7885650Y12278232D01*
X7853974Y12285382D01*
X7822913Y12290344D01*
X7790588Y12293418D01*
X5647083Y12360401D01*
X5580696Y12382169D01*
X5536613Y12436377D01*
X5528834Y12505812D01*
X5544021Y12547109D01*
X5766014Y12925320D01*
X7012874Y15049602D01*
X7063785Y15097452D01*
X7132485Y15110183D01*
X7197162Y15083750D01*
X7207494Y15074513D01*
X7625832Y14656175D01*
X7659317Y14594852D01*
X7661090Y14584681D01*
X7678188Y14454819D01*
X7678189Y14454815D01*
X7733655Y14320905D01*
X7821897Y14205907D01*
X7936895Y14117665D01*
X8070805Y14062199D01*
X8070809Y14062198D01*
X8214517Y14043278D01*
X8214518Y14043278D01*
X8214519Y14043278D01*
X8313329Y14056287D01*
X8358227Y14062198D01*
X8358228Y14062198D01*
X8358230Y14062199D01*
X8492140Y14117665D01*
X8492143Y14117667D01*
X8607139Y14205907D01*
X8695379Y14320903D01*
X8750848Y14454819D01*
X8769768Y14598528D01*
X8750848Y14742237D01*
X8695379Y14876153D01*
X8607139Y14991149D01*
X8492143Y15079389D01*
X8358227Y15134858D01*
X8228362Y15151955D01*
X8164467Y15180222D01*
X8156880Y15187201D01*
X7547531Y15796550D01*
X7514048Y15857871D01*
X7519032Y15927563D01*
X7538294Y15961576D01*
X7575599Y16008318D01*
X8485722Y17558897D01*
X8506522Y17603801D01*
X8522320Y17648923D01*
X8528737Y17670168D01*
X8534072Y17769717D01*
X8524128Y17838875D01*
X8513654Y17883198D01*
X8464323Y17969828D01*
X8418568Y18022632D01*
X8385794Y18054257D01*
X8297459Y18100465D01*
X8297457Y18100465D01*
X8297457Y18100466D01*
X8265072Y18109975D01*
X8230420Y18120150D01*
X8158435Y18130500D01*
X-1329578Y18130500D01*
X-1329593Y18130500D01*
X-1340980Y18130126D01*
X-1346302Y18129952D01*
X-1354257Y18129430D01*
X-1362499Y18128890D01*
X-1362501Y18128889D01*
X-1362507Y18128889D01*
X-1449188Y18107577D01*
X-1513079Y18079300D01*
X-1574712Y18040705D01*
X-2931540Y16892620D01*
X-3058916Y16784840D01*
X-3122808Y16756563D01*
X-3139013Y16755500D01*
X-5252285Y16755500D01*
X-5305295Y16749940D01*
X-5355627Y16739265D01*
X-5380768Y16732579D01*
X-5467908Y16684156D01*
X-5521187Y16638955D01*
X-5553158Y16606506D01*
X-5564384Y16585576D01*
X-5613419Y16535807D01*
X-5681579Y16520446D01*
X-5747224Y16544375D01*
X-5761336Y16556512D01*
X-6637977Y17433153D01*
X-6671462Y17494476D01*
X-6673235Y17504647D01*
X-6690333Y17634509D01*
X-6690334Y17634513D01*
X-6745801Y17768424D01*
X-6745802Y17768426D01*
X-6791591Y17828099D01*
X-6817011Y17861227D01*
X-6842206Y17926395D01*
X-6842636Y17936713D01*
X-6842636Y18798770D01*
X-6822951Y18865809D01*
X-6817018Y18874248D01*
X-6737275Y18978171D01*
X-6737273Y18978173D01*
X-6681807Y19112083D01*
X-6681806Y19112087D01*
X-6662886Y19255795D01*
X-6662886Y19255796D01*
X-6681806Y19399504D01*
X-6681807Y19399508D01*
X-6737274Y19533419D01*
X-6737275Y19533421D01*
X-6750007Y19550014D01*
X-6775201Y19615183D01*
X-6761162Y19683628D01*
X-6712348Y19733618D01*
X-6651631Y19749500D01*
X10562035Y19749500D01*
X10629074Y19729815D01*
X10649716Y19713181D01*
X11927396Y18435499D01*
X11960881Y18374176D01*
X11962653Y18364009D01*
X11963669Y18356293D01*
X11963669Y18356291D01*
X12019137Y18222377D01*
X12107379Y18107379D01*
X12222377Y18019137D01*
X12356287Y17963671D01*
X12356291Y17963670D01*
X12499999Y17944750D01*
X12500000Y17944750D01*
X12500001Y17944750D01*
X12607774Y17958939D01*
X12643709Y17963670D01*
X12643710Y17963670D01*
X12643712Y17963671D01*
X12777623Y18019138D01*
X12777626Y18019139D01*
X12833920Y18062336D01*
X12899089Y18087531D01*
X12967534Y18073493D01*
X13017524Y18024679D01*
X13033188Y17956588D01*
X13009552Y17890838D01*
X13005261Y17885297D01*
X12958322Y17828102D01*
X12958314Y17828090D01*
X12767243Y17542132D01*
X12767232Y17542114D01*
X12605111Y17238808D01*
X12605109Y17238803D01*
X12473489Y16921045D01*
X12373647Y16591911D01*
X12306549Y16254588D01*
X12292247Y16109368D01*
X12272839Y15912308D01*
X12272839Y15568370D01*
X12278813Y15507711D01*
X12306549Y15226089D01*
X12373647Y14888766D01*
X12473489Y14559632D01*
X12605109Y14241874D01*
X12605111Y14241869D01*
X12767232Y13938563D01*
X12767243Y13938545D01*
X12958314Y13652587D01*
X12958324Y13652573D01*
X13176515Y13386706D01*
X13419706Y13143515D01*
X13685573Y12925324D01*
X13685587Y12925314D01*
X13971545Y12734243D01*
X13971563Y12734232D01*
X14274869Y12572111D01*
X14274874Y12572109D01*
X14592632Y12440489D01*
X14921766Y12340647D01*
X15259090Y12273549D01*
X15259089Y12273549D01*
X15523305Y12247527D01*
X15601370Y12239839D01*
X15601373Y12239839D01*
X15945305Y12239839D01*
X15945308Y12239839D01*
X16029795Y12248160D01*
X16287588Y12273549D01*
X16624911Y12340647D01*
X16954045Y12440489D01*
X17271803Y12572109D01*
X17271808Y12572111D01*
X17575114Y12734232D01*
X17575121Y12734236D01*
X17575126Y12734239D01*
X17861099Y12925320D01*
X17891862Y12950566D01*
X18126971Y13143515D01*
X18370162Y13386706D01*
X18588353Y13652573D01*
X18588358Y13652579D01*
X18779439Y13938552D01*
X18826535Y14026662D01*
X18941566Y14241869D01*
X18941568Y14241874D01*
X18941570Y14241877D01*
X19073189Y14559634D01*
X19173029Y14888761D01*
X19240128Y15226089D01*
X19273839Y15568370D01*
X19273839Y15912308D01*
X19240128Y16254589D01*
X19173029Y16591917D01*
X19073189Y16921044D01*
X18941570Y17238801D01*
X18779439Y17542126D01*
X18588358Y17828099D01*
X18370167Y18093966D01*
X18126966Y18337167D01*
X17861099Y18555358D01*
X17575126Y18746439D01*
X17271801Y18908570D01*
X16954044Y19040189D01*
X16624917Y19140029D01*
X16287589Y19207128D01*
X15945308Y19240839D01*
X15601370Y19240839D01*
X15259089Y19207128D01*
X15095948Y19174677D01*
X14921761Y19140029D01*
X14592634Y19040189D01*
X14274877Y18908570D01*
X14274871Y18908566D01*
X14274869Y18908566D01*
X14029891Y18777622D01*
X13971552Y18746439D01*
X13685579Y18555358D01*
X13685573Y18555353D01*
X13419706Y18337162D01*
X13192519Y18109975D01*
X13131196Y18076490D01*
X13061504Y18081474D01*
X13005571Y18123346D01*
X12981154Y18188810D01*
X12990277Y18245108D01*
X13036330Y18356291D01*
X13055250Y18500000D01*
X13036330Y18643709D01*
X12980861Y18777625D01*
X12892621Y18892621D01*
X12777625Y18980861D01*
X12643709Y19036330D01*
X12636001Y19037344D01*
X12572106Y19065604D01*
X12564510Y19072591D01*
X11076614Y20560489D01*
X10973887Y20619799D01*
X10949673Y20626286D01*
X10859309Y20650500D01*
X-10869359Y20650500D01*
X-10983936Y20619799D01*
X-11014454Y20602178D01*
X-11027353Y20594732D01*
X-11027354Y20594731D01*
X-11086664Y20560489D01*
X-14012640Y17634513D01*
X-16912819Y14734334D01*
X-16974142Y14700849D01*
X-17043834Y14705833D01*
X-17099767Y14747705D01*
X-17124184Y14813169D01*
X-17124500Y14822015D01*
X-17124500Y16542974D01*
X-17104815Y16610013D01*
X-17098882Y16618452D01*
X-17048464Y16684158D01*
X-17019137Y16722377D01*
X-16963671Y16856287D01*
X-16963670Y16856291D01*
X-16944750Y16999999D01*
X-16944750Y17000000D01*
X-16963670Y17143708D01*
X-16963671Y17143712D01*
X-17019137Y17277622D01*
X-17019139Y17277625D01*
X-17107379Y17392621D01*
X-17222375Y17480861D01*
X-17246373Y17490801D01*
X-17279800Y17504647D01*
X-17356291Y17536330D01*
X-17483280Y17553048D01*
X-17499999Y17555250D01*
X-17500001Y17555250D01*
X-17514977Y17553278D01*
X-17643709Y17536330D01*
X-17777625Y17480861D01*
X-17881540Y17401123D01*
X-17946709Y17375930D01*
X-17957026Y17375500D01*
X-24293101Y17375500D01*
X-24360140Y17395185D01*
X-24380782Y17411819D01*
X-26411314Y19442351D01*
X-26444799Y19503674D01*
X-26446572Y19513845D01*
X-26463670Y19643708D01*
X-26463671Y19643712D01*
X-26519137Y19777622D01*
X-26546547Y19813343D01*
X-26607379Y19892621D01*
X-26722375Y19980861D01*
X-26856291Y20036330D01*
X-26983280Y20053048D01*
X-26999999Y20055250D01*
X-27000001Y20055250D01*
X-27014977Y20053278D01*
X-27143709Y20036330D01*
X-27277625Y19980861D01*
X-27392621Y19892621D01*
X-27480861Y19777625D01*
X-27536330Y19643709D01*
X-27555250Y19500000D01*
X-28464804Y19500000D01*
X-28209203Y19884197D01*
X-28206841Y19887621D01*
X-27534409Y20828350D01*
X-27531934Y20831693D01*
X-27187155Y21281356D01*
X-27130742Y21322579D01*
X-27060998Y21326759D01*
X-27001073Y21293587D01*
X-26050448Y20342963D01*
X-26009731Y20302246D01*
X-25865872Y20158387D01*
X-25865860Y20158377D01*
X-25552846Y19898453D01*
X-25552838Y19898447D01*
X-25552834Y19898444D01*
X-25217147Y19668493D01*
X-25217145Y19668492D01*
X-25217139Y19668488D01*
X-24939501Y19513845D01*
X-24861675Y19470496D01*
X-24861666Y19470492D01*
X-24861656Y19470487D01*
X-24489462Y19306146D01*
X-24489444Y19306139D01*
X-24103645Y19176834D01*
X-23707567Y19083677D01*
X-23707559Y19083675D01*
X-23304578Y19027462D01*
X-23304575Y19027461D01*
X-23304569Y19027461D01*
X-22898108Y19008669D01*
X-22491648Y19027461D01*
X-22491642Y19027461D01*
X-22491638Y19027462D01*
X-22088657Y19083675D01*
X-22088649Y19083677D01*
X-21692570Y19176834D01*
X-21306772Y19306139D01*
X-21306751Y19306147D01*
X-20934552Y19470491D01*
X-20934531Y19470501D01*
X-20579076Y19668487D01*
X-20579070Y19668491D01*
X-20243379Y19898445D01*
X-20243369Y19898452D01*
X-19930355Y20158377D01*
X-19930335Y20158395D01*
X-19642634Y20446096D01*
X-19642616Y20446116D01*
X-19382692Y20759130D01*
X-19382685Y20759140D01*
X-19152731Y21094831D01*
X-19152727Y21094837D01*
X-18954740Y21450292D01*
X-18954726Y21450320D01*
X-18790387Y21822513D01*
X-18790384Y21822520D01*
X-18661073Y22208330D01*
X-18567916Y22604409D01*
X-18567914Y22604417D01*
X-18558023Y22675323D01*
X-2550500Y22675323D01*
X-2550499Y22675321D01*
X-2536394Y22604409D01*
X-2535966Y22602260D01*
X-2480601Y22519399D01*
X-2425235Y22482405D01*
X-2397739Y22464033D01*
X-2397735Y22464032D01*
X-2324678Y22449500D01*
X-2324674Y22449500D01*
X2324678Y22449500D01*
X2397735Y22464032D01*
X2397739Y22464033D01*
X2425235Y22482405D01*
X2480601Y22519399D01*
X2535966Y22602260D01*
X2536394Y22604409D01*
X2537037Y22607644D01*
X10749500Y22607644D01*
X10764032Y22534587D01*
X10764033Y22534583D01*
X10819399Y22451722D01*
X10902260Y22396356D01*
X10902264Y22396355D01*
X10975321Y22381823D01*
X10975326Y22381823D01*
X13024678Y22381823D01*
X13097735Y22396355D01*
X13097739Y22396356D01*
X13177275Y22449500D01*
X13180601Y22451722D01*
X13235966Y22534583D01*
X13250499Y22607644D01*
X13250500Y22607646D01*
X13250500Y24656999D01*
X13250499Y24657001D01*
X13235967Y24730058D01*
X13235966Y24730062D01*
X13235966Y24730063D01*
X13180601Y24812924D01*
X13097740Y24868289D01*
X13097735Y24868290D01*
X13024677Y24882823D01*
X13024674Y24882823D01*
X10975326Y24882823D01*
X10975323Y24882823D01*
X10902264Y24868290D01*
X10902260Y24868289D01*
X10819399Y24812924D01*
X10782405Y24757558D01*
X10764033Y24730062D01*
X10764032Y24730058D01*
X10749500Y24657001D01*
X10749500Y22607644D01*
X2537037Y22607644D01*
X2550499Y22675321D01*
X2550500Y22675323D01*
X2550500Y24724676D01*
X2550499Y24724678D01*
X2535967Y24797735D01*
X2535966Y24797739D01*
X2535966Y24797740D01*
X2480601Y24880601D01*
X2397740Y24935966D01*
X2397735Y24935967D01*
X2324677Y24950500D01*
X2324674Y24950500D01*
X-2324674Y24950500D01*
X-2324677Y24950500D01*
X-2397735Y24935967D01*
X-2397740Y24935966D01*
X-2480601Y24880601D01*
X-2535966Y24797740D01*
X-2535966Y24797739D01*
X-2535967Y24797735D01*
X-2550499Y24724678D01*
X-2550500Y24724676D01*
X-2550500Y22675323D01*
X-18558023Y22675323D01*
X-18511701Y23007398D01*
X-18511700Y23007402D01*
X-18511700Y23007408D01*
X-18492908Y23413868D01*
X-18511700Y23820329D01*
X-18511701Y23820338D01*
X-18567914Y24223319D01*
X-18567916Y24223327D01*
X-18661072Y24619406D01*
X-18790383Y25005216D01*
X-18790386Y25005223D01*
X-18954725Y25377416D01*
X-18954730Y25377426D01*
X-18954734Y25377435D01*
X-18957247Y25381947D01*
X-6300000Y25381947D01*
X-6263065Y25148752D01*
X-6190102Y24924197D01*
X-6082914Y24713828D01*
X-5944133Y24522813D01*
X-5777186Y24355866D01*
X-5586171Y24217085D01*
X-5375804Y24109897D01*
X-5175000Y24044651D01*
X-5175000Y25167894D01*
X-5107007Y25099901D01*
X-4992993Y25034075D01*
X-4865826Y25000000D01*
X-4734174Y25000000D01*
X-4607007Y25034075D01*
X-4492993Y25099901D01*
X-4425000Y25167894D01*
X-4425000Y24044651D01*
X-4224195Y24109897D01*
X-4013828Y24217085D01*
X-3822813Y24355866D01*
X-3655866Y24522813D01*
X-3517085Y24713828D01*
X-3409897Y24924197D01*
X-3336934Y25148752D01*
X-3300000Y25381947D01*
X-3300000Y26225000D01*
X-4300000Y26225000D01*
X-4300000Y26975000D01*
X-3300000Y26975000D01*
X-3300000Y27339433D01*
X11237439Y27339433D01*
X11395386Y27253958D01*
X11395400Y27253952D01*
X11630506Y27173239D01*
X11875707Y27132323D01*
X12124293Y27132323D01*
X12369493Y27173239D01*
X12604603Y27253953D01*
X12604614Y27253958D01*
X12762559Y27339433D01*
X12000001Y28101993D01*
X12000000Y28101993D01*
X11237439Y27339433D01*
X-3300000Y27339433D01*
X-3300000Y27818052D01*
X-3336934Y28051247D01*
X-3409897Y28275802D01*
X-3517085Y28486171D01*
X-3655866Y28677186D01*
X-3822813Y28844133D01*
X-4013828Y28982914D01*
X-4224197Y29090102D01*
X-4424999Y29155347D01*
X-4425000Y29155347D01*
X-4425000Y28032106D01*
X-4492993Y28100099D01*
X-4607007Y28165925D01*
X-4734174Y28200000D01*
X-4865826Y28200000D01*
X-4992993Y28165925D01*
X-5107007Y28100099D01*
X-5175000Y28032106D01*
X-5175000Y29155347D01*
X-5375802Y29090102D01*
X-5586171Y28982914D01*
X-5777186Y28844133D01*
X-5944133Y28677186D01*
X-6082914Y28486171D01*
X-6190102Y28275802D01*
X-6263065Y28051247D01*
X-6300000Y27818052D01*
X-6300000Y26975000D01*
X-5300000Y26975000D01*
X-5300000Y26225000D01*
X-6300000Y26225000D01*
X-6300000Y25381947D01*
X-18957247Y25381947D01*
X-18986337Y25434174D01*
X-19152726Y25732899D01*
X-19152730Y25732906D01*
X-19229381Y25844803D01*
X-19382682Y26068595D01*
X-19382685Y26068599D01*
X-19382691Y26068607D01*
X-19642615Y26381620D01*
X-19642625Y26381632D01*
X-19642640Y26381647D01*
X-19744865Y26483874D01*
X-19744875Y26483885D01*
X-20630324Y27369331D01*
X-20777641Y27516647D01*
X-20811126Y27577970D01*
X-20806142Y27647661D01*
X-20765402Y27702738D01*
X-20315535Y28047613D01*
X-20312192Y28050087D01*
X-19371430Y28722425D01*
X-19368007Y28724787D01*
X-18405140Y29365254D01*
X-18401638Y29367499D01*
X-17984848Y29625000D01*
X-2555348Y29625000D01*
X-2490102Y29424197D01*
X-2382914Y29213828D01*
X-2244133Y29022813D01*
X-2077186Y28855866D01*
X-1886171Y28717085D01*
X-1675802Y28609897D01*
X-1451247Y28536934D01*
X-1451248Y28536934D01*
X-1218052Y28500000D01*
X-375000Y28500000D01*
X-375000Y29500000D01*
X375000Y29500000D01*
X375000Y28500000D01*
X1218052Y28500000D01*
X1451247Y28536934D01*
X1675802Y28609897D01*
X1719804Y28632317D01*
X10494859Y28632317D01*
X10515385Y28384593D01*
X10515387Y28384584D01*
X10576411Y28143605D01*
X10676267Y27915957D01*
X10676272Y27915947D01*
X10706707Y27869361D01*
X10706708Y27869361D01*
X11403844Y28566497D01*
X11500000Y28566497D01*
X11534075Y28439330D01*
X11599901Y28325316D01*
X11692993Y28232224D01*
X11807007Y28166398D01*
X11934174Y28132323D01*
X12065826Y28132323D01*
X12192993Y28166398D01*
X12307007Y28232224D01*
X12400099Y28325316D01*
X12465925Y28439330D01*
X12500000Y28566497D01*
X12500000Y28632322D01*
X12530330Y28632322D01*
X13293291Y27869360D01*
X13323732Y27915955D01*
X13423587Y28143605D01*
X13484612Y28384584D01*
X13484614Y28384593D01*
X13505141Y28632317D01*
X13505141Y28632328D01*
X13484614Y28880052D01*
X13484612Y28880061D01*
X13423587Y29121040D01*
X13323731Y29348692D01*
X13293290Y29395284D01*
X12530330Y28632324D01*
X12530330Y28632322D01*
X12500000Y28632322D01*
X12500000Y28698149D01*
X12465925Y28825316D01*
X12400099Y28939330D01*
X12307007Y29032422D01*
X12192993Y29098248D01*
X12065826Y29132323D01*
X11934174Y29132323D01*
X11807007Y29098248D01*
X11692993Y29032422D01*
X11599901Y28939330D01*
X11534075Y28825316D01*
X11500000Y28698149D01*
X11500000Y28566497D01*
X11403844Y28566497D01*
X11469670Y28632323D01*
X10706708Y29395283D01*
X10676267Y29348688D01*
X10576411Y29121040D01*
X10515387Y28880061D01*
X10515385Y28880052D01*
X10494859Y28632328D01*
X10494859Y28632317D01*
X1719804Y28632317D01*
X1886171Y28717085D01*
X2077186Y28855866D01*
X2244133Y29022813D01*
X2382914Y29213828D01*
X2490102Y29424197D01*
X2555348Y29625000D01*
X1432106Y29625000D01*
X1500099Y29692993D01*
X1565925Y29807007D01*
X1597598Y29925211D01*
X11237440Y29925211D01*
X12000000Y29162653D01*
X12762558Y29925211D01*
X12604608Y30010690D01*
X12604600Y30010693D01*
X12369493Y30091406D01*
X12124293Y30132323D01*
X11875707Y30132323D01*
X11630506Y30091406D01*
X11395396Y30010692D01*
X11395390Y30010690D01*
X11237440Y29925211D01*
X1597598Y29925211D01*
X1600000Y29934174D01*
X1600000Y30065826D01*
X1565925Y30192993D01*
X1500099Y30307007D01*
X1432106Y30375000D01*
X2555347Y30375000D01*
X2490102Y30575802D01*
X2382914Y30786171D01*
X2244133Y30977186D01*
X2077186Y31144133D01*
X1886171Y31282914D01*
X1675802Y31390102D01*
X1451247Y31463065D01*
X1451248Y31463065D01*
X1218052Y31500000D01*
X375000Y31500000D01*
X375000Y30500000D01*
X-375000Y30500000D01*
X-375000Y31500000D01*
X-1218052Y31500000D01*
X-1451247Y31463065D01*
X-1675802Y31390102D01*
X-1886171Y31282914D01*
X-2077186Y31144133D01*
X-2244133Y30977186D01*
X-2382914Y30786171D01*
X-2490102Y30575802D01*
X-2555347Y30375000D01*
X-1432106Y30375000D01*
X-1500099Y30307007D01*
X-1565925Y30192993D01*
X-1600000Y30065826D01*
X-1600000Y29934174D01*
X-1565925Y29807007D01*
X-1500099Y29692993D01*
X-1432106Y29625000D01*
X-2555348Y29625000D01*
X-17984848Y29625000D01*
X-17417884Y29975281D01*
X-17414310Y29977407D01*
X-16410709Y30551867D01*
X-16407065Y30553873D01*
X-15384781Y31094342D01*
X-15381072Y31096223D01*
X-14341239Y31602104D01*
X-14337469Y31603861D01*
X-13281226Y32074596D01*
X-13277399Y32076225D01*
X-12205993Y32511262D01*
X-12202114Y32512762D01*
X-11116707Y32911627D01*
X-11112779Y32912996D01*
X-10014581Y33275243D01*
X-10010610Y33276479D01*
X-8900943Y33601675D01*
X-8896933Y33602778D01*
X-7776921Y33890592D01*
X-7772876Y33891559D01*
X-6643905Y34141636D01*
X-6639830Y34142468D01*
X-5503044Y34354553D01*
X-5498943Y34355247D01*
X-4355709Y34529086D01*
X-4351587Y34529642D01*
X-3203186Y34665039D01*
X-3199048Y34665457D01*
X-2046704Y34762269D01*
X-2042554Y34762547D01*
X-887682Y34820654D01*
X-883525Y34820794D01*
X272730Y34840140D01*
X276889Y34840139D01*
G37*
%TD.AperFunction*%
%TD*%
%TA.AperFunction,Conductor*%
%TO.N,RTN*%
G36*
X-1061336Y14086602D02*
G01*
X-1015581Y14033798D01*
X-1005637Y13999935D01*
X-1004385Y13991222D01*
X-988147Y13878282D01*
X-998091Y13809124D01*
X-1043846Y13756320D01*
X-1110886Y13736636D01*
X-1167941Y13753389D01*
X-1168642Y13751856D01*
X-1176709Y13755540D01*
X-1314796Y13796085D01*
X-1314798Y13796086D01*
X-1314799Y13796086D01*
X-1458721Y13796086D01*
X-1458722Y13796086D01*
X-1458722Y13796085D01*
X-1596813Y13755539D01*
X-1717888Y13677729D01*
X-1812137Y13568959D01*
X-1871925Y13438043D01*
X-1892407Y13295586D01*
X-1871925Y13153129D01*
X-1812137Y13022213D01*
X-1812135Y13022211D01*
X-1812134Y13022208D01*
X-1742099Y12941383D01*
X-1713074Y12877827D01*
X-1711812Y12860181D01*
X-1711812Y4624000D01*
X-1731497Y4556961D01*
X-1784301Y4511206D01*
X-1835812Y4500000D01*
X-5374702Y4500000D01*
X-5441741Y4519685D01*
X-5487496Y4572489D01*
X-5498695Y4625292D01*
X-5498525Y4641647D01*
X-5401212Y13983579D01*
X-5380831Y14050409D01*
X-5327554Y14095612D01*
X-5277220Y14106287D01*
X-1128375Y14106287D01*
X-1061336Y14086602D01*
G37*
%TD.AperFunction*%
%TA.AperFunction,Conductor*%
G36*
X-718818Y13542195D02*
G01*
X-718118Y13543730D01*
X-710050Y13540045D01*
X-571963Y13499500D01*
X-571961Y13499500D01*
X-511189Y13499500D01*
X-444150Y13479815D01*
X-423508Y13463181D01*
X5300136Y7739536D01*
X5300144Y7739530D01*
X5374355Y7696685D01*
X5374362Y7696682D01*
X5457147Y7674500D01*
X9246361Y7674500D01*
X9313400Y7654815D01*
X9359155Y7602011D01*
X9369933Y7560798D01*
X9500000Y6000000D01*
X10240312Y6000000D01*
X10307351Y5980315D01*
X10353106Y5927511D01*
X10363050Y5858353D01*
X10334025Y5794797D01*
X10327993Y5788319D01*
X9075993Y4536319D01*
X9014670Y4502834D01*
X8988312Y4500000D01*
X-936812Y4500000D01*
X-1003851Y4519685D01*
X-1049606Y4572489D01*
X-1060812Y4624000D01*
X-1060812Y12861215D01*
X-1041127Y12928254D01*
X-1030525Y12942417D01*
X-961385Y13022208D01*
X-961382Y13022214D01*
X-901594Y13153129D01*
X-881113Y13295586D01*
X-898612Y13417303D01*
X-888668Y13486461D01*
X-842913Y13539265D01*
X-775873Y13558949D01*
X-718818Y13542195D01*
G37*
%TD.AperFunction*%
%TA.AperFunction,Conductor*%
G36*
X6073685Y16275026D02*
G01*
X6094327Y16258392D01*
X6865757Y15486959D01*
X6899242Y15425636D01*
X6894258Y15355944D01*
X6885016Y15336509D01*
X6618579Y14882579D01*
X5000000Y12125000D01*
X5000000Y12124999D01*
X7782608Y12038043D01*
X7813669Y12033081D01*
X7928036Y11999500D01*
X7928039Y11999500D01*
X8071962Y11999500D01*
X8143761Y12020582D01*
X8182569Y12025544D01*
X8889483Y12003453D01*
X8955875Y11981685D01*
X8999958Y11927477D01*
X9009182Y11889812D01*
X9036737Y11559151D01*
X9022687Y11490708D01*
X9000847Y11461174D01*
X8113175Y10573502D01*
X7901492Y10361819D01*
X7840169Y10328334D01*
X7813811Y10325500D01*
X5936838Y10325500D01*
X5869799Y10345185D01*
X5843127Y10368295D01*
X5831128Y10382143D01*
X5710053Y10459953D01*
X5571962Y10500499D01*
X5571962Y10500500D01*
X5571961Y10500500D01*
X5428039Y10500500D01*
X5428038Y10500500D01*
X5428036Y10500499D01*
X5289949Y10459954D01*
X5289947Y10459953D01*
X5168872Y10382143D01*
X5122247Y10328334D01*
X5074623Y10273373D01*
X5074622Y10273371D01*
X5014834Y10142456D01*
X4994353Y10000000D01*
X5014834Y9857543D01*
X5074622Y9726628D01*
X5074623Y9726626D01*
X5168873Y9617856D01*
X5289950Y9540045D01*
X5289949Y9540045D01*
X5428036Y9499500D01*
X5428039Y9499500D01*
X5571963Y9499500D01*
X5710050Y9540045D01*
X5761449Y9573077D01*
X5831128Y9617857D01*
X5843126Y9631703D01*
X5901903Y9669477D01*
X5936838Y9674500D01*
X8042852Y9674500D01*
X8042853Y9674500D01*
X8084246Y9685591D01*
X8125640Y9696682D01*
X8177503Y9726626D01*
X8199862Y9739535D01*
X8923282Y10462955D01*
X8984604Y10496440D01*
X9054295Y10491456D01*
X9110229Y10449584D01*
X9134534Y10385572D01*
X9295016Y8459798D01*
X9280966Y8391355D01*
X9232145Y8341373D01*
X9171444Y8325500D01*
X5686189Y8325500D01*
X5619150Y8345185D01*
X5598508Y8361819D01*
X41966Y13918361D01*
X8481Y13979684D01*
X7235Y13991268D01*
X6909Y13991222D01*
X-14834Y14142456D01*
X-74622Y14273371D01*
X-74623Y14273373D01*
X-154168Y14365173D01*
X-168872Y14382143D01*
X-289947Y14459953D01*
X-289950Y14459954D01*
X-289948Y14459954D01*
X-313421Y14466846D01*
X-372199Y14504619D01*
X-401225Y14568175D01*
X-391282Y14637333D01*
X-366168Y14673504D01*
X1218719Y16258392D01*
X1280042Y16291877D01*
X1306400Y16294711D01*
X6006646Y16294711D01*
X6073685Y16275026D01*
G37*
%TD.AperFunction*%
%TD*%
M02*
