%TF.GenerationSoftware,KiCad,Pcbnew,8.0.1*%
%TF.CreationDate,2024-06-06T10:40:47+02:00*%
%TF.ProjectId,led_strip_stand_lamp,6c65645f-7374-4726-9970-5f7374616e64,rev?*%
%TF.SameCoordinates,Original*%
%TF.FileFunction,Drillmap*%
%TF.FilePolarity,Positive*%
%FSLAX45Y45*%
G04 Gerber Fmt 4.5, Leading zero omitted, Abs format (unit mm)*
G04 Created by KiCad (PCBNEW 8.0.1) date 2024-06-06 10:40:47*
%MOMM*%
%LPD*%
G01*
G04 APERTURE LIST*
%ADD10C,0.050000*%
%ADD11C,0.200000*%
%ADD12C,0.100000*%
%ADD13C,0.130000*%
G04 APERTURE END LIST*
D10*
X-2006968Y2624230D02*
X-2148389Y2765651D01*
X2627321Y-2010476D02*
X2768743Y-2151898D01*
X-2714257Y-2151634D02*
G75*
G02*
X-2714075Y2200000I2741590J2175702D01*
G01*
X2061844Y2624021D02*
X2203266Y2765443D01*
X-2572862Y-2010268D02*
X-2714257Y-2151668D01*
X-2572654Y2058544D02*
X-2714075Y2199965D01*
X2203057Y-2717583D02*
G75*
G02*
X-2148619Y-2717401I-2175723J2741617D01*
G01*
X2061636Y-2576162D02*
X2203057Y-2717583D01*
X-2007176Y-2575954D02*
X-2148598Y-2717375D01*
X2768925Y2199736D02*
G75*
G02*
X2768743Y-2151898I-2741591J-2175702D01*
G01*
X2061636Y-2576162D02*
G75*
G02*
X2627321Y-2010476I282843J282842D01*
G01*
X-2572862Y-2010268D02*
G75*
G02*
X-2007176Y-2575953I282843J-282843D01*
G01*
X-2006968Y2624230D02*
G75*
G02*
X-2572654Y2058544I-282843J-282843D01*
G01*
X-2148389Y2765651D02*
G75*
G02*
X2203286Y2765469I2175723J-2741617D01*
G01*
X2627531Y2058334D02*
G75*
G02*
X2061844Y2624021I-282851J282836D01*
G01*
X2627530Y2058336D02*
X2768925Y2199736D01*
D11*
D12*
X-3215000Y-535000D02*
X-3185000Y-565000D01*
X-3185000Y-535000D02*
X-3215000Y-565000D01*
X-3065000Y65000D02*
X-3035000Y35000D01*
X-3035000Y65000D02*
X-3065000Y35000D01*
X-3065000Y-85000D02*
X-3035000Y-115000D01*
X-3035000Y-85000D02*
X-3065000Y-115000D01*
X-3065000Y-535000D02*
X-3035000Y-565000D01*
X-3035000Y-535000D02*
X-3065000Y-565000D01*
X-2995000Y-1483329D02*
X-2965000Y-1513329D01*
X-2965000Y-1483329D02*
X-2995000Y-1513329D01*
X-2965000Y1565000D02*
X-2935000Y1535000D01*
X-2935000Y1565000D02*
X-2965000Y1535000D01*
X-2965000Y1365000D02*
X-2935000Y1335000D01*
X-2935000Y1365000D02*
X-2965000Y1335000D01*
X-2965000Y1115000D02*
X-2935000Y1085000D01*
X-2935000Y1115000D02*
X-2965000Y1085000D01*
X-2965000Y-535000D02*
X-2935000Y-565000D01*
X-2935000Y-535000D02*
X-2965000Y-565000D01*
X-2865000Y1565000D02*
X-2835000Y1535000D01*
X-2835000Y1565000D02*
X-2865000Y1535000D01*
X-2865000Y1365000D02*
X-2835000Y1335000D01*
X-2835000Y1365000D02*
X-2865000Y1335000D01*
X-2865000Y1115000D02*
X-2835000Y1085000D01*
X-2835000Y1115000D02*
X-2865000Y1085000D01*
X-2865000Y965000D02*
X-2835000Y935000D01*
X-2835000Y965000D02*
X-2865000Y935000D01*
X-2865000Y-485000D02*
X-2835000Y-515000D01*
X-2835000Y-485000D02*
X-2865000Y-515000D01*
X-2865000Y-735000D02*
X-2835000Y-765000D01*
X-2835000Y-735000D02*
X-2865000Y-765000D01*
X-2815000Y-135000D02*
X-2785000Y-165000D01*
X-2785000Y-135000D02*
X-2815000Y-165000D01*
X-2765000Y215000D02*
X-2735000Y185000D01*
X-2735000Y215000D02*
X-2765000Y185000D01*
X-2765000Y-485000D02*
X-2735000Y-515000D01*
X-2735000Y-485000D02*
X-2765000Y-515000D01*
X-2765000Y-735000D02*
X-2735000Y-765000D01*
X-2735000Y-735000D02*
X-2765000Y-765000D01*
X-2715000Y1965000D02*
X-2685000Y1935000D01*
X-2685000Y1965000D02*
X-2715000Y1935000D01*
X-2715000Y865000D02*
X-2685000Y835000D01*
X-2685000Y865000D02*
X-2715000Y835000D01*
X-2665000Y665000D02*
X-2635000Y635000D01*
X-2635000Y665000D02*
X-2665000Y635000D01*
X-2665000Y515000D02*
X-2635000Y485000D01*
X-2635000Y515000D02*
X-2665000Y485000D01*
X-2665000Y365000D02*
X-2635000Y335000D01*
X-2635000Y365000D02*
X-2665000Y335000D01*
X-2665000Y65000D02*
X-2635000Y35000D01*
X-2635000Y65000D02*
X-2665000Y35000D01*
X-2665000Y-935000D02*
X-2635000Y-965000D01*
X-2635000Y-935000D02*
X-2665000Y-965000D01*
X-2665000Y-1335000D02*
X-2635000Y-1365000D01*
X-2635000Y-1335000D02*
X-2665000Y-1365000D01*
X-2615000Y-1685000D02*
X-2585000Y-1715000D01*
X-2585000Y-1685000D02*
X-2615000Y-1715000D01*
X-2565000Y965000D02*
X-2535000Y935000D01*
X-2535000Y965000D02*
X-2565000Y935000D01*
X-2565000Y415000D02*
X-2535000Y385000D01*
X-2535000Y415000D02*
X-2565000Y385000D01*
X-2565000Y-1785000D02*
X-2535000Y-1815000D01*
X-2535000Y-1785000D02*
X-2565000Y-1815000D01*
X-2515000Y-935000D02*
X-2485000Y-965000D01*
X-2485000Y-935000D02*
X-2515000Y-965000D01*
X-2515000Y-1335000D02*
X-2485000Y-1365000D01*
X-2485000Y-1335000D02*
X-2515000Y-1365000D01*
X-2515000Y-1635000D02*
X-2485000Y-1665000D01*
X-2485000Y-1635000D02*
X-2515000Y-1665000D01*
X-2465000Y515000D02*
X-2435000Y485000D01*
X-2435000Y515000D02*
X-2465000Y485000D01*
X-2465000Y65000D02*
X-2435000Y35000D01*
X-2435000Y65000D02*
X-2465000Y35000D01*
X-2465000Y-185000D02*
X-2435000Y-215000D01*
X-2435000Y-185000D02*
X-2465000Y-215000D01*
X-2465000Y-1735000D02*
X-2435000Y-1765000D01*
X-2435000Y-1735000D02*
X-2465000Y-1765000D01*
X-2415000Y1015000D02*
X-2385000Y985000D01*
X-2385000Y1015000D02*
X-2415000Y985000D01*
X-2315000Y465000D02*
X-2285000Y435000D01*
X-2285000Y465000D02*
X-2315000Y435000D01*
X-2315000Y265000D02*
X-2285000Y235000D01*
X-2285000Y265000D02*
X-2315000Y235000D01*
X-2261750Y-100522D02*
X-2231750Y-130522D01*
X-2231750Y-100522D02*
X-2261750Y-130522D01*
X-2215000Y115000D02*
X-2185000Y85000D01*
X-2185000Y115000D02*
X-2215000Y85000D01*
X-2189520Y1220908D02*
X-2159520Y1190908D01*
X-2159520Y1220908D02*
X-2189520Y1190908D01*
X-2165000Y515000D02*
X-2135000Y485000D01*
X-2135000Y515000D02*
X-2165000Y485000D01*
X-2165000Y215000D02*
X-2135000Y185000D01*
X-2135000Y215000D02*
X-2165000Y185000D01*
X-2165000Y-335000D02*
X-2135000Y-365000D01*
X-2135000Y-335000D02*
X-2165000Y-365000D01*
X-2165000Y-535000D02*
X-2135000Y-565000D01*
X-2135000Y-535000D02*
X-2165000Y-565000D01*
X-2065000Y415000D02*
X-2035000Y385000D01*
X-2035000Y415000D02*
X-2065000Y385000D01*
X-2015000Y-1535000D02*
X-1985000Y-1565000D01*
X-1985000Y-1535000D02*
X-2015000Y-1565000D01*
X-1977500Y-235000D02*
X-1947500Y-265000D01*
X-1947500Y-235000D02*
X-1977500Y-265000D01*
X-1977474Y-716087D02*
X-1947474Y-746087D01*
X-1947474Y-716087D02*
X-1977474Y-746087D01*
X-1965000Y-1335000D02*
X-1935000Y-1365000D01*
X-1935000Y-1335000D02*
X-1965000Y-1365000D01*
X-1924788Y152120D02*
X-1894788Y122120D01*
X-1894788Y152120D02*
X-1924788Y122120D01*
X-1915000Y-885000D02*
X-1885000Y-915000D01*
X-1885000Y-885000D02*
X-1915000Y-915000D01*
X-1911976Y-2475D02*
X-1881976Y-32475D01*
X-1881976Y-2475D02*
X-1911976Y-32475D01*
X-1860420Y1369580D02*
X-1830420Y1339580D01*
X-1830420Y1369580D02*
X-1860420Y1339580D01*
X-1845381Y-285498D02*
X-1815381Y-315498D01*
X-1815381Y-285498D02*
X-1845381Y-315498D01*
X-1841085Y77812D02*
X-1811085Y47812D01*
X-1811085Y77812D02*
X-1841085Y47812D01*
X-1765000Y1715000D02*
X-1735000Y1685000D01*
X-1735000Y1715000D02*
X-1765000Y1685000D01*
X-1765000Y-885000D02*
X-1735000Y-915000D01*
X-1735000Y-885000D02*
X-1765000Y-915000D01*
X-1765000Y-2335000D02*
X-1735000Y-2365000D01*
X-1735000Y-2335000D02*
X-1765000Y-2365000D01*
X-1765000Y-2535000D02*
X-1735000Y-2565000D01*
X-1735000Y-2535000D02*
X-1765000Y-2565000D01*
X-1762506Y-9308D02*
X-1732506Y-39308D01*
X-1732506Y-9308D02*
X-1762506Y-39308D01*
X-1759943Y152974D02*
X-1729943Y122974D01*
X-1729943Y152974D02*
X-1759943Y122974D01*
X-1715000Y865000D02*
X-1685000Y835000D01*
X-1685000Y865000D02*
X-1715000Y835000D01*
X-1615000Y2515000D02*
X-1585000Y2485000D01*
X-1585000Y2515000D02*
X-1615000Y2485000D01*
X-1615000Y-885000D02*
X-1585000Y-915000D01*
X-1585000Y-885000D02*
X-1615000Y-915000D01*
X-1615000Y-1035000D02*
X-1585000Y-1065000D01*
X-1585000Y-1035000D02*
X-1615000Y-1065000D01*
X-1539580Y109211D02*
X-1509580Y79212D01*
X-1509580Y109211D02*
X-1539580Y79212D01*
X-1530730Y-72518D02*
X-1500730Y-102518D01*
X-1500730Y-72518D02*
X-1530730Y-102518D01*
X-1515000Y915000D02*
X-1485000Y885000D01*
X-1485000Y915000D02*
X-1515000Y885000D01*
X-1515000Y-535000D02*
X-1485000Y-565000D01*
X-1485000Y-535000D02*
X-1515000Y-565000D01*
X-1465000Y2415000D02*
X-1435000Y2385000D01*
X-1435000Y2415000D02*
X-1465000Y2385000D01*
X-1465000Y-2085000D02*
X-1435000Y-2115000D01*
X-1435000Y-2085000D02*
X-1465000Y-2115000D01*
X-1415000Y2315000D02*
X-1385000Y2285000D01*
X-1385000Y2315000D02*
X-1415000Y2285000D01*
X-1415000Y765000D02*
X-1385000Y735000D01*
X-1385000Y765000D02*
X-1415000Y735000D01*
X-1365000Y-535000D02*
X-1335000Y-565000D01*
X-1335000Y-535000D02*
X-1365000Y-565000D01*
X-1265000Y-485000D02*
X-1235000Y-515000D01*
X-1235000Y-485000D02*
X-1265000Y-515000D01*
X-1264396Y-718703D02*
X-1234396Y-748703D01*
X-1234396Y-718703D02*
X-1264396Y-748703D01*
X-1215000Y965000D02*
X-1185000Y935000D01*
X-1185000Y965000D02*
X-1215000Y935000D01*
X-1215000Y865000D02*
X-1185000Y835000D01*
X-1185000Y865000D02*
X-1215000Y835000D01*
X-1215000Y715000D02*
X-1185000Y685000D01*
X-1185000Y715000D02*
X-1215000Y685000D01*
X-1165000Y-1185000D02*
X-1135000Y-1215000D01*
X-1135000Y-1185000D02*
X-1165000Y-1215000D01*
X-1115000Y1865000D02*
X-1085000Y1835000D01*
X-1085000Y1865000D02*
X-1115000Y1835000D01*
X-1096275Y-2563154D02*
X-1066275Y-2593154D01*
X-1066275Y-2563154D02*
X-1096275Y-2593154D01*
X-1065000Y-2385000D02*
X-1035000Y-2415000D01*
X-1035000Y-2385000D02*
X-1065000Y-2415000D01*
X-1000966Y-909653D02*
X-970966Y-939653D01*
X-970966Y-909653D02*
X-1000966Y-939653D01*
X-743137Y1276937D02*
X-713137Y1246937D01*
X-713137Y1276937D02*
X-743137Y1246937D01*
X-742351Y1597496D02*
X-712351Y1567496D01*
X-712351Y1597496D02*
X-742351Y1567496D01*
X-737666Y1764080D02*
X-707666Y1734080D01*
X-707666Y1764080D02*
X-737666Y1734080D01*
X-736814Y1940580D02*
X-706814Y1910580D01*
X-706814Y1940580D02*
X-736814Y1910580D01*
X-727632Y1458179D02*
X-697632Y1428179D01*
X-697632Y1458179D02*
X-727632Y1428179D01*
X-665000Y-2535000D02*
X-635000Y-2565000D01*
X-635000Y-2535000D02*
X-665000Y-2565000D01*
X-613010Y-2054184D02*
X-583010Y-2084184D01*
X-583010Y-2054184D02*
X-613010Y-2084184D01*
X-576219Y-264192D02*
X-546219Y-294192D01*
X-546219Y-264192D02*
X-576219Y-294192D01*
X-465000Y-2535000D02*
X-435000Y-2565000D01*
X-435000Y-2535000D02*
X-465000Y-2565000D01*
X-465000Y-2181191D02*
X-435000Y-2211191D01*
X-435000Y-2181191D02*
X-465000Y-2211191D01*
X-365000Y3065000D02*
X-335000Y3035000D01*
X-335000Y3065000D02*
X-365000Y3035000D01*
X-365000Y1015000D02*
X-335000Y985000D01*
X-335000Y1015000D02*
X-365000Y985000D01*
X-365000Y-935000D02*
X-335000Y-965000D01*
X-335000Y-935000D02*
X-365000Y-965000D01*
X-365000Y-1385000D02*
X-335000Y-1415000D01*
X-335000Y-1385000D02*
X-365000Y-1415000D01*
X-365000Y-1585000D02*
X-335000Y-1615000D01*
X-335000Y-1585000D02*
X-365000Y-1615000D01*
X-365000Y-1935000D02*
X-335000Y-1965000D01*
X-335000Y-1935000D02*
X-365000Y-1965000D01*
X-347496Y1821499D02*
X-317496Y1791499D01*
X-317496Y1821499D02*
X-347496Y1791499D01*
X-280894Y307042D02*
X-250894Y277042D01*
X-250894Y307042D02*
X-280894Y277042D01*
X-265000Y2765000D02*
X-235000Y2735000D01*
X-235000Y2765000D02*
X-265000Y2735000D01*
X-265000Y2615000D02*
X-235000Y2585000D01*
X-235000Y2615000D02*
X-265000Y2585000D01*
X-265000Y-1235000D02*
X-235000Y-1265000D01*
X-235000Y-1235000D02*
X-265000Y-1265000D01*
X-265000Y-2535000D02*
X-235000Y-2565000D01*
X-235000Y-2535000D02*
X-265000Y-2565000D01*
X-215000Y-935000D02*
X-185000Y-965000D01*
X-185000Y-935000D02*
X-215000Y-965000D01*
X-183078Y-559989D02*
X-153078Y-589989D01*
X-153078Y-559989D02*
X-183078Y-589989D01*
X-165000Y-2535000D02*
X-135000Y-2565000D01*
X-135000Y-2535000D02*
X-165000Y-2565000D01*
X-153676Y1344559D02*
X-123676Y1314559D01*
X-123676Y1344559D02*
X-153676Y1314559D01*
X-153676Y1344559D02*
X-123676Y1314559D01*
X-123676Y1344559D02*
X-153676Y1314559D01*
X-153631Y303654D02*
X-123631Y273654D01*
X-123631Y303654D02*
X-153631Y273654D01*
X-94938Y1605905D02*
X-64938Y1575905D01*
X-64938Y1605905D02*
X-94938Y1575905D01*
X-65000Y3265000D02*
X-35000Y3235000D01*
X-35000Y3265000D02*
X-65000Y3235000D01*
X-65000Y1415000D02*
X-35000Y1385000D01*
X-35000Y1415000D02*
X-65000Y1385000D01*
X-35171Y1047764D02*
X-5171Y1017764D01*
X-5171Y1047764D02*
X-35171Y1017764D01*
X-15000Y-1135000D02*
X15000Y-1165000D01*
X15000Y-1135000D02*
X-15000Y-1165000D01*
X-15000Y-2535000D02*
X15000Y-2565000D01*
X15000Y-2535000D02*
X-15000Y-2565000D01*
X-879Y38328D02*
X29121Y8328D01*
X29121Y38328D02*
X-879Y8328D01*
X35000Y-935000D02*
X65000Y-965000D01*
X65000Y-935000D02*
X35000Y-965000D01*
X35000Y-1685000D02*
X65000Y-1715000D01*
X65000Y-1685000D02*
X35000Y-1715000D01*
X35000Y-1885000D02*
X65000Y-1915000D01*
X65000Y-1885000D02*
X35000Y-1915000D01*
X35000Y-2185000D02*
X65000Y-2215000D01*
X65000Y-2185000D02*
X35000Y-2215000D01*
X85000Y-1435000D02*
X115000Y-1465000D01*
X115000Y-1435000D02*
X85000Y-1465000D01*
X85000Y-1785000D02*
X115000Y-1815000D01*
X115000Y-1785000D02*
X85000Y-1815000D01*
X135000Y-1135000D02*
X165000Y-1165000D01*
X165000Y-1135000D02*
X135000Y-1165000D01*
X185000Y-1685000D02*
X215000Y-1715000D01*
X215000Y-1685000D02*
X185000Y-1715000D01*
X185000Y-1785000D02*
X215000Y-1815000D01*
X215000Y-1785000D02*
X185000Y-1815000D01*
X185000Y-1885000D02*
X215000Y-1915000D01*
X215000Y-1885000D02*
X185000Y-1915000D01*
X185000Y-2535000D02*
X215000Y-2565000D01*
X215000Y-2535000D02*
X185000Y-2565000D01*
X235000Y-1435000D02*
X265000Y-1465000D01*
X265000Y-1435000D02*
X235000Y-1465000D01*
X235000Y-2185000D02*
X265000Y-2215000D01*
X265000Y-2185000D02*
X235000Y-2215000D01*
X250228Y1613242D02*
X280228Y1583242D01*
X280228Y1613242D02*
X250228Y1583242D01*
X256623Y1421395D02*
X286623Y1391395D01*
X286623Y1421395D02*
X256623Y1391395D01*
X261739Y1522434D02*
X291739Y1492434D01*
X291739Y1522434D02*
X261739Y1492434D01*
X285000Y2715000D02*
X315000Y2685000D01*
X315000Y2715000D02*
X285000Y2685000D01*
X285000Y-935000D02*
X315000Y-965000D01*
X315000Y-935000D02*
X285000Y-965000D01*
X285000Y-1685000D02*
X315000Y-1715000D01*
X315000Y-1685000D02*
X285000Y-1715000D01*
X285000Y-1785000D02*
X315000Y-1815000D01*
X315000Y-1785000D02*
X285000Y-1815000D01*
X285000Y-1885000D02*
X315000Y-1915000D01*
X315000Y-1885000D02*
X285000Y-1915000D01*
X335000Y3015000D02*
X365000Y2985000D01*
X365000Y3015000D02*
X335000Y2985000D01*
X335000Y-1135000D02*
X365000Y-1165000D01*
X365000Y-1135000D02*
X335000Y-1165000D01*
X335000Y-2535000D02*
X365000Y-2565000D01*
X365000Y-2535000D02*
X335000Y-2565000D01*
X356383Y1614521D02*
X386383Y1584521D01*
X386383Y1614521D02*
X356383Y1584521D01*
X364057Y1523713D02*
X394057Y1493713D01*
X394057Y1523713D02*
X364057Y1493713D01*
X369173Y1417558D02*
X399173Y1387558D01*
X399173Y1417558D02*
X369173Y1387558D01*
X435000Y-1085000D02*
X465000Y-1115000D01*
X465000Y-1085000D02*
X435000Y-1115000D01*
X435000Y-1435000D02*
X465000Y-1465000D01*
X465000Y-1435000D02*
X435000Y-1465000D01*
X435000Y-2185000D02*
X465000Y-2215000D01*
X465000Y-2185000D02*
X435000Y-2215000D01*
X443164Y664306D02*
X473164Y634306D01*
X473164Y664306D02*
X443164Y634306D01*
X454865Y1415000D02*
X484865Y1385000D01*
X484865Y1415000D02*
X454865Y1385000D01*
X458702Y1613242D02*
X488702Y1583242D01*
X488702Y1613242D02*
X458702Y1583242D01*
X465097Y1519876D02*
X495097Y1489876D01*
X495097Y1519876D02*
X465097Y1489876D01*
X485000Y-2385000D02*
X515000Y-2415000D01*
X515000Y-2385000D02*
X485000Y-2415000D01*
X485000Y-2535000D02*
X515000Y-2565000D01*
X515000Y-2535000D02*
X485000Y-2565000D01*
X535000Y1015000D02*
X565000Y985000D01*
X565000Y1015000D02*
X535000Y985000D01*
X535000Y-935000D02*
X565000Y-965000D01*
X565000Y-935000D02*
X535000Y-965000D01*
X535000Y-2185000D02*
X565000Y-2215000D01*
X565000Y-2185000D02*
X535000Y-2215000D01*
X585000Y2415000D02*
X615000Y2385000D01*
X615000Y2415000D02*
X585000Y2385000D01*
X585000Y-1585000D02*
X615000Y-1615000D01*
X615000Y-1585000D02*
X585000Y-1615000D01*
X585000Y-1785000D02*
X615000Y-1815000D01*
X615000Y-1785000D02*
X585000Y-1815000D01*
X585000Y-2535000D02*
X615000Y-2565000D01*
X615000Y-2535000D02*
X585000Y-2565000D01*
X635000Y-1135000D02*
X665000Y-1165000D01*
X665000Y-1135000D02*
X635000Y-1165000D01*
X635000Y-1385000D02*
X665000Y-1415000D01*
X665000Y-1385000D02*
X635000Y-1415000D01*
X735000Y-835000D02*
X765000Y-865000D01*
X765000Y-835000D02*
X735000Y-865000D01*
X735000Y-985000D02*
X765000Y-1015000D01*
X765000Y-985000D02*
X735000Y-1015000D01*
X735000Y-1635000D02*
X765000Y-1665000D01*
X765000Y-1635000D02*
X735000Y-1665000D01*
X735000Y-1785000D02*
X765000Y-1815000D01*
X765000Y-1785000D02*
X735000Y-1815000D01*
X735000Y-1935000D02*
X765000Y-1965000D01*
X765000Y-1935000D02*
X735000Y-1965000D01*
X735000Y-2535000D02*
X765000Y-2565000D01*
X765000Y-2535000D02*
X735000Y-2565000D01*
X785000Y1265000D02*
X815000Y1235000D01*
X815000Y1265000D02*
X785000Y1235000D01*
X806452Y1474853D02*
X836452Y1444853D01*
X836452Y1474853D02*
X806452Y1444853D01*
X862629Y221246D02*
X892629Y191246D01*
X892629Y221246D02*
X862629Y191246D01*
X935000Y1665000D02*
X965000Y1635000D01*
X965000Y1665000D02*
X935000Y1635000D01*
X935000Y-35000D02*
X965000Y-65000D01*
X965000Y-35000D02*
X935000Y-65000D01*
X1013684Y250505D02*
X1043684Y220505D01*
X1043684Y250505D02*
X1013684Y220505D01*
X1017947Y974072D02*
X1047947Y944072D01*
X1047947Y974072D02*
X1017947Y944072D01*
X1085000Y-35000D02*
X1115000Y-65000D01*
X1115000Y-35000D02*
X1085000Y-65000D01*
X1085000Y-1185000D02*
X1115000Y-1215000D01*
X1115000Y-1185000D02*
X1085000Y-1215000D01*
X1118191Y1199739D02*
X1148191Y1169739D01*
X1148191Y1199739D02*
X1118191Y1169739D01*
X1128431Y771569D02*
X1158431Y741569D01*
X1158431Y771569D02*
X1128431Y741569D01*
X1141724Y926312D02*
X1171724Y896312D01*
X1171724Y926312D02*
X1141724Y896312D01*
X1185000Y715000D02*
X1215000Y685000D01*
X1215000Y715000D02*
X1185000Y685000D01*
X1212400Y1042400D02*
X1242400Y1012400D01*
X1242400Y1042400D02*
X1212400Y1012400D01*
X1235000Y1865000D02*
X1265000Y1835000D01*
X1265000Y1865000D02*
X1235000Y1835000D01*
X1323537Y-1637869D02*
X1353537Y-1667869D01*
X1353537Y-1637869D02*
X1323537Y-1667869D01*
X1334424Y-237039D02*
X1364424Y-267039D01*
X1364424Y-237039D02*
X1334424Y-267039D01*
X1335000Y-2135000D02*
X1365000Y-2165000D01*
X1365000Y-2135000D02*
X1335000Y-2165000D01*
X1385000Y2015000D02*
X1415000Y1985000D01*
X1415000Y2015000D02*
X1385000Y1985000D01*
X1485000Y-1685000D02*
X1515000Y-1715000D01*
X1515000Y-1685000D02*
X1485000Y-1715000D01*
X1485000Y-2135000D02*
X1515000Y-2165000D01*
X1515000Y-2135000D02*
X1485000Y-2165000D01*
X1520195Y112722D02*
X1550195Y82722D01*
X1550195Y112722D02*
X1520195Y82722D01*
X1535000Y-1185000D02*
X1565000Y-1215000D01*
X1565000Y-1185000D02*
X1535000Y-1215000D01*
X1535000Y-2585000D02*
X1565000Y-2615000D01*
X1565000Y-2585000D02*
X1535000Y-2615000D01*
X1585000Y354336D02*
X1615000Y324336D01*
X1615000Y354336D02*
X1585000Y324336D01*
X1585000Y-1685000D02*
X1615000Y-1715000D01*
X1615000Y-1685000D02*
X1585000Y-1715000D01*
X1628417Y-2279893D02*
X1658417Y-2309893D01*
X1658417Y-2279893D02*
X1628417Y-2309893D01*
X1635000Y-2085000D02*
X1665000Y-2115000D01*
X1665000Y-2085000D02*
X1635000Y-2115000D01*
X1635000Y-2585000D02*
X1665000Y-2615000D01*
X1665000Y-2585000D02*
X1635000Y-2615000D01*
X1685000Y-1685000D02*
X1715000Y-1715000D01*
X1715000Y-1685000D02*
X1685000Y-1715000D01*
X1735000Y-735000D02*
X1765000Y-765000D01*
X1765000Y-735000D02*
X1735000Y-765000D01*
X1735000Y-2085000D02*
X1765000Y-2115000D01*
X1765000Y-2085000D02*
X1735000Y-2115000D01*
X1785000Y1215000D02*
X1815000Y1185000D01*
X1815000Y1215000D02*
X1785000Y1185000D01*
X1785000Y865000D02*
X1815000Y835000D01*
X1815000Y865000D02*
X1785000Y835000D01*
X1785000Y765000D02*
X1815000Y735000D01*
X1815000Y765000D02*
X1785000Y735000D01*
X1785000Y465000D02*
X1815000Y435000D01*
X1815000Y465000D02*
X1785000Y435000D01*
X1785000Y315000D02*
X1815000Y285000D01*
X1815000Y315000D02*
X1785000Y285000D01*
X1785000Y215000D02*
X1815000Y185000D01*
X1815000Y215000D02*
X1785000Y185000D01*
X1785000Y-1135000D02*
X1815000Y-1165000D01*
X1815000Y-1135000D02*
X1785000Y-1165000D01*
X1785000Y-2585000D02*
X1815000Y-2615000D01*
X1815000Y-2585000D02*
X1785000Y-2615000D01*
X1885000Y1365000D02*
X1915000Y1335000D01*
X1915000Y1365000D02*
X1885000Y1335000D01*
X1935000Y415000D02*
X1965000Y385000D01*
X1965000Y415000D02*
X1935000Y385000D01*
X1985000Y-1135000D02*
X2015000Y-1165000D01*
X2015000Y-1135000D02*
X1985000Y-1165000D01*
X2035000Y15000D02*
X2065000Y-15000D01*
X2065000Y15000D02*
X2035000Y-15000D01*
X2135000Y-135000D02*
X2165000Y-165000D01*
X2165000Y-135000D02*
X2135000Y-165000D01*
X2135000Y-235000D02*
X2165000Y-265000D01*
X2165000Y-235000D02*
X2135000Y-265000D01*
X2135000Y-335000D02*
X2165000Y-365000D01*
X2165000Y-335000D02*
X2135000Y-365000D01*
X2185000Y-1135000D02*
X2215000Y-1165000D01*
X2215000Y-1135000D02*
X2185000Y-1165000D01*
X2385000Y-1135000D02*
X2415000Y-1165000D01*
X2415000Y-1135000D02*
X2385000Y-1165000D01*
X2585000Y-1135000D02*
X2615000Y-1165000D01*
X2615000Y-1135000D02*
X2585000Y-1165000D01*
X2835000Y-1385000D02*
X2865000Y-1415000D01*
X2865000Y-1385000D02*
X2835000Y-1415000D01*
X2985000Y-1385000D02*
X3015000Y-1415000D01*
X3015000Y-1385000D02*
X2985000Y-1415000D01*
X-3267500Y413703D02*
G75*
G02*
X-3322500Y413703I-27500J0D01*
G01*
X-3322500Y413703D02*
G75*
G02*
X-3267500Y413703I27500J0D01*
G01*
X-3262500Y441203D02*
X-3327500Y441203D01*
X-3327500Y386203D02*
G75*
G02*
X-3327500Y441203I0J27500D01*
G01*
X-3327500Y386203D02*
X-3262500Y386203D01*
X-3262500Y386203D02*
G75*
G03*
X-3262500Y441203I0J27500D01*
G01*
X-3267500Y-361297D02*
G75*
G02*
X-3322500Y-361297I-27500J0D01*
G01*
X-3322500Y-361297D02*
G75*
G02*
X-3267500Y-361297I27500J0D01*
G01*
X-3262500Y-333797D02*
X-3327500Y-333797D01*
X-3327500Y-388797D02*
G75*
G02*
X-3327500Y-333797I0J27500D01*
G01*
X-3327500Y-388797D02*
X-3262500Y-388797D01*
X-3262500Y-388797D02*
G75*
G03*
X-3262500Y-333797I0J27500D01*
G01*
X-2915000Y441203D02*
X-2915000Y356203D01*
X-2957500Y398703D02*
X-2872500Y398703D01*
X-2887500Y441203D02*
X-2942500Y441203D01*
X-2942500Y356203D02*
G75*
G02*
X-2942500Y441203I0J42500D01*
G01*
X-2942500Y356203D02*
X-2887500Y356203D01*
X-2887500Y356203D02*
G75*
G03*
X-2887500Y441203I0J42500D01*
G01*
X-2915000Y-303797D02*
X-2915000Y-388797D01*
X-2957500Y-346297D02*
X-2872500Y-346297D01*
X-2887500Y-303797D02*
X-2942500Y-303797D01*
X-2942500Y-388797D02*
G75*
G02*
X-2942500Y-303797I0J42500D01*
G01*
X-2942500Y-388797D02*
X-2887500Y-388797D01*
X-2887500Y-388797D02*
G75*
G03*
X-2887500Y-303797I0J42500D01*
G01*
X2166971Y933177D02*
X2166971Y1000353D01*
X2099795Y1000353D01*
X2099795Y933177D01*
X2166971Y933177D01*
X2166971Y683177D02*
X2166971Y750353D01*
X2099795Y750353D01*
X2099795Y683177D01*
X2166971Y683177D01*
X2166971Y433177D02*
X2166971Y500353D01*
X2099795Y500353D01*
X2099795Y433177D01*
X2166971Y433177D01*
X2166971Y183177D02*
X2166971Y250353D01*
X2099795Y250353D01*
X2099795Y183177D01*
X2166971Y183177D01*
X3188646Y198089D02*
X3238146Y247589D01*
X3188646Y297089D01*
X3139146Y247589D01*
X3188646Y198089D01*
X3188646Y-251911D02*
X3238146Y-202411D01*
X3188646Y-152911D01*
X3139146Y-202411D01*
X3188646Y-251911D01*
X-530000Y2710000D02*
X-430000Y2610000D01*
X-430000Y2710000D02*
X-530000Y2610000D01*
X-430000Y2660000D02*
G75*
G02*
X-530000Y2660000I-50000J0D01*
G01*
X-530000Y2660000D02*
G75*
G02*
X-430000Y2660000I50000J0D01*
G01*
X-430000Y2550000D02*
X-430000Y2770000D01*
X-530000Y2770000D02*
G75*
G02*
X-430000Y2770000I50000J0D01*
G01*
X-530000Y2770000D02*
X-530000Y2550000D01*
X-530000Y2550000D02*
G75*
G03*
X-430000Y2550000I50000J0D01*
G01*
X-50000Y3050000D02*
X50000Y2950000D01*
X50000Y3050000D02*
X-50000Y2950000D01*
X50000Y3000000D02*
G75*
G02*
X-50000Y3000000I-50000J0D01*
G01*
X-50000Y3000000D02*
G75*
G02*
X50000Y3000000I50000J0D01*
G01*
X110000Y3050000D02*
X-110000Y3050000D01*
X-110000Y2950000D02*
G75*
G02*
X-110000Y3050000I0J50000D01*
G01*
X-110000Y2950000D02*
X110000Y2950000D01*
X110000Y2950000D02*
G75*
G03*
X110000Y3050000I0J50000D01*
G01*
X-50000Y2420000D02*
X50000Y2320000D01*
X50000Y2420000D02*
X-50000Y2320000D01*
X50000Y2370000D02*
G75*
G02*
X-50000Y2370000I-50000J0D01*
G01*
X-50000Y2370000D02*
G75*
G02*
X50000Y2370000I50000J0D01*
G01*
X130000Y2420000D02*
X-130000Y2420000D01*
X-130000Y2320000D02*
G75*
G02*
X-130000Y2420000I0J50000D01*
G01*
X-130000Y2320000D02*
X130000Y2320000D01*
X130000Y2320000D02*
G75*
G03*
X130000Y2420000I0J50000D01*
G01*
X1150000Y2913232D02*
X1250000Y2813232D01*
X1250000Y2913232D02*
X1150000Y2813232D01*
X1250000Y2863232D02*
G75*
G02*
X1150000Y2863232I-50000J0D01*
G01*
X1150000Y2863232D02*
G75*
G02*
X1250000Y2863232I50000J0D01*
G01*
X1150000Y2413232D02*
X1250000Y2313232D01*
X1250000Y2413232D02*
X1150000Y2313232D01*
X1250000Y2363232D02*
G75*
G02*
X1150000Y2363232I-50000J0D01*
G01*
X1150000Y2363232D02*
G75*
G02*
X1250000Y2363232I50000J0D01*
G01*
X2300000Y-1500000D02*
X2400000Y-1600000D01*
X2400000Y-1500000D02*
X2300000Y-1600000D01*
X2400000Y-1550000D02*
G75*
G02*
X2300000Y-1550000I-50000J0D01*
G01*
X2300000Y-1550000D02*
G75*
G02*
X2400000Y-1550000I50000J0D01*
G01*
D13*
X2874646Y437589D02*
X3004646Y307589D01*
X3004646Y437589D02*
X2874646Y307589D01*
X2939646Y437589D02*
X2939646Y307589D01*
X2874646Y372589D02*
X3004646Y372589D01*
X2874646Y-263411D02*
X3004646Y-393411D01*
X3004646Y-263411D02*
X2874646Y-393411D01*
X2939646Y-263411D02*
X2939646Y-393411D01*
X2874646Y-328411D02*
X3004646Y-328411D01*
D11*
X-3214389Y-3789983D02*
X-3214389Y-3589983D01*
X-3214389Y-3589983D02*
X-3166770Y-3589983D01*
X-3166770Y-3589983D02*
X-3138199Y-3599507D01*
X-3138199Y-3599507D02*
X-3119151Y-3618555D01*
X-3119151Y-3618555D02*
X-3109627Y-3637602D01*
X-3109627Y-3637602D02*
X-3100103Y-3675697D01*
X-3100103Y-3675697D02*
X-3100103Y-3704269D01*
X-3100103Y-3704269D02*
X-3109627Y-3742364D01*
X-3109627Y-3742364D02*
X-3119151Y-3761412D01*
X-3119151Y-3761412D02*
X-3138199Y-3780459D01*
X-3138199Y-3780459D02*
X-3166770Y-3789983D01*
X-3166770Y-3789983D02*
X-3214389Y-3789983D01*
X-3014389Y-3789983D02*
X-3014389Y-3656650D01*
X-3014389Y-3694745D02*
X-3004865Y-3675697D01*
X-3004865Y-3675697D02*
X-2995341Y-3666174D01*
X-2995341Y-3666174D02*
X-2976294Y-3656650D01*
X-2976294Y-3656650D02*
X-2957246Y-3656650D01*
X-2890580Y-3789983D02*
X-2890580Y-3656650D01*
X-2890580Y-3589983D02*
X-2900103Y-3599507D01*
X-2900103Y-3599507D02*
X-2890580Y-3609031D01*
X-2890580Y-3609031D02*
X-2881056Y-3599507D01*
X-2881056Y-3599507D02*
X-2890580Y-3589983D01*
X-2890580Y-3589983D02*
X-2890580Y-3609031D01*
X-2766770Y-3789983D02*
X-2785818Y-3780459D01*
X-2785818Y-3780459D02*
X-2795342Y-3761412D01*
X-2795342Y-3761412D02*
X-2795342Y-3589983D01*
X-2662008Y-3789983D02*
X-2681056Y-3780459D01*
X-2681056Y-3780459D02*
X-2690580Y-3761412D01*
X-2690580Y-3761412D02*
X-2690580Y-3589983D01*
X-2433437Y-3789983D02*
X-2433437Y-3589983D01*
X-2433437Y-3589983D02*
X-2366770Y-3732840D01*
X-2366770Y-3732840D02*
X-2300103Y-3589983D01*
X-2300103Y-3589983D02*
X-2300103Y-3789983D01*
X-2119151Y-3789983D02*
X-2119151Y-3685221D01*
X-2119151Y-3685221D02*
X-2128675Y-3666174D01*
X-2128675Y-3666174D02*
X-2147722Y-3656650D01*
X-2147722Y-3656650D02*
X-2185818Y-3656650D01*
X-2185818Y-3656650D02*
X-2204865Y-3666174D01*
X-2119151Y-3780459D02*
X-2138199Y-3789983D01*
X-2138199Y-3789983D02*
X-2185818Y-3789983D01*
X-2185818Y-3789983D02*
X-2204865Y-3780459D01*
X-2204865Y-3780459D02*
X-2214389Y-3761412D01*
X-2214389Y-3761412D02*
X-2214389Y-3742364D01*
X-2214389Y-3742364D02*
X-2204865Y-3723317D01*
X-2204865Y-3723317D02*
X-2185818Y-3713793D01*
X-2185818Y-3713793D02*
X-2138199Y-3713793D01*
X-2138199Y-3713793D02*
X-2119151Y-3704269D01*
X-2023913Y-3656650D02*
X-2023913Y-3856650D01*
X-2023913Y-3666174D02*
X-2004865Y-3656650D01*
X-2004865Y-3656650D02*
X-1966770Y-3656650D01*
X-1966770Y-3656650D02*
X-1947722Y-3666174D01*
X-1947722Y-3666174D02*
X-1938199Y-3675697D01*
X-1938199Y-3675697D02*
X-1928675Y-3694745D01*
X-1928675Y-3694745D02*
X-1928675Y-3751888D01*
X-1928675Y-3751888D02*
X-1938199Y-3770936D01*
X-1938199Y-3770936D02*
X-1947722Y-3780459D01*
X-1947722Y-3780459D02*
X-1966770Y-3789983D01*
X-1966770Y-3789983D02*
X-2004865Y-3789983D01*
X-2004865Y-3789983D02*
X-2023913Y-3780459D01*
X-1842960Y-3770936D02*
X-1833437Y-3780459D01*
X-1833437Y-3780459D02*
X-1842960Y-3789983D01*
X-1842960Y-3789983D02*
X-1852484Y-3780459D01*
X-1852484Y-3780459D02*
X-1842960Y-3770936D01*
X-1842960Y-3770936D02*
X-1842960Y-3789983D01*
X-1842960Y-3666174D02*
X-1833437Y-3675697D01*
X-1833437Y-3675697D02*
X-1842960Y-3685221D01*
X-1842960Y-3685221D02*
X-1852484Y-3675697D01*
X-1852484Y-3675697D02*
X-1842960Y-3666174D01*
X-1842960Y-3666174D02*
X-1842960Y-3685221D01*
D12*
X-3505166Y-4103499D02*
X-3475166Y-4133499D01*
X-3475166Y-4103499D02*
X-3505166Y-4133499D01*
D11*
X-3176294Y-4009983D02*
X-3157246Y-4009983D01*
X-3157246Y-4009983D02*
X-3138199Y-4019507D01*
X-3138199Y-4019507D02*
X-3128675Y-4029031D01*
X-3128675Y-4029031D02*
X-3119151Y-4048078D01*
X-3119151Y-4048078D02*
X-3109627Y-4086174D01*
X-3109627Y-4086174D02*
X-3109627Y-4133793D01*
X-3109627Y-4133793D02*
X-3119151Y-4171888D01*
X-3119151Y-4171888D02*
X-3128675Y-4190936D01*
X-3128675Y-4190936D02*
X-3138199Y-4200460D01*
X-3138199Y-4200460D02*
X-3157246Y-4209983D01*
X-3157246Y-4209983D02*
X-3176294Y-4209983D01*
X-3176294Y-4209983D02*
X-3195341Y-4200460D01*
X-3195341Y-4200460D02*
X-3204865Y-4190936D01*
X-3204865Y-4190936D02*
X-3214389Y-4171888D01*
X-3214389Y-4171888D02*
X-3223913Y-4133793D01*
X-3223913Y-4133793D02*
X-3223913Y-4086174D01*
X-3223913Y-4086174D02*
X-3214389Y-4048078D01*
X-3214389Y-4048078D02*
X-3204865Y-4029031D01*
X-3204865Y-4029031D02*
X-3195341Y-4019507D01*
X-3195341Y-4019507D02*
X-3176294Y-4009983D01*
X-3023913Y-4190936D02*
X-3014389Y-4200460D01*
X-3014389Y-4200460D02*
X-3023913Y-4209983D01*
X-3023913Y-4209983D02*
X-3033437Y-4200460D01*
X-3033437Y-4200460D02*
X-3023913Y-4190936D01*
X-3023913Y-4190936D02*
X-3023913Y-4209983D01*
X-2947722Y-4009983D02*
X-2823913Y-4009983D01*
X-2823913Y-4009983D02*
X-2890580Y-4086174D01*
X-2890580Y-4086174D02*
X-2862008Y-4086174D01*
X-2862008Y-4086174D02*
X-2842960Y-4095697D01*
X-2842960Y-4095697D02*
X-2833437Y-4105221D01*
X-2833437Y-4105221D02*
X-2823913Y-4124269D01*
X-2823913Y-4124269D02*
X-2823913Y-4171888D01*
X-2823913Y-4171888D02*
X-2833437Y-4190936D01*
X-2833437Y-4190936D02*
X-2842960Y-4200460D01*
X-2842960Y-4200460D02*
X-2862008Y-4209983D01*
X-2862008Y-4209983D02*
X-2919151Y-4209983D01*
X-2919151Y-4209983D02*
X-2938199Y-4200460D01*
X-2938199Y-4200460D02*
X-2947722Y-4190936D01*
X-2700103Y-4009983D02*
X-2681056Y-4009983D01*
X-2681056Y-4009983D02*
X-2662008Y-4019507D01*
X-2662008Y-4019507D02*
X-2652484Y-4029031D01*
X-2652484Y-4029031D02*
X-2642961Y-4048078D01*
X-2642961Y-4048078D02*
X-2633437Y-4086174D01*
X-2633437Y-4086174D02*
X-2633437Y-4133793D01*
X-2633437Y-4133793D02*
X-2642961Y-4171888D01*
X-2642961Y-4171888D02*
X-2652484Y-4190936D01*
X-2652484Y-4190936D02*
X-2662008Y-4200460D01*
X-2662008Y-4200460D02*
X-2681056Y-4209983D01*
X-2681056Y-4209983D02*
X-2700103Y-4209983D01*
X-2700103Y-4209983D02*
X-2719151Y-4200460D01*
X-2719151Y-4200460D02*
X-2728675Y-4190936D01*
X-2728675Y-4190936D02*
X-2738199Y-4171888D01*
X-2738199Y-4171888D02*
X-2747722Y-4133793D01*
X-2747722Y-4133793D02*
X-2747722Y-4086174D01*
X-2747722Y-4086174D02*
X-2738199Y-4048078D01*
X-2738199Y-4048078D02*
X-2728675Y-4029031D01*
X-2728675Y-4029031D02*
X-2719151Y-4019507D01*
X-2719151Y-4019507D02*
X-2700103Y-4009983D01*
X-2509627Y-4009983D02*
X-2490580Y-4009983D01*
X-2490580Y-4009983D02*
X-2471532Y-4019507D01*
X-2471532Y-4019507D02*
X-2462008Y-4029031D01*
X-2462008Y-4029031D02*
X-2452484Y-4048078D01*
X-2452484Y-4048078D02*
X-2442961Y-4086174D01*
X-2442961Y-4086174D02*
X-2442961Y-4133793D01*
X-2442961Y-4133793D02*
X-2452484Y-4171888D01*
X-2452484Y-4171888D02*
X-2462008Y-4190936D01*
X-2462008Y-4190936D02*
X-2471532Y-4200460D01*
X-2471532Y-4200460D02*
X-2490580Y-4209983D01*
X-2490580Y-4209983D02*
X-2509627Y-4209983D01*
X-2509627Y-4209983D02*
X-2528675Y-4200460D01*
X-2528675Y-4200460D02*
X-2538199Y-4190936D01*
X-2538199Y-4190936D02*
X-2547722Y-4171888D01*
X-2547722Y-4171888D02*
X-2557246Y-4133793D01*
X-2557246Y-4133793D02*
X-2557246Y-4086174D01*
X-2557246Y-4086174D02*
X-2547722Y-4048078D01*
X-2547722Y-4048078D02*
X-2538199Y-4029031D01*
X-2538199Y-4029031D02*
X-2528675Y-4019507D01*
X-2528675Y-4019507D02*
X-2509627Y-4009983D01*
X-2357246Y-4209983D02*
X-2357246Y-4076650D01*
X-2357246Y-4095697D02*
X-2347722Y-4086174D01*
X-2347722Y-4086174D02*
X-2328675Y-4076650D01*
X-2328675Y-4076650D02*
X-2300103Y-4076650D01*
X-2300103Y-4076650D02*
X-2281056Y-4086174D01*
X-2281056Y-4086174D02*
X-2271532Y-4105221D01*
X-2271532Y-4105221D02*
X-2271532Y-4209983D01*
X-2271532Y-4105221D02*
X-2262008Y-4086174D01*
X-2262008Y-4086174D02*
X-2242961Y-4076650D01*
X-2242961Y-4076650D02*
X-2214389Y-4076650D01*
X-2214389Y-4076650D02*
X-2195341Y-4086174D01*
X-2195341Y-4086174D02*
X-2185818Y-4105221D01*
X-2185818Y-4105221D02*
X-2185818Y-4209983D01*
X-2090579Y-4209983D02*
X-2090579Y-4076650D01*
X-2090579Y-4095697D02*
X-2081056Y-4086174D01*
X-2081056Y-4086174D02*
X-2062008Y-4076650D01*
X-2062008Y-4076650D02*
X-2033437Y-4076650D01*
X-2033437Y-4076650D02*
X-2014389Y-4086174D01*
X-2014389Y-4086174D02*
X-2004865Y-4105221D01*
X-2004865Y-4105221D02*
X-2004865Y-4209983D01*
X-2004865Y-4105221D02*
X-1995341Y-4086174D01*
X-1995341Y-4086174D02*
X-1976294Y-4076650D01*
X-1976294Y-4076650D02*
X-1947722Y-4076650D01*
X-1947722Y-4076650D02*
X-1928675Y-4086174D01*
X-1928675Y-4086174D02*
X-1919151Y-4105221D01*
X-1919151Y-4105221D02*
X-1919151Y-4209983D01*
X-1528675Y-4000459D02*
X-1700103Y-4257602D01*
X-1271532Y-4009983D02*
X-1252484Y-4009983D01*
X-1252484Y-4009983D02*
X-1233437Y-4019507D01*
X-1233437Y-4019507D02*
X-1223913Y-4029031D01*
X-1223913Y-4029031D02*
X-1214389Y-4048078D01*
X-1214389Y-4048078D02*
X-1204865Y-4086174D01*
X-1204865Y-4086174D02*
X-1204865Y-4133793D01*
X-1204865Y-4133793D02*
X-1214389Y-4171888D01*
X-1214389Y-4171888D02*
X-1223913Y-4190936D01*
X-1223913Y-4190936D02*
X-1233437Y-4200460D01*
X-1233437Y-4200460D02*
X-1252484Y-4209983D01*
X-1252484Y-4209983D02*
X-1271532Y-4209983D01*
X-1271532Y-4209983D02*
X-1290579Y-4200460D01*
X-1290579Y-4200460D02*
X-1300103Y-4190936D01*
X-1300103Y-4190936D02*
X-1309627Y-4171888D01*
X-1309627Y-4171888D02*
X-1319151Y-4133793D01*
X-1319151Y-4133793D02*
X-1319151Y-4086174D01*
X-1319151Y-4086174D02*
X-1309627Y-4048078D01*
X-1309627Y-4048078D02*
X-1300103Y-4029031D01*
X-1300103Y-4029031D02*
X-1290579Y-4019507D01*
X-1290579Y-4019507D02*
X-1271532Y-4009983D01*
X-1119151Y-4190936D02*
X-1109627Y-4200460D01*
X-1109627Y-4200460D02*
X-1119151Y-4209983D01*
X-1119151Y-4209983D02*
X-1128675Y-4200460D01*
X-1128675Y-4200460D02*
X-1119151Y-4190936D01*
X-1119151Y-4190936D02*
X-1119151Y-4209983D01*
X-985817Y-4009983D02*
X-966770Y-4009983D01*
X-966770Y-4009983D02*
X-947722Y-4019507D01*
X-947722Y-4019507D02*
X-938198Y-4029031D01*
X-938198Y-4029031D02*
X-928675Y-4048078D01*
X-928675Y-4048078D02*
X-919151Y-4086174D01*
X-919151Y-4086174D02*
X-919151Y-4133793D01*
X-919151Y-4133793D02*
X-928675Y-4171888D01*
X-928675Y-4171888D02*
X-938198Y-4190936D01*
X-938198Y-4190936D02*
X-947722Y-4200460D01*
X-947722Y-4200460D02*
X-966770Y-4209983D01*
X-966770Y-4209983D02*
X-985817Y-4209983D01*
X-985817Y-4209983D02*
X-1004865Y-4200460D01*
X-1004865Y-4200460D02*
X-1014389Y-4190936D01*
X-1014389Y-4190936D02*
X-1023913Y-4171888D01*
X-1023913Y-4171888D02*
X-1033436Y-4133793D01*
X-1033436Y-4133793D02*
X-1033436Y-4086174D01*
X-1033436Y-4086174D02*
X-1023913Y-4048078D01*
X-1023913Y-4048078D02*
X-1014389Y-4029031D01*
X-1014389Y-4029031D02*
X-1004865Y-4019507D01*
X-1004865Y-4019507D02*
X-985817Y-4009983D01*
X-728675Y-4209983D02*
X-842960Y-4209983D01*
X-785817Y-4209983D02*
X-785817Y-4009983D01*
X-785817Y-4009983D02*
X-804865Y-4038555D01*
X-804865Y-4038555D02*
X-823913Y-4057602D01*
X-823913Y-4057602D02*
X-842960Y-4067126D01*
X-538198Y-4209983D02*
X-652484Y-4209983D01*
X-595341Y-4209983D02*
X-595341Y-4009983D01*
X-595341Y-4009983D02*
X-614389Y-4038555D01*
X-614389Y-4038555D02*
X-633437Y-4057602D01*
X-633437Y-4057602D02*
X-652484Y-4067126D01*
X-423913Y-4095697D02*
X-442960Y-4086174D01*
X-442960Y-4086174D02*
X-452484Y-4076650D01*
X-452484Y-4076650D02*
X-462008Y-4057602D01*
X-462008Y-4057602D02*
X-462008Y-4048078D01*
X-462008Y-4048078D02*
X-452484Y-4029031D01*
X-452484Y-4029031D02*
X-442960Y-4019507D01*
X-442960Y-4019507D02*
X-423913Y-4009983D01*
X-423913Y-4009983D02*
X-385817Y-4009983D01*
X-385817Y-4009983D02*
X-366770Y-4019507D01*
X-366770Y-4019507D02*
X-357246Y-4029031D01*
X-357246Y-4029031D02*
X-347722Y-4048078D01*
X-347722Y-4048078D02*
X-347722Y-4057602D01*
X-347722Y-4057602D02*
X-357246Y-4076650D01*
X-357246Y-4076650D02*
X-366770Y-4086174D01*
X-366770Y-4086174D02*
X-385817Y-4095697D01*
X-385817Y-4095697D02*
X-423913Y-4095697D01*
X-423913Y-4095697D02*
X-442960Y-4105221D01*
X-442960Y-4105221D02*
X-452484Y-4114745D01*
X-452484Y-4114745D02*
X-462008Y-4133793D01*
X-462008Y-4133793D02*
X-462008Y-4171888D01*
X-462008Y-4171888D02*
X-452484Y-4190936D01*
X-452484Y-4190936D02*
X-442960Y-4200460D01*
X-442960Y-4200460D02*
X-423913Y-4209983D01*
X-423913Y-4209983D02*
X-385817Y-4209983D01*
X-385817Y-4209983D02*
X-366770Y-4200460D01*
X-366770Y-4200460D02*
X-357246Y-4190936D01*
X-357246Y-4190936D02*
X-347722Y-4171888D01*
X-347722Y-4171888D02*
X-347722Y-4133793D01*
X-347722Y-4133793D02*
X-357246Y-4114745D01*
X-357246Y-4114745D02*
X-366770Y-4105221D01*
X-366770Y-4105221D02*
X-385817Y-4095697D01*
X-271532Y-4009983D02*
X-271532Y-4048078D01*
X-195341Y-4009983D02*
X-195341Y-4048078D01*
X99897Y-4286174D02*
X90373Y-4276650D01*
X90373Y-4276650D02*
X71325Y-4248079D01*
X71325Y-4248079D02*
X61802Y-4229031D01*
X61802Y-4229031D02*
X52278Y-4200460D01*
X52278Y-4200460D02*
X42754Y-4152840D01*
X42754Y-4152840D02*
X42754Y-4114745D01*
X42754Y-4114745D02*
X52278Y-4067126D01*
X52278Y-4067126D02*
X61802Y-4038555D01*
X61802Y-4038555D02*
X71325Y-4019507D01*
X71325Y-4019507D02*
X90373Y-3990936D01*
X90373Y-3990936D02*
X99897Y-3981412D01*
X166564Y-4029031D02*
X176087Y-4019507D01*
X176087Y-4019507D02*
X195135Y-4009983D01*
X195135Y-4009983D02*
X242754Y-4009983D01*
X242754Y-4009983D02*
X261802Y-4019507D01*
X261802Y-4019507D02*
X271325Y-4029031D01*
X271325Y-4029031D02*
X280849Y-4048078D01*
X280849Y-4048078D02*
X280849Y-4067126D01*
X280849Y-4067126D02*
X271325Y-4095697D01*
X271325Y-4095697D02*
X157040Y-4209983D01*
X157040Y-4209983D02*
X280849Y-4209983D01*
X357040Y-4029031D02*
X366563Y-4019507D01*
X366563Y-4019507D02*
X385611Y-4009983D01*
X385611Y-4009983D02*
X433230Y-4009983D01*
X433230Y-4009983D02*
X452278Y-4019507D01*
X452278Y-4019507D02*
X461802Y-4029031D01*
X461802Y-4029031D02*
X471325Y-4048078D01*
X471325Y-4048078D02*
X471325Y-4067126D01*
X471325Y-4067126D02*
X461802Y-4095697D01*
X461802Y-4095697D02*
X347516Y-4209983D01*
X347516Y-4209983D02*
X471325Y-4209983D01*
X642754Y-4009983D02*
X604659Y-4009983D01*
X604659Y-4009983D02*
X585611Y-4019507D01*
X585611Y-4019507D02*
X576087Y-4029031D01*
X576087Y-4029031D02*
X557040Y-4057602D01*
X557040Y-4057602D02*
X547516Y-4095697D01*
X547516Y-4095697D02*
X547516Y-4171888D01*
X547516Y-4171888D02*
X557040Y-4190936D01*
X557040Y-4190936D02*
X566564Y-4200460D01*
X566564Y-4200460D02*
X585611Y-4209983D01*
X585611Y-4209983D02*
X623706Y-4209983D01*
X623706Y-4209983D02*
X642754Y-4200460D01*
X642754Y-4200460D02*
X652278Y-4190936D01*
X652278Y-4190936D02*
X661802Y-4171888D01*
X661802Y-4171888D02*
X661802Y-4124269D01*
X661802Y-4124269D02*
X652278Y-4105221D01*
X652278Y-4105221D02*
X642754Y-4095697D01*
X642754Y-4095697D02*
X623706Y-4086174D01*
X623706Y-4086174D02*
X585611Y-4086174D01*
X585611Y-4086174D02*
X566564Y-4095697D01*
X566564Y-4095697D02*
X557040Y-4105221D01*
X557040Y-4105221D02*
X547516Y-4124269D01*
X899897Y-4209983D02*
X899897Y-4009983D01*
X985611Y-4209983D02*
X985611Y-4105221D01*
X985611Y-4105221D02*
X976087Y-4086174D01*
X976087Y-4086174D02*
X957040Y-4076650D01*
X957040Y-4076650D02*
X928468Y-4076650D01*
X928468Y-4076650D02*
X909421Y-4086174D01*
X909421Y-4086174D02*
X899897Y-4095697D01*
X1109421Y-4209983D02*
X1090373Y-4200460D01*
X1090373Y-4200460D02*
X1080849Y-4190936D01*
X1080849Y-4190936D02*
X1071326Y-4171888D01*
X1071326Y-4171888D02*
X1071326Y-4114745D01*
X1071326Y-4114745D02*
X1080849Y-4095697D01*
X1080849Y-4095697D02*
X1090373Y-4086174D01*
X1090373Y-4086174D02*
X1109421Y-4076650D01*
X1109421Y-4076650D02*
X1137992Y-4076650D01*
X1137992Y-4076650D02*
X1157040Y-4086174D01*
X1157040Y-4086174D02*
X1166564Y-4095697D01*
X1166564Y-4095697D02*
X1176087Y-4114745D01*
X1176087Y-4114745D02*
X1176087Y-4171888D01*
X1176087Y-4171888D02*
X1166564Y-4190936D01*
X1166564Y-4190936D02*
X1157040Y-4200460D01*
X1157040Y-4200460D02*
X1137992Y-4209983D01*
X1137992Y-4209983D02*
X1109421Y-4209983D01*
X1290373Y-4209983D02*
X1271326Y-4200460D01*
X1271326Y-4200460D02*
X1261802Y-4181412D01*
X1261802Y-4181412D02*
X1261802Y-4009983D01*
X1442754Y-4200460D02*
X1423706Y-4209983D01*
X1423706Y-4209983D02*
X1385611Y-4209983D01*
X1385611Y-4209983D02*
X1366564Y-4200460D01*
X1366564Y-4200460D02*
X1357040Y-4181412D01*
X1357040Y-4181412D02*
X1357040Y-4105221D01*
X1357040Y-4105221D02*
X1366564Y-4086174D01*
X1366564Y-4086174D02*
X1385611Y-4076650D01*
X1385611Y-4076650D02*
X1423706Y-4076650D01*
X1423706Y-4076650D02*
X1442754Y-4086174D01*
X1442754Y-4086174D02*
X1452278Y-4105221D01*
X1452278Y-4105221D02*
X1452278Y-4124269D01*
X1452278Y-4124269D02*
X1357040Y-4143317D01*
X1528468Y-4200460D02*
X1547516Y-4209983D01*
X1547516Y-4209983D02*
X1585611Y-4209983D01*
X1585611Y-4209983D02*
X1604659Y-4200460D01*
X1604659Y-4200460D02*
X1614183Y-4181412D01*
X1614183Y-4181412D02*
X1614183Y-4171888D01*
X1614183Y-4171888D02*
X1604659Y-4152840D01*
X1604659Y-4152840D02*
X1585611Y-4143317D01*
X1585611Y-4143317D02*
X1557040Y-4143317D01*
X1557040Y-4143317D02*
X1537992Y-4133793D01*
X1537992Y-4133793D02*
X1528468Y-4114745D01*
X1528468Y-4114745D02*
X1528468Y-4105221D01*
X1528468Y-4105221D02*
X1537992Y-4086174D01*
X1537992Y-4086174D02*
X1557040Y-4076650D01*
X1557040Y-4076650D02*
X1585611Y-4076650D01*
X1585611Y-4076650D02*
X1604659Y-4086174D01*
X1680849Y-4286174D02*
X1690373Y-4276650D01*
X1690373Y-4276650D02*
X1709421Y-4248079D01*
X1709421Y-4248079D02*
X1718945Y-4229031D01*
X1718945Y-4229031D02*
X1728468Y-4200460D01*
X1728468Y-4200460D02*
X1737992Y-4152840D01*
X1737992Y-4152840D02*
X1737992Y-4114745D01*
X1737992Y-4114745D02*
X1728468Y-4067126D01*
X1728468Y-4067126D02*
X1718945Y-4038555D01*
X1718945Y-4038555D02*
X1709421Y-4019507D01*
X1709421Y-4019507D02*
X1690373Y-3990936D01*
X1690373Y-3990936D02*
X1680849Y-3981412D01*
D12*
X-3475166Y-4382500D02*
G75*
G02*
X-3530166Y-4382500I-27500J0D01*
G01*
X-3530166Y-4382500D02*
G75*
G02*
X-3475166Y-4382500I27500J0D01*
G01*
D11*
X-3176294Y-4273983D02*
X-3157246Y-4273983D01*
X-3157246Y-4273983D02*
X-3138199Y-4283507D01*
X-3138199Y-4283507D02*
X-3128675Y-4293031D01*
X-3128675Y-4293031D02*
X-3119151Y-4312079D01*
X-3119151Y-4312079D02*
X-3109627Y-4350174D01*
X-3109627Y-4350174D02*
X-3109627Y-4397793D01*
X-3109627Y-4397793D02*
X-3119151Y-4435888D01*
X-3119151Y-4435888D02*
X-3128675Y-4454936D01*
X-3128675Y-4454936D02*
X-3138199Y-4464460D01*
X-3138199Y-4464460D02*
X-3157246Y-4473983D01*
X-3157246Y-4473983D02*
X-3176294Y-4473983D01*
X-3176294Y-4473983D02*
X-3195341Y-4464460D01*
X-3195341Y-4464460D02*
X-3204865Y-4454936D01*
X-3204865Y-4454936D02*
X-3214389Y-4435888D01*
X-3214389Y-4435888D02*
X-3223913Y-4397793D01*
X-3223913Y-4397793D02*
X-3223913Y-4350174D01*
X-3223913Y-4350174D02*
X-3214389Y-4312079D01*
X-3214389Y-4312079D02*
X-3204865Y-4293031D01*
X-3204865Y-4293031D02*
X-3195341Y-4283507D01*
X-3195341Y-4283507D02*
X-3176294Y-4273983D01*
X-3023913Y-4454936D02*
X-3014389Y-4464460D01*
X-3014389Y-4464460D02*
X-3023913Y-4473983D01*
X-3023913Y-4473983D02*
X-3033437Y-4464460D01*
X-3033437Y-4464460D02*
X-3023913Y-4454936D01*
X-3023913Y-4454936D02*
X-3023913Y-4473983D01*
X-2833437Y-4273983D02*
X-2928675Y-4273983D01*
X-2928675Y-4273983D02*
X-2938199Y-4369221D01*
X-2938199Y-4369221D02*
X-2928675Y-4359698D01*
X-2928675Y-4359698D02*
X-2909627Y-4350174D01*
X-2909627Y-4350174D02*
X-2862008Y-4350174D01*
X-2862008Y-4350174D02*
X-2842960Y-4359698D01*
X-2842960Y-4359698D02*
X-2833437Y-4369221D01*
X-2833437Y-4369221D02*
X-2823913Y-4388269D01*
X-2823913Y-4388269D02*
X-2823913Y-4435888D01*
X-2823913Y-4435888D02*
X-2833437Y-4454936D01*
X-2833437Y-4454936D02*
X-2842960Y-4464460D01*
X-2842960Y-4464460D02*
X-2862008Y-4473983D01*
X-2862008Y-4473983D02*
X-2909627Y-4473983D01*
X-2909627Y-4473983D02*
X-2928675Y-4464460D01*
X-2928675Y-4464460D02*
X-2938199Y-4454936D01*
X-2642961Y-4273983D02*
X-2738199Y-4273983D01*
X-2738199Y-4273983D02*
X-2747722Y-4369221D01*
X-2747722Y-4369221D02*
X-2738199Y-4359698D01*
X-2738199Y-4359698D02*
X-2719151Y-4350174D01*
X-2719151Y-4350174D02*
X-2671532Y-4350174D01*
X-2671532Y-4350174D02*
X-2652484Y-4359698D01*
X-2652484Y-4359698D02*
X-2642961Y-4369221D01*
X-2642961Y-4369221D02*
X-2633437Y-4388269D01*
X-2633437Y-4388269D02*
X-2633437Y-4435888D01*
X-2633437Y-4435888D02*
X-2642961Y-4454936D01*
X-2642961Y-4454936D02*
X-2652484Y-4464460D01*
X-2652484Y-4464460D02*
X-2671532Y-4473983D01*
X-2671532Y-4473983D02*
X-2719151Y-4473983D01*
X-2719151Y-4473983D02*
X-2738199Y-4464460D01*
X-2738199Y-4464460D02*
X-2747722Y-4454936D01*
X-2509627Y-4273983D02*
X-2490580Y-4273983D01*
X-2490580Y-4273983D02*
X-2471532Y-4283507D01*
X-2471532Y-4283507D02*
X-2462008Y-4293031D01*
X-2462008Y-4293031D02*
X-2452484Y-4312079D01*
X-2452484Y-4312079D02*
X-2442961Y-4350174D01*
X-2442961Y-4350174D02*
X-2442961Y-4397793D01*
X-2442961Y-4397793D02*
X-2452484Y-4435888D01*
X-2452484Y-4435888D02*
X-2462008Y-4454936D01*
X-2462008Y-4454936D02*
X-2471532Y-4464460D01*
X-2471532Y-4464460D02*
X-2490580Y-4473983D01*
X-2490580Y-4473983D02*
X-2509627Y-4473983D01*
X-2509627Y-4473983D02*
X-2528675Y-4464460D01*
X-2528675Y-4464460D02*
X-2538199Y-4454936D01*
X-2538199Y-4454936D02*
X-2547722Y-4435888D01*
X-2547722Y-4435888D02*
X-2557246Y-4397793D01*
X-2557246Y-4397793D02*
X-2557246Y-4350174D01*
X-2557246Y-4350174D02*
X-2547722Y-4312079D01*
X-2547722Y-4312079D02*
X-2538199Y-4293031D01*
X-2538199Y-4293031D02*
X-2528675Y-4283507D01*
X-2528675Y-4283507D02*
X-2509627Y-4273983D01*
X-2357246Y-4473983D02*
X-2357246Y-4340650D01*
X-2357246Y-4359698D02*
X-2347722Y-4350174D01*
X-2347722Y-4350174D02*
X-2328675Y-4340650D01*
X-2328675Y-4340650D02*
X-2300103Y-4340650D01*
X-2300103Y-4340650D02*
X-2281056Y-4350174D01*
X-2281056Y-4350174D02*
X-2271532Y-4369221D01*
X-2271532Y-4369221D02*
X-2271532Y-4473983D01*
X-2271532Y-4369221D02*
X-2262008Y-4350174D01*
X-2262008Y-4350174D02*
X-2242961Y-4340650D01*
X-2242961Y-4340650D02*
X-2214389Y-4340650D01*
X-2214389Y-4340650D02*
X-2195341Y-4350174D01*
X-2195341Y-4350174D02*
X-2185818Y-4369221D01*
X-2185818Y-4369221D02*
X-2185818Y-4473983D01*
X-2090579Y-4473983D02*
X-2090579Y-4340650D01*
X-2090579Y-4359698D02*
X-2081056Y-4350174D01*
X-2081056Y-4350174D02*
X-2062008Y-4340650D01*
X-2062008Y-4340650D02*
X-2033437Y-4340650D01*
X-2033437Y-4340650D02*
X-2014389Y-4350174D01*
X-2014389Y-4350174D02*
X-2004865Y-4369221D01*
X-2004865Y-4369221D02*
X-2004865Y-4473983D01*
X-2004865Y-4369221D02*
X-1995341Y-4350174D01*
X-1995341Y-4350174D02*
X-1976294Y-4340650D01*
X-1976294Y-4340650D02*
X-1947722Y-4340650D01*
X-1947722Y-4340650D02*
X-1928675Y-4350174D01*
X-1928675Y-4350174D02*
X-1919151Y-4369221D01*
X-1919151Y-4369221D02*
X-1919151Y-4473983D01*
X-1528675Y-4264460D02*
X-1700103Y-4521602D01*
X-1271532Y-4273983D02*
X-1252484Y-4273983D01*
X-1252484Y-4273983D02*
X-1233437Y-4283507D01*
X-1233437Y-4283507D02*
X-1223913Y-4293031D01*
X-1223913Y-4293031D02*
X-1214389Y-4312079D01*
X-1214389Y-4312079D02*
X-1204865Y-4350174D01*
X-1204865Y-4350174D02*
X-1204865Y-4397793D01*
X-1204865Y-4397793D02*
X-1214389Y-4435888D01*
X-1214389Y-4435888D02*
X-1223913Y-4454936D01*
X-1223913Y-4454936D02*
X-1233437Y-4464460D01*
X-1233437Y-4464460D02*
X-1252484Y-4473983D01*
X-1252484Y-4473983D02*
X-1271532Y-4473983D01*
X-1271532Y-4473983D02*
X-1290579Y-4464460D01*
X-1290579Y-4464460D02*
X-1300103Y-4454936D01*
X-1300103Y-4454936D02*
X-1309627Y-4435888D01*
X-1309627Y-4435888D02*
X-1319151Y-4397793D01*
X-1319151Y-4397793D02*
X-1319151Y-4350174D01*
X-1319151Y-4350174D02*
X-1309627Y-4312079D01*
X-1309627Y-4312079D02*
X-1300103Y-4293031D01*
X-1300103Y-4293031D02*
X-1290579Y-4283507D01*
X-1290579Y-4283507D02*
X-1271532Y-4273983D01*
X-1119151Y-4454936D02*
X-1109627Y-4464460D01*
X-1109627Y-4464460D02*
X-1119151Y-4473983D01*
X-1119151Y-4473983D02*
X-1128675Y-4464460D01*
X-1128675Y-4464460D02*
X-1119151Y-4454936D01*
X-1119151Y-4454936D02*
X-1119151Y-4473983D01*
X-985817Y-4273983D02*
X-966770Y-4273983D01*
X-966770Y-4273983D02*
X-947722Y-4283507D01*
X-947722Y-4283507D02*
X-938198Y-4293031D01*
X-938198Y-4293031D02*
X-928675Y-4312079D01*
X-928675Y-4312079D02*
X-919151Y-4350174D01*
X-919151Y-4350174D02*
X-919151Y-4397793D01*
X-919151Y-4397793D02*
X-928675Y-4435888D01*
X-928675Y-4435888D02*
X-938198Y-4454936D01*
X-938198Y-4454936D02*
X-947722Y-4464460D01*
X-947722Y-4464460D02*
X-966770Y-4473983D01*
X-966770Y-4473983D02*
X-985817Y-4473983D01*
X-985817Y-4473983D02*
X-1004865Y-4464460D01*
X-1004865Y-4464460D02*
X-1014389Y-4454936D01*
X-1014389Y-4454936D02*
X-1023913Y-4435888D01*
X-1023913Y-4435888D02*
X-1033436Y-4397793D01*
X-1033436Y-4397793D02*
X-1033436Y-4350174D01*
X-1033436Y-4350174D02*
X-1023913Y-4312079D01*
X-1023913Y-4312079D02*
X-1014389Y-4293031D01*
X-1014389Y-4293031D02*
X-1004865Y-4283507D01*
X-1004865Y-4283507D02*
X-985817Y-4273983D01*
X-842960Y-4293031D02*
X-833436Y-4283507D01*
X-833436Y-4283507D02*
X-814389Y-4273983D01*
X-814389Y-4273983D02*
X-766770Y-4273983D01*
X-766770Y-4273983D02*
X-747722Y-4283507D01*
X-747722Y-4283507D02*
X-738198Y-4293031D01*
X-738198Y-4293031D02*
X-728675Y-4312079D01*
X-728675Y-4312079D02*
X-728675Y-4331126D01*
X-728675Y-4331126D02*
X-738198Y-4359698D01*
X-738198Y-4359698D02*
X-852484Y-4473983D01*
X-852484Y-4473983D02*
X-728675Y-4473983D01*
X-538198Y-4473983D02*
X-652484Y-4473983D01*
X-595341Y-4473983D02*
X-595341Y-4273983D01*
X-595341Y-4273983D02*
X-614389Y-4302555D01*
X-614389Y-4302555D02*
X-633437Y-4321602D01*
X-633437Y-4321602D02*
X-652484Y-4331126D01*
X-471532Y-4273983D02*
X-338198Y-4273983D01*
X-338198Y-4273983D02*
X-423913Y-4473983D01*
X-271532Y-4273983D02*
X-271532Y-4312079D01*
X-195341Y-4273983D02*
X-195341Y-4312079D01*
X99897Y-4550174D02*
X90373Y-4540650D01*
X90373Y-4540650D02*
X71325Y-4512079D01*
X71325Y-4512079D02*
X61802Y-4493031D01*
X61802Y-4493031D02*
X52278Y-4464460D01*
X52278Y-4464460D02*
X42754Y-4416840D01*
X42754Y-4416840D02*
X42754Y-4378745D01*
X42754Y-4378745D02*
X52278Y-4331126D01*
X52278Y-4331126D02*
X61802Y-4302555D01*
X61802Y-4302555D02*
X71325Y-4283507D01*
X71325Y-4283507D02*
X90373Y-4254936D01*
X90373Y-4254936D02*
X99897Y-4245412D01*
X214182Y-4273983D02*
X233230Y-4273983D01*
X233230Y-4273983D02*
X252278Y-4283507D01*
X252278Y-4283507D02*
X261802Y-4293031D01*
X261802Y-4293031D02*
X271325Y-4312079D01*
X271325Y-4312079D02*
X280849Y-4350174D01*
X280849Y-4350174D02*
X280849Y-4397793D01*
X280849Y-4397793D02*
X271325Y-4435888D01*
X271325Y-4435888D02*
X261802Y-4454936D01*
X261802Y-4454936D02*
X252278Y-4464460D01*
X252278Y-4464460D02*
X233230Y-4473983D01*
X233230Y-4473983D02*
X214182Y-4473983D01*
X214182Y-4473983D02*
X195135Y-4464460D01*
X195135Y-4464460D02*
X185611Y-4454936D01*
X185611Y-4454936D02*
X176087Y-4435888D01*
X176087Y-4435888D02*
X166564Y-4397793D01*
X166564Y-4397793D02*
X166564Y-4350174D01*
X166564Y-4350174D02*
X176087Y-4312079D01*
X176087Y-4312079D02*
X185611Y-4293031D01*
X185611Y-4293031D02*
X195135Y-4283507D01*
X195135Y-4283507D02*
X214182Y-4273983D01*
X518944Y-4473983D02*
X518944Y-4273983D01*
X604659Y-4473983D02*
X604659Y-4369221D01*
X604659Y-4369221D02*
X595135Y-4350174D01*
X595135Y-4350174D02*
X576087Y-4340650D01*
X576087Y-4340650D02*
X547516Y-4340650D01*
X547516Y-4340650D02*
X528468Y-4350174D01*
X528468Y-4350174D02*
X518944Y-4359698D01*
X728468Y-4473983D02*
X709421Y-4464460D01*
X709421Y-4464460D02*
X699897Y-4454936D01*
X699897Y-4454936D02*
X690373Y-4435888D01*
X690373Y-4435888D02*
X690373Y-4378745D01*
X690373Y-4378745D02*
X699897Y-4359698D01*
X699897Y-4359698D02*
X709421Y-4350174D01*
X709421Y-4350174D02*
X728468Y-4340650D01*
X728468Y-4340650D02*
X757040Y-4340650D01*
X757040Y-4340650D02*
X776087Y-4350174D01*
X776087Y-4350174D02*
X785611Y-4359698D01*
X785611Y-4359698D02*
X795135Y-4378745D01*
X795135Y-4378745D02*
X795135Y-4435888D01*
X795135Y-4435888D02*
X785611Y-4454936D01*
X785611Y-4454936D02*
X776087Y-4464460D01*
X776087Y-4464460D02*
X757040Y-4473983D01*
X757040Y-4473983D02*
X728468Y-4473983D01*
X909421Y-4473983D02*
X890373Y-4464460D01*
X890373Y-4464460D02*
X880849Y-4445412D01*
X880849Y-4445412D02*
X880849Y-4273983D01*
X1061802Y-4464460D02*
X1042754Y-4473983D01*
X1042754Y-4473983D02*
X1004659Y-4473983D01*
X1004659Y-4473983D02*
X985611Y-4464460D01*
X985611Y-4464460D02*
X976087Y-4445412D01*
X976087Y-4445412D02*
X976087Y-4369221D01*
X976087Y-4369221D02*
X985611Y-4350174D01*
X985611Y-4350174D02*
X1004659Y-4340650D01*
X1004659Y-4340650D02*
X1042754Y-4340650D01*
X1042754Y-4340650D02*
X1061802Y-4350174D01*
X1061802Y-4350174D02*
X1071326Y-4369221D01*
X1071326Y-4369221D02*
X1071326Y-4388269D01*
X1071326Y-4388269D02*
X976087Y-4407317D01*
X1147516Y-4464460D02*
X1166564Y-4473983D01*
X1166564Y-4473983D02*
X1204659Y-4473983D01*
X1204659Y-4473983D02*
X1223707Y-4464460D01*
X1223707Y-4464460D02*
X1233230Y-4445412D01*
X1233230Y-4445412D02*
X1233230Y-4435888D01*
X1233230Y-4435888D02*
X1223707Y-4416840D01*
X1223707Y-4416840D02*
X1204659Y-4407317D01*
X1204659Y-4407317D02*
X1176087Y-4407317D01*
X1176087Y-4407317D02*
X1157040Y-4397793D01*
X1157040Y-4397793D02*
X1147516Y-4378745D01*
X1147516Y-4378745D02*
X1147516Y-4369221D01*
X1147516Y-4369221D02*
X1157040Y-4350174D01*
X1157040Y-4350174D02*
X1176087Y-4340650D01*
X1176087Y-4340650D02*
X1204659Y-4340650D01*
X1204659Y-4340650D02*
X1223707Y-4350174D01*
X1471326Y-4397793D02*
X1623707Y-4397793D01*
X1547516Y-4473983D02*
X1547516Y-4321602D01*
X1861802Y-4293031D02*
X1871326Y-4283507D01*
X1871326Y-4283507D02*
X1890373Y-4273983D01*
X1890373Y-4273983D02*
X1937992Y-4273983D01*
X1937992Y-4273983D02*
X1957040Y-4283507D01*
X1957040Y-4283507D02*
X1966564Y-4293031D01*
X1966564Y-4293031D02*
X1976087Y-4312079D01*
X1976087Y-4312079D02*
X1976087Y-4331126D01*
X1976087Y-4331126D02*
X1966564Y-4359698D01*
X1966564Y-4359698D02*
X1852278Y-4473983D01*
X1852278Y-4473983D02*
X1976087Y-4473983D01*
X2204659Y-4464460D02*
X2223707Y-4473983D01*
X2223707Y-4473983D02*
X2261802Y-4473983D01*
X2261802Y-4473983D02*
X2280850Y-4464460D01*
X2280850Y-4464460D02*
X2290373Y-4445412D01*
X2290373Y-4445412D02*
X2290373Y-4435888D01*
X2290373Y-4435888D02*
X2280850Y-4416840D01*
X2280850Y-4416840D02*
X2261802Y-4407317D01*
X2261802Y-4407317D02*
X2233230Y-4407317D01*
X2233230Y-4407317D02*
X2214183Y-4397793D01*
X2214183Y-4397793D02*
X2204659Y-4378745D01*
X2204659Y-4378745D02*
X2204659Y-4369221D01*
X2204659Y-4369221D02*
X2214183Y-4350174D01*
X2214183Y-4350174D02*
X2233230Y-4340650D01*
X2233230Y-4340650D02*
X2261802Y-4340650D01*
X2261802Y-4340650D02*
X2280850Y-4350174D01*
X2404659Y-4473983D02*
X2385611Y-4464460D01*
X2385611Y-4464460D02*
X2376088Y-4445412D01*
X2376088Y-4445412D02*
X2376088Y-4273983D01*
X2509421Y-4473983D02*
X2490373Y-4464460D01*
X2490373Y-4464460D02*
X2480850Y-4454936D01*
X2480850Y-4454936D02*
X2471326Y-4435888D01*
X2471326Y-4435888D02*
X2471326Y-4378745D01*
X2471326Y-4378745D02*
X2480850Y-4359698D01*
X2480850Y-4359698D02*
X2490373Y-4350174D01*
X2490373Y-4350174D02*
X2509421Y-4340650D01*
X2509421Y-4340650D02*
X2537992Y-4340650D01*
X2537992Y-4340650D02*
X2557040Y-4350174D01*
X2557040Y-4350174D02*
X2566564Y-4359698D01*
X2566564Y-4359698D02*
X2576088Y-4378745D01*
X2576088Y-4378745D02*
X2576088Y-4435888D01*
X2576088Y-4435888D02*
X2566564Y-4454936D01*
X2566564Y-4454936D02*
X2557040Y-4464460D01*
X2557040Y-4464460D02*
X2537992Y-4473983D01*
X2537992Y-4473983D02*
X2509421Y-4473983D01*
X2633231Y-4340650D02*
X2709421Y-4340650D01*
X2661802Y-4273983D02*
X2661802Y-4445412D01*
X2661802Y-4445412D02*
X2671326Y-4464460D01*
X2671326Y-4464460D02*
X2690373Y-4473983D01*
X2690373Y-4473983D02*
X2709421Y-4473983D01*
X2766564Y-4464460D02*
X2785611Y-4473983D01*
X2785611Y-4473983D02*
X2823707Y-4473983D01*
X2823707Y-4473983D02*
X2842754Y-4464460D01*
X2842754Y-4464460D02*
X2852278Y-4445412D01*
X2852278Y-4445412D02*
X2852278Y-4435888D01*
X2852278Y-4435888D02*
X2842754Y-4416840D01*
X2842754Y-4416840D02*
X2823707Y-4407317D01*
X2823707Y-4407317D02*
X2795135Y-4407317D01*
X2795135Y-4407317D02*
X2776088Y-4397793D01*
X2776088Y-4397793D02*
X2766564Y-4378745D01*
X2766564Y-4378745D02*
X2766564Y-4369221D01*
X2766564Y-4369221D02*
X2776088Y-4350174D01*
X2776088Y-4350174D02*
X2795135Y-4340650D01*
X2795135Y-4340650D02*
X2823707Y-4340650D01*
X2823707Y-4340650D02*
X2842754Y-4350174D01*
X2918945Y-4550174D02*
X2928469Y-4540650D01*
X2928469Y-4540650D02*
X2947516Y-4512079D01*
X2947516Y-4512079D02*
X2957040Y-4493031D01*
X2957040Y-4493031D02*
X2966564Y-4464460D01*
X2966564Y-4464460D02*
X2976088Y-4416840D01*
X2976088Y-4416840D02*
X2976088Y-4378745D01*
X2976088Y-4378745D02*
X2966564Y-4331126D01*
X2966564Y-4331126D02*
X2957040Y-4302555D01*
X2957040Y-4302555D02*
X2947516Y-4283507D01*
X2947516Y-4283507D02*
X2928469Y-4254936D01*
X2928469Y-4254936D02*
X2918945Y-4245412D01*
D12*
X-3517666Y-4604000D02*
X-3517666Y-4689000D01*
X-3560166Y-4646500D02*
X-3475166Y-4646500D01*
D11*
X-3176294Y-4537983D02*
X-3157246Y-4537983D01*
X-3157246Y-4537983D02*
X-3138199Y-4547507D01*
X-3138199Y-4547507D02*
X-3128675Y-4557031D01*
X-3128675Y-4557031D02*
X-3119151Y-4576079D01*
X-3119151Y-4576079D02*
X-3109627Y-4614174D01*
X-3109627Y-4614174D02*
X-3109627Y-4661793D01*
X-3109627Y-4661793D02*
X-3119151Y-4699888D01*
X-3119151Y-4699888D02*
X-3128675Y-4718936D01*
X-3128675Y-4718936D02*
X-3138199Y-4728460D01*
X-3138199Y-4728460D02*
X-3157246Y-4737983D01*
X-3157246Y-4737983D02*
X-3176294Y-4737983D01*
X-3176294Y-4737983D02*
X-3195341Y-4728460D01*
X-3195341Y-4728460D02*
X-3204865Y-4718936D01*
X-3204865Y-4718936D02*
X-3214389Y-4699888D01*
X-3214389Y-4699888D02*
X-3223913Y-4661793D01*
X-3223913Y-4661793D02*
X-3223913Y-4614174D01*
X-3223913Y-4614174D02*
X-3214389Y-4576079D01*
X-3214389Y-4576079D02*
X-3204865Y-4557031D01*
X-3204865Y-4557031D02*
X-3195341Y-4547507D01*
X-3195341Y-4547507D02*
X-3176294Y-4537983D01*
X-3023913Y-4718936D02*
X-3014389Y-4728460D01*
X-3014389Y-4728460D02*
X-3023913Y-4737983D01*
X-3023913Y-4737983D02*
X-3033437Y-4728460D01*
X-3033437Y-4728460D02*
X-3023913Y-4718936D01*
X-3023913Y-4718936D02*
X-3023913Y-4737983D01*
X-2900103Y-4623698D02*
X-2919151Y-4614174D01*
X-2919151Y-4614174D02*
X-2928675Y-4604650D01*
X-2928675Y-4604650D02*
X-2938199Y-4585602D01*
X-2938199Y-4585602D02*
X-2938199Y-4576079D01*
X-2938199Y-4576079D02*
X-2928675Y-4557031D01*
X-2928675Y-4557031D02*
X-2919151Y-4547507D01*
X-2919151Y-4547507D02*
X-2900103Y-4537983D01*
X-2900103Y-4537983D02*
X-2862008Y-4537983D01*
X-2862008Y-4537983D02*
X-2842960Y-4547507D01*
X-2842960Y-4547507D02*
X-2833437Y-4557031D01*
X-2833437Y-4557031D02*
X-2823913Y-4576079D01*
X-2823913Y-4576079D02*
X-2823913Y-4585602D01*
X-2823913Y-4585602D02*
X-2833437Y-4604650D01*
X-2833437Y-4604650D02*
X-2842960Y-4614174D01*
X-2842960Y-4614174D02*
X-2862008Y-4623698D01*
X-2862008Y-4623698D02*
X-2900103Y-4623698D01*
X-2900103Y-4623698D02*
X-2919151Y-4633221D01*
X-2919151Y-4633221D02*
X-2928675Y-4642745D01*
X-2928675Y-4642745D02*
X-2938199Y-4661793D01*
X-2938199Y-4661793D02*
X-2938199Y-4699888D01*
X-2938199Y-4699888D02*
X-2928675Y-4718936D01*
X-2928675Y-4718936D02*
X-2919151Y-4728460D01*
X-2919151Y-4728460D02*
X-2900103Y-4737983D01*
X-2900103Y-4737983D02*
X-2862008Y-4737983D01*
X-2862008Y-4737983D02*
X-2842960Y-4728460D01*
X-2842960Y-4728460D02*
X-2833437Y-4718936D01*
X-2833437Y-4718936D02*
X-2823913Y-4699888D01*
X-2823913Y-4699888D02*
X-2823913Y-4661793D01*
X-2823913Y-4661793D02*
X-2833437Y-4642745D01*
X-2833437Y-4642745D02*
X-2842960Y-4633221D01*
X-2842960Y-4633221D02*
X-2862008Y-4623698D01*
X-2642961Y-4537983D02*
X-2738199Y-4537983D01*
X-2738199Y-4537983D02*
X-2747722Y-4633221D01*
X-2747722Y-4633221D02*
X-2738199Y-4623698D01*
X-2738199Y-4623698D02*
X-2719151Y-4614174D01*
X-2719151Y-4614174D02*
X-2671532Y-4614174D01*
X-2671532Y-4614174D02*
X-2652484Y-4623698D01*
X-2652484Y-4623698D02*
X-2642961Y-4633221D01*
X-2642961Y-4633221D02*
X-2633437Y-4652269D01*
X-2633437Y-4652269D02*
X-2633437Y-4699888D01*
X-2633437Y-4699888D02*
X-2642961Y-4718936D01*
X-2642961Y-4718936D02*
X-2652484Y-4728460D01*
X-2652484Y-4728460D02*
X-2671532Y-4737983D01*
X-2671532Y-4737983D02*
X-2719151Y-4737983D01*
X-2719151Y-4737983D02*
X-2738199Y-4728460D01*
X-2738199Y-4728460D02*
X-2747722Y-4718936D01*
X-2509627Y-4537983D02*
X-2490580Y-4537983D01*
X-2490580Y-4537983D02*
X-2471532Y-4547507D01*
X-2471532Y-4547507D02*
X-2462008Y-4557031D01*
X-2462008Y-4557031D02*
X-2452484Y-4576079D01*
X-2452484Y-4576079D02*
X-2442961Y-4614174D01*
X-2442961Y-4614174D02*
X-2442961Y-4661793D01*
X-2442961Y-4661793D02*
X-2452484Y-4699888D01*
X-2452484Y-4699888D02*
X-2462008Y-4718936D01*
X-2462008Y-4718936D02*
X-2471532Y-4728460D01*
X-2471532Y-4728460D02*
X-2490580Y-4737983D01*
X-2490580Y-4737983D02*
X-2509627Y-4737983D01*
X-2509627Y-4737983D02*
X-2528675Y-4728460D01*
X-2528675Y-4728460D02*
X-2538199Y-4718936D01*
X-2538199Y-4718936D02*
X-2547722Y-4699888D01*
X-2547722Y-4699888D02*
X-2557246Y-4661793D01*
X-2557246Y-4661793D02*
X-2557246Y-4614174D01*
X-2557246Y-4614174D02*
X-2547722Y-4576079D01*
X-2547722Y-4576079D02*
X-2538199Y-4557031D01*
X-2538199Y-4557031D02*
X-2528675Y-4547507D01*
X-2528675Y-4547507D02*
X-2509627Y-4537983D01*
X-2357246Y-4737983D02*
X-2357246Y-4604650D01*
X-2357246Y-4623698D02*
X-2347722Y-4614174D01*
X-2347722Y-4614174D02*
X-2328675Y-4604650D01*
X-2328675Y-4604650D02*
X-2300103Y-4604650D01*
X-2300103Y-4604650D02*
X-2281056Y-4614174D01*
X-2281056Y-4614174D02*
X-2271532Y-4633221D01*
X-2271532Y-4633221D02*
X-2271532Y-4737983D01*
X-2271532Y-4633221D02*
X-2262008Y-4614174D01*
X-2262008Y-4614174D02*
X-2242961Y-4604650D01*
X-2242961Y-4604650D02*
X-2214389Y-4604650D01*
X-2214389Y-4604650D02*
X-2195341Y-4614174D01*
X-2195341Y-4614174D02*
X-2185818Y-4633221D01*
X-2185818Y-4633221D02*
X-2185818Y-4737983D01*
X-2090579Y-4737983D02*
X-2090579Y-4604650D01*
X-2090579Y-4623698D02*
X-2081056Y-4614174D01*
X-2081056Y-4614174D02*
X-2062008Y-4604650D01*
X-2062008Y-4604650D02*
X-2033437Y-4604650D01*
X-2033437Y-4604650D02*
X-2014389Y-4614174D01*
X-2014389Y-4614174D02*
X-2004865Y-4633221D01*
X-2004865Y-4633221D02*
X-2004865Y-4737983D01*
X-2004865Y-4633221D02*
X-1995341Y-4614174D01*
X-1995341Y-4614174D02*
X-1976294Y-4604650D01*
X-1976294Y-4604650D02*
X-1947722Y-4604650D01*
X-1947722Y-4604650D02*
X-1928675Y-4614174D01*
X-1928675Y-4614174D02*
X-1919151Y-4633221D01*
X-1919151Y-4633221D02*
X-1919151Y-4737983D01*
X-1528675Y-4528460D02*
X-1700103Y-4785602D01*
X-1271532Y-4537983D02*
X-1252484Y-4537983D01*
X-1252484Y-4537983D02*
X-1233437Y-4547507D01*
X-1233437Y-4547507D02*
X-1223913Y-4557031D01*
X-1223913Y-4557031D02*
X-1214389Y-4576079D01*
X-1214389Y-4576079D02*
X-1204865Y-4614174D01*
X-1204865Y-4614174D02*
X-1204865Y-4661793D01*
X-1204865Y-4661793D02*
X-1214389Y-4699888D01*
X-1214389Y-4699888D02*
X-1223913Y-4718936D01*
X-1223913Y-4718936D02*
X-1233437Y-4728460D01*
X-1233437Y-4728460D02*
X-1252484Y-4737983D01*
X-1252484Y-4737983D02*
X-1271532Y-4737983D01*
X-1271532Y-4737983D02*
X-1290579Y-4728460D01*
X-1290579Y-4728460D02*
X-1300103Y-4718936D01*
X-1300103Y-4718936D02*
X-1309627Y-4699888D01*
X-1309627Y-4699888D02*
X-1319151Y-4661793D01*
X-1319151Y-4661793D02*
X-1319151Y-4614174D01*
X-1319151Y-4614174D02*
X-1309627Y-4576079D01*
X-1309627Y-4576079D02*
X-1300103Y-4557031D01*
X-1300103Y-4557031D02*
X-1290579Y-4547507D01*
X-1290579Y-4547507D02*
X-1271532Y-4537983D01*
X-1119151Y-4718936D02*
X-1109627Y-4728460D01*
X-1109627Y-4728460D02*
X-1119151Y-4737983D01*
X-1119151Y-4737983D02*
X-1128675Y-4728460D01*
X-1128675Y-4728460D02*
X-1119151Y-4718936D01*
X-1119151Y-4718936D02*
X-1119151Y-4737983D01*
X-985817Y-4537983D02*
X-966770Y-4537983D01*
X-966770Y-4537983D02*
X-947722Y-4547507D01*
X-947722Y-4547507D02*
X-938198Y-4557031D01*
X-938198Y-4557031D02*
X-928675Y-4576079D01*
X-928675Y-4576079D02*
X-919151Y-4614174D01*
X-919151Y-4614174D02*
X-919151Y-4661793D01*
X-919151Y-4661793D02*
X-928675Y-4699888D01*
X-928675Y-4699888D02*
X-938198Y-4718936D01*
X-938198Y-4718936D02*
X-947722Y-4728460D01*
X-947722Y-4728460D02*
X-966770Y-4737983D01*
X-966770Y-4737983D02*
X-985817Y-4737983D01*
X-985817Y-4737983D02*
X-1004865Y-4728460D01*
X-1004865Y-4728460D02*
X-1014389Y-4718936D01*
X-1014389Y-4718936D02*
X-1023913Y-4699888D01*
X-1023913Y-4699888D02*
X-1033436Y-4661793D01*
X-1033436Y-4661793D02*
X-1033436Y-4614174D01*
X-1033436Y-4614174D02*
X-1023913Y-4576079D01*
X-1023913Y-4576079D02*
X-1014389Y-4557031D01*
X-1014389Y-4557031D02*
X-1004865Y-4547507D01*
X-1004865Y-4547507D02*
X-985817Y-4537983D01*
X-852484Y-4537983D02*
X-728675Y-4537983D01*
X-728675Y-4537983D02*
X-795341Y-4614174D01*
X-795341Y-4614174D02*
X-766770Y-4614174D01*
X-766770Y-4614174D02*
X-747722Y-4623698D01*
X-747722Y-4623698D02*
X-738198Y-4633221D01*
X-738198Y-4633221D02*
X-728675Y-4652269D01*
X-728675Y-4652269D02*
X-728675Y-4699888D01*
X-728675Y-4699888D02*
X-738198Y-4718936D01*
X-738198Y-4718936D02*
X-747722Y-4728460D01*
X-747722Y-4728460D02*
X-766770Y-4737983D01*
X-766770Y-4737983D02*
X-823913Y-4737983D01*
X-823913Y-4737983D02*
X-842960Y-4728460D01*
X-842960Y-4728460D02*
X-852484Y-4718936D01*
X-662008Y-4537983D02*
X-538198Y-4537983D01*
X-538198Y-4537983D02*
X-604865Y-4614174D01*
X-604865Y-4614174D02*
X-576294Y-4614174D01*
X-576294Y-4614174D02*
X-557246Y-4623698D01*
X-557246Y-4623698D02*
X-547722Y-4633221D01*
X-547722Y-4633221D02*
X-538198Y-4652269D01*
X-538198Y-4652269D02*
X-538198Y-4699888D01*
X-538198Y-4699888D02*
X-547722Y-4718936D01*
X-547722Y-4718936D02*
X-557246Y-4728460D01*
X-557246Y-4728460D02*
X-576294Y-4737983D01*
X-576294Y-4737983D02*
X-633437Y-4737983D01*
X-633437Y-4737983D02*
X-652484Y-4728460D01*
X-652484Y-4728460D02*
X-662008Y-4718936D01*
X-357246Y-4537983D02*
X-452484Y-4537983D01*
X-452484Y-4537983D02*
X-462008Y-4633221D01*
X-462008Y-4633221D02*
X-452484Y-4623698D01*
X-452484Y-4623698D02*
X-433436Y-4614174D01*
X-433436Y-4614174D02*
X-385817Y-4614174D01*
X-385817Y-4614174D02*
X-366770Y-4623698D01*
X-366770Y-4623698D02*
X-357246Y-4633221D01*
X-357246Y-4633221D02*
X-347722Y-4652269D01*
X-347722Y-4652269D02*
X-347722Y-4699888D01*
X-347722Y-4699888D02*
X-357246Y-4718936D01*
X-357246Y-4718936D02*
X-366770Y-4728460D01*
X-366770Y-4728460D02*
X-385817Y-4737983D01*
X-385817Y-4737983D02*
X-433436Y-4737983D01*
X-433436Y-4737983D02*
X-452484Y-4728460D01*
X-452484Y-4728460D02*
X-462008Y-4718936D01*
X-271532Y-4537983D02*
X-271532Y-4576079D01*
X-195341Y-4537983D02*
X-195341Y-4576079D01*
X99897Y-4814174D02*
X90373Y-4804650D01*
X90373Y-4804650D02*
X71325Y-4776079D01*
X71325Y-4776079D02*
X61802Y-4757031D01*
X61802Y-4757031D02*
X52278Y-4728460D01*
X52278Y-4728460D02*
X42754Y-4680840D01*
X42754Y-4680840D02*
X42754Y-4642745D01*
X42754Y-4642745D02*
X52278Y-4595126D01*
X52278Y-4595126D02*
X61802Y-4566555D01*
X61802Y-4566555D02*
X71325Y-4547507D01*
X71325Y-4547507D02*
X90373Y-4518936D01*
X90373Y-4518936D02*
X99897Y-4509412D01*
X214182Y-4537983D02*
X233230Y-4537983D01*
X233230Y-4537983D02*
X252278Y-4547507D01*
X252278Y-4547507D02*
X261802Y-4557031D01*
X261802Y-4557031D02*
X271325Y-4576079D01*
X271325Y-4576079D02*
X280849Y-4614174D01*
X280849Y-4614174D02*
X280849Y-4661793D01*
X280849Y-4661793D02*
X271325Y-4699888D01*
X271325Y-4699888D02*
X261802Y-4718936D01*
X261802Y-4718936D02*
X252278Y-4728460D01*
X252278Y-4728460D02*
X233230Y-4737983D01*
X233230Y-4737983D02*
X214182Y-4737983D01*
X214182Y-4737983D02*
X195135Y-4728460D01*
X195135Y-4728460D02*
X185611Y-4718936D01*
X185611Y-4718936D02*
X176087Y-4699888D01*
X176087Y-4699888D02*
X166564Y-4661793D01*
X166564Y-4661793D02*
X166564Y-4614174D01*
X166564Y-4614174D02*
X176087Y-4576079D01*
X176087Y-4576079D02*
X185611Y-4557031D01*
X185611Y-4557031D02*
X195135Y-4547507D01*
X195135Y-4547507D02*
X214182Y-4537983D01*
X518944Y-4737983D02*
X518944Y-4537983D01*
X604659Y-4737983D02*
X604659Y-4633221D01*
X604659Y-4633221D02*
X595135Y-4614174D01*
X595135Y-4614174D02*
X576087Y-4604650D01*
X576087Y-4604650D02*
X547516Y-4604650D01*
X547516Y-4604650D02*
X528468Y-4614174D01*
X528468Y-4614174D02*
X518944Y-4623698D01*
X728468Y-4737983D02*
X709421Y-4728460D01*
X709421Y-4728460D02*
X699897Y-4718936D01*
X699897Y-4718936D02*
X690373Y-4699888D01*
X690373Y-4699888D02*
X690373Y-4642745D01*
X690373Y-4642745D02*
X699897Y-4623698D01*
X699897Y-4623698D02*
X709421Y-4614174D01*
X709421Y-4614174D02*
X728468Y-4604650D01*
X728468Y-4604650D02*
X757040Y-4604650D01*
X757040Y-4604650D02*
X776087Y-4614174D01*
X776087Y-4614174D02*
X785611Y-4623698D01*
X785611Y-4623698D02*
X795135Y-4642745D01*
X795135Y-4642745D02*
X795135Y-4699888D01*
X795135Y-4699888D02*
X785611Y-4718936D01*
X785611Y-4718936D02*
X776087Y-4728460D01*
X776087Y-4728460D02*
X757040Y-4737983D01*
X757040Y-4737983D02*
X728468Y-4737983D01*
X909421Y-4737983D02*
X890373Y-4728460D01*
X890373Y-4728460D02*
X880849Y-4709412D01*
X880849Y-4709412D02*
X880849Y-4537983D01*
X1061802Y-4728460D02*
X1042754Y-4737983D01*
X1042754Y-4737983D02*
X1004659Y-4737983D01*
X1004659Y-4737983D02*
X985611Y-4728460D01*
X985611Y-4728460D02*
X976087Y-4709412D01*
X976087Y-4709412D02*
X976087Y-4633221D01*
X976087Y-4633221D02*
X985611Y-4614174D01*
X985611Y-4614174D02*
X1004659Y-4604650D01*
X1004659Y-4604650D02*
X1042754Y-4604650D01*
X1042754Y-4604650D02*
X1061802Y-4614174D01*
X1061802Y-4614174D02*
X1071326Y-4633221D01*
X1071326Y-4633221D02*
X1071326Y-4652269D01*
X1071326Y-4652269D02*
X976087Y-4671317D01*
X1147516Y-4728460D02*
X1166564Y-4737983D01*
X1166564Y-4737983D02*
X1204659Y-4737983D01*
X1204659Y-4737983D02*
X1223707Y-4728460D01*
X1223707Y-4728460D02*
X1233230Y-4709412D01*
X1233230Y-4709412D02*
X1233230Y-4699888D01*
X1233230Y-4699888D02*
X1223707Y-4680840D01*
X1223707Y-4680840D02*
X1204659Y-4671317D01*
X1204659Y-4671317D02*
X1176087Y-4671317D01*
X1176087Y-4671317D02*
X1157040Y-4661793D01*
X1157040Y-4661793D02*
X1147516Y-4642745D01*
X1147516Y-4642745D02*
X1147516Y-4633221D01*
X1147516Y-4633221D02*
X1157040Y-4614174D01*
X1157040Y-4614174D02*
X1176087Y-4604650D01*
X1176087Y-4604650D02*
X1204659Y-4604650D01*
X1204659Y-4604650D02*
X1223707Y-4614174D01*
X1471326Y-4661793D02*
X1623707Y-4661793D01*
X1547516Y-4737983D02*
X1547516Y-4585602D01*
X1861802Y-4557031D02*
X1871326Y-4547507D01*
X1871326Y-4547507D02*
X1890373Y-4537983D01*
X1890373Y-4537983D02*
X1937992Y-4537983D01*
X1937992Y-4537983D02*
X1957040Y-4547507D01*
X1957040Y-4547507D02*
X1966564Y-4557031D01*
X1966564Y-4557031D02*
X1976087Y-4576079D01*
X1976087Y-4576079D02*
X1976087Y-4595126D01*
X1976087Y-4595126D02*
X1966564Y-4623698D01*
X1966564Y-4623698D02*
X1852278Y-4737983D01*
X1852278Y-4737983D02*
X1976087Y-4737983D01*
X2204659Y-4728460D02*
X2223707Y-4737983D01*
X2223707Y-4737983D02*
X2261802Y-4737983D01*
X2261802Y-4737983D02*
X2280850Y-4728460D01*
X2280850Y-4728460D02*
X2290373Y-4709412D01*
X2290373Y-4709412D02*
X2290373Y-4699888D01*
X2290373Y-4699888D02*
X2280850Y-4680840D01*
X2280850Y-4680840D02*
X2261802Y-4671317D01*
X2261802Y-4671317D02*
X2233230Y-4671317D01*
X2233230Y-4671317D02*
X2214183Y-4661793D01*
X2214183Y-4661793D02*
X2204659Y-4642745D01*
X2204659Y-4642745D02*
X2204659Y-4633221D01*
X2204659Y-4633221D02*
X2214183Y-4614174D01*
X2214183Y-4614174D02*
X2233230Y-4604650D01*
X2233230Y-4604650D02*
X2261802Y-4604650D01*
X2261802Y-4604650D02*
X2280850Y-4614174D01*
X2404659Y-4737983D02*
X2385611Y-4728460D01*
X2385611Y-4728460D02*
X2376088Y-4709412D01*
X2376088Y-4709412D02*
X2376088Y-4537983D01*
X2509421Y-4737983D02*
X2490373Y-4728460D01*
X2490373Y-4728460D02*
X2480850Y-4718936D01*
X2480850Y-4718936D02*
X2471326Y-4699888D01*
X2471326Y-4699888D02*
X2471326Y-4642745D01*
X2471326Y-4642745D02*
X2480850Y-4623698D01*
X2480850Y-4623698D02*
X2490373Y-4614174D01*
X2490373Y-4614174D02*
X2509421Y-4604650D01*
X2509421Y-4604650D02*
X2537992Y-4604650D01*
X2537992Y-4604650D02*
X2557040Y-4614174D01*
X2557040Y-4614174D02*
X2566564Y-4623698D01*
X2566564Y-4623698D02*
X2576088Y-4642745D01*
X2576088Y-4642745D02*
X2576088Y-4699888D01*
X2576088Y-4699888D02*
X2566564Y-4718936D01*
X2566564Y-4718936D02*
X2557040Y-4728460D01*
X2557040Y-4728460D02*
X2537992Y-4737983D01*
X2537992Y-4737983D02*
X2509421Y-4737983D01*
X2633231Y-4604650D02*
X2709421Y-4604650D01*
X2661802Y-4537983D02*
X2661802Y-4709412D01*
X2661802Y-4709412D02*
X2671326Y-4728460D01*
X2671326Y-4728460D02*
X2690373Y-4737983D01*
X2690373Y-4737983D02*
X2709421Y-4737983D01*
X2766564Y-4728460D02*
X2785611Y-4737983D01*
X2785611Y-4737983D02*
X2823707Y-4737983D01*
X2823707Y-4737983D02*
X2842754Y-4728460D01*
X2842754Y-4728460D02*
X2852278Y-4709412D01*
X2852278Y-4709412D02*
X2852278Y-4699888D01*
X2852278Y-4699888D02*
X2842754Y-4680840D01*
X2842754Y-4680840D02*
X2823707Y-4671317D01*
X2823707Y-4671317D02*
X2795135Y-4671317D01*
X2795135Y-4671317D02*
X2776088Y-4661793D01*
X2776088Y-4661793D02*
X2766564Y-4642745D01*
X2766564Y-4642745D02*
X2766564Y-4633221D01*
X2766564Y-4633221D02*
X2776088Y-4614174D01*
X2776088Y-4614174D02*
X2795135Y-4604650D01*
X2795135Y-4604650D02*
X2823707Y-4604650D01*
X2823707Y-4604650D02*
X2842754Y-4614174D01*
X2918945Y-4814174D02*
X2928469Y-4804650D01*
X2928469Y-4804650D02*
X2947516Y-4776079D01*
X2947516Y-4776079D02*
X2957040Y-4757031D01*
X2957040Y-4757031D02*
X2966564Y-4728460D01*
X2966564Y-4728460D02*
X2976088Y-4680840D01*
X2976088Y-4680840D02*
X2976088Y-4642745D01*
X2976088Y-4642745D02*
X2966564Y-4595126D01*
X2966564Y-4595126D02*
X2957040Y-4566555D01*
X2957040Y-4566555D02*
X2947516Y-4547507D01*
X2947516Y-4547507D02*
X2928469Y-4518936D01*
X2928469Y-4518936D02*
X2918945Y-4509412D01*
D12*
X-3489078Y-4944087D02*
X-3489078Y-4876912D01*
X-3556254Y-4876912D01*
X-3556254Y-4944087D01*
X-3489078Y-4944087D01*
D11*
X-3176294Y-4801983D02*
X-3157246Y-4801983D01*
X-3157246Y-4801983D02*
X-3138199Y-4811507D01*
X-3138199Y-4811507D02*
X-3128675Y-4821031D01*
X-3128675Y-4821031D02*
X-3119151Y-4840079D01*
X-3119151Y-4840079D02*
X-3109627Y-4878174D01*
X-3109627Y-4878174D02*
X-3109627Y-4925793D01*
X-3109627Y-4925793D02*
X-3119151Y-4963888D01*
X-3119151Y-4963888D02*
X-3128675Y-4982936D01*
X-3128675Y-4982936D02*
X-3138199Y-4992460D01*
X-3138199Y-4992460D02*
X-3157246Y-5001983D01*
X-3157246Y-5001983D02*
X-3176294Y-5001983D01*
X-3176294Y-5001983D02*
X-3195341Y-4992460D01*
X-3195341Y-4992460D02*
X-3204865Y-4982936D01*
X-3204865Y-4982936D02*
X-3214389Y-4963888D01*
X-3214389Y-4963888D02*
X-3223913Y-4925793D01*
X-3223913Y-4925793D02*
X-3223913Y-4878174D01*
X-3223913Y-4878174D02*
X-3214389Y-4840079D01*
X-3214389Y-4840079D02*
X-3204865Y-4821031D01*
X-3204865Y-4821031D02*
X-3195341Y-4811507D01*
X-3195341Y-4811507D02*
X-3176294Y-4801983D01*
X-3023913Y-4982936D02*
X-3014389Y-4992460D01*
X-3014389Y-4992460D02*
X-3023913Y-5001983D01*
X-3023913Y-5001983D02*
X-3033437Y-4992460D01*
X-3033437Y-4992460D02*
X-3023913Y-4982936D01*
X-3023913Y-4982936D02*
X-3023913Y-5001983D01*
X-2919151Y-5001983D02*
X-2881056Y-5001983D01*
X-2881056Y-5001983D02*
X-2862008Y-4992460D01*
X-2862008Y-4992460D02*
X-2852484Y-4982936D01*
X-2852484Y-4982936D02*
X-2833437Y-4954364D01*
X-2833437Y-4954364D02*
X-2823913Y-4916269D01*
X-2823913Y-4916269D02*
X-2823913Y-4840079D01*
X-2823913Y-4840079D02*
X-2833437Y-4821031D01*
X-2833437Y-4821031D02*
X-2842960Y-4811507D01*
X-2842960Y-4811507D02*
X-2862008Y-4801983D01*
X-2862008Y-4801983D02*
X-2900103Y-4801983D01*
X-2900103Y-4801983D02*
X-2919151Y-4811507D01*
X-2919151Y-4811507D02*
X-2928675Y-4821031D01*
X-2928675Y-4821031D02*
X-2938199Y-4840079D01*
X-2938199Y-4840079D02*
X-2938199Y-4887698D01*
X-2938199Y-4887698D02*
X-2928675Y-4906745D01*
X-2928675Y-4906745D02*
X-2919151Y-4916269D01*
X-2919151Y-4916269D02*
X-2900103Y-4925793D01*
X-2900103Y-4925793D02*
X-2862008Y-4925793D01*
X-2862008Y-4925793D02*
X-2842960Y-4916269D01*
X-2842960Y-4916269D02*
X-2833437Y-4906745D01*
X-2833437Y-4906745D02*
X-2823913Y-4887698D01*
X-2642961Y-4801983D02*
X-2738199Y-4801983D01*
X-2738199Y-4801983D02*
X-2747722Y-4897221D01*
X-2747722Y-4897221D02*
X-2738199Y-4887698D01*
X-2738199Y-4887698D02*
X-2719151Y-4878174D01*
X-2719151Y-4878174D02*
X-2671532Y-4878174D01*
X-2671532Y-4878174D02*
X-2652484Y-4887698D01*
X-2652484Y-4887698D02*
X-2642961Y-4897221D01*
X-2642961Y-4897221D02*
X-2633437Y-4916269D01*
X-2633437Y-4916269D02*
X-2633437Y-4963888D01*
X-2633437Y-4963888D02*
X-2642961Y-4982936D01*
X-2642961Y-4982936D02*
X-2652484Y-4992460D01*
X-2652484Y-4992460D02*
X-2671532Y-5001983D01*
X-2671532Y-5001983D02*
X-2719151Y-5001983D01*
X-2719151Y-5001983D02*
X-2738199Y-4992460D01*
X-2738199Y-4992460D02*
X-2747722Y-4982936D01*
X-2509627Y-4801983D02*
X-2490580Y-4801983D01*
X-2490580Y-4801983D02*
X-2471532Y-4811507D01*
X-2471532Y-4811507D02*
X-2462008Y-4821031D01*
X-2462008Y-4821031D02*
X-2452484Y-4840079D01*
X-2452484Y-4840079D02*
X-2442961Y-4878174D01*
X-2442961Y-4878174D02*
X-2442961Y-4925793D01*
X-2442961Y-4925793D02*
X-2452484Y-4963888D01*
X-2452484Y-4963888D02*
X-2462008Y-4982936D01*
X-2462008Y-4982936D02*
X-2471532Y-4992460D01*
X-2471532Y-4992460D02*
X-2490580Y-5001983D01*
X-2490580Y-5001983D02*
X-2509627Y-5001983D01*
X-2509627Y-5001983D02*
X-2528675Y-4992460D01*
X-2528675Y-4992460D02*
X-2538199Y-4982936D01*
X-2538199Y-4982936D02*
X-2547722Y-4963888D01*
X-2547722Y-4963888D02*
X-2557246Y-4925793D01*
X-2557246Y-4925793D02*
X-2557246Y-4878174D01*
X-2557246Y-4878174D02*
X-2547722Y-4840079D01*
X-2547722Y-4840079D02*
X-2538199Y-4821031D01*
X-2538199Y-4821031D02*
X-2528675Y-4811507D01*
X-2528675Y-4811507D02*
X-2509627Y-4801983D01*
X-2357246Y-5001983D02*
X-2357246Y-4868650D01*
X-2357246Y-4887698D02*
X-2347722Y-4878174D01*
X-2347722Y-4878174D02*
X-2328675Y-4868650D01*
X-2328675Y-4868650D02*
X-2300103Y-4868650D01*
X-2300103Y-4868650D02*
X-2281056Y-4878174D01*
X-2281056Y-4878174D02*
X-2271532Y-4897221D01*
X-2271532Y-4897221D02*
X-2271532Y-5001983D01*
X-2271532Y-4897221D02*
X-2262008Y-4878174D01*
X-2262008Y-4878174D02*
X-2242961Y-4868650D01*
X-2242961Y-4868650D02*
X-2214389Y-4868650D01*
X-2214389Y-4868650D02*
X-2195341Y-4878174D01*
X-2195341Y-4878174D02*
X-2185818Y-4897221D01*
X-2185818Y-4897221D02*
X-2185818Y-5001983D01*
X-2090579Y-5001983D02*
X-2090579Y-4868650D01*
X-2090579Y-4887698D02*
X-2081056Y-4878174D01*
X-2081056Y-4878174D02*
X-2062008Y-4868650D01*
X-2062008Y-4868650D02*
X-2033437Y-4868650D01*
X-2033437Y-4868650D02*
X-2014389Y-4878174D01*
X-2014389Y-4878174D02*
X-2004865Y-4897221D01*
X-2004865Y-4897221D02*
X-2004865Y-5001983D01*
X-2004865Y-4897221D02*
X-1995341Y-4878174D01*
X-1995341Y-4878174D02*
X-1976294Y-4868650D01*
X-1976294Y-4868650D02*
X-1947722Y-4868650D01*
X-1947722Y-4868650D02*
X-1928675Y-4878174D01*
X-1928675Y-4878174D02*
X-1919151Y-4897221D01*
X-1919151Y-4897221D02*
X-1919151Y-5001983D01*
X-1528675Y-4792460D02*
X-1700103Y-5049602D01*
X-1271532Y-4801983D02*
X-1252484Y-4801983D01*
X-1252484Y-4801983D02*
X-1233437Y-4811507D01*
X-1233437Y-4811507D02*
X-1223913Y-4821031D01*
X-1223913Y-4821031D02*
X-1214389Y-4840079D01*
X-1214389Y-4840079D02*
X-1204865Y-4878174D01*
X-1204865Y-4878174D02*
X-1204865Y-4925793D01*
X-1204865Y-4925793D02*
X-1214389Y-4963888D01*
X-1214389Y-4963888D02*
X-1223913Y-4982936D01*
X-1223913Y-4982936D02*
X-1233437Y-4992460D01*
X-1233437Y-4992460D02*
X-1252484Y-5001983D01*
X-1252484Y-5001983D02*
X-1271532Y-5001983D01*
X-1271532Y-5001983D02*
X-1290579Y-4992460D01*
X-1290579Y-4992460D02*
X-1300103Y-4982936D01*
X-1300103Y-4982936D02*
X-1309627Y-4963888D01*
X-1309627Y-4963888D02*
X-1319151Y-4925793D01*
X-1319151Y-4925793D02*
X-1319151Y-4878174D01*
X-1319151Y-4878174D02*
X-1309627Y-4840079D01*
X-1309627Y-4840079D02*
X-1300103Y-4821031D01*
X-1300103Y-4821031D02*
X-1290579Y-4811507D01*
X-1290579Y-4811507D02*
X-1271532Y-4801983D01*
X-1119151Y-4982936D02*
X-1109627Y-4992460D01*
X-1109627Y-4992460D02*
X-1119151Y-5001983D01*
X-1119151Y-5001983D02*
X-1128675Y-4992460D01*
X-1128675Y-4992460D02*
X-1119151Y-4982936D01*
X-1119151Y-4982936D02*
X-1119151Y-5001983D01*
X-985817Y-4801983D02*
X-966770Y-4801983D01*
X-966770Y-4801983D02*
X-947722Y-4811507D01*
X-947722Y-4811507D02*
X-938198Y-4821031D01*
X-938198Y-4821031D02*
X-928675Y-4840079D01*
X-928675Y-4840079D02*
X-919151Y-4878174D01*
X-919151Y-4878174D02*
X-919151Y-4925793D01*
X-919151Y-4925793D02*
X-928675Y-4963888D01*
X-928675Y-4963888D02*
X-938198Y-4982936D01*
X-938198Y-4982936D02*
X-947722Y-4992460D01*
X-947722Y-4992460D02*
X-966770Y-5001983D01*
X-966770Y-5001983D02*
X-985817Y-5001983D01*
X-985817Y-5001983D02*
X-1004865Y-4992460D01*
X-1004865Y-4992460D02*
X-1014389Y-4982936D01*
X-1014389Y-4982936D02*
X-1023913Y-4963888D01*
X-1023913Y-4963888D02*
X-1033436Y-4925793D01*
X-1033436Y-4925793D02*
X-1033436Y-4878174D01*
X-1033436Y-4878174D02*
X-1023913Y-4840079D01*
X-1023913Y-4840079D02*
X-1014389Y-4821031D01*
X-1014389Y-4821031D02*
X-1004865Y-4811507D01*
X-1004865Y-4811507D02*
X-985817Y-4801983D01*
X-852484Y-4801983D02*
X-728675Y-4801983D01*
X-728675Y-4801983D02*
X-795341Y-4878174D01*
X-795341Y-4878174D02*
X-766770Y-4878174D01*
X-766770Y-4878174D02*
X-747722Y-4887698D01*
X-747722Y-4887698D02*
X-738198Y-4897221D01*
X-738198Y-4897221D02*
X-728675Y-4916269D01*
X-728675Y-4916269D02*
X-728675Y-4963888D01*
X-728675Y-4963888D02*
X-738198Y-4982936D01*
X-738198Y-4982936D02*
X-747722Y-4992460D01*
X-747722Y-4992460D02*
X-766770Y-5001983D01*
X-766770Y-5001983D02*
X-823913Y-5001983D01*
X-823913Y-5001983D02*
X-842960Y-4992460D01*
X-842960Y-4992460D02*
X-852484Y-4982936D01*
X-662008Y-4801983D02*
X-528675Y-4801983D01*
X-528675Y-4801983D02*
X-614389Y-5001983D01*
X-366770Y-4868650D02*
X-366770Y-5001983D01*
X-414389Y-4792460D02*
X-462008Y-4935317D01*
X-462008Y-4935317D02*
X-338198Y-4935317D01*
X-271532Y-4801983D02*
X-271532Y-4840079D01*
X-195341Y-4801983D02*
X-195341Y-4840079D01*
X99897Y-5078174D02*
X90373Y-5068650D01*
X90373Y-5068650D02*
X71325Y-5040079D01*
X71325Y-5040079D02*
X61802Y-5021031D01*
X61802Y-5021031D02*
X52278Y-4992460D01*
X52278Y-4992460D02*
X42754Y-4944840D01*
X42754Y-4944840D02*
X42754Y-4906745D01*
X42754Y-4906745D02*
X52278Y-4859126D01*
X52278Y-4859126D02*
X61802Y-4830555D01*
X61802Y-4830555D02*
X71325Y-4811507D01*
X71325Y-4811507D02*
X90373Y-4782936D01*
X90373Y-4782936D02*
X99897Y-4773412D01*
X261802Y-4868650D02*
X261802Y-5001983D01*
X214182Y-4792460D02*
X166564Y-4935317D01*
X166564Y-4935317D02*
X290373Y-4935317D01*
X518944Y-5001983D02*
X518944Y-4801983D01*
X604659Y-5001983D02*
X604659Y-4897221D01*
X604659Y-4897221D02*
X595135Y-4878174D01*
X595135Y-4878174D02*
X576087Y-4868650D01*
X576087Y-4868650D02*
X547516Y-4868650D01*
X547516Y-4868650D02*
X528468Y-4878174D01*
X528468Y-4878174D02*
X518944Y-4887698D01*
X728468Y-5001983D02*
X709421Y-4992460D01*
X709421Y-4992460D02*
X699897Y-4982936D01*
X699897Y-4982936D02*
X690373Y-4963888D01*
X690373Y-4963888D02*
X690373Y-4906745D01*
X690373Y-4906745D02*
X699897Y-4887698D01*
X699897Y-4887698D02*
X709421Y-4878174D01*
X709421Y-4878174D02*
X728468Y-4868650D01*
X728468Y-4868650D02*
X757040Y-4868650D01*
X757040Y-4868650D02*
X776087Y-4878174D01*
X776087Y-4878174D02*
X785611Y-4887698D01*
X785611Y-4887698D02*
X795135Y-4906745D01*
X795135Y-4906745D02*
X795135Y-4963888D01*
X795135Y-4963888D02*
X785611Y-4982936D01*
X785611Y-4982936D02*
X776087Y-4992460D01*
X776087Y-4992460D02*
X757040Y-5001983D01*
X757040Y-5001983D02*
X728468Y-5001983D01*
X909421Y-5001983D02*
X890373Y-4992460D01*
X890373Y-4992460D02*
X880849Y-4973412D01*
X880849Y-4973412D02*
X880849Y-4801983D01*
X1061802Y-4992460D02*
X1042754Y-5001983D01*
X1042754Y-5001983D02*
X1004659Y-5001983D01*
X1004659Y-5001983D02*
X985611Y-4992460D01*
X985611Y-4992460D02*
X976087Y-4973412D01*
X976087Y-4973412D02*
X976087Y-4897221D01*
X976087Y-4897221D02*
X985611Y-4878174D01*
X985611Y-4878174D02*
X1004659Y-4868650D01*
X1004659Y-4868650D02*
X1042754Y-4868650D01*
X1042754Y-4868650D02*
X1061802Y-4878174D01*
X1061802Y-4878174D02*
X1071326Y-4897221D01*
X1071326Y-4897221D02*
X1071326Y-4916269D01*
X1071326Y-4916269D02*
X976087Y-4935317D01*
X1147516Y-4992460D02*
X1166564Y-5001983D01*
X1166564Y-5001983D02*
X1204659Y-5001983D01*
X1204659Y-5001983D02*
X1223707Y-4992460D01*
X1223707Y-4992460D02*
X1233230Y-4973412D01*
X1233230Y-4973412D02*
X1233230Y-4963888D01*
X1233230Y-4963888D02*
X1223707Y-4944840D01*
X1223707Y-4944840D02*
X1204659Y-4935317D01*
X1204659Y-4935317D02*
X1176087Y-4935317D01*
X1176087Y-4935317D02*
X1157040Y-4925793D01*
X1157040Y-4925793D02*
X1147516Y-4906745D01*
X1147516Y-4906745D02*
X1147516Y-4897221D01*
X1147516Y-4897221D02*
X1157040Y-4878174D01*
X1157040Y-4878174D02*
X1176087Y-4868650D01*
X1176087Y-4868650D02*
X1204659Y-4868650D01*
X1204659Y-4868650D02*
X1223707Y-4878174D01*
X1299897Y-5078174D02*
X1309421Y-5068650D01*
X1309421Y-5068650D02*
X1328468Y-5040079D01*
X1328468Y-5040079D02*
X1337992Y-5021031D01*
X1337992Y-5021031D02*
X1347516Y-4992460D01*
X1347516Y-4992460D02*
X1357040Y-4944840D01*
X1357040Y-4944840D02*
X1357040Y-4906745D01*
X1357040Y-4906745D02*
X1347516Y-4859126D01*
X1347516Y-4859126D02*
X1337992Y-4830555D01*
X1337992Y-4830555D02*
X1328468Y-4811507D01*
X1328468Y-4811507D02*
X1309421Y-4782936D01*
X1309421Y-4782936D02*
X1299897Y-4773412D01*
D12*
X-3524666Y-5224000D02*
X-3475166Y-5174500D01*
X-3524666Y-5125000D01*
X-3574166Y-5174500D01*
X-3524666Y-5224000D01*
D11*
X-3176294Y-5065983D02*
X-3157246Y-5065983D01*
X-3157246Y-5065983D02*
X-3138199Y-5075507D01*
X-3138199Y-5075507D02*
X-3128675Y-5085031D01*
X-3128675Y-5085031D02*
X-3119151Y-5104079D01*
X-3119151Y-5104079D02*
X-3109627Y-5142174D01*
X-3109627Y-5142174D02*
X-3109627Y-5189793D01*
X-3109627Y-5189793D02*
X-3119151Y-5227888D01*
X-3119151Y-5227888D02*
X-3128675Y-5246936D01*
X-3128675Y-5246936D02*
X-3138199Y-5256460D01*
X-3138199Y-5256460D02*
X-3157246Y-5265983D01*
X-3157246Y-5265983D02*
X-3176294Y-5265983D01*
X-3176294Y-5265983D02*
X-3195341Y-5256460D01*
X-3195341Y-5256460D02*
X-3204865Y-5246936D01*
X-3204865Y-5246936D02*
X-3214389Y-5227888D01*
X-3214389Y-5227888D02*
X-3223913Y-5189793D01*
X-3223913Y-5189793D02*
X-3223913Y-5142174D01*
X-3223913Y-5142174D02*
X-3214389Y-5104079D01*
X-3214389Y-5104079D02*
X-3204865Y-5085031D01*
X-3204865Y-5085031D02*
X-3195341Y-5075507D01*
X-3195341Y-5075507D02*
X-3176294Y-5065983D01*
X-3023913Y-5246936D02*
X-3014389Y-5256460D01*
X-3014389Y-5256460D02*
X-3023913Y-5265983D01*
X-3023913Y-5265983D02*
X-3033437Y-5256460D01*
X-3033437Y-5256460D02*
X-3023913Y-5246936D01*
X-3023913Y-5246936D02*
X-3023913Y-5265983D01*
X-2919151Y-5265983D02*
X-2881056Y-5265983D01*
X-2881056Y-5265983D02*
X-2862008Y-5256460D01*
X-2862008Y-5256460D02*
X-2852484Y-5246936D01*
X-2852484Y-5246936D02*
X-2833437Y-5218364D01*
X-2833437Y-5218364D02*
X-2823913Y-5180269D01*
X-2823913Y-5180269D02*
X-2823913Y-5104079D01*
X-2823913Y-5104079D02*
X-2833437Y-5085031D01*
X-2833437Y-5085031D02*
X-2842960Y-5075507D01*
X-2842960Y-5075507D02*
X-2862008Y-5065983D01*
X-2862008Y-5065983D02*
X-2900103Y-5065983D01*
X-2900103Y-5065983D02*
X-2919151Y-5075507D01*
X-2919151Y-5075507D02*
X-2928675Y-5085031D01*
X-2928675Y-5085031D02*
X-2938199Y-5104079D01*
X-2938199Y-5104079D02*
X-2938199Y-5151698D01*
X-2938199Y-5151698D02*
X-2928675Y-5170745D01*
X-2928675Y-5170745D02*
X-2919151Y-5180269D01*
X-2919151Y-5180269D02*
X-2900103Y-5189793D01*
X-2900103Y-5189793D02*
X-2862008Y-5189793D01*
X-2862008Y-5189793D02*
X-2842960Y-5180269D01*
X-2842960Y-5180269D02*
X-2833437Y-5170745D01*
X-2833437Y-5170745D02*
X-2823913Y-5151698D01*
X-2728675Y-5265983D02*
X-2690580Y-5265983D01*
X-2690580Y-5265983D02*
X-2671532Y-5256460D01*
X-2671532Y-5256460D02*
X-2662008Y-5246936D01*
X-2662008Y-5246936D02*
X-2642961Y-5218364D01*
X-2642961Y-5218364D02*
X-2633437Y-5180269D01*
X-2633437Y-5180269D02*
X-2633437Y-5104079D01*
X-2633437Y-5104079D02*
X-2642961Y-5085031D01*
X-2642961Y-5085031D02*
X-2652484Y-5075507D01*
X-2652484Y-5075507D02*
X-2671532Y-5065983D01*
X-2671532Y-5065983D02*
X-2709627Y-5065983D01*
X-2709627Y-5065983D02*
X-2728675Y-5075507D01*
X-2728675Y-5075507D02*
X-2738199Y-5085031D01*
X-2738199Y-5085031D02*
X-2747722Y-5104079D01*
X-2747722Y-5104079D02*
X-2747722Y-5151698D01*
X-2747722Y-5151698D02*
X-2738199Y-5170745D01*
X-2738199Y-5170745D02*
X-2728675Y-5180269D01*
X-2728675Y-5180269D02*
X-2709627Y-5189793D01*
X-2709627Y-5189793D02*
X-2671532Y-5189793D01*
X-2671532Y-5189793D02*
X-2652484Y-5180269D01*
X-2652484Y-5180269D02*
X-2642961Y-5170745D01*
X-2642961Y-5170745D02*
X-2633437Y-5151698D01*
X-2509627Y-5065983D02*
X-2490580Y-5065983D01*
X-2490580Y-5065983D02*
X-2471532Y-5075507D01*
X-2471532Y-5075507D02*
X-2462008Y-5085031D01*
X-2462008Y-5085031D02*
X-2452484Y-5104079D01*
X-2452484Y-5104079D02*
X-2442961Y-5142174D01*
X-2442961Y-5142174D02*
X-2442961Y-5189793D01*
X-2442961Y-5189793D02*
X-2452484Y-5227888D01*
X-2452484Y-5227888D02*
X-2462008Y-5246936D01*
X-2462008Y-5246936D02*
X-2471532Y-5256460D01*
X-2471532Y-5256460D02*
X-2490580Y-5265983D01*
X-2490580Y-5265983D02*
X-2509627Y-5265983D01*
X-2509627Y-5265983D02*
X-2528675Y-5256460D01*
X-2528675Y-5256460D02*
X-2538199Y-5246936D01*
X-2538199Y-5246936D02*
X-2547722Y-5227888D01*
X-2547722Y-5227888D02*
X-2557246Y-5189793D01*
X-2557246Y-5189793D02*
X-2557246Y-5142174D01*
X-2557246Y-5142174D02*
X-2547722Y-5104079D01*
X-2547722Y-5104079D02*
X-2538199Y-5085031D01*
X-2538199Y-5085031D02*
X-2528675Y-5075507D01*
X-2528675Y-5075507D02*
X-2509627Y-5065983D01*
X-2357246Y-5265983D02*
X-2357246Y-5132650D01*
X-2357246Y-5151698D02*
X-2347722Y-5142174D01*
X-2347722Y-5142174D02*
X-2328675Y-5132650D01*
X-2328675Y-5132650D02*
X-2300103Y-5132650D01*
X-2300103Y-5132650D02*
X-2281056Y-5142174D01*
X-2281056Y-5142174D02*
X-2271532Y-5161221D01*
X-2271532Y-5161221D02*
X-2271532Y-5265983D01*
X-2271532Y-5161221D02*
X-2262008Y-5142174D01*
X-2262008Y-5142174D02*
X-2242961Y-5132650D01*
X-2242961Y-5132650D02*
X-2214389Y-5132650D01*
X-2214389Y-5132650D02*
X-2195341Y-5142174D01*
X-2195341Y-5142174D02*
X-2185818Y-5161221D01*
X-2185818Y-5161221D02*
X-2185818Y-5265983D01*
X-2090579Y-5265983D02*
X-2090579Y-5132650D01*
X-2090579Y-5151698D02*
X-2081056Y-5142174D01*
X-2081056Y-5142174D02*
X-2062008Y-5132650D01*
X-2062008Y-5132650D02*
X-2033437Y-5132650D01*
X-2033437Y-5132650D02*
X-2014389Y-5142174D01*
X-2014389Y-5142174D02*
X-2004865Y-5161221D01*
X-2004865Y-5161221D02*
X-2004865Y-5265983D01*
X-2004865Y-5161221D02*
X-1995341Y-5142174D01*
X-1995341Y-5142174D02*
X-1976294Y-5132650D01*
X-1976294Y-5132650D02*
X-1947722Y-5132650D01*
X-1947722Y-5132650D02*
X-1928675Y-5142174D01*
X-1928675Y-5142174D02*
X-1919151Y-5161221D01*
X-1919151Y-5161221D02*
X-1919151Y-5265983D01*
X-1528675Y-5056460D02*
X-1700103Y-5313602D01*
X-1271532Y-5065983D02*
X-1252484Y-5065983D01*
X-1252484Y-5065983D02*
X-1233437Y-5075507D01*
X-1233437Y-5075507D02*
X-1223913Y-5085031D01*
X-1223913Y-5085031D02*
X-1214389Y-5104079D01*
X-1214389Y-5104079D02*
X-1204865Y-5142174D01*
X-1204865Y-5142174D02*
X-1204865Y-5189793D01*
X-1204865Y-5189793D02*
X-1214389Y-5227888D01*
X-1214389Y-5227888D02*
X-1223913Y-5246936D01*
X-1223913Y-5246936D02*
X-1233437Y-5256460D01*
X-1233437Y-5256460D02*
X-1252484Y-5265983D01*
X-1252484Y-5265983D02*
X-1271532Y-5265983D01*
X-1271532Y-5265983D02*
X-1290579Y-5256460D01*
X-1290579Y-5256460D02*
X-1300103Y-5246936D01*
X-1300103Y-5246936D02*
X-1309627Y-5227888D01*
X-1309627Y-5227888D02*
X-1319151Y-5189793D01*
X-1319151Y-5189793D02*
X-1319151Y-5142174D01*
X-1319151Y-5142174D02*
X-1309627Y-5104079D01*
X-1309627Y-5104079D02*
X-1300103Y-5085031D01*
X-1300103Y-5085031D02*
X-1290579Y-5075507D01*
X-1290579Y-5075507D02*
X-1271532Y-5065983D01*
X-1119151Y-5246936D02*
X-1109627Y-5256460D01*
X-1109627Y-5256460D02*
X-1119151Y-5265983D01*
X-1119151Y-5265983D02*
X-1128675Y-5256460D01*
X-1128675Y-5256460D02*
X-1119151Y-5246936D01*
X-1119151Y-5246936D02*
X-1119151Y-5265983D01*
X-985817Y-5065983D02*
X-966770Y-5065983D01*
X-966770Y-5065983D02*
X-947722Y-5075507D01*
X-947722Y-5075507D02*
X-938198Y-5085031D01*
X-938198Y-5085031D02*
X-928675Y-5104079D01*
X-928675Y-5104079D02*
X-919151Y-5142174D01*
X-919151Y-5142174D02*
X-919151Y-5189793D01*
X-919151Y-5189793D02*
X-928675Y-5227888D01*
X-928675Y-5227888D02*
X-938198Y-5246936D01*
X-938198Y-5246936D02*
X-947722Y-5256460D01*
X-947722Y-5256460D02*
X-966770Y-5265983D01*
X-966770Y-5265983D02*
X-985817Y-5265983D01*
X-985817Y-5265983D02*
X-1004865Y-5256460D01*
X-1004865Y-5256460D02*
X-1014389Y-5246936D01*
X-1014389Y-5246936D02*
X-1023913Y-5227888D01*
X-1023913Y-5227888D02*
X-1033436Y-5189793D01*
X-1033436Y-5189793D02*
X-1033436Y-5142174D01*
X-1033436Y-5142174D02*
X-1023913Y-5104079D01*
X-1023913Y-5104079D02*
X-1014389Y-5085031D01*
X-1014389Y-5085031D02*
X-1004865Y-5075507D01*
X-1004865Y-5075507D02*
X-985817Y-5065983D01*
X-852484Y-5065983D02*
X-728675Y-5065983D01*
X-728675Y-5065983D02*
X-795341Y-5142174D01*
X-795341Y-5142174D02*
X-766770Y-5142174D01*
X-766770Y-5142174D02*
X-747722Y-5151698D01*
X-747722Y-5151698D02*
X-738198Y-5161221D01*
X-738198Y-5161221D02*
X-728675Y-5180269D01*
X-728675Y-5180269D02*
X-728675Y-5227888D01*
X-728675Y-5227888D02*
X-738198Y-5246936D01*
X-738198Y-5246936D02*
X-747722Y-5256460D01*
X-747722Y-5256460D02*
X-766770Y-5265983D01*
X-766770Y-5265983D02*
X-823913Y-5265983D01*
X-823913Y-5265983D02*
X-842960Y-5256460D01*
X-842960Y-5256460D02*
X-852484Y-5246936D01*
X-633437Y-5265983D02*
X-595341Y-5265983D01*
X-595341Y-5265983D02*
X-576294Y-5256460D01*
X-576294Y-5256460D02*
X-566770Y-5246936D01*
X-566770Y-5246936D02*
X-547722Y-5218364D01*
X-547722Y-5218364D02*
X-538198Y-5180269D01*
X-538198Y-5180269D02*
X-538198Y-5104079D01*
X-538198Y-5104079D02*
X-547722Y-5085031D01*
X-547722Y-5085031D02*
X-557246Y-5075507D01*
X-557246Y-5075507D02*
X-576294Y-5065983D01*
X-576294Y-5065983D02*
X-614389Y-5065983D01*
X-614389Y-5065983D02*
X-633437Y-5075507D01*
X-633437Y-5075507D02*
X-642960Y-5085031D01*
X-642960Y-5085031D02*
X-652484Y-5104079D01*
X-652484Y-5104079D02*
X-652484Y-5151698D01*
X-652484Y-5151698D02*
X-642960Y-5170745D01*
X-642960Y-5170745D02*
X-633437Y-5180269D01*
X-633437Y-5180269D02*
X-614389Y-5189793D01*
X-614389Y-5189793D02*
X-576294Y-5189793D01*
X-576294Y-5189793D02*
X-557246Y-5180269D01*
X-557246Y-5180269D02*
X-547722Y-5170745D01*
X-547722Y-5170745D02*
X-538198Y-5151698D01*
X-414389Y-5065983D02*
X-395341Y-5065983D01*
X-395341Y-5065983D02*
X-376294Y-5075507D01*
X-376294Y-5075507D02*
X-366770Y-5085031D01*
X-366770Y-5085031D02*
X-357246Y-5104079D01*
X-357246Y-5104079D02*
X-347722Y-5142174D01*
X-347722Y-5142174D02*
X-347722Y-5189793D01*
X-347722Y-5189793D02*
X-357246Y-5227888D01*
X-357246Y-5227888D02*
X-366770Y-5246936D01*
X-366770Y-5246936D02*
X-376294Y-5256460D01*
X-376294Y-5256460D02*
X-395341Y-5265983D01*
X-395341Y-5265983D02*
X-414389Y-5265983D01*
X-414389Y-5265983D02*
X-433436Y-5256460D01*
X-433436Y-5256460D02*
X-442960Y-5246936D01*
X-442960Y-5246936D02*
X-452484Y-5227888D01*
X-452484Y-5227888D02*
X-462008Y-5189793D01*
X-462008Y-5189793D02*
X-462008Y-5142174D01*
X-462008Y-5142174D02*
X-452484Y-5104079D01*
X-452484Y-5104079D02*
X-442960Y-5085031D01*
X-442960Y-5085031D02*
X-433436Y-5075507D01*
X-433436Y-5075507D02*
X-414389Y-5065983D01*
X-271532Y-5065983D02*
X-271532Y-5104079D01*
X-195341Y-5065983D02*
X-195341Y-5104079D01*
X99897Y-5342174D02*
X90373Y-5332650D01*
X90373Y-5332650D02*
X71325Y-5304079D01*
X71325Y-5304079D02*
X61802Y-5285031D01*
X61802Y-5285031D02*
X52278Y-5256460D01*
X52278Y-5256460D02*
X42754Y-5208840D01*
X42754Y-5208840D02*
X42754Y-5170745D01*
X42754Y-5170745D02*
X52278Y-5123126D01*
X52278Y-5123126D02*
X61802Y-5094555D01*
X61802Y-5094555D02*
X71325Y-5075507D01*
X71325Y-5075507D02*
X90373Y-5046936D01*
X90373Y-5046936D02*
X99897Y-5037412D01*
X166564Y-5085031D02*
X176087Y-5075507D01*
X176087Y-5075507D02*
X195135Y-5065983D01*
X195135Y-5065983D02*
X242754Y-5065983D01*
X242754Y-5065983D02*
X261802Y-5075507D01*
X261802Y-5075507D02*
X271325Y-5085031D01*
X271325Y-5085031D02*
X280849Y-5104079D01*
X280849Y-5104079D02*
X280849Y-5123126D01*
X280849Y-5123126D02*
X271325Y-5151698D01*
X271325Y-5151698D02*
X157040Y-5265983D01*
X157040Y-5265983D02*
X280849Y-5265983D01*
X518944Y-5265983D02*
X518944Y-5065983D01*
X604659Y-5265983D02*
X604659Y-5161221D01*
X604659Y-5161221D02*
X595135Y-5142174D01*
X595135Y-5142174D02*
X576087Y-5132650D01*
X576087Y-5132650D02*
X547516Y-5132650D01*
X547516Y-5132650D02*
X528468Y-5142174D01*
X528468Y-5142174D02*
X518944Y-5151698D01*
X728468Y-5265983D02*
X709421Y-5256460D01*
X709421Y-5256460D02*
X699897Y-5246936D01*
X699897Y-5246936D02*
X690373Y-5227888D01*
X690373Y-5227888D02*
X690373Y-5170745D01*
X690373Y-5170745D02*
X699897Y-5151698D01*
X699897Y-5151698D02*
X709421Y-5142174D01*
X709421Y-5142174D02*
X728468Y-5132650D01*
X728468Y-5132650D02*
X757040Y-5132650D01*
X757040Y-5132650D02*
X776087Y-5142174D01*
X776087Y-5142174D02*
X785611Y-5151698D01*
X785611Y-5151698D02*
X795135Y-5170745D01*
X795135Y-5170745D02*
X795135Y-5227888D01*
X795135Y-5227888D02*
X785611Y-5246936D01*
X785611Y-5246936D02*
X776087Y-5256460D01*
X776087Y-5256460D02*
X757040Y-5265983D01*
X757040Y-5265983D02*
X728468Y-5265983D01*
X909421Y-5265983D02*
X890373Y-5256460D01*
X890373Y-5256460D02*
X880849Y-5237412D01*
X880849Y-5237412D02*
X880849Y-5065983D01*
X1061802Y-5256460D02*
X1042754Y-5265983D01*
X1042754Y-5265983D02*
X1004659Y-5265983D01*
X1004659Y-5265983D02*
X985611Y-5256460D01*
X985611Y-5256460D02*
X976087Y-5237412D01*
X976087Y-5237412D02*
X976087Y-5161221D01*
X976087Y-5161221D02*
X985611Y-5142174D01*
X985611Y-5142174D02*
X1004659Y-5132650D01*
X1004659Y-5132650D02*
X1042754Y-5132650D01*
X1042754Y-5132650D02*
X1061802Y-5142174D01*
X1061802Y-5142174D02*
X1071326Y-5161221D01*
X1071326Y-5161221D02*
X1071326Y-5180269D01*
X1071326Y-5180269D02*
X976087Y-5199317D01*
X1147516Y-5256460D02*
X1166564Y-5265983D01*
X1166564Y-5265983D02*
X1204659Y-5265983D01*
X1204659Y-5265983D02*
X1223707Y-5256460D01*
X1223707Y-5256460D02*
X1233230Y-5237412D01*
X1233230Y-5237412D02*
X1233230Y-5227888D01*
X1233230Y-5227888D02*
X1223707Y-5208840D01*
X1223707Y-5208840D02*
X1204659Y-5199317D01*
X1204659Y-5199317D02*
X1176087Y-5199317D01*
X1176087Y-5199317D02*
X1157040Y-5189793D01*
X1157040Y-5189793D02*
X1147516Y-5170745D01*
X1147516Y-5170745D02*
X1147516Y-5161221D01*
X1147516Y-5161221D02*
X1157040Y-5142174D01*
X1157040Y-5142174D02*
X1176087Y-5132650D01*
X1176087Y-5132650D02*
X1204659Y-5132650D01*
X1204659Y-5132650D02*
X1223707Y-5142174D01*
X1299897Y-5342174D02*
X1309421Y-5332650D01*
X1309421Y-5332650D02*
X1328468Y-5304079D01*
X1328468Y-5304079D02*
X1337992Y-5285031D01*
X1337992Y-5285031D02*
X1347516Y-5256460D01*
X1347516Y-5256460D02*
X1357040Y-5208840D01*
X1357040Y-5208840D02*
X1357040Y-5170745D01*
X1357040Y-5170745D02*
X1347516Y-5123126D01*
X1347516Y-5123126D02*
X1337992Y-5094555D01*
X1337992Y-5094555D02*
X1328468Y-5075507D01*
X1328468Y-5075507D02*
X1309421Y-5046936D01*
X1309421Y-5046936D02*
X1299897Y-5037412D01*
D12*
X-3575166Y-5388500D02*
X-3475166Y-5488500D01*
X-3475166Y-5388500D02*
X-3575166Y-5488500D01*
X-3475166Y-5438500D02*
G75*
G02*
X-3575166Y-5438500I-50000J0D01*
G01*
X-3575166Y-5438500D02*
G75*
G02*
X-3475166Y-5438500I50000J0D01*
G01*
D11*
X-3109627Y-5529983D02*
X-3223913Y-5529983D01*
X-3166770Y-5529983D02*
X-3166770Y-5329983D01*
X-3166770Y-5329983D02*
X-3185818Y-5358555D01*
X-3185818Y-5358555D02*
X-3204865Y-5377602D01*
X-3204865Y-5377602D02*
X-3223913Y-5387126D01*
X-3023913Y-5510936D02*
X-3014389Y-5520460D01*
X-3014389Y-5520460D02*
X-3023913Y-5529983D01*
X-3023913Y-5529983D02*
X-3033437Y-5520460D01*
X-3033437Y-5520460D02*
X-3023913Y-5510936D01*
X-3023913Y-5510936D02*
X-3023913Y-5529983D01*
X-2890580Y-5329983D02*
X-2871532Y-5329983D01*
X-2871532Y-5329983D02*
X-2852484Y-5339507D01*
X-2852484Y-5339507D02*
X-2842960Y-5349031D01*
X-2842960Y-5349031D02*
X-2833437Y-5368079D01*
X-2833437Y-5368079D02*
X-2823913Y-5406174D01*
X-2823913Y-5406174D02*
X-2823913Y-5453793D01*
X-2823913Y-5453793D02*
X-2833437Y-5491888D01*
X-2833437Y-5491888D02*
X-2842960Y-5510936D01*
X-2842960Y-5510936D02*
X-2852484Y-5520460D01*
X-2852484Y-5520460D02*
X-2871532Y-5529983D01*
X-2871532Y-5529983D02*
X-2890580Y-5529983D01*
X-2890580Y-5529983D02*
X-2909627Y-5520460D01*
X-2909627Y-5520460D02*
X-2919151Y-5510936D01*
X-2919151Y-5510936D02*
X-2928675Y-5491888D01*
X-2928675Y-5491888D02*
X-2938199Y-5453793D01*
X-2938199Y-5453793D02*
X-2938199Y-5406174D01*
X-2938199Y-5406174D02*
X-2928675Y-5368079D01*
X-2928675Y-5368079D02*
X-2919151Y-5349031D01*
X-2919151Y-5349031D02*
X-2909627Y-5339507D01*
X-2909627Y-5339507D02*
X-2890580Y-5329983D01*
X-2700103Y-5329983D02*
X-2681056Y-5329983D01*
X-2681056Y-5329983D02*
X-2662008Y-5339507D01*
X-2662008Y-5339507D02*
X-2652484Y-5349031D01*
X-2652484Y-5349031D02*
X-2642961Y-5368079D01*
X-2642961Y-5368079D02*
X-2633437Y-5406174D01*
X-2633437Y-5406174D02*
X-2633437Y-5453793D01*
X-2633437Y-5453793D02*
X-2642961Y-5491888D01*
X-2642961Y-5491888D02*
X-2652484Y-5510936D01*
X-2652484Y-5510936D02*
X-2662008Y-5520460D01*
X-2662008Y-5520460D02*
X-2681056Y-5529983D01*
X-2681056Y-5529983D02*
X-2700103Y-5529983D01*
X-2700103Y-5529983D02*
X-2719151Y-5520460D01*
X-2719151Y-5520460D02*
X-2728675Y-5510936D01*
X-2728675Y-5510936D02*
X-2738199Y-5491888D01*
X-2738199Y-5491888D02*
X-2747722Y-5453793D01*
X-2747722Y-5453793D02*
X-2747722Y-5406174D01*
X-2747722Y-5406174D02*
X-2738199Y-5368079D01*
X-2738199Y-5368079D02*
X-2728675Y-5349031D01*
X-2728675Y-5349031D02*
X-2719151Y-5339507D01*
X-2719151Y-5339507D02*
X-2700103Y-5329983D01*
X-2509627Y-5329983D02*
X-2490580Y-5329983D01*
X-2490580Y-5329983D02*
X-2471532Y-5339507D01*
X-2471532Y-5339507D02*
X-2462008Y-5349031D01*
X-2462008Y-5349031D02*
X-2452484Y-5368079D01*
X-2452484Y-5368079D02*
X-2442961Y-5406174D01*
X-2442961Y-5406174D02*
X-2442961Y-5453793D01*
X-2442961Y-5453793D02*
X-2452484Y-5491888D01*
X-2452484Y-5491888D02*
X-2462008Y-5510936D01*
X-2462008Y-5510936D02*
X-2471532Y-5520460D01*
X-2471532Y-5520460D02*
X-2490580Y-5529983D01*
X-2490580Y-5529983D02*
X-2509627Y-5529983D01*
X-2509627Y-5529983D02*
X-2528675Y-5520460D01*
X-2528675Y-5520460D02*
X-2538199Y-5510936D01*
X-2538199Y-5510936D02*
X-2547722Y-5491888D01*
X-2547722Y-5491888D02*
X-2557246Y-5453793D01*
X-2557246Y-5453793D02*
X-2557246Y-5406174D01*
X-2557246Y-5406174D02*
X-2547722Y-5368079D01*
X-2547722Y-5368079D02*
X-2538199Y-5349031D01*
X-2538199Y-5349031D02*
X-2528675Y-5339507D01*
X-2528675Y-5339507D02*
X-2509627Y-5329983D01*
X-2357246Y-5529983D02*
X-2357246Y-5396650D01*
X-2357246Y-5415698D02*
X-2347722Y-5406174D01*
X-2347722Y-5406174D02*
X-2328675Y-5396650D01*
X-2328675Y-5396650D02*
X-2300103Y-5396650D01*
X-2300103Y-5396650D02*
X-2281056Y-5406174D01*
X-2281056Y-5406174D02*
X-2271532Y-5425221D01*
X-2271532Y-5425221D02*
X-2271532Y-5529983D01*
X-2271532Y-5425221D02*
X-2262008Y-5406174D01*
X-2262008Y-5406174D02*
X-2242961Y-5396650D01*
X-2242961Y-5396650D02*
X-2214389Y-5396650D01*
X-2214389Y-5396650D02*
X-2195341Y-5406174D01*
X-2195341Y-5406174D02*
X-2185818Y-5425221D01*
X-2185818Y-5425221D02*
X-2185818Y-5529983D01*
X-2090579Y-5529983D02*
X-2090579Y-5396650D01*
X-2090579Y-5415698D02*
X-2081056Y-5406174D01*
X-2081056Y-5406174D02*
X-2062008Y-5396650D01*
X-2062008Y-5396650D02*
X-2033437Y-5396650D01*
X-2033437Y-5396650D02*
X-2014389Y-5406174D01*
X-2014389Y-5406174D02*
X-2004865Y-5425221D01*
X-2004865Y-5425221D02*
X-2004865Y-5529983D01*
X-2004865Y-5425221D02*
X-1995341Y-5406174D01*
X-1995341Y-5406174D02*
X-1976294Y-5396650D01*
X-1976294Y-5396650D02*
X-1947722Y-5396650D01*
X-1947722Y-5396650D02*
X-1928675Y-5406174D01*
X-1928675Y-5406174D02*
X-1919151Y-5425221D01*
X-1919151Y-5425221D02*
X-1919151Y-5529983D01*
X-1528675Y-5320460D02*
X-1700103Y-5577602D01*
X-1271532Y-5329983D02*
X-1252484Y-5329983D01*
X-1252484Y-5329983D02*
X-1233437Y-5339507D01*
X-1233437Y-5339507D02*
X-1223913Y-5349031D01*
X-1223913Y-5349031D02*
X-1214389Y-5368079D01*
X-1214389Y-5368079D02*
X-1204865Y-5406174D01*
X-1204865Y-5406174D02*
X-1204865Y-5453793D01*
X-1204865Y-5453793D02*
X-1214389Y-5491888D01*
X-1214389Y-5491888D02*
X-1223913Y-5510936D01*
X-1223913Y-5510936D02*
X-1233437Y-5520460D01*
X-1233437Y-5520460D02*
X-1252484Y-5529983D01*
X-1252484Y-5529983D02*
X-1271532Y-5529983D01*
X-1271532Y-5529983D02*
X-1290579Y-5520460D01*
X-1290579Y-5520460D02*
X-1300103Y-5510936D01*
X-1300103Y-5510936D02*
X-1309627Y-5491888D01*
X-1309627Y-5491888D02*
X-1319151Y-5453793D01*
X-1319151Y-5453793D02*
X-1319151Y-5406174D01*
X-1319151Y-5406174D02*
X-1309627Y-5368079D01*
X-1309627Y-5368079D02*
X-1300103Y-5349031D01*
X-1300103Y-5349031D02*
X-1290579Y-5339507D01*
X-1290579Y-5339507D02*
X-1271532Y-5329983D01*
X-1119151Y-5510936D02*
X-1109627Y-5520460D01*
X-1109627Y-5520460D02*
X-1119151Y-5529983D01*
X-1119151Y-5529983D02*
X-1128675Y-5520460D01*
X-1128675Y-5520460D02*
X-1119151Y-5510936D01*
X-1119151Y-5510936D02*
X-1119151Y-5529983D01*
X-985817Y-5329983D02*
X-966770Y-5329983D01*
X-966770Y-5329983D02*
X-947722Y-5339507D01*
X-947722Y-5339507D02*
X-938198Y-5349031D01*
X-938198Y-5349031D02*
X-928675Y-5368079D01*
X-928675Y-5368079D02*
X-919151Y-5406174D01*
X-919151Y-5406174D02*
X-919151Y-5453793D01*
X-919151Y-5453793D02*
X-928675Y-5491888D01*
X-928675Y-5491888D02*
X-938198Y-5510936D01*
X-938198Y-5510936D02*
X-947722Y-5520460D01*
X-947722Y-5520460D02*
X-966770Y-5529983D01*
X-966770Y-5529983D02*
X-985817Y-5529983D01*
X-985817Y-5529983D02*
X-1004865Y-5520460D01*
X-1004865Y-5520460D02*
X-1014389Y-5510936D01*
X-1014389Y-5510936D02*
X-1023913Y-5491888D01*
X-1023913Y-5491888D02*
X-1033436Y-5453793D01*
X-1033436Y-5453793D02*
X-1033436Y-5406174D01*
X-1033436Y-5406174D02*
X-1023913Y-5368079D01*
X-1023913Y-5368079D02*
X-1014389Y-5349031D01*
X-1014389Y-5349031D02*
X-1004865Y-5339507D01*
X-1004865Y-5339507D02*
X-985817Y-5329983D01*
X-852484Y-5329983D02*
X-728675Y-5329983D01*
X-728675Y-5329983D02*
X-795341Y-5406174D01*
X-795341Y-5406174D02*
X-766770Y-5406174D01*
X-766770Y-5406174D02*
X-747722Y-5415698D01*
X-747722Y-5415698D02*
X-738198Y-5425221D01*
X-738198Y-5425221D02*
X-728675Y-5444269D01*
X-728675Y-5444269D02*
X-728675Y-5491888D01*
X-728675Y-5491888D02*
X-738198Y-5510936D01*
X-738198Y-5510936D02*
X-747722Y-5520460D01*
X-747722Y-5520460D02*
X-766770Y-5529983D01*
X-766770Y-5529983D02*
X-823913Y-5529983D01*
X-823913Y-5529983D02*
X-842960Y-5520460D01*
X-842960Y-5520460D02*
X-852484Y-5510936D01*
X-633437Y-5529983D02*
X-595341Y-5529983D01*
X-595341Y-5529983D02*
X-576294Y-5520460D01*
X-576294Y-5520460D02*
X-566770Y-5510936D01*
X-566770Y-5510936D02*
X-547722Y-5482364D01*
X-547722Y-5482364D02*
X-538198Y-5444269D01*
X-538198Y-5444269D02*
X-538198Y-5368079D01*
X-538198Y-5368079D02*
X-547722Y-5349031D01*
X-547722Y-5349031D02*
X-557246Y-5339507D01*
X-557246Y-5339507D02*
X-576294Y-5329983D01*
X-576294Y-5329983D02*
X-614389Y-5329983D01*
X-614389Y-5329983D02*
X-633437Y-5339507D01*
X-633437Y-5339507D02*
X-642960Y-5349031D01*
X-642960Y-5349031D02*
X-652484Y-5368079D01*
X-652484Y-5368079D02*
X-652484Y-5415698D01*
X-652484Y-5415698D02*
X-642960Y-5434745D01*
X-642960Y-5434745D02*
X-633437Y-5444269D01*
X-633437Y-5444269D02*
X-614389Y-5453793D01*
X-614389Y-5453793D02*
X-576294Y-5453793D01*
X-576294Y-5453793D02*
X-557246Y-5444269D01*
X-557246Y-5444269D02*
X-547722Y-5434745D01*
X-547722Y-5434745D02*
X-538198Y-5415698D01*
X-366770Y-5396650D02*
X-366770Y-5529983D01*
X-414389Y-5320460D02*
X-462008Y-5463317D01*
X-462008Y-5463317D02*
X-338198Y-5463317D01*
X-271532Y-5329983D02*
X-271532Y-5368079D01*
X-195341Y-5329983D02*
X-195341Y-5368079D01*
X99897Y-5606174D02*
X90373Y-5596650D01*
X90373Y-5596650D02*
X71325Y-5568079D01*
X71325Y-5568079D02*
X61802Y-5549031D01*
X61802Y-5549031D02*
X52278Y-5520460D01*
X52278Y-5520460D02*
X42754Y-5472840D01*
X42754Y-5472840D02*
X42754Y-5434745D01*
X42754Y-5434745D02*
X52278Y-5387126D01*
X52278Y-5387126D02*
X61802Y-5358555D01*
X61802Y-5358555D02*
X71325Y-5339507D01*
X71325Y-5339507D02*
X90373Y-5310936D01*
X90373Y-5310936D02*
X99897Y-5301412D01*
X157040Y-5329983D02*
X280849Y-5329983D01*
X280849Y-5329983D02*
X214182Y-5406174D01*
X214182Y-5406174D02*
X242754Y-5406174D01*
X242754Y-5406174D02*
X261802Y-5415698D01*
X261802Y-5415698D02*
X271325Y-5425221D01*
X271325Y-5425221D02*
X280849Y-5444269D01*
X280849Y-5444269D02*
X280849Y-5491888D01*
X280849Y-5491888D02*
X271325Y-5510936D01*
X271325Y-5510936D02*
X261802Y-5520460D01*
X261802Y-5520460D02*
X242754Y-5529983D01*
X242754Y-5529983D02*
X185611Y-5529983D01*
X185611Y-5529983D02*
X166564Y-5520460D01*
X166564Y-5520460D02*
X157040Y-5510936D01*
X518944Y-5529983D02*
X518944Y-5329983D01*
X604659Y-5529983D02*
X604659Y-5425221D01*
X604659Y-5425221D02*
X595135Y-5406174D01*
X595135Y-5406174D02*
X576087Y-5396650D01*
X576087Y-5396650D02*
X547516Y-5396650D01*
X547516Y-5396650D02*
X528468Y-5406174D01*
X528468Y-5406174D02*
X518944Y-5415698D01*
X728468Y-5529983D02*
X709421Y-5520460D01*
X709421Y-5520460D02*
X699897Y-5510936D01*
X699897Y-5510936D02*
X690373Y-5491888D01*
X690373Y-5491888D02*
X690373Y-5434745D01*
X690373Y-5434745D02*
X699897Y-5415698D01*
X699897Y-5415698D02*
X709421Y-5406174D01*
X709421Y-5406174D02*
X728468Y-5396650D01*
X728468Y-5396650D02*
X757040Y-5396650D01*
X757040Y-5396650D02*
X776087Y-5406174D01*
X776087Y-5406174D02*
X785611Y-5415698D01*
X785611Y-5415698D02*
X795135Y-5434745D01*
X795135Y-5434745D02*
X795135Y-5491888D01*
X795135Y-5491888D02*
X785611Y-5510936D01*
X785611Y-5510936D02*
X776087Y-5520460D01*
X776087Y-5520460D02*
X757040Y-5529983D01*
X757040Y-5529983D02*
X728468Y-5529983D01*
X909421Y-5529983D02*
X890373Y-5520460D01*
X890373Y-5520460D02*
X880849Y-5501412D01*
X880849Y-5501412D02*
X880849Y-5329983D01*
X1061802Y-5520460D02*
X1042754Y-5529983D01*
X1042754Y-5529983D02*
X1004659Y-5529983D01*
X1004659Y-5529983D02*
X985611Y-5520460D01*
X985611Y-5520460D02*
X976087Y-5501412D01*
X976087Y-5501412D02*
X976087Y-5425221D01*
X976087Y-5425221D02*
X985611Y-5406174D01*
X985611Y-5406174D02*
X1004659Y-5396650D01*
X1004659Y-5396650D02*
X1042754Y-5396650D01*
X1042754Y-5396650D02*
X1061802Y-5406174D01*
X1061802Y-5406174D02*
X1071326Y-5425221D01*
X1071326Y-5425221D02*
X1071326Y-5444269D01*
X1071326Y-5444269D02*
X976087Y-5463317D01*
X1147516Y-5520460D02*
X1166564Y-5529983D01*
X1166564Y-5529983D02*
X1204659Y-5529983D01*
X1204659Y-5529983D02*
X1223707Y-5520460D01*
X1223707Y-5520460D02*
X1233230Y-5501412D01*
X1233230Y-5501412D02*
X1233230Y-5491888D01*
X1233230Y-5491888D02*
X1223707Y-5472840D01*
X1223707Y-5472840D02*
X1204659Y-5463317D01*
X1204659Y-5463317D02*
X1176087Y-5463317D01*
X1176087Y-5463317D02*
X1157040Y-5453793D01*
X1157040Y-5453793D02*
X1147516Y-5434745D01*
X1147516Y-5434745D02*
X1147516Y-5425221D01*
X1147516Y-5425221D02*
X1157040Y-5406174D01*
X1157040Y-5406174D02*
X1176087Y-5396650D01*
X1176087Y-5396650D02*
X1204659Y-5396650D01*
X1204659Y-5396650D02*
X1223707Y-5406174D01*
X1471326Y-5453793D02*
X1623707Y-5453793D01*
X1547516Y-5529983D02*
X1547516Y-5377602D01*
X1852278Y-5329983D02*
X1976087Y-5329983D01*
X1976087Y-5329983D02*
X1909421Y-5406174D01*
X1909421Y-5406174D02*
X1937992Y-5406174D01*
X1937992Y-5406174D02*
X1957040Y-5415698D01*
X1957040Y-5415698D02*
X1966564Y-5425221D01*
X1966564Y-5425221D02*
X1976087Y-5444269D01*
X1976087Y-5444269D02*
X1976087Y-5491888D01*
X1976087Y-5491888D02*
X1966564Y-5510936D01*
X1966564Y-5510936D02*
X1957040Y-5520460D01*
X1957040Y-5520460D02*
X1937992Y-5529983D01*
X1937992Y-5529983D02*
X1880849Y-5529983D01*
X1880849Y-5529983D02*
X1861802Y-5520460D01*
X1861802Y-5520460D02*
X1852278Y-5510936D01*
X2204659Y-5520460D02*
X2223707Y-5529983D01*
X2223707Y-5529983D02*
X2261802Y-5529983D01*
X2261802Y-5529983D02*
X2280850Y-5520460D01*
X2280850Y-5520460D02*
X2290373Y-5501412D01*
X2290373Y-5501412D02*
X2290373Y-5491888D01*
X2290373Y-5491888D02*
X2280850Y-5472840D01*
X2280850Y-5472840D02*
X2261802Y-5463317D01*
X2261802Y-5463317D02*
X2233230Y-5463317D01*
X2233230Y-5463317D02*
X2214183Y-5453793D01*
X2214183Y-5453793D02*
X2204659Y-5434745D01*
X2204659Y-5434745D02*
X2204659Y-5425221D01*
X2204659Y-5425221D02*
X2214183Y-5406174D01*
X2214183Y-5406174D02*
X2233230Y-5396650D01*
X2233230Y-5396650D02*
X2261802Y-5396650D01*
X2261802Y-5396650D02*
X2280850Y-5406174D01*
X2404659Y-5529983D02*
X2385611Y-5520460D01*
X2385611Y-5520460D02*
X2376088Y-5501412D01*
X2376088Y-5501412D02*
X2376088Y-5329983D01*
X2509421Y-5529983D02*
X2490373Y-5520460D01*
X2490373Y-5520460D02*
X2480850Y-5510936D01*
X2480850Y-5510936D02*
X2471326Y-5491888D01*
X2471326Y-5491888D02*
X2471326Y-5434745D01*
X2471326Y-5434745D02*
X2480850Y-5415698D01*
X2480850Y-5415698D02*
X2490373Y-5406174D01*
X2490373Y-5406174D02*
X2509421Y-5396650D01*
X2509421Y-5396650D02*
X2537992Y-5396650D01*
X2537992Y-5396650D02*
X2557040Y-5406174D01*
X2557040Y-5406174D02*
X2566564Y-5415698D01*
X2566564Y-5415698D02*
X2576088Y-5434745D01*
X2576088Y-5434745D02*
X2576088Y-5491888D01*
X2576088Y-5491888D02*
X2566564Y-5510936D01*
X2566564Y-5510936D02*
X2557040Y-5520460D01*
X2557040Y-5520460D02*
X2537992Y-5529983D01*
X2537992Y-5529983D02*
X2509421Y-5529983D01*
X2633231Y-5396650D02*
X2709421Y-5396650D01*
X2661802Y-5329983D02*
X2661802Y-5501412D01*
X2661802Y-5501412D02*
X2671326Y-5520460D01*
X2671326Y-5520460D02*
X2690373Y-5529983D01*
X2690373Y-5529983D02*
X2709421Y-5529983D01*
X2766564Y-5520460D02*
X2785611Y-5529983D01*
X2785611Y-5529983D02*
X2823707Y-5529983D01*
X2823707Y-5529983D02*
X2842754Y-5520460D01*
X2842754Y-5520460D02*
X2852278Y-5501412D01*
X2852278Y-5501412D02*
X2852278Y-5491888D01*
X2852278Y-5491888D02*
X2842754Y-5472840D01*
X2842754Y-5472840D02*
X2823707Y-5463317D01*
X2823707Y-5463317D02*
X2795135Y-5463317D01*
X2795135Y-5463317D02*
X2776088Y-5453793D01*
X2776088Y-5453793D02*
X2766564Y-5434745D01*
X2766564Y-5434745D02*
X2766564Y-5425221D01*
X2766564Y-5425221D02*
X2776088Y-5406174D01*
X2776088Y-5406174D02*
X2795135Y-5396650D01*
X2795135Y-5396650D02*
X2823707Y-5396650D01*
X2823707Y-5396650D02*
X2842754Y-5406174D01*
X2918945Y-5606174D02*
X2928469Y-5596650D01*
X2928469Y-5596650D02*
X2947516Y-5568079D01*
X2947516Y-5568079D02*
X2957040Y-5549031D01*
X2957040Y-5549031D02*
X2966564Y-5520460D01*
X2966564Y-5520460D02*
X2976088Y-5472840D01*
X2976088Y-5472840D02*
X2976088Y-5434745D01*
X2976088Y-5434745D02*
X2966564Y-5387126D01*
X2966564Y-5387126D02*
X2957040Y-5358555D01*
X2957040Y-5358555D02*
X2947516Y-5339507D01*
X2947516Y-5339507D02*
X2928469Y-5310936D01*
X2928469Y-5310936D02*
X2918945Y-5301412D01*
D13*
X-3605166Y-5637499D02*
X-3475166Y-5767499D01*
X-3475166Y-5637499D02*
X-3605166Y-5767499D01*
X-3540166Y-5637499D02*
X-3540166Y-5767499D01*
X-3605166Y-5702499D02*
X-3475166Y-5702499D01*
D11*
X-3109627Y-5793983D02*
X-3223913Y-5793983D01*
X-3166770Y-5793983D02*
X-3166770Y-5593983D01*
X-3166770Y-5593983D02*
X-3185818Y-5622555D01*
X-3185818Y-5622555D02*
X-3204865Y-5641602D01*
X-3204865Y-5641602D02*
X-3223913Y-5651126D01*
X-3023913Y-5774936D02*
X-3014389Y-5784459D01*
X-3014389Y-5784459D02*
X-3023913Y-5793983D01*
X-3023913Y-5793983D02*
X-3033437Y-5784459D01*
X-3033437Y-5784459D02*
X-3023913Y-5774936D01*
X-3023913Y-5774936D02*
X-3023913Y-5793983D01*
X-2947722Y-5593983D02*
X-2823913Y-5593983D01*
X-2823913Y-5593983D02*
X-2890580Y-5670174D01*
X-2890580Y-5670174D02*
X-2862008Y-5670174D01*
X-2862008Y-5670174D02*
X-2842960Y-5679697D01*
X-2842960Y-5679697D02*
X-2833437Y-5689221D01*
X-2833437Y-5689221D02*
X-2823913Y-5708269D01*
X-2823913Y-5708269D02*
X-2823913Y-5755888D01*
X-2823913Y-5755888D02*
X-2833437Y-5774936D01*
X-2833437Y-5774936D02*
X-2842960Y-5784459D01*
X-2842960Y-5784459D02*
X-2862008Y-5793983D01*
X-2862008Y-5793983D02*
X-2919151Y-5793983D01*
X-2919151Y-5793983D02*
X-2938199Y-5784459D01*
X-2938199Y-5784459D02*
X-2947722Y-5774936D01*
X-2700103Y-5593983D02*
X-2681056Y-5593983D01*
X-2681056Y-5593983D02*
X-2662008Y-5603507D01*
X-2662008Y-5603507D02*
X-2652484Y-5613031D01*
X-2652484Y-5613031D02*
X-2642961Y-5632078D01*
X-2642961Y-5632078D02*
X-2633437Y-5670174D01*
X-2633437Y-5670174D02*
X-2633437Y-5717793D01*
X-2633437Y-5717793D02*
X-2642961Y-5755888D01*
X-2642961Y-5755888D02*
X-2652484Y-5774936D01*
X-2652484Y-5774936D02*
X-2662008Y-5784459D01*
X-2662008Y-5784459D02*
X-2681056Y-5793983D01*
X-2681056Y-5793983D02*
X-2700103Y-5793983D01*
X-2700103Y-5793983D02*
X-2719151Y-5784459D01*
X-2719151Y-5784459D02*
X-2728675Y-5774936D01*
X-2728675Y-5774936D02*
X-2738199Y-5755888D01*
X-2738199Y-5755888D02*
X-2747722Y-5717793D01*
X-2747722Y-5717793D02*
X-2747722Y-5670174D01*
X-2747722Y-5670174D02*
X-2738199Y-5632078D01*
X-2738199Y-5632078D02*
X-2728675Y-5613031D01*
X-2728675Y-5613031D02*
X-2719151Y-5603507D01*
X-2719151Y-5603507D02*
X-2700103Y-5593983D01*
X-2509627Y-5593983D02*
X-2490580Y-5593983D01*
X-2490580Y-5593983D02*
X-2471532Y-5603507D01*
X-2471532Y-5603507D02*
X-2462008Y-5613031D01*
X-2462008Y-5613031D02*
X-2452484Y-5632078D01*
X-2452484Y-5632078D02*
X-2442961Y-5670174D01*
X-2442961Y-5670174D02*
X-2442961Y-5717793D01*
X-2442961Y-5717793D02*
X-2452484Y-5755888D01*
X-2452484Y-5755888D02*
X-2462008Y-5774936D01*
X-2462008Y-5774936D02*
X-2471532Y-5784459D01*
X-2471532Y-5784459D02*
X-2490580Y-5793983D01*
X-2490580Y-5793983D02*
X-2509627Y-5793983D01*
X-2509627Y-5793983D02*
X-2528675Y-5784459D01*
X-2528675Y-5784459D02*
X-2538199Y-5774936D01*
X-2538199Y-5774936D02*
X-2547722Y-5755888D01*
X-2547722Y-5755888D02*
X-2557246Y-5717793D01*
X-2557246Y-5717793D02*
X-2557246Y-5670174D01*
X-2557246Y-5670174D02*
X-2547722Y-5632078D01*
X-2547722Y-5632078D02*
X-2538199Y-5613031D01*
X-2538199Y-5613031D02*
X-2528675Y-5603507D01*
X-2528675Y-5603507D02*
X-2509627Y-5593983D01*
X-2357246Y-5793983D02*
X-2357246Y-5660650D01*
X-2357246Y-5679697D02*
X-2347722Y-5670174D01*
X-2347722Y-5670174D02*
X-2328675Y-5660650D01*
X-2328675Y-5660650D02*
X-2300103Y-5660650D01*
X-2300103Y-5660650D02*
X-2281056Y-5670174D01*
X-2281056Y-5670174D02*
X-2271532Y-5689221D01*
X-2271532Y-5689221D02*
X-2271532Y-5793983D01*
X-2271532Y-5689221D02*
X-2262008Y-5670174D01*
X-2262008Y-5670174D02*
X-2242961Y-5660650D01*
X-2242961Y-5660650D02*
X-2214389Y-5660650D01*
X-2214389Y-5660650D02*
X-2195341Y-5670174D01*
X-2195341Y-5670174D02*
X-2185818Y-5689221D01*
X-2185818Y-5689221D02*
X-2185818Y-5793983D01*
X-2090579Y-5793983D02*
X-2090579Y-5660650D01*
X-2090579Y-5679697D02*
X-2081056Y-5670174D01*
X-2081056Y-5670174D02*
X-2062008Y-5660650D01*
X-2062008Y-5660650D02*
X-2033437Y-5660650D01*
X-2033437Y-5660650D02*
X-2014389Y-5670174D01*
X-2014389Y-5670174D02*
X-2004865Y-5689221D01*
X-2004865Y-5689221D02*
X-2004865Y-5793983D01*
X-2004865Y-5689221D02*
X-1995341Y-5670174D01*
X-1995341Y-5670174D02*
X-1976294Y-5660650D01*
X-1976294Y-5660650D02*
X-1947722Y-5660650D01*
X-1947722Y-5660650D02*
X-1928675Y-5670174D01*
X-1928675Y-5670174D02*
X-1919151Y-5689221D01*
X-1919151Y-5689221D02*
X-1919151Y-5793983D01*
X-1528675Y-5584460D02*
X-1700103Y-5841602D01*
X-1271532Y-5593983D02*
X-1252484Y-5593983D01*
X-1252484Y-5593983D02*
X-1233437Y-5603507D01*
X-1233437Y-5603507D02*
X-1223913Y-5613031D01*
X-1223913Y-5613031D02*
X-1214389Y-5632078D01*
X-1214389Y-5632078D02*
X-1204865Y-5670174D01*
X-1204865Y-5670174D02*
X-1204865Y-5717793D01*
X-1204865Y-5717793D02*
X-1214389Y-5755888D01*
X-1214389Y-5755888D02*
X-1223913Y-5774936D01*
X-1223913Y-5774936D02*
X-1233437Y-5784459D01*
X-1233437Y-5784459D02*
X-1252484Y-5793983D01*
X-1252484Y-5793983D02*
X-1271532Y-5793983D01*
X-1271532Y-5793983D02*
X-1290579Y-5784459D01*
X-1290579Y-5784459D02*
X-1300103Y-5774936D01*
X-1300103Y-5774936D02*
X-1309627Y-5755888D01*
X-1309627Y-5755888D02*
X-1319151Y-5717793D01*
X-1319151Y-5717793D02*
X-1319151Y-5670174D01*
X-1319151Y-5670174D02*
X-1309627Y-5632078D01*
X-1309627Y-5632078D02*
X-1300103Y-5613031D01*
X-1300103Y-5613031D02*
X-1290579Y-5603507D01*
X-1290579Y-5603507D02*
X-1271532Y-5593983D01*
X-1119151Y-5774936D02*
X-1109627Y-5784459D01*
X-1109627Y-5784459D02*
X-1119151Y-5793983D01*
X-1119151Y-5793983D02*
X-1128675Y-5784459D01*
X-1128675Y-5784459D02*
X-1119151Y-5774936D01*
X-1119151Y-5774936D02*
X-1119151Y-5793983D01*
X-985817Y-5593983D02*
X-966770Y-5593983D01*
X-966770Y-5593983D02*
X-947722Y-5603507D01*
X-947722Y-5603507D02*
X-938198Y-5613031D01*
X-938198Y-5613031D02*
X-928675Y-5632078D01*
X-928675Y-5632078D02*
X-919151Y-5670174D01*
X-919151Y-5670174D02*
X-919151Y-5717793D01*
X-919151Y-5717793D02*
X-928675Y-5755888D01*
X-928675Y-5755888D02*
X-938198Y-5774936D01*
X-938198Y-5774936D02*
X-947722Y-5784459D01*
X-947722Y-5784459D02*
X-966770Y-5793983D01*
X-966770Y-5793983D02*
X-985817Y-5793983D01*
X-985817Y-5793983D02*
X-1004865Y-5784459D01*
X-1004865Y-5784459D02*
X-1014389Y-5774936D01*
X-1014389Y-5774936D02*
X-1023913Y-5755888D01*
X-1023913Y-5755888D02*
X-1033436Y-5717793D01*
X-1033436Y-5717793D02*
X-1033436Y-5670174D01*
X-1033436Y-5670174D02*
X-1023913Y-5632078D01*
X-1023913Y-5632078D02*
X-1014389Y-5613031D01*
X-1014389Y-5613031D02*
X-1004865Y-5603507D01*
X-1004865Y-5603507D02*
X-985817Y-5593983D01*
X-738198Y-5593983D02*
X-833436Y-5593983D01*
X-833436Y-5593983D02*
X-842960Y-5689221D01*
X-842960Y-5689221D02*
X-833436Y-5679697D01*
X-833436Y-5679697D02*
X-814389Y-5670174D01*
X-814389Y-5670174D02*
X-766770Y-5670174D01*
X-766770Y-5670174D02*
X-747722Y-5679697D01*
X-747722Y-5679697D02*
X-738198Y-5689221D01*
X-738198Y-5689221D02*
X-728675Y-5708269D01*
X-728675Y-5708269D02*
X-728675Y-5755888D01*
X-728675Y-5755888D02*
X-738198Y-5774936D01*
X-738198Y-5774936D02*
X-747722Y-5784459D01*
X-747722Y-5784459D02*
X-766770Y-5793983D01*
X-766770Y-5793983D02*
X-814389Y-5793983D01*
X-814389Y-5793983D02*
X-833436Y-5784459D01*
X-833436Y-5784459D02*
X-842960Y-5774936D01*
X-538198Y-5793983D02*
X-652484Y-5793983D01*
X-595341Y-5793983D02*
X-595341Y-5593983D01*
X-595341Y-5593983D02*
X-614389Y-5622555D01*
X-614389Y-5622555D02*
X-633437Y-5641602D01*
X-633437Y-5641602D02*
X-652484Y-5651126D01*
X-462008Y-5613031D02*
X-452484Y-5603507D01*
X-452484Y-5603507D02*
X-433436Y-5593983D01*
X-433436Y-5593983D02*
X-385817Y-5593983D01*
X-385817Y-5593983D02*
X-366770Y-5603507D01*
X-366770Y-5603507D02*
X-357246Y-5613031D01*
X-357246Y-5613031D02*
X-347722Y-5632078D01*
X-347722Y-5632078D02*
X-347722Y-5651126D01*
X-347722Y-5651126D02*
X-357246Y-5679697D01*
X-357246Y-5679697D02*
X-471532Y-5793983D01*
X-471532Y-5793983D02*
X-347722Y-5793983D01*
X-271532Y-5593983D02*
X-271532Y-5632078D01*
X-195341Y-5593983D02*
X-195341Y-5632078D01*
X99897Y-5870174D02*
X90373Y-5860650D01*
X90373Y-5860650D02*
X71325Y-5832078D01*
X71325Y-5832078D02*
X61802Y-5813031D01*
X61802Y-5813031D02*
X52278Y-5784459D01*
X52278Y-5784459D02*
X42754Y-5736840D01*
X42754Y-5736840D02*
X42754Y-5698745D01*
X42754Y-5698745D02*
X52278Y-5651126D01*
X52278Y-5651126D02*
X61802Y-5622555D01*
X61802Y-5622555D02*
X71325Y-5603507D01*
X71325Y-5603507D02*
X90373Y-5574936D01*
X90373Y-5574936D02*
X99897Y-5565412D01*
X166564Y-5613031D02*
X176087Y-5603507D01*
X176087Y-5603507D02*
X195135Y-5593983D01*
X195135Y-5593983D02*
X242754Y-5593983D01*
X242754Y-5593983D02*
X261802Y-5603507D01*
X261802Y-5603507D02*
X271325Y-5613031D01*
X271325Y-5613031D02*
X280849Y-5632078D01*
X280849Y-5632078D02*
X280849Y-5651126D01*
X280849Y-5651126D02*
X271325Y-5679697D01*
X271325Y-5679697D02*
X157040Y-5793983D01*
X157040Y-5793983D02*
X280849Y-5793983D01*
X518944Y-5793983D02*
X518944Y-5593983D01*
X604659Y-5793983D02*
X604659Y-5689221D01*
X604659Y-5689221D02*
X595135Y-5670174D01*
X595135Y-5670174D02*
X576087Y-5660650D01*
X576087Y-5660650D02*
X547516Y-5660650D01*
X547516Y-5660650D02*
X528468Y-5670174D01*
X528468Y-5670174D02*
X518944Y-5679697D01*
X728468Y-5793983D02*
X709421Y-5784459D01*
X709421Y-5784459D02*
X699897Y-5774936D01*
X699897Y-5774936D02*
X690373Y-5755888D01*
X690373Y-5755888D02*
X690373Y-5698745D01*
X690373Y-5698745D02*
X699897Y-5679697D01*
X699897Y-5679697D02*
X709421Y-5670174D01*
X709421Y-5670174D02*
X728468Y-5660650D01*
X728468Y-5660650D02*
X757040Y-5660650D01*
X757040Y-5660650D02*
X776087Y-5670174D01*
X776087Y-5670174D02*
X785611Y-5679697D01*
X785611Y-5679697D02*
X795135Y-5698745D01*
X795135Y-5698745D02*
X795135Y-5755888D01*
X795135Y-5755888D02*
X785611Y-5774936D01*
X785611Y-5774936D02*
X776087Y-5784459D01*
X776087Y-5784459D02*
X757040Y-5793983D01*
X757040Y-5793983D02*
X728468Y-5793983D01*
X909421Y-5793983D02*
X890373Y-5784459D01*
X890373Y-5784459D02*
X880849Y-5765412D01*
X880849Y-5765412D02*
X880849Y-5593983D01*
X1061802Y-5784459D02*
X1042754Y-5793983D01*
X1042754Y-5793983D02*
X1004659Y-5793983D01*
X1004659Y-5793983D02*
X985611Y-5784459D01*
X985611Y-5784459D02*
X976087Y-5765412D01*
X976087Y-5765412D02*
X976087Y-5689221D01*
X976087Y-5689221D02*
X985611Y-5670174D01*
X985611Y-5670174D02*
X1004659Y-5660650D01*
X1004659Y-5660650D02*
X1042754Y-5660650D01*
X1042754Y-5660650D02*
X1061802Y-5670174D01*
X1061802Y-5670174D02*
X1071326Y-5689221D01*
X1071326Y-5689221D02*
X1071326Y-5708269D01*
X1071326Y-5708269D02*
X976087Y-5727317D01*
X1147516Y-5784459D02*
X1166564Y-5793983D01*
X1166564Y-5793983D02*
X1204659Y-5793983D01*
X1204659Y-5793983D02*
X1223707Y-5784459D01*
X1223707Y-5784459D02*
X1233230Y-5765412D01*
X1233230Y-5765412D02*
X1233230Y-5755888D01*
X1233230Y-5755888D02*
X1223707Y-5736840D01*
X1223707Y-5736840D02*
X1204659Y-5727317D01*
X1204659Y-5727317D02*
X1176087Y-5727317D01*
X1176087Y-5727317D02*
X1157040Y-5717793D01*
X1157040Y-5717793D02*
X1147516Y-5698745D01*
X1147516Y-5698745D02*
X1147516Y-5689221D01*
X1147516Y-5689221D02*
X1157040Y-5670174D01*
X1157040Y-5670174D02*
X1176087Y-5660650D01*
X1176087Y-5660650D02*
X1204659Y-5660650D01*
X1204659Y-5660650D02*
X1223707Y-5670174D01*
X1299897Y-5870174D02*
X1309421Y-5860650D01*
X1309421Y-5860650D02*
X1328468Y-5832078D01*
X1328468Y-5832078D02*
X1337992Y-5813031D01*
X1337992Y-5813031D02*
X1347516Y-5784459D01*
X1347516Y-5784459D02*
X1357040Y-5736840D01*
X1357040Y-5736840D02*
X1357040Y-5698745D01*
X1357040Y-5698745D02*
X1347516Y-5651126D01*
X1347516Y-5651126D02*
X1337992Y-5622555D01*
X1337992Y-5622555D02*
X1328468Y-5603507D01*
X1328468Y-5603507D02*
X1309421Y-5574936D01*
X1309421Y-5574936D02*
X1299897Y-5565412D01*
M02*
