%TF.GenerationSoftware,KiCad,Pcbnew,8.0.1*%
%TF.CreationDate,2024-06-06T10:38:12+02:00*%
%TF.ProjectId,led_strip_stand_lamp,6c65645f-7374-4726-9970-5f7374616e64,rev?*%
%TF.SameCoordinates,Original*%
%TF.FileFunction,Paste,Top*%
%TF.FilePolarity,Positive*%
%FSLAX46Y46*%
G04 Gerber Fmt 4.6, Leading zero omitted, Abs format (unit mm)*
G04 Created by KiCad (PCBNEW 8.0.1) date 2024-06-06 10:38:12*
%MOMM*%
%LPD*%
G01*
G04 APERTURE LIST*
G04 Aperture macros list*
%AMRoundRect*
0 Rectangle with rounded corners*
0 $1 Rounding radius*
0 $2 $3 $4 $5 $6 $7 $8 $9 X,Y pos of 4 corners*
0 Add a 4 corners polygon primitive as box body*
4,1,4,$2,$3,$4,$5,$6,$7,$8,$9,$2,$3,0*
0 Add four circle primitives for the rounded corners*
1,1,$1+$1,$2,$3*
1,1,$1+$1,$4,$5*
1,1,$1+$1,$6,$7*
1,1,$1+$1,$8,$9*
0 Add four rect primitives between the rounded corners*
20,1,$1+$1,$2,$3,$4,$5,0*
20,1,$1+$1,$4,$5,$6,$7,0*
20,1,$1+$1,$6,$7,$8,$9,0*
20,1,$1+$1,$8,$9,$2,$3,0*%
G04 Aperture macros list end*
%ADD10RoundRect,0.180000X0.200000X-0.180000X0.200000X0.180000X-0.200000X0.180000X-0.200000X-0.180000X0*%
%ADD11RoundRect,0.160000X-0.220000X0.160000X-0.220000X-0.160000X0.220000X-0.160000X0.220000X0.160000X0*%
%ADD12R,1.200000X0.720000*%
%ADD13R,0.720000X1.200000*%
%ADD14R,0.720000X0.720000*%
%ADD15RoundRect,0.180000X0.180000X0.200000X-0.180000X0.200000X-0.180000X-0.200000X0.180000X-0.200000X0*%
%ADD16RoundRect,0.160000X0.160000X0.220000X-0.160000X0.220000X-0.160000X-0.220000X0.160000X-0.220000X0*%
%ADD17RoundRect,0.200000X-0.520000X0.260000X-0.520000X-0.260000X0.520000X-0.260000X0.520000X0.260000X0*%
%ADD18RoundRect,0.175000X0.205000X-0.175000X0.205000X0.175000X-0.205000X0.175000X-0.205000X-0.175000X0*%
%ADD19RoundRect,0.200000X0.260000X0.520000X-0.260000X0.520000X-0.260000X-0.520000X0.260000X-0.520000X0*%
%ADD20RoundRect,0.175000X-0.175000X-0.205000X0.175000X-0.205000X0.175000X0.205000X-0.175000X0.205000X0*%
%ADD21RoundRect,0.200000X-0.300000X-0.500000X0.300000X-0.500000X0.300000X0.500000X-0.300000X0.500000X0*%
%ADD22RoundRect,0.160000X-0.160000X-0.220000X0.160000X-0.220000X0.160000X0.220000X-0.160000X0.220000X0*%
%ADD23RoundRect,0.180000X-0.180000X-0.200000X0.180000X-0.200000X0.180000X0.200000X-0.180000X0.200000X0*%
%ADD24RoundRect,0.250001X-0.354999X-0.354999X0.354999X-0.354999X0.354999X0.354999X-0.354999X0.354999X0*%
%ADD25RoundRect,0.080000X-0.540000X-0.080000X0.540000X-0.080000X0.540000X0.080000X-0.540000X0.080000X0*%
%ADD26R,0.800000X0.720000*%
%ADD27RoundRect,0.080000X-0.080000X0.180000X-0.080000X-0.180000X0.080000X-0.180000X0.080000X0.180000X0*%
%ADD28RoundRect,0.068000X-0.212000X-0.068000X0.212000X-0.068000X0.212000X0.068000X-0.212000X0.068000X0*%
%ADD29RoundRect,0.160000X0.220000X-0.160000X0.220000X0.160000X-0.220000X0.160000X-0.220000X-0.160000X0*%
%ADD30RoundRect,0.180000X-0.200000X0.180000X-0.200000X-0.180000X0.200000X-0.180000X0.200000X0.180000X0*%
%ADD31RoundRect,0.100000X0.100000X0.100000X-0.100000X0.100000X-0.100000X-0.100000X0.100000X-0.100000X0*%
%ADD32RoundRect,0.200000X-0.260000X-0.520000X0.260000X-0.520000X0.260000X0.520000X-0.260000X0.520000X0*%
%ADD33R,0.560000X1.600000*%
%ADD34RoundRect,0.100000X-0.100000X0.100000X-0.100000X-0.100000X0.100000X-0.100000X0.100000X0.100000X0*%
%ADD35RoundRect,0.120000X0.470000X0.120000X-0.470000X0.120000X-0.470000X-0.120000X0.470000X-0.120000X0*%
%ADD36RoundRect,0.120000X-0.120000X0.470000X-0.120000X-0.470000X0.120000X-0.470000X0.120000X0.470000X0*%
%ADD37RoundRect,0.250000X-0.275000X-0.275000X0.275000X-0.275000X0.275000X0.275000X-0.275000X0.275000X0*%
%ADD38RoundRect,0.050000X-0.280000X-0.050000X0.280000X-0.050000X0.280000X0.050000X-0.280000X0.050000X0*%
%ADD39RoundRect,0.050000X-0.050000X-0.280000X0.050000X-0.280000X0.050000X0.280000X-0.050000X0.280000X0*%
%ADD40RoundRect,0.120000X-0.410000X-0.120000X0.410000X-0.120000X0.410000X0.120000X-0.410000X0.120000X0*%
%ADD41R,1.040000X0.360000*%
G04 APERTURE END LIST*
D10*
%TO.C,C18*%
X10277011Y3734149D03*
X10277011Y5284149D03*
%TD*%
D11*
%TO.C,R31*%
X14199408Y-8906209D03*
X14199408Y-10556209D03*
%TD*%
D12*
%TO.C,U1*%
X9120000Y-25760000D03*
X9120000Y-24490000D03*
X9120000Y-23220000D03*
X9120000Y-21950000D03*
X9120000Y-20680000D03*
X9120000Y-19410000D03*
X9120000Y-18140000D03*
X9120000Y-16870000D03*
X9120000Y-15600000D03*
X9120000Y-14330000D03*
X9120000Y-13060000D03*
X9120000Y-11790000D03*
X9120000Y-10520000D03*
X9120000Y-9250000D03*
D13*
X6080000Y-8000000D03*
X4810000Y-8000000D03*
X3540000Y-8000000D03*
X2270000Y-8000000D03*
X1000000Y-8000000D03*
X-270000Y-8000000D03*
X-1540000Y-8000000D03*
X-2810000Y-8000000D03*
X-4080000Y-8000000D03*
X-5350000Y-8000000D03*
D12*
X-8380000Y-9250000D03*
X-8380000Y-10520000D03*
X-8380000Y-11790000D03*
X-8380000Y-13060000D03*
X-8380000Y-14330000D03*
X-8380000Y-15600000D03*
X-8380000Y-16870000D03*
X-8380000Y-18140000D03*
X-8380000Y-19410000D03*
X-8380000Y-20680000D03*
X-8380000Y-21950000D03*
X-8380000Y-23220000D03*
X-8380000Y-24490000D03*
X-8380000Y-25760000D03*
D14*
X3270000Y-19440000D03*
X3270000Y-18040000D03*
X3270000Y-16640000D03*
X1870000Y-19440000D03*
X1870000Y-18040000D03*
X1870000Y-16640000D03*
X470000Y-19440000D03*
X470000Y-18040000D03*
X470000Y-16640000D03*
%TD*%
D11*
%TO.C,R2*%
X-14000000Y-24175000D03*
X-14000000Y-25825000D03*
%TD*%
D15*
%TO.C,C7*%
X-23725000Y16500000D03*
X-25275000Y16500000D03*
%TD*%
D16*
%TO.C,R20*%
X-4442292Y12794371D03*
X-6092292Y12794371D03*
%TD*%
D17*
%TO.C,C24*%
X24500000Y-6500000D03*
X24500000Y-9450000D03*
%TD*%
D15*
%TO.C,C6*%
X-22950000Y-4500000D03*
X-24500000Y-4500000D03*
%TD*%
D18*
%TO.C,D6*%
X-14578652Y25245734D03*
X-14578652Y26820734D03*
%TD*%
D19*
%TO.C,C9*%
X-24000000Y12000000D03*
X-26950000Y12000000D03*
%TD*%
D11*
%TO.C,R4*%
X-11500000Y-9000000D03*
X-11500000Y-10650000D03*
%TD*%
D20*
%TO.C,D3*%
X-32787500Y6500000D03*
X-31212500Y6500000D03*
%TD*%
D21*
%TO.C,F1*%
X2600000Y20500000D03*
X5400000Y20500000D03*
%TD*%
D15*
%TO.C,C15*%
X-4487615Y14348043D03*
X-6037615Y14348043D03*
%TD*%
D22*
%TO.C,R25*%
X15500000Y9500000D03*
X17150000Y9500000D03*
%TD*%
D23*
%TO.C,C13*%
X-20775000Y11000000D03*
X-19225000Y11000000D03*
%TD*%
D10*
%TO.C,C3*%
X-12500000Y-25775000D03*
X-12500000Y-24225000D03*
%TD*%
D24*
%TO.C,U6*%
X3000000Y15675845D03*
X3000000Y14175845D03*
X4500000Y15675845D03*
X4500000Y14175845D03*
D25*
X875000Y17200845D03*
X875000Y16550845D03*
X875000Y15900845D03*
X875000Y15250845D03*
X875000Y14600845D03*
X875000Y13950845D03*
X875000Y13300845D03*
X875000Y12650845D03*
X6625000Y12650845D03*
X6625000Y13300845D03*
X6625000Y13950845D03*
X6625000Y14600845D03*
X6625000Y15250845D03*
X6625000Y15900845D03*
X6625000Y16550845D03*
X6625000Y17200845D03*
%TD*%
D11*
%TO.C,R8*%
X-12500000Y3325000D03*
X-12500000Y1675000D03*
%TD*%
D23*
%TO.C,C19*%
X15550000Y11000000D03*
X17100000Y11000000D03*
%TD*%
D20*
%TO.C,FB1*%
X-24500000Y-3000000D03*
X-22925000Y-3000000D03*
%TD*%
D26*
%TO.C,SW1*%
X-28200000Y-9459226D03*
X-28200000Y-13559226D03*
X-29800000Y-9459226D03*
X-29800000Y-13559226D03*
%TD*%
D16*
%TO.C,R26*%
X17150000Y8000000D03*
X15500000Y8000000D03*
%TD*%
D10*
%TO.C,C23*%
X12699408Y-10506209D03*
X12699408Y-8956209D03*
%TD*%
D23*
%TO.C,C22*%
X13450000Y-18500000D03*
X15000000Y-18500000D03*
%TD*%
D27*
%TO.C,U5*%
X16000000Y1900000D03*
X15350000Y1900000D03*
X14700000Y1900000D03*
X14700000Y0D03*
X16000000Y0D03*
%TD*%
D28*
%TO.C,U4*%
X-21000000Y14000000D03*
X-21000000Y13500000D03*
X-21000000Y13000000D03*
X-19500000Y13000000D03*
X-19500000Y13500000D03*
X-19500000Y14000000D03*
%TD*%
D15*
%TO.C,C17*%
X-4487615Y15910077D03*
X-6037615Y15910077D03*
%TD*%
D29*
%TO.C,R28*%
X-13000000Y25175000D03*
X-13000000Y26825000D03*
%TD*%
D22*
%TO.C,R17*%
X12675000Y-12000000D03*
X14325000Y-12000000D03*
%TD*%
D16*
%TO.C,R27*%
X17150000Y6500000D03*
X15500000Y6500000D03*
%TD*%
D19*
%TO.C,C8*%
X-24000000Y14500000D03*
X-26950000Y14500000D03*
%TD*%
D22*
%TO.C,R14*%
X-15525140Y21576473D03*
X-13875140Y21576473D03*
%TD*%
D23*
%TO.C,C14*%
X16005642Y-1656574D03*
X17555642Y-1656574D03*
%TD*%
D30*
%TO.C,C2*%
X11500000Y-24446565D03*
X11500000Y-25996565D03*
%TD*%
D29*
%TO.C,R1*%
X-15500000Y-25825000D03*
X-15500000Y-24175000D03*
%TD*%
%TO.C,R12*%
X-15500000Y5881794D03*
X-15500000Y7531794D03*
%TD*%
D16*
%TO.C,R13*%
X-23675000Y18000000D03*
X-25325000Y18000000D03*
%TD*%
%TO.C,R10*%
X-27850000Y6500000D03*
X-29500000Y6500000D03*
%TD*%
D22*
%TO.C,R22*%
X9500000Y15000000D03*
X11150000Y15000000D03*
%TD*%
D29*
%TO.C,R15*%
X-12250000Y15350000D03*
X-12250000Y17000000D03*
%TD*%
D16*
%TO.C,R29*%
X-11175000Y-21000000D03*
X-12825000Y-21000000D03*
%TD*%
D23*
%TO.C,C20*%
X13450000Y-20000000D03*
X15000000Y-20000000D03*
%TD*%
D31*
%TO.C,D5*%
X11500000Y18500000D03*
X9300000Y18500000D03*
%TD*%
D32*
%TO.C,C10*%
X-15475000Y19500000D03*
X-12525000Y19500000D03*
%TD*%
D17*
%TO.C,C1*%
X13918017Y-22948930D03*
X13918017Y-25898930D03*
%TD*%
D11*
%TO.C,R7*%
X-18000000Y-4000000D03*
X-18000000Y-5650000D03*
%TD*%
D30*
%TO.C,C4*%
X-14500000Y-9000000D03*
X-14500000Y-10550000D03*
%TD*%
D17*
%TO.C,C11*%
X-13500000Y12000000D03*
X-13500000Y9050000D03*
%TD*%
D15*
%TO.C,C12*%
X-12229024Y13904443D03*
X-13779024Y13904443D03*
%TD*%
D33*
%TO.C,L1*%
X-17225000Y11000000D03*
X-15775000Y11000000D03*
%TD*%
D26*
%TO.C,SW2*%
X-23122767Y-13550000D03*
X-23122767Y-9450000D03*
X-21522767Y-13550000D03*
X-21522767Y-9450000D03*
%TD*%
D11*
%TO.C,R21*%
X8777011Y5334149D03*
X8777011Y3684149D03*
%TD*%
D18*
%TO.C,D1*%
X-14000000Y1728054D03*
X-14000000Y3303054D03*
%TD*%
D22*
%TO.C,R23*%
X8675000Y11000000D03*
X10325000Y11000000D03*
%TD*%
D29*
%TO.C,R3*%
X-13000000Y-10650000D03*
X-13000000Y-9000000D03*
%TD*%
%TO.C,R32*%
X15732643Y-10547314D03*
X15732643Y-8897314D03*
%TD*%
D34*
%TO.C,D4*%
X-23000000Y7600000D03*
X-23000000Y5400000D03*
%TD*%
D18*
%TO.C,D2*%
X-14000000Y-3787500D03*
X-14000000Y-2212500D03*
%TD*%
D23*
%TO.C,C16*%
X-6050000Y19000000D03*
X-4500000Y19000000D03*
%TD*%
D35*
%TO.C,Q1*%
X10500000Y-3500000D03*
X10500000Y-1600000D03*
X8625000Y-2550000D03*
%TD*%
D36*
%TO.C,U7*%
X21400000Y-6500000D03*
X19500000Y-6500000D03*
X20450000Y-8375000D03*
%TD*%
D11*
%TO.C,R24*%
X12500000Y325000D03*
X12500000Y-1325000D03*
%TD*%
D20*
%TO.C,D7*%
X-23075000Y-15500000D03*
X-21500000Y-15500000D03*
%TD*%
D11*
%TO.C,R9*%
X-12500000Y-2175000D03*
X-12500000Y-3825000D03*
%TD*%
D29*
%TO.C,R5*%
X-16485817Y-5657236D03*
X-16485817Y-4007236D03*
%TD*%
D19*
%TO.C,C5*%
X-23050000Y-6500000D03*
X-26000000Y-6500000D03*
%TD*%
D29*
%TO.C,R6*%
X-19500000Y-5650000D03*
X-19500000Y-4000000D03*
%TD*%
D37*
%TO.C,U2*%
X-18900000Y1212500D03*
X-18900000Y-87500D03*
X-17600000Y1212500D03*
X-17600000Y-87500D03*
D38*
X-20187500Y1812500D03*
X-20187500Y1312500D03*
X-20187500Y812500D03*
X-20187500Y312500D03*
X-20187500Y-187500D03*
X-20187500Y-687500D03*
D39*
X-19500000Y-1375000D03*
X-19000000Y-1375000D03*
X-18500000Y-1375000D03*
X-18000000Y-1375000D03*
X-17500000Y-1375000D03*
X-17000000Y-1375000D03*
D38*
X-16312500Y-687500D03*
X-16312500Y-187500D03*
X-16312500Y312500D03*
X-16312500Y812500D03*
X-16312500Y1312500D03*
X-16312500Y1812500D03*
D39*
X-17000000Y2500000D03*
X-17500000Y2500000D03*
X-18000000Y2500000D03*
X-18500000Y2500000D03*
X-19000000Y2500000D03*
X-19500000Y2500000D03*
%TD*%
D29*
%TO.C,R11*%
X-17028169Y5887110D03*
X-17028169Y7537110D03*
%TD*%
D11*
%TO.C,R16*%
X-13750000Y17000000D03*
X-13750000Y15350000D03*
%TD*%
D20*
%TO.C,D8*%
X-23075534Y-17273263D03*
X-21500534Y-17273263D03*
%TD*%
D16*
%TO.C,R19*%
X-4445038Y17482519D03*
X-6095038Y17482519D03*
%TD*%
D32*
%TO.C,C25*%
X16014651Y-3772521D03*
X18964651Y-3772521D03*
%TD*%
D16*
%TO.C,R30*%
X-11175000Y-19500000D03*
X-12825000Y-19500000D03*
%TD*%
D40*
%TO.C,U3*%
X-25500000Y1500000D03*
X-25500000Y550000D03*
X-25500000Y-400000D03*
X-23225000Y-400000D03*
X-23225000Y550000D03*
X-23225000Y1500000D03*
%TD*%
D22*
%TO.C,R18*%
X-6100000Y20500000D03*
X-4450000Y20500000D03*
%TD*%
D41*
%TO.C,J1*%
X-29100000Y1562034D03*
X-29100000Y912034D03*
X-29100000Y262034D03*
X-29100000Y-387966D03*
X-29100000Y-1037966D03*
%TD*%
M02*
